G04 #@! TF.GenerationSoftware,KiCad,Pcbnew,5.1.5-52549c5~84~ubuntu18.04.1*
G04 #@! TF.CreationDate,2020-02-10T01:03:59+09:00*
G04 #@! TF.ProjectId,I2CMotorsForM5Stack,4932434d-6f74-46f7-9273-466f724d3553,rev?*
G04 #@! TF.SameCoordinates,Original*
G04 #@! TF.FileFunction,Legend,Top*
G04 #@! TF.FilePolarity,Positive*
%FSLAX46Y46*%
G04 Gerber Fmt 4.6, Leading zero omitted, Abs format (unit mm)*
G04 Created by KiCad (PCBNEW 5.1.5-52549c5~84~ubuntu18.04.1) date 2020-02-10 01:03:59*
%MOMM*%
%LPD*%
G04 APERTURE LIST*
%ADD10C,0.150000*%
%ADD11C,0.325000*%
%ADD12C,0.175000*%
%ADD13C,0.200000*%
%ADD14C,0.120000*%
%ADD15R,3.500000X3.500000*%
%ADD16C,0.100000*%
%ADD17O,2.100000X2.100000*%
%ADD18R,2.100000X2.100000*%
%ADD19R,2.150000X0.850000*%
%ADD20C,3.400000*%
%ADD21R,3.400000X3.400000*%
%ADD22C,3.600000*%
%ADD23C,2.600000*%
%ADD24O,1.800000X1.100000*%
G04 APERTURE END LIST*
D10*
X9937314Y-6290066D02*
X10413504Y-6290066D01*
X9842076Y-6575780D02*
X10175409Y-5575780D01*
X10508742Y-6575780D01*
X10842076Y-6575780D02*
X10842076Y-5575780D01*
X11080171Y-5575780D01*
X11223028Y-5623400D01*
X11318266Y-5718638D01*
X11365885Y-5813876D01*
X11413504Y-6004352D01*
X11413504Y-6147209D01*
X11365885Y-6337685D01*
X11318266Y-6432923D01*
X11223028Y-6528161D01*
X11080171Y-6575780D01*
X10842076Y-6575780D01*
X11842076Y-6575780D02*
X11842076Y-5575780D01*
X12080171Y-5575780D01*
X12223028Y-5623400D01*
X12318266Y-5718638D01*
X12365885Y-5813876D01*
X12413504Y-6004352D01*
X12413504Y-6147209D01*
X12365885Y-6337685D01*
X12318266Y-6432923D01*
X12223028Y-6528161D01*
X12080171Y-6575780D01*
X11842076Y-6575780D01*
X13413504Y-6575780D02*
X13080171Y-6099590D01*
X12842076Y-6575780D02*
X12842076Y-5575780D01*
X13223028Y-5575780D01*
X13318266Y-5623400D01*
X13365885Y-5671019D01*
X13413504Y-5766257D01*
X13413504Y-5909114D01*
X13365885Y-6004352D01*
X13318266Y-6051971D01*
X13223028Y-6099590D01*
X12842076Y-6099590D01*
X13794457Y-5671019D02*
X13842076Y-5623400D01*
X13937314Y-5575780D01*
X14175409Y-5575780D01*
X14270647Y-5623400D01*
X14318266Y-5671019D01*
X14365885Y-5766257D01*
X14365885Y-5861495D01*
X14318266Y-6004352D01*
X13746838Y-6575780D01*
X14365885Y-6575780D01*
X10062314Y-3715066D02*
X10538504Y-3715066D01*
X9967076Y-4000780D02*
X10300409Y-3000780D01*
X10633742Y-4000780D01*
X10967076Y-4000780D02*
X10967076Y-3000780D01*
X11205171Y-3000780D01*
X11348028Y-3048400D01*
X11443266Y-3143638D01*
X11490885Y-3238876D01*
X11538504Y-3429352D01*
X11538504Y-3572209D01*
X11490885Y-3762685D01*
X11443266Y-3857923D01*
X11348028Y-3953161D01*
X11205171Y-4000780D01*
X10967076Y-4000780D01*
X11967076Y-4000780D02*
X11967076Y-3000780D01*
X12205171Y-3000780D01*
X12348028Y-3048400D01*
X12443266Y-3143638D01*
X12490885Y-3238876D01*
X12538504Y-3429352D01*
X12538504Y-3572209D01*
X12490885Y-3762685D01*
X12443266Y-3857923D01*
X12348028Y-3953161D01*
X12205171Y-4000780D01*
X11967076Y-4000780D01*
X13538504Y-4000780D02*
X13205171Y-3524590D01*
X12967076Y-4000780D02*
X12967076Y-3000780D01*
X13348028Y-3000780D01*
X13443266Y-3048400D01*
X13490885Y-3096019D01*
X13538504Y-3191257D01*
X13538504Y-3334114D01*
X13490885Y-3429352D01*
X13443266Y-3476971D01*
X13348028Y-3524590D01*
X12967076Y-3524590D01*
X14490885Y-4000780D02*
X13919457Y-4000780D01*
X14205171Y-4000780D02*
X14205171Y-3000780D01*
X14109933Y-3143638D01*
X14014695Y-3238876D01*
X13919457Y-3286495D01*
X24481361Y-34900780D02*
X24148028Y-34424590D01*
X23909933Y-34900780D02*
X23909933Y-33900780D01*
X24290885Y-33900780D01*
X24386123Y-33948400D01*
X24433742Y-33996019D01*
X24481361Y-34091257D01*
X24481361Y-34234114D01*
X24433742Y-34329352D01*
X24386123Y-34376971D01*
X24290885Y-34424590D01*
X23909933Y-34424590D01*
X25290885Y-34853161D02*
X25195647Y-34900780D01*
X25005171Y-34900780D01*
X24909933Y-34853161D01*
X24862314Y-34757923D01*
X24862314Y-34376971D01*
X24909933Y-34281733D01*
X25005171Y-34234114D01*
X25195647Y-34234114D01*
X25290885Y-34281733D01*
X25338504Y-34376971D01*
X25338504Y-34472209D01*
X24862314Y-34567447D01*
X25671838Y-34234114D02*
X25909933Y-34900780D01*
X26148028Y-34234114D01*
X26481361Y-33996019D02*
X26528980Y-33948400D01*
X26624219Y-33900780D01*
X26862314Y-33900780D01*
X26957552Y-33948400D01*
X27005171Y-33996019D01*
X27052790Y-34091257D01*
X27052790Y-34186495D01*
X27005171Y-34329352D01*
X26433742Y-34900780D01*
X27052790Y-34900780D01*
X27671838Y-33900780D02*
X27767076Y-33900780D01*
X27862314Y-33948400D01*
X27909933Y-33996019D01*
X27957552Y-34091257D01*
X28005171Y-34281733D01*
X28005171Y-34519828D01*
X27957552Y-34710304D01*
X27909933Y-34805542D01*
X27862314Y-34853161D01*
X27767076Y-34900780D01*
X27671838Y-34900780D01*
X27576600Y-34853161D01*
X27528980Y-34805542D01*
X27481361Y-34710304D01*
X27433742Y-34519828D01*
X27433742Y-34281733D01*
X27481361Y-34091257D01*
X27528980Y-33996019D01*
X27576600Y-33948400D01*
X27671838Y-33900780D01*
X28386123Y-33996019D02*
X28433742Y-33948400D01*
X28528980Y-33900780D01*
X28767076Y-33900780D01*
X28862314Y-33948400D01*
X28909933Y-33996019D01*
X28957552Y-34091257D01*
X28957552Y-34186495D01*
X28909933Y-34329352D01*
X28338504Y-34900780D01*
X28957552Y-34900780D01*
X29576600Y-33900780D02*
X29671838Y-33900780D01*
X29767076Y-33948400D01*
X29814695Y-33996019D01*
X29862314Y-34091257D01*
X29909933Y-34281733D01*
X29909933Y-34519828D01*
X29862314Y-34710304D01*
X29814695Y-34805542D01*
X29767076Y-34853161D01*
X29671838Y-34900780D01*
X29576600Y-34900780D01*
X29481361Y-34853161D01*
X29433742Y-34805542D01*
X29386123Y-34710304D01*
X29338504Y-34519828D01*
X29338504Y-34281733D01*
X29386123Y-34091257D01*
X29433742Y-33996019D01*
X29481361Y-33948400D01*
X29576600Y-33900780D01*
X30338504Y-34805542D02*
X30386123Y-34853161D01*
X30338504Y-34900780D01*
X30290885Y-34853161D01*
X30338504Y-34805542D01*
X30338504Y-34900780D01*
X31005171Y-33900780D02*
X31100409Y-33900780D01*
X31195647Y-33948400D01*
X31243266Y-33996019D01*
X31290885Y-34091257D01*
X31338504Y-34281733D01*
X31338504Y-34519828D01*
X31290885Y-34710304D01*
X31243266Y-34805542D01*
X31195647Y-34853161D01*
X31100409Y-34900780D01*
X31005171Y-34900780D01*
X30909933Y-34853161D01*
X30862314Y-34805542D01*
X30814695Y-34710304D01*
X30767076Y-34519828D01*
X30767076Y-34281733D01*
X30814695Y-34091257D01*
X30862314Y-33996019D01*
X30909933Y-33948400D01*
X31005171Y-33900780D01*
X31719457Y-33996019D02*
X31767076Y-33948400D01*
X31862314Y-33900780D01*
X32100409Y-33900780D01*
X32195647Y-33948400D01*
X32243266Y-33996019D01*
X32290885Y-34091257D01*
X32290885Y-34186495D01*
X32243266Y-34329352D01*
X31671838Y-34900780D01*
X32290885Y-34900780D01*
D11*
X12342076Y-32911495D02*
X12342076Y-31611495D01*
X12899219Y-31735304D02*
X12961123Y-31673400D01*
X13084933Y-31611495D01*
X13394457Y-31611495D01*
X13518266Y-31673400D01*
X13580171Y-31735304D01*
X13642076Y-31859114D01*
X13642076Y-31982923D01*
X13580171Y-32168638D01*
X12837314Y-32911495D01*
X13642076Y-32911495D01*
X14942076Y-32787685D02*
X14880171Y-32849590D01*
X14694457Y-32911495D01*
X14570647Y-32911495D01*
X14384933Y-32849590D01*
X14261123Y-32725780D01*
X14199219Y-32601971D01*
X14137314Y-32354352D01*
X14137314Y-32168638D01*
X14199219Y-31921019D01*
X14261123Y-31797209D01*
X14384933Y-31673400D01*
X14570647Y-31611495D01*
X14694457Y-31611495D01*
X14880171Y-31673400D01*
X14942076Y-31735304D01*
X15499219Y-32911495D02*
X15499219Y-31611495D01*
X15932552Y-32540066D01*
X16365885Y-31611495D01*
X16365885Y-32911495D01*
X17170647Y-32911495D02*
X17046838Y-32849590D01*
X16984933Y-32787685D01*
X16923028Y-32663876D01*
X16923028Y-32292447D01*
X16984933Y-32168638D01*
X17046838Y-32106733D01*
X17170647Y-32044828D01*
X17356361Y-32044828D01*
X17480171Y-32106733D01*
X17542076Y-32168638D01*
X17603980Y-32292447D01*
X17603980Y-32663876D01*
X17542076Y-32787685D01*
X17480171Y-32849590D01*
X17356361Y-32911495D01*
X17170647Y-32911495D01*
X17975409Y-32044828D02*
X18470647Y-32044828D01*
X18161123Y-31611495D02*
X18161123Y-32725780D01*
X18223028Y-32849590D01*
X18346838Y-32911495D01*
X18470647Y-32911495D01*
X19089695Y-32911495D02*
X18965885Y-32849590D01*
X18903980Y-32787685D01*
X18842076Y-32663876D01*
X18842076Y-32292447D01*
X18903980Y-32168638D01*
X18965885Y-32106733D01*
X19089695Y-32044828D01*
X19275409Y-32044828D01*
X19399219Y-32106733D01*
X19461123Y-32168638D01*
X19523028Y-32292447D01*
X19523028Y-32663876D01*
X19461123Y-32787685D01*
X19399219Y-32849590D01*
X19275409Y-32911495D01*
X19089695Y-32911495D01*
X20080171Y-32911495D02*
X20080171Y-32044828D01*
X20080171Y-32292447D02*
X20142076Y-32168638D01*
X20203980Y-32106733D01*
X20327790Y-32044828D01*
X20451600Y-32044828D01*
X20823028Y-32849590D02*
X20946838Y-32911495D01*
X21194457Y-32911495D01*
X21318266Y-32849590D01*
X21380171Y-32725780D01*
X21380171Y-32663876D01*
X21318266Y-32540066D01*
X21194457Y-32478161D01*
X21008742Y-32478161D01*
X20884933Y-32416257D01*
X20823028Y-32292447D01*
X20823028Y-32230542D01*
X20884933Y-32106733D01*
X21008742Y-32044828D01*
X21194457Y-32044828D01*
X21318266Y-32106733D01*
X22370647Y-32230542D02*
X21937314Y-32230542D01*
X21937314Y-32911495D02*
X21937314Y-31611495D01*
X22556361Y-31611495D01*
X23237314Y-32911495D02*
X23113504Y-32849590D01*
X23051600Y-32787685D01*
X22989695Y-32663876D01*
X22989695Y-32292447D01*
X23051600Y-32168638D01*
X23113504Y-32106733D01*
X23237314Y-32044828D01*
X23423028Y-32044828D01*
X23546838Y-32106733D01*
X23608742Y-32168638D01*
X23670647Y-32292447D01*
X23670647Y-32663876D01*
X23608742Y-32787685D01*
X23546838Y-32849590D01*
X23423028Y-32911495D01*
X23237314Y-32911495D01*
X24227790Y-32911495D02*
X24227790Y-32044828D01*
X24227790Y-32292447D02*
X24289695Y-32168638D01*
X24351600Y-32106733D01*
X24475409Y-32044828D01*
X24599219Y-32044828D01*
X25032552Y-32911495D02*
X25032552Y-31611495D01*
X25465885Y-32540066D01*
X25899219Y-31611495D01*
X25899219Y-32911495D01*
X27137314Y-31611495D02*
X26518266Y-31611495D01*
X26456361Y-32230542D01*
X26518266Y-32168638D01*
X26642076Y-32106733D01*
X26951600Y-32106733D01*
X27075409Y-32168638D01*
X27137314Y-32230542D01*
X27199219Y-32354352D01*
X27199219Y-32663876D01*
X27137314Y-32787685D01*
X27075409Y-32849590D01*
X26951600Y-32911495D01*
X26642076Y-32911495D01*
X26518266Y-32849590D01*
X26456361Y-32787685D01*
X27694457Y-32849590D02*
X27880171Y-32911495D01*
X28189695Y-32911495D01*
X28313504Y-32849590D01*
X28375409Y-32787685D01*
X28437314Y-32663876D01*
X28437314Y-32540066D01*
X28375409Y-32416257D01*
X28313504Y-32354352D01*
X28189695Y-32292447D01*
X27942076Y-32230542D01*
X27818266Y-32168638D01*
X27756361Y-32106733D01*
X27694457Y-31982923D01*
X27694457Y-31859114D01*
X27756361Y-31735304D01*
X27818266Y-31673400D01*
X27942076Y-31611495D01*
X28251600Y-31611495D01*
X28437314Y-31673400D01*
X28808742Y-32044828D02*
X29303980Y-32044828D01*
X28994457Y-31611495D02*
X28994457Y-32725780D01*
X29056361Y-32849590D01*
X29180171Y-32911495D01*
X29303980Y-32911495D01*
X30294457Y-32911495D02*
X30294457Y-32230542D01*
X30232552Y-32106733D01*
X30108742Y-32044828D01*
X29861123Y-32044828D01*
X29737314Y-32106733D01*
X30294457Y-32849590D02*
X30170647Y-32911495D01*
X29861123Y-32911495D01*
X29737314Y-32849590D01*
X29675409Y-32725780D01*
X29675409Y-32601971D01*
X29737314Y-32478161D01*
X29861123Y-32416257D01*
X30170647Y-32416257D01*
X30294457Y-32354352D01*
X31470647Y-32849590D02*
X31346838Y-32911495D01*
X31099219Y-32911495D01*
X30975409Y-32849590D01*
X30913504Y-32787685D01*
X30851600Y-32663876D01*
X30851600Y-32292447D01*
X30913504Y-32168638D01*
X30975409Y-32106733D01*
X31099219Y-32044828D01*
X31346838Y-32044828D01*
X31470647Y-32106733D01*
X32027790Y-32911495D02*
X32027790Y-31611495D01*
X32151600Y-32416257D02*
X32523028Y-32911495D01*
X32523028Y-32044828D02*
X32027790Y-32540066D01*
D10*
X29367076Y-25248400D02*
X29290885Y-25210304D01*
X29176600Y-25210304D01*
X29062314Y-25248400D01*
X28986123Y-25324590D01*
X28948028Y-25400780D01*
X28909933Y-25553161D01*
X28909933Y-25667447D01*
X28948028Y-25819828D01*
X28986123Y-25896019D01*
X29062314Y-25972209D01*
X29176600Y-26010304D01*
X29252790Y-26010304D01*
X29367076Y-25972209D01*
X29405171Y-25934114D01*
X29405171Y-25667447D01*
X29252790Y-25667447D01*
X29748028Y-26010304D02*
X29748028Y-25210304D01*
X30205171Y-26010304D01*
X30205171Y-25210304D01*
X30586123Y-26010304D02*
X30586123Y-25210304D01*
X30776600Y-25210304D01*
X30890885Y-25248400D01*
X30967076Y-25324590D01*
X31005171Y-25400780D01*
X31043266Y-25553161D01*
X31043266Y-25667447D01*
X31005171Y-25819828D01*
X30967076Y-25896019D01*
X30890885Y-25972209D01*
X30776600Y-26010304D01*
X30586123Y-26010304D01*
X28944457Y-23385304D02*
X28944457Y-22585304D01*
X29211123Y-23156733D01*
X29477790Y-22585304D01*
X29477790Y-23385304D01*
X30011123Y-22585304D02*
X30163504Y-22585304D01*
X30239695Y-22623400D01*
X30315885Y-22699590D01*
X30353980Y-22851971D01*
X30353980Y-23118638D01*
X30315885Y-23271019D01*
X30239695Y-23347209D01*
X30163504Y-23385304D01*
X30011123Y-23385304D01*
X29934933Y-23347209D01*
X29858742Y-23271019D01*
X29820647Y-23118638D01*
X29820647Y-22851971D01*
X29858742Y-22699590D01*
X29934933Y-22623400D01*
X30011123Y-22585304D01*
X30658742Y-23347209D02*
X30773028Y-23385304D01*
X30963504Y-23385304D01*
X31039695Y-23347209D01*
X31077790Y-23309114D01*
X31115885Y-23232923D01*
X31115885Y-23156733D01*
X31077790Y-23080542D01*
X31039695Y-23042447D01*
X30963504Y-23004352D01*
X30811123Y-22966257D01*
X30734933Y-22928161D01*
X30696838Y-22890066D01*
X30658742Y-22813876D01*
X30658742Y-22737685D01*
X30696838Y-22661495D01*
X30734933Y-22623400D01*
X30811123Y-22585304D01*
X31001600Y-22585304D01*
X31115885Y-22623400D01*
X31458742Y-23385304D02*
X31458742Y-22585304D01*
X28986123Y-20010304D02*
X29481361Y-20010304D01*
X29214695Y-20315066D01*
X29328980Y-20315066D01*
X29405171Y-20353161D01*
X29443266Y-20391257D01*
X29481361Y-20467447D01*
X29481361Y-20657923D01*
X29443266Y-20734114D01*
X29405171Y-20772209D01*
X29328980Y-20810304D01*
X29100409Y-20810304D01*
X29024219Y-20772209D01*
X28986123Y-20734114D01*
X29709933Y-20010304D02*
X29976600Y-20810304D01*
X30243266Y-20010304D01*
X30433742Y-20010304D02*
X30928980Y-20010304D01*
X30662314Y-20315066D01*
X30776600Y-20315066D01*
X30852790Y-20353161D01*
X30890885Y-20391257D01*
X30928980Y-20467447D01*
X30928980Y-20657923D01*
X30890885Y-20734114D01*
X30852790Y-20772209D01*
X30776600Y-20810304D01*
X30548028Y-20810304D01*
X30471838Y-20772209D01*
X30433742Y-20734114D01*
X20514695Y-26135304D02*
X20248028Y-25754352D01*
X20057552Y-26135304D02*
X20057552Y-25335304D01*
X20362314Y-25335304D01*
X20438504Y-25373400D01*
X20476600Y-25411495D01*
X20514695Y-25487685D01*
X20514695Y-25601971D01*
X20476600Y-25678161D01*
X20438504Y-25716257D01*
X20362314Y-25754352D01*
X20057552Y-25754352D01*
X20857552Y-25716257D02*
X21124219Y-25716257D01*
X21238504Y-26135304D02*
X20857552Y-26135304D01*
X20857552Y-25335304D01*
X21238504Y-25335304D01*
X21543266Y-26097209D02*
X21657552Y-26135304D01*
X21848028Y-26135304D01*
X21924219Y-26097209D01*
X21962314Y-26059114D01*
X22000409Y-25982923D01*
X22000409Y-25906733D01*
X21962314Y-25830542D01*
X21924219Y-25792447D01*
X21848028Y-25754352D01*
X21695647Y-25716257D01*
X21619457Y-25678161D01*
X21581361Y-25640066D01*
X21543266Y-25563876D01*
X21543266Y-25487685D01*
X21581361Y-25411495D01*
X21619457Y-25373400D01*
X21695647Y-25335304D01*
X21886123Y-25335304D01*
X22000409Y-25373400D01*
X22343266Y-25716257D02*
X22609933Y-25716257D01*
X22724219Y-26135304D02*
X22343266Y-26135304D01*
X22343266Y-25335304D01*
X22724219Y-25335304D01*
X22952790Y-25335304D02*
X23409933Y-25335304D01*
X23181361Y-26135304D02*
X23181361Y-25335304D01*
X21098028Y-23397209D02*
X21212314Y-23435304D01*
X21402790Y-23435304D01*
X21478980Y-23397209D01*
X21517076Y-23359114D01*
X21555171Y-23282923D01*
X21555171Y-23206733D01*
X21517076Y-23130542D01*
X21478980Y-23092447D01*
X21402790Y-23054352D01*
X21250409Y-23016257D01*
X21174219Y-22978161D01*
X21136123Y-22940066D01*
X21098028Y-22863876D01*
X21098028Y-22787685D01*
X21136123Y-22711495D01*
X21174219Y-22673400D01*
X21250409Y-22635304D01*
X21440885Y-22635304D01*
X21555171Y-22673400D01*
X22355171Y-23359114D02*
X22317076Y-23397209D01*
X22202790Y-23435304D01*
X22126600Y-23435304D01*
X22012314Y-23397209D01*
X21936123Y-23321019D01*
X21898028Y-23244828D01*
X21859933Y-23092447D01*
X21859933Y-22978161D01*
X21898028Y-22825780D01*
X21936123Y-22749590D01*
X22012314Y-22673400D01*
X22126600Y-22635304D01*
X22202790Y-22635304D01*
X22317076Y-22673400D01*
X22355171Y-22711495D01*
X22698028Y-23435304D02*
X22698028Y-22635304D01*
X23155171Y-23435304D02*
X22812314Y-22978161D01*
X23155171Y-22635304D02*
X22698028Y-23092447D01*
X20819457Y-20985304D02*
X20819457Y-20185304D01*
X21086123Y-20756733D01*
X21352790Y-20185304D01*
X21352790Y-20985304D01*
X21733742Y-20985304D02*
X21733742Y-20185304D01*
X22076600Y-20947209D02*
X22190885Y-20985304D01*
X22381361Y-20985304D01*
X22457552Y-20947209D01*
X22495647Y-20909114D01*
X22533742Y-20832923D01*
X22533742Y-20756733D01*
X22495647Y-20680542D01*
X22457552Y-20642447D01*
X22381361Y-20604352D01*
X22228980Y-20566257D01*
X22152790Y-20528161D01*
X22114695Y-20490066D01*
X22076600Y-20413876D01*
X22076600Y-20337685D01*
X22114695Y-20261495D01*
X22152790Y-20223400D01*
X22228980Y-20185304D01*
X22419457Y-20185304D01*
X22533742Y-20223400D01*
X23028980Y-20185304D02*
X23181361Y-20185304D01*
X23257552Y-20223400D01*
X23333742Y-20299590D01*
X23371838Y-20451971D01*
X23371838Y-20718638D01*
X23333742Y-20871019D01*
X23257552Y-20947209D01*
X23181361Y-20985304D01*
X23028980Y-20985304D01*
X22952790Y-20947209D01*
X22876600Y-20871019D01*
X22838504Y-20718638D01*
X22838504Y-20451971D01*
X22876600Y-20299590D01*
X22952790Y-20223400D01*
X23028980Y-20185304D01*
X28813504Y3474220D02*
X28813504Y4474220D01*
X29051600Y4474220D01*
X29194457Y4426600D01*
X29289695Y4331362D01*
X29337314Y4236124D01*
X29384933Y4045648D01*
X29384933Y3902791D01*
X29337314Y3712315D01*
X29289695Y3617077D01*
X29194457Y3521839D01*
X29051600Y3474220D01*
X28813504Y3474220D01*
X30289695Y4474220D02*
X29813504Y4474220D01*
X29765885Y3998029D01*
X29813504Y4045648D01*
X29908742Y4093267D01*
X30146838Y4093267D01*
X30242076Y4045648D01*
X30289695Y3998029D01*
X30337314Y3902791D01*
X30337314Y3664696D01*
X30289695Y3569458D01*
X30242076Y3521839D01*
X30146838Y3474220D01*
X29908742Y3474220D01*
X29813504Y3521839D01*
X29765885Y3569458D01*
X20453980Y3349220D02*
X20120647Y3825410D01*
X19882552Y3349220D02*
X19882552Y4349220D01*
X20263504Y4349220D01*
X20358742Y4301600D01*
X20406361Y4253981D01*
X20453980Y4158743D01*
X20453980Y4015886D01*
X20406361Y3920648D01*
X20358742Y3873029D01*
X20263504Y3825410D01*
X19882552Y3825410D01*
X20834933Y3396839D02*
X20977790Y3349220D01*
X21215885Y3349220D01*
X21311123Y3396839D01*
X21358742Y3444458D01*
X21406361Y3539696D01*
X21406361Y3634934D01*
X21358742Y3730172D01*
X21311123Y3777791D01*
X21215885Y3825410D01*
X21025409Y3873029D01*
X20930171Y3920648D01*
X20882552Y3968267D01*
X20834933Y4063505D01*
X20834933Y4158743D01*
X20882552Y4253981D01*
X20930171Y4301600D01*
X21025409Y4349220D01*
X21263504Y4349220D01*
X21406361Y4301600D01*
X21692076Y4349220D02*
X22263504Y4349220D01*
X21977790Y3349220D02*
X21977790Y4349220D01*
X24388504Y5549220D02*
X24055171Y6025410D01*
X23817076Y5549220D02*
X23817076Y6549220D01*
X24198028Y6549220D01*
X24293266Y6501600D01*
X24340885Y6453981D01*
X24388504Y6358743D01*
X24388504Y6215886D01*
X24340885Y6120648D01*
X24293266Y6073029D01*
X24198028Y6025410D01*
X23817076Y6025410D01*
X25198028Y5596839D02*
X25102790Y5549220D01*
X24912314Y5549220D01*
X24817076Y5596839D01*
X24769457Y5692077D01*
X24769457Y6073029D01*
X24817076Y6168267D01*
X24912314Y6215886D01*
X25102790Y6215886D01*
X25198028Y6168267D01*
X25245647Y6073029D01*
X25245647Y5977791D01*
X24769457Y5882553D01*
X25626600Y5596839D02*
X25721838Y5549220D01*
X25912314Y5549220D01*
X26007552Y5596839D01*
X26055171Y5692077D01*
X26055171Y5739696D01*
X26007552Y5834934D01*
X25912314Y5882553D01*
X25769457Y5882553D01*
X25674219Y5930172D01*
X25626600Y6025410D01*
X25626600Y6073029D01*
X25674219Y6168267D01*
X25769457Y6215886D01*
X25912314Y6215886D01*
X26007552Y6168267D01*
X26864695Y5596839D02*
X26769457Y5549220D01*
X26578980Y5549220D01*
X26483742Y5596839D01*
X26436123Y5692077D01*
X26436123Y6073029D01*
X26483742Y6168267D01*
X26578980Y6215886D01*
X26769457Y6215886D01*
X26864695Y6168267D01*
X26912314Y6073029D01*
X26912314Y5977791D01*
X26436123Y5882553D01*
X27198028Y6215886D02*
X27578980Y6215886D01*
X27340885Y6549220D02*
X27340885Y5692077D01*
X27388504Y5596839D01*
X27483742Y5549220D01*
X27578980Y5549220D01*
X53752800Y9534800D02*
X53752800Y6534800D01*
X38252800Y-23465200D02*
X53752800Y-31465200D01*
X38252800Y-1465200D02*
X38252800Y-23465200D01*
X53752800Y6534800D02*
X38252800Y-1465200D01*
D12*
X31838766Y-15261633D02*
X31872100Y-15228300D01*
X31938766Y-15194966D01*
X32105433Y-15194966D01*
X32172100Y-15228300D01*
X32205433Y-15261633D01*
X32238766Y-15328300D01*
X32238766Y-15394966D01*
X32205433Y-15494966D01*
X31805433Y-15894966D01*
X32238766Y-15894966D01*
X32905433Y-15894966D02*
X32505433Y-15894966D01*
X32705433Y-15894966D02*
X32705433Y-15194966D01*
X32638766Y-15294966D01*
X32572100Y-15361633D01*
X32505433Y-15394966D01*
X33705433Y-15161633D02*
X33105433Y-16061633D01*
X33905433Y-15861633D02*
X34005433Y-15894966D01*
X34172100Y-15894966D01*
X34238766Y-15861633D01*
X34272100Y-15828300D01*
X34305433Y-15761633D01*
X34305433Y-15694966D01*
X34272100Y-15628300D01*
X34238766Y-15594966D01*
X34172100Y-15561633D01*
X34038766Y-15528300D01*
X33972100Y-15494966D01*
X33938766Y-15461633D01*
X33905433Y-15394966D01*
X33905433Y-15328300D01*
X33938766Y-15261633D01*
X33972100Y-15228300D01*
X34038766Y-15194966D01*
X34205433Y-15194966D01*
X34305433Y-15228300D01*
X34605433Y-15894966D02*
X34605433Y-15194966D01*
X34772100Y-15194966D01*
X34872100Y-15228300D01*
X34938766Y-15294966D01*
X34972100Y-15361633D01*
X35005433Y-15494966D01*
X35005433Y-15594966D01*
X34972100Y-15728300D01*
X34938766Y-15794966D01*
X34872100Y-15861633D01*
X34772100Y-15894966D01*
X34605433Y-15894966D01*
X35272100Y-15694966D02*
X35605433Y-15694966D01*
X35205433Y-15894966D02*
X35438766Y-15194966D01*
X35672100Y-15894966D01*
X32930100Y-31300066D02*
X32930100Y-30600066D01*
X32930100Y-30933400D02*
X33330100Y-30933400D01*
X33330100Y-31300066D02*
X33330100Y-30600066D01*
X33663433Y-31300066D02*
X33663433Y-30600066D01*
X33930100Y-30600066D01*
X33996766Y-30633400D01*
X34030100Y-30666733D01*
X34063433Y-30733400D01*
X34063433Y-30833400D01*
X34030100Y-30900066D01*
X33996766Y-30933400D01*
X33930100Y-30966733D01*
X33663433Y-30966733D01*
X34296766Y-30600066D02*
X34463433Y-31300066D01*
X34596766Y-30800066D01*
X34730100Y-31300066D01*
X34896766Y-30600066D01*
X35563433Y-31300066D02*
X35330100Y-30966733D01*
X35163433Y-31300066D02*
X35163433Y-30600066D01*
X35430100Y-30600066D01*
X35496766Y-30633400D01*
X35530100Y-30666733D01*
X35563433Y-30733400D01*
X35563433Y-30833400D01*
X35530100Y-30900066D01*
X35496766Y-30933400D01*
X35430100Y-30966733D01*
X35163433Y-30966733D01*
X32980900Y-28633066D02*
X32980900Y-27933066D01*
X32980900Y-28266400D02*
X33380900Y-28266400D01*
X33380900Y-28633066D02*
X33380900Y-27933066D01*
X33714233Y-28633066D02*
X33714233Y-27933066D01*
X33980900Y-27933066D01*
X34047566Y-27966400D01*
X34080900Y-27999733D01*
X34114233Y-28066400D01*
X34114233Y-28166400D01*
X34080900Y-28233066D01*
X34047566Y-28266400D01*
X33980900Y-28299733D01*
X33714233Y-28299733D01*
X34347566Y-27933066D02*
X34514233Y-28633066D01*
X34647566Y-28133066D01*
X34780900Y-28633066D01*
X34947566Y-27933066D01*
X35614233Y-28633066D02*
X35380900Y-28299733D01*
X35214233Y-28633066D02*
X35214233Y-27933066D01*
X35480900Y-27933066D01*
X35547566Y-27966400D01*
X35580900Y-27999733D01*
X35614233Y-28066400D01*
X35614233Y-28166400D01*
X35580900Y-28233066D01*
X35547566Y-28266400D01*
X35480900Y-28299733D01*
X35214233Y-28299733D01*
X32917400Y-26181966D02*
X32917400Y-25481966D01*
X32917400Y-25815300D02*
X33317400Y-25815300D01*
X33317400Y-26181966D02*
X33317400Y-25481966D01*
X33650733Y-26181966D02*
X33650733Y-25481966D01*
X33917400Y-25481966D01*
X33984066Y-25515300D01*
X34017400Y-25548633D01*
X34050733Y-25615300D01*
X34050733Y-25715300D01*
X34017400Y-25781966D01*
X33984066Y-25815300D01*
X33917400Y-25848633D01*
X33650733Y-25848633D01*
X34284066Y-25481966D02*
X34450733Y-26181966D01*
X34584066Y-25681966D01*
X34717400Y-26181966D01*
X34884066Y-25481966D01*
X35550733Y-26181966D02*
X35317400Y-25848633D01*
X35150733Y-26181966D02*
X35150733Y-25481966D01*
X35417400Y-25481966D01*
X35484066Y-25515300D01*
X35517400Y-25548633D01*
X35550733Y-25615300D01*
X35550733Y-25715300D01*
X35517400Y-25781966D01*
X35484066Y-25815300D01*
X35417400Y-25848633D01*
X35150733Y-25848633D01*
X33620300Y-17840533D02*
X33653633Y-17807200D01*
X33720300Y-17773866D01*
X33886966Y-17773866D01*
X33953633Y-17807200D01*
X33986966Y-17840533D01*
X34020300Y-17907200D01*
X34020300Y-17973866D01*
X33986966Y-18073866D01*
X33586966Y-18473866D01*
X34020300Y-18473866D01*
X33986966Y-16529266D02*
X33653633Y-16529266D01*
X33620300Y-16862600D01*
X33653633Y-16829266D01*
X33720300Y-16795933D01*
X33886966Y-16795933D01*
X33953633Y-16829266D01*
X33986966Y-16862600D01*
X34020300Y-16929266D01*
X34020300Y-17095933D01*
X33986966Y-17162600D01*
X33953633Y-17195933D01*
X33886966Y-17229266D01*
X33720300Y-17229266D01*
X33653633Y-17195933D01*
X33620300Y-17162600D01*
X33154633Y-29650700D02*
X33254633Y-29684033D01*
X33287966Y-29717366D01*
X33321300Y-29784033D01*
X33321300Y-29884033D01*
X33287966Y-29950700D01*
X33254633Y-29984033D01*
X33187966Y-30017366D01*
X32921300Y-30017366D01*
X32921300Y-29317366D01*
X33154633Y-29317366D01*
X33221300Y-29350700D01*
X33254633Y-29384033D01*
X33287966Y-29450700D01*
X33287966Y-29517366D01*
X33254633Y-29584033D01*
X33221300Y-29617366D01*
X33154633Y-29650700D01*
X32921300Y-29650700D01*
X33587966Y-29817366D02*
X33921300Y-29817366D01*
X33521300Y-30017366D02*
X33754633Y-29317366D01*
X33987966Y-30017366D01*
X34121300Y-29317366D02*
X34521300Y-29317366D01*
X34321300Y-30017366D02*
X34321300Y-29317366D01*
X33334766Y-26663066D02*
X33001433Y-26663066D01*
X32968100Y-26996400D01*
X33001433Y-26963066D01*
X33068100Y-26929733D01*
X33234766Y-26929733D01*
X33301433Y-26963066D01*
X33334766Y-26996400D01*
X33368100Y-27063066D01*
X33368100Y-27229733D01*
X33334766Y-27296400D01*
X33301433Y-27329733D01*
X33234766Y-27363066D01*
X33068100Y-27363066D01*
X33001433Y-27329733D01*
X32968100Y-27296400D01*
X33568100Y-26663066D02*
X33801433Y-27363066D01*
X34034766Y-26663066D01*
X33568266Y534934D02*
X33334933Y868267D01*
X33168266Y534934D02*
X33168266Y1234934D01*
X33434933Y1234934D01*
X33501600Y1201600D01*
X33534933Y1168267D01*
X33568266Y1101600D01*
X33568266Y1001600D01*
X33534933Y934934D01*
X33501600Y901600D01*
X33434933Y868267D01*
X33168266Y868267D01*
X33834933Y568267D02*
X33934933Y534934D01*
X34101600Y534934D01*
X34168266Y568267D01*
X34201600Y601600D01*
X34234933Y668267D01*
X34234933Y734934D01*
X34201600Y801600D01*
X34168266Y834934D01*
X34101600Y868267D01*
X33968266Y901600D01*
X33901600Y934934D01*
X33868266Y968267D01*
X33834933Y1034934D01*
X33834933Y1101600D01*
X33868266Y1168267D01*
X33901600Y1201600D01*
X33968266Y1234934D01*
X34134933Y1234934D01*
X34234933Y1201600D01*
X34434933Y1234934D02*
X34834933Y1234934D01*
X34634933Y534934D02*
X34634933Y1234934D01*
X33379266Y-153400D02*
X33312600Y-120066D01*
X33212600Y-120066D01*
X33112600Y-153400D01*
X33045933Y-220066D01*
X33012600Y-286733D01*
X32979266Y-420066D01*
X32979266Y-520066D01*
X33012600Y-653400D01*
X33045933Y-720066D01*
X33112600Y-786733D01*
X33212600Y-820066D01*
X33279266Y-820066D01*
X33379266Y-786733D01*
X33412600Y-753400D01*
X33412600Y-520066D01*
X33279266Y-520066D01*
X33712600Y-820066D02*
X33712600Y-120066D01*
X34112600Y-820066D01*
X34112600Y-120066D01*
X34445933Y-820066D02*
X34445933Y-120066D01*
X34612600Y-120066D01*
X34712600Y-153400D01*
X34779266Y-220066D01*
X34812600Y-286733D01*
X34845933Y-420066D01*
X34845933Y-520066D01*
X34812600Y-653400D01*
X34779266Y-720066D01*
X34712600Y-786733D01*
X34612600Y-820066D01*
X34445933Y-820066D01*
X33498266Y2431600D02*
X33431600Y2464934D01*
X33331600Y2464934D01*
X33231600Y2431600D01*
X33164933Y2364934D01*
X33131600Y2298267D01*
X33098266Y2164934D01*
X33098266Y2064934D01*
X33131600Y1931600D01*
X33164933Y1864934D01*
X33231600Y1798267D01*
X33331600Y1764934D01*
X33398266Y1764934D01*
X33498266Y1798267D01*
X33531600Y1831600D01*
X33531600Y2064934D01*
X33398266Y2064934D01*
X33831600Y1764934D02*
X33831600Y2464934D01*
X34231600Y1764934D01*
X34231600Y2464934D01*
X34564933Y1764934D02*
X34564933Y2464934D01*
X34731600Y2464934D01*
X34831600Y2431600D01*
X34898266Y2364934D01*
X34931600Y2298267D01*
X34964933Y2164934D01*
X34964933Y2064934D01*
X34931600Y1931600D01*
X34898266Y1864934D01*
X34831600Y1798267D01*
X34731600Y1764934D01*
X34564933Y1764934D01*
X33434666Y4922800D02*
X33368000Y4956134D01*
X33268000Y4956134D01*
X33168000Y4922800D01*
X33101333Y4856134D01*
X33068000Y4789467D01*
X33034666Y4656134D01*
X33034666Y4556134D01*
X33068000Y4422800D01*
X33101333Y4356134D01*
X33168000Y4289467D01*
X33268000Y4256134D01*
X33334666Y4256134D01*
X33434666Y4289467D01*
X33468000Y4322800D01*
X33468000Y4556134D01*
X33334666Y4556134D01*
X33768000Y4256134D02*
X33768000Y4956134D01*
X34168000Y4256134D01*
X34168000Y4956134D01*
X34501333Y4256134D02*
X34501333Y4956134D01*
X34668000Y4956134D01*
X34768000Y4922800D01*
X34834666Y4856134D01*
X34868000Y4789467D01*
X34901333Y4656134D01*
X34901333Y4556134D01*
X34868000Y4422800D01*
X34834666Y4356134D01*
X34768000Y4289467D01*
X34668000Y4256134D01*
X34501333Y4256134D01*
D10*
X4752800Y14534800D02*
X48752800Y14534800D01*
X13752800Y-35465200D02*
G75*
G02X11752800Y-33465200I0J2000000D01*
G01*
X5752800Y-31465200D02*
G75*
G02X3752800Y-29465200I0J2000000D01*
G01*
X3752800Y4534800D02*
G75*
G02X5752800Y6534800I2000000J0D01*
G01*
X11752800Y8534800D02*
G75*
G02X13752800Y10534800I2000000J0D01*
G01*
X11752800Y8534800D02*
G75*
G02X9752800Y6534800I-2000000J0D01*
G01*
X9752800Y-31465200D02*
G75*
G02X11752800Y-33465200I0J-2000000D01*
G01*
X36752800Y-33465200D02*
G75*
G02X34752800Y-35465200I-2000000J0D01*
G01*
X34752800Y10534800D02*
G75*
G02X36752800Y8534800I0J-2000000D01*
G01*
D12*
X32918933Y-6393866D02*
X33352266Y-6393866D01*
X33118933Y-6660533D01*
X33218933Y-6660533D01*
X33285600Y-6693866D01*
X33318933Y-6727200D01*
X33352266Y-6793866D01*
X33352266Y-6960533D01*
X33318933Y-7027200D01*
X33285600Y-7060533D01*
X33218933Y-7093866D01*
X33018933Y-7093866D01*
X32952266Y-7060533D01*
X32918933Y-7027200D01*
X33552266Y-6393866D02*
X33785600Y-7093866D01*
X34018933Y-6393866D01*
X34185600Y-6393866D02*
X34618933Y-6393866D01*
X34385600Y-6660533D01*
X34485600Y-6660533D01*
X34552266Y-6693866D01*
X34585600Y-6727200D01*
X34618933Y-6793866D01*
X34618933Y-6960533D01*
X34585600Y-7027200D01*
X34552266Y-7060533D01*
X34485600Y-7093866D01*
X34285600Y-7093866D01*
X34218933Y-7060533D01*
X34185600Y-7027200D01*
X32252266Y-8325766D02*
X31852266Y-8325766D01*
X32052266Y-8325766D02*
X32052266Y-7625766D01*
X31985600Y-7725766D01*
X31918933Y-7792433D01*
X31852266Y-7825766D01*
X32652266Y-7925766D02*
X32585600Y-7892433D01*
X32552266Y-7859100D01*
X32518933Y-7792433D01*
X32518933Y-7759100D01*
X32552266Y-7692433D01*
X32585600Y-7659100D01*
X32652266Y-7625766D01*
X32785600Y-7625766D01*
X32852266Y-7659100D01*
X32885600Y-7692433D01*
X32918933Y-7759100D01*
X32918933Y-7792433D01*
X32885600Y-7859100D01*
X32852266Y-7892433D01*
X32785600Y-7925766D01*
X32652266Y-7925766D01*
X32585600Y-7959100D01*
X32552266Y-7992433D01*
X32518933Y-8059100D01*
X32518933Y-8192433D01*
X32552266Y-8259100D01*
X32585600Y-8292433D01*
X32652266Y-8325766D01*
X32785600Y-8325766D01*
X32852266Y-8292433D01*
X32885600Y-8259100D01*
X32918933Y-8192433D01*
X32918933Y-8059100D01*
X32885600Y-7992433D01*
X32852266Y-7959100D01*
X32785600Y-7925766D01*
X33718933Y-7592433D02*
X33118933Y-8492433D01*
X33918933Y-8292433D02*
X34018933Y-8325766D01*
X34185600Y-8325766D01*
X34252266Y-8292433D01*
X34285600Y-8259100D01*
X34318933Y-8192433D01*
X34318933Y-8125766D01*
X34285600Y-8059100D01*
X34252266Y-8025766D01*
X34185600Y-7992433D01*
X34052266Y-7959100D01*
X33985600Y-7925766D01*
X33952266Y-7892433D01*
X33918933Y-7825766D01*
X33918933Y-7759100D01*
X33952266Y-7692433D01*
X33985600Y-7659100D01*
X34052266Y-7625766D01*
X34218933Y-7625766D01*
X34318933Y-7659100D01*
X35018933Y-8259100D02*
X34985600Y-8292433D01*
X34885600Y-8325766D01*
X34818933Y-8325766D01*
X34718933Y-8292433D01*
X34652266Y-8225766D01*
X34618933Y-8159100D01*
X34585600Y-8025766D01*
X34585600Y-7925766D01*
X34618933Y-7792433D01*
X34652266Y-7725766D01*
X34718933Y-7659100D01*
X34818933Y-7625766D01*
X34885600Y-7625766D01*
X34985600Y-7659100D01*
X35018933Y-7692433D01*
X35318933Y-8325766D02*
X35318933Y-7625766D01*
X35718933Y-8325766D02*
X35418933Y-7925766D01*
X35718933Y-7625766D02*
X35318933Y-8025766D01*
X32325233Y-5861966D02*
X31925233Y-5861966D01*
X32125233Y-5861966D02*
X32125233Y-5161966D01*
X32058566Y-5261966D01*
X31991900Y-5328633D01*
X31925233Y-5361966D01*
X32658566Y-5861966D02*
X32791900Y-5861966D01*
X32858566Y-5828633D01*
X32891900Y-5795300D01*
X32958566Y-5695300D01*
X32991900Y-5561966D01*
X32991900Y-5295300D01*
X32958566Y-5228633D01*
X32925233Y-5195300D01*
X32858566Y-5161966D01*
X32725233Y-5161966D01*
X32658566Y-5195300D01*
X32625233Y-5228633D01*
X32591900Y-5295300D01*
X32591900Y-5461966D01*
X32625233Y-5528633D01*
X32658566Y-5561966D01*
X32725233Y-5595300D01*
X32858566Y-5595300D01*
X32925233Y-5561966D01*
X32958566Y-5528633D01*
X32991900Y-5461966D01*
X33791900Y-5128633D02*
X33191900Y-6028633D01*
X34025233Y-5861966D02*
X34025233Y-5161966D01*
X34258566Y-5661966D01*
X34491900Y-5161966D01*
X34491900Y-5861966D01*
X34825233Y-5861966D02*
X34825233Y-5161966D01*
X31928433Y-2688633D02*
X31961766Y-2655300D01*
X32028433Y-2621966D01*
X32195100Y-2621966D01*
X32261766Y-2655300D01*
X32295100Y-2688633D01*
X32328433Y-2755300D01*
X32328433Y-2821966D01*
X32295100Y-2921966D01*
X31895100Y-3321966D01*
X32328433Y-3321966D01*
X32561766Y-2621966D02*
X32995100Y-2621966D01*
X32761766Y-2888633D01*
X32861766Y-2888633D01*
X32928433Y-2921966D01*
X32961766Y-2955300D01*
X32995100Y-3021966D01*
X32995100Y-3188633D01*
X32961766Y-3255300D01*
X32928433Y-3288633D01*
X32861766Y-3321966D01*
X32661766Y-3321966D01*
X32595100Y-3288633D01*
X32561766Y-3255300D01*
X33795100Y-2588633D02*
X33195100Y-3488633D01*
X34028433Y-3321966D02*
X34028433Y-2621966D01*
X34261766Y-3121966D01*
X34495100Y-2621966D01*
X34495100Y-3321966D01*
X34961766Y-2621966D02*
X35095100Y-2621966D01*
X35161766Y-2655300D01*
X35228433Y-2721966D01*
X35261766Y-2855300D01*
X35261766Y-3088633D01*
X35228433Y-3221966D01*
X35161766Y-3288633D01*
X35095100Y-3321966D01*
X34961766Y-3321966D01*
X34895100Y-3288633D01*
X34828433Y-3221966D01*
X34795100Y-3088633D01*
X34795100Y-2855300D01*
X34828433Y-2721966D01*
X34895100Y-2655300D01*
X34961766Y-2621966D01*
X32285600Y-23553066D02*
X31885600Y-23553066D01*
X32085600Y-23553066D02*
X32085600Y-22853066D01*
X32018933Y-22953066D01*
X31952266Y-23019733D01*
X31885600Y-23053066D01*
X32918933Y-22853066D02*
X32585600Y-22853066D01*
X32552266Y-23186400D01*
X32585600Y-23153066D01*
X32652266Y-23119733D01*
X32818933Y-23119733D01*
X32885600Y-23153066D01*
X32918933Y-23186400D01*
X32952266Y-23253066D01*
X32952266Y-23419733D01*
X32918933Y-23486400D01*
X32885600Y-23519733D01*
X32818933Y-23553066D01*
X32652266Y-23553066D01*
X32585600Y-23519733D01*
X32552266Y-23486400D01*
X33752266Y-22819733D02*
X33152266Y-23719733D01*
X34118933Y-22853066D02*
X34252266Y-22853066D01*
X34318933Y-22886400D01*
X34385600Y-22953066D01*
X34418933Y-23086400D01*
X34418933Y-23319733D01*
X34385600Y-23453066D01*
X34318933Y-23519733D01*
X34252266Y-23553066D01*
X34118933Y-23553066D01*
X34052266Y-23519733D01*
X33985600Y-23453066D01*
X33952266Y-23319733D01*
X33952266Y-23086400D01*
X33985600Y-22953066D01*
X34052266Y-22886400D01*
X34118933Y-22853066D01*
X34718933Y-22853066D02*
X34718933Y-23419733D01*
X34752266Y-23486400D01*
X34785600Y-23519733D01*
X34852266Y-23553066D01*
X34985600Y-23553066D01*
X35052266Y-23519733D01*
X35085600Y-23486400D01*
X35118933Y-23419733D01*
X35118933Y-22853066D01*
X35352266Y-22853066D02*
X35752266Y-22853066D01*
X35552266Y-23553066D02*
X35552266Y-22853066D01*
X32373666Y-21101966D02*
X31973666Y-21101966D01*
X32173666Y-21101966D02*
X32173666Y-20401966D01*
X32107000Y-20501966D01*
X32040333Y-20568633D01*
X31973666Y-20601966D01*
X32640333Y-20468633D02*
X32673666Y-20435300D01*
X32740333Y-20401966D01*
X32907000Y-20401966D01*
X32973666Y-20435300D01*
X33007000Y-20468633D01*
X33040333Y-20535300D01*
X33040333Y-20601966D01*
X33007000Y-20701966D01*
X32607000Y-21101966D01*
X33040333Y-21101966D01*
X33840333Y-20368633D02*
X33240333Y-21268633D01*
X34040333Y-21068633D02*
X34140333Y-21101966D01*
X34307000Y-21101966D01*
X34373666Y-21068633D01*
X34407000Y-21035300D01*
X34440333Y-20968633D01*
X34440333Y-20901966D01*
X34407000Y-20835300D01*
X34373666Y-20801966D01*
X34307000Y-20768633D01*
X34173666Y-20735300D01*
X34107000Y-20701966D01*
X34073666Y-20668633D01*
X34040333Y-20601966D01*
X34040333Y-20535300D01*
X34073666Y-20468633D01*
X34107000Y-20435300D01*
X34173666Y-20401966D01*
X34340333Y-20401966D01*
X34440333Y-20435300D01*
X34740333Y-21101966D02*
X34740333Y-20401966D01*
X35140333Y-21101966D02*
X34840333Y-20701966D01*
X35140333Y-20401966D02*
X34740333Y-20801966D01*
X32133966Y-10165766D02*
X32567300Y-10165766D01*
X32333966Y-10432433D01*
X32433966Y-10432433D01*
X32500633Y-10465766D01*
X32533966Y-10499100D01*
X32567300Y-10565766D01*
X32567300Y-10732433D01*
X32533966Y-10799100D01*
X32500633Y-10832433D01*
X32433966Y-10865766D01*
X32233966Y-10865766D01*
X32167300Y-10832433D01*
X32133966Y-10799100D01*
X33367300Y-10132433D02*
X32767300Y-11032433D01*
X34000633Y-10865766D02*
X33767300Y-10532433D01*
X33600633Y-10865766D02*
X33600633Y-10165766D01*
X33867300Y-10165766D01*
X33933966Y-10199100D01*
X33967300Y-10232433D01*
X34000633Y-10299100D01*
X34000633Y-10399100D01*
X33967300Y-10465766D01*
X33933966Y-10499100D01*
X33867300Y-10532433D01*
X33600633Y-10532433D01*
X34433966Y-10165766D02*
X34500633Y-10165766D01*
X34567300Y-10199100D01*
X34600633Y-10232433D01*
X34633966Y-10299100D01*
X34667300Y-10432433D01*
X34667300Y-10599100D01*
X34633966Y-10732433D01*
X34600633Y-10799100D01*
X34567300Y-10832433D01*
X34500633Y-10865766D01*
X34433966Y-10865766D01*
X34367300Y-10832433D01*
X34333966Y-10799100D01*
X34300633Y-10732433D01*
X34267300Y-10599100D01*
X34267300Y-10432433D01*
X34300633Y-10299100D01*
X34333966Y-10232433D01*
X34367300Y-10199100D01*
X34433966Y-10165766D01*
X32183166Y-13431166D02*
X31783166Y-13431166D01*
X31983166Y-13431166D02*
X31983166Y-12731166D01*
X31916500Y-12831166D01*
X31849833Y-12897833D01*
X31783166Y-12931166D01*
X32783166Y-12731166D02*
X32649833Y-12731166D01*
X32583166Y-12764500D01*
X32549833Y-12797833D01*
X32483166Y-12897833D01*
X32449833Y-13031166D01*
X32449833Y-13297833D01*
X32483166Y-13364500D01*
X32516500Y-13397833D01*
X32583166Y-13431166D01*
X32716500Y-13431166D01*
X32783166Y-13397833D01*
X32816500Y-13364500D01*
X32849833Y-13297833D01*
X32849833Y-13131166D01*
X32816500Y-13064500D01*
X32783166Y-13031166D01*
X32716500Y-12997833D01*
X32583166Y-12997833D01*
X32516500Y-13031166D01*
X32483166Y-13064500D01*
X32449833Y-13131166D01*
X33649833Y-12697833D02*
X33049833Y-13597833D01*
X34283166Y-13431166D02*
X34049833Y-13097833D01*
X33883166Y-13431166D02*
X33883166Y-12731166D01*
X34149833Y-12731166D01*
X34216500Y-12764500D01*
X34249833Y-12797833D01*
X34283166Y-12864500D01*
X34283166Y-12964500D01*
X34249833Y-13031166D01*
X34216500Y-13064500D01*
X34149833Y-13097833D01*
X33883166Y-13097833D01*
X34549833Y-12797833D02*
X34583166Y-12764500D01*
X34649833Y-12731166D01*
X34816500Y-12731166D01*
X34883166Y-12764500D01*
X34916500Y-12797833D01*
X34949833Y-12864500D01*
X34949833Y-12931166D01*
X34916500Y-13031166D01*
X34516500Y-13431166D01*
X34949833Y-13431166D01*
D10*
X13752800Y-35465200D02*
X34752800Y-35465200D01*
X5752800Y-31465200D02*
X9752800Y-31465200D01*
X3752800Y4534800D02*
X3752800Y-29465200D01*
X9752800Y6534800D02*
X5752800Y6534800D01*
X34752800Y10534800D02*
X13752800Y10534800D01*
D13*
X53752800Y-31465200D02*
X53752800Y-34465200D01*
D12*
X31937933Y-24211966D02*
X32371266Y-24211966D01*
X32137933Y-24478633D01*
X32237933Y-24478633D01*
X32304600Y-24511966D01*
X32337933Y-24545300D01*
X32371266Y-24611966D01*
X32371266Y-24778633D01*
X32337933Y-24845300D01*
X32304600Y-24878633D01*
X32237933Y-24911966D01*
X32037933Y-24911966D01*
X31971266Y-24878633D01*
X31937933Y-24845300D01*
X32971266Y-24445300D02*
X32971266Y-24911966D01*
X32804600Y-24178633D02*
X32637933Y-24678633D01*
X33071266Y-24678633D01*
X33837933Y-24178633D02*
X33237933Y-25078633D01*
X34071266Y-24911966D02*
X34071266Y-24211966D01*
X34404600Y-24911966D02*
X34404600Y-24211966D01*
X34804600Y-24911966D01*
X34804600Y-24211966D01*
X32432400Y-21557666D02*
X32499066Y-21557666D01*
X32565733Y-21591000D01*
X32599066Y-21624333D01*
X32632400Y-21691000D01*
X32665733Y-21824333D01*
X32665733Y-21991000D01*
X32632400Y-22124333D01*
X32599066Y-22191000D01*
X32565733Y-22224333D01*
X32499066Y-22257666D01*
X32432400Y-22257666D01*
X32365733Y-22224333D01*
X32332400Y-22191000D01*
X32299066Y-22124333D01*
X32265733Y-21991000D01*
X32265733Y-21824333D01*
X32299066Y-21691000D01*
X32332400Y-21624333D01*
X32365733Y-21591000D01*
X32432400Y-21557666D01*
X33465733Y-21524333D02*
X32865733Y-22424333D01*
X33699066Y-22257666D02*
X33699066Y-21557666D01*
X33932400Y-22057666D01*
X34165733Y-21557666D01*
X34165733Y-22257666D01*
X34499066Y-22257666D02*
X34499066Y-21557666D01*
X34899066Y-22257666D02*
X34599066Y-21857666D01*
X34899066Y-21557666D02*
X34499066Y-21957666D01*
X32298266Y-19831966D02*
X31898266Y-19831966D01*
X32098266Y-19831966D02*
X32098266Y-19131966D01*
X32031600Y-19231966D01*
X31964933Y-19298633D01*
X31898266Y-19331966D01*
X32531600Y-19131966D02*
X32964933Y-19131966D01*
X32731600Y-19398633D01*
X32831600Y-19398633D01*
X32898266Y-19431966D01*
X32931600Y-19465300D01*
X32964933Y-19531966D01*
X32964933Y-19698633D01*
X32931600Y-19765300D01*
X32898266Y-19798633D01*
X32831600Y-19831966D01*
X32631600Y-19831966D01*
X32564933Y-19798633D01*
X32531600Y-19765300D01*
X33764933Y-19098633D02*
X33164933Y-19998633D01*
X33931600Y-19131966D02*
X34098266Y-19831966D01*
X34231600Y-19331966D01*
X34364933Y-19831966D01*
X34531600Y-19131966D01*
X34764933Y-19798633D02*
X34864933Y-19831966D01*
X35031600Y-19831966D01*
X35098266Y-19798633D01*
X35131600Y-19765300D01*
X35164933Y-19698633D01*
X35164933Y-19631966D01*
X35131600Y-19565300D01*
X35098266Y-19531966D01*
X35031600Y-19498633D01*
X34898266Y-19465300D01*
X34831600Y-19431966D01*
X34798266Y-19398633D01*
X34764933Y-19331966D01*
X34764933Y-19265300D01*
X34798266Y-19198633D01*
X34831600Y-19165300D01*
X34898266Y-19131966D01*
X35064933Y-19131966D01*
X35164933Y-19165300D01*
X32637933Y-9583066D02*
X32237933Y-9583066D01*
X32437933Y-9583066D02*
X32437933Y-8883066D01*
X32371266Y-8983066D01*
X32304600Y-9049733D01*
X32237933Y-9083066D01*
X33437933Y-8849733D02*
X32837933Y-9749733D01*
X33571266Y-8883066D02*
X33971266Y-8883066D01*
X33771266Y-9583066D02*
X33771266Y-8883066D01*
X34337933Y-8883066D02*
X34404600Y-8883066D01*
X34471266Y-8916400D01*
X34504600Y-8949733D01*
X34537933Y-9016400D01*
X34571266Y-9149733D01*
X34571266Y-9316400D01*
X34537933Y-9449733D01*
X34504600Y-9516400D01*
X34471266Y-9549733D01*
X34404600Y-9583066D01*
X34337933Y-9583066D01*
X34271266Y-9549733D01*
X34237933Y-9516400D01*
X34204600Y-9449733D01*
X34171266Y-9316400D01*
X34171266Y-9149733D01*
X34204600Y-9016400D01*
X34237933Y-8949733D01*
X34271266Y-8916400D01*
X34337933Y-8883066D01*
X32317300Y-12135766D02*
X31917300Y-12135766D01*
X32117300Y-12135766D02*
X32117300Y-11435766D01*
X32050633Y-11535766D01*
X31983966Y-11602433D01*
X31917300Y-11635766D01*
X32550633Y-11435766D02*
X33017300Y-11435766D01*
X32717300Y-12135766D01*
X33783966Y-11402433D02*
X33183966Y-12302433D01*
X33917300Y-11435766D02*
X34317300Y-11435766D01*
X34117300Y-12135766D02*
X34117300Y-11435766D01*
X34517300Y-11502433D02*
X34550633Y-11469100D01*
X34617300Y-11435766D01*
X34783966Y-11435766D01*
X34850633Y-11469100D01*
X34883966Y-11502433D01*
X34917300Y-11569100D01*
X34917300Y-11635766D01*
X34883966Y-11735766D01*
X34483966Y-12135766D01*
X34917300Y-12135766D01*
X31930800Y-1393233D02*
X31964133Y-1359900D01*
X32030800Y-1326566D01*
X32197466Y-1326566D01*
X32264133Y-1359900D01*
X32297466Y-1393233D01*
X32330800Y-1459900D01*
X32330800Y-1526566D01*
X32297466Y-1626566D01*
X31897466Y-2026566D01*
X32330800Y-2026566D01*
X32964133Y-1326566D02*
X32630800Y-1326566D01*
X32597466Y-1659900D01*
X32630800Y-1626566D01*
X32697466Y-1593233D01*
X32864133Y-1593233D01*
X32930800Y-1626566D01*
X32964133Y-1659900D01*
X32997466Y-1726566D01*
X32997466Y-1893233D01*
X32964133Y-1959900D01*
X32930800Y-1993233D01*
X32864133Y-2026566D01*
X32697466Y-2026566D01*
X32630800Y-1993233D01*
X32597466Y-1959900D01*
X33797466Y-1293233D02*
X33197466Y-2193233D01*
X34030800Y-2026566D02*
X34030800Y-1326566D01*
X34197466Y-1326566D01*
X34297466Y-1359900D01*
X34364133Y-1426566D01*
X34397466Y-1493233D01*
X34430800Y-1626566D01*
X34430800Y-1726566D01*
X34397466Y-1859900D01*
X34364133Y-1926566D01*
X34297466Y-1993233D01*
X34197466Y-2026566D01*
X34030800Y-2026566D01*
X34697466Y-1826566D02*
X35030800Y-1826566D01*
X34630800Y-2026566D02*
X34864133Y-1326566D01*
X35097466Y-2026566D01*
X31930800Y-3933233D02*
X31964133Y-3899900D01*
X32030800Y-3866566D01*
X32197466Y-3866566D01*
X32264133Y-3899900D01*
X32297466Y-3933233D01*
X32330800Y-3999900D01*
X32330800Y-4066566D01*
X32297466Y-4166566D01*
X31897466Y-4566566D01*
X32330800Y-4566566D01*
X32930800Y-3866566D02*
X32797466Y-3866566D01*
X32730800Y-3899900D01*
X32697466Y-3933233D01*
X32630800Y-4033233D01*
X32597466Y-4166566D01*
X32597466Y-4433233D01*
X32630800Y-4499900D01*
X32664133Y-4533233D01*
X32730800Y-4566566D01*
X32864133Y-4566566D01*
X32930800Y-4533233D01*
X32964133Y-4499900D01*
X32997466Y-4433233D01*
X32997466Y-4266566D01*
X32964133Y-4199900D01*
X32930800Y-4166566D01*
X32864133Y-4133233D01*
X32730800Y-4133233D01*
X32664133Y-4166566D01*
X32630800Y-4199900D01*
X32597466Y-4266566D01*
X33797466Y-3833233D02*
X33197466Y-4733233D01*
X34030800Y-4566566D02*
X34030800Y-3866566D01*
X34197466Y-3866566D01*
X34297466Y-3899900D01*
X34364133Y-3966566D01*
X34397466Y-4033233D01*
X34430800Y-4166566D01*
X34430800Y-4266566D01*
X34397466Y-4399900D01*
X34364133Y-4466566D01*
X34297466Y-4533233D01*
X34197466Y-4566566D01*
X34030800Y-4566566D01*
X34697466Y-4366566D02*
X35030800Y-4366566D01*
X34630800Y-4566566D02*
X34864133Y-3866566D01*
X35097466Y-4566566D01*
X32218266Y6294934D02*
X32651600Y6294934D01*
X32418266Y6028267D01*
X32518266Y6028267D01*
X32584933Y5994934D01*
X32618266Y5961600D01*
X32651600Y5894934D01*
X32651600Y5728267D01*
X32618266Y5661600D01*
X32584933Y5628267D01*
X32518266Y5594934D01*
X32318266Y5594934D01*
X32251600Y5628267D01*
X32218266Y5661600D01*
X33251600Y6294934D02*
X33118266Y6294934D01*
X33051600Y6261600D01*
X33018266Y6228267D01*
X32951600Y6128267D01*
X32918266Y5994934D01*
X32918266Y5728267D01*
X32951600Y5661600D01*
X32984933Y5628267D01*
X33051600Y5594934D01*
X33184933Y5594934D01*
X33251600Y5628267D01*
X33284933Y5661600D01*
X33318266Y5728267D01*
X33318266Y5894934D01*
X33284933Y5961600D01*
X33251600Y5994934D01*
X33184933Y6028267D01*
X33051600Y6028267D01*
X32984933Y5994934D01*
X32951600Y5961600D01*
X32918266Y5894934D01*
X34118266Y6328267D02*
X33518266Y5428267D01*
X34318266Y5794934D02*
X34651600Y5794934D01*
X34251600Y5594934D02*
X34484933Y6294934D01*
X34718266Y5594934D01*
X34951600Y5594934D02*
X34951600Y6294934D01*
X35118266Y6294934D01*
X35218266Y6261600D01*
X35284933Y6194934D01*
X35318266Y6128267D01*
X35351600Y5994934D01*
X35351600Y5894934D01*
X35318266Y5761600D01*
X35284933Y5694934D01*
X35218266Y5628267D01*
X35118266Y5594934D01*
X34951600Y5594934D01*
X32198266Y3744934D02*
X32631600Y3744934D01*
X32398266Y3478267D01*
X32498266Y3478267D01*
X32564933Y3444934D01*
X32598266Y3411600D01*
X32631600Y3344934D01*
X32631600Y3178267D01*
X32598266Y3111600D01*
X32564933Y3078267D01*
X32498266Y3044934D01*
X32298266Y3044934D01*
X32231600Y3078267D01*
X32198266Y3111600D01*
X33231600Y3744934D02*
X33098266Y3744934D01*
X33031600Y3711600D01*
X32998266Y3678267D01*
X32931600Y3578267D01*
X32898266Y3444934D01*
X32898266Y3178267D01*
X32931600Y3111600D01*
X32964933Y3078267D01*
X33031600Y3044934D01*
X33164933Y3044934D01*
X33231600Y3078267D01*
X33264933Y3111600D01*
X33298266Y3178267D01*
X33298266Y3344934D01*
X33264933Y3411600D01*
X33231600Y3444934D01*
X33164933Y3478267D01*
X33031600Y3478267D01*
X32964933Y3444934D01*
X32931600Y3411600D01*
X32898266Y3344934D01*
X34098266Y3778267D02*
X33498266Y2878267D01*
X34298266Y3244934D02*
X34631600Y3244934D01*
X34231600Y3044934D02*
X34464933Y3744934D01*
X34698266Y3044934D01*
X34931600Y3044934D02*
X34931600Y3744934D01*
X35098266Y3744934D01*
X35198266Y3711600D01*
X35264933Y3644934D01*
X35298266Y3578267D01*
X35331600Y3444934D01*
X35331600Y3344934D01*
X35298266Y3211600D01*
X35264933Y3144934D01*
X35198266Y3078267D01*
X35098266Y3044934D01*
X34931600Y3044934D01*
X31830033Y-14118633D02*
X31863366Y-14085300D01*
X31930033Y-14051966D01*
X32096700Y-14051966D01*
X32163366Y-14085300D01*
X32196700Y-14118633D01*
X32230033Y-14185300D01*
X32230033Y-14251966D01*
X32196700Y-14351966D01*
X31796700Y-14751966D01*
X32230033Y-14751966D01*
X32496700Y-14118633D02*
X32530033Y-14085300D01*
X32596700Y-14051966D01*
X32763366Y-14051966D01*
X32830033Y-14085300D01*
X32863366Y-14118633D01*
X32896700Y-14185300D01*
X32896700Y-14251966D01*
X32863366Y-14351966D01*
X32463366Y-14751966D01*
X32896700Y-14751966D01*
X33696700Y-14018633D02*
X33096700Y-14918633D01*
X33896700Y-14718633D02*
X33996700Y-14751966D01*
X34163366Y-14751966D01*
X34230033Y-14718633D01*
X34263366Y-14685300D01*
X34296700Y-14618633D01*
X34296700Y-14551966D01*
X34263366Y-14485300D01*
X34230033Y-14451966D01*
X34163366Y-14418633D01*
X34030033Y-14385300D01*
X33963366Y-14351966D01*
X33930033Y-14318633D01*
X33896700Y-14251966D01*
X33896700Y-14185300D01*
X33930033Y-14118633D01*
X33963366Y-14085300D01*
X34030033Y-14051966D01*
X34196700Y-14051966D01*
X34296700Y-14085300D01*
X34996700Y-14685300D02*
X34963366Y-14718633D01*
X34863366Y-14751966D01*
X34796700Y-14751966D01*
X34696700Y-14718633D01*
X34630033Y-14651966D01*
X34596700Y-14585300D01*
X34563366Y-14451966D01*
X34563366Y-14351966D01*
X34596700Y-14218633D01*
X34630033Y-14151966D01*
X34696700Y-14085300D01*
X34796700Y-14051966D01*
X34863366Y-14051966D01*
X34963366Y-14085300D01*
X34996700Y-14118633D01*
X35630033Y-14751966D02*
X35296700Y-14751966D01*
X35296700Y-14051966D01*
D10*
X-247200Y-34465200D02*
X-247200Y9534800D01*
X48752800Y-39465200D02*
X4752800Y-39465200D01*
D14*
X21366800Y-4238400D02*
X20891800Y-4238400D01*
X26111800Y-9458400D02*
X26111800Y-8983400D01*
X25636800Y-9458400D02*
X26111800Y-9458400D01*
X20891800Y-9458400D02*
X20891800Y-8983400D01*
X21366800Y-9458400D02*
X20891800Y-9458400D01*
X26111800Y-4238400D02*
X26111800Y-4713400D01*
X25636800Y-4238400D02*
X26111800Y-4238400D01*
X16926800Y-7048400D02*
X15526800Y-7048400D01*
X14826800Y-6348400D02*
X14826800Y-5748400D01*
X15526800Y-5048400D02*
X16926800Y-5048400D01*
X17626800Y-5748400D02*
X17626800Y-6348400D01*
X17626800Y-6348400D02*
G75*
G02X16926800Y-7048400I-700000J0D01*
G01*
X16926800Y-5048400D02*
G75*
G02X17626800Y-5748400I0J-700000D01*
G01*
X14826800Y-5748400D02*
G75*
G02X15526800Y-5048400I700000J0D01*
G01*
X15526800Y-7048400D02*
G75*
G02X14826800Y-6348400I0J700000D01*
G01*
X16926800Y-4398400D02*
X15526800Y-4398400D01*
X14826800Y-3698400D02*
X14826800Y-3098400D01*
X15526800Y-2398400D02*
X16926800Y-2398400D01*
X17626800Y-3098400D02*
X17626800Y-3698400D01*
X17626800Y-3698400D02*
G75*
G02X16926800Y-4398400I-700000J0D01*
G01*
X16926800Y-2398400D02*
G75*
G02X17626800Y-3098400I0J-700000D01*
G01*
X14826800Y-3098400D02*
G75*
G02X15526800Y-2398400I700000J0D01*
G01*
X15526800Y-4398400D02*
G75*
G02X14826800Y-3698400I0J700000D01*
G01*
X23546800Y-19118400D02*
X24876800Y-19118400D01*
X23546800Y-20448400D02*
X23546800Y-19118400D01*
X26146800Y-19118400D02*
X28746800Y-19118400D01*
X26146800Y-21718400D02*
X26146800Y-19118400D01*
X23546800Y-21718400D02*
X26146800Y-21718400D01*
X28746800Y-19118400D02*
X28746800Y-26858400D01*
X23546800Y-21718400D02*
X23546800Y-26858400D01*
X23546800Y-26858400D02*
X28746800Y-26858400D01*
X18901021Y-8400D02*
X19226579Y-8400D01*
X18901021Y1011600D02*
X19226579Y1011600D01*
X15751579Y961600D02*
X15426021Y961600D01*
X15751579Y-58400D02*
X15426021Y-58400D01*
X14922378Y-24938400D02*
X14405222Y-24938400D01*
X14922378Y-26358400D02*
X14405222Y-26358400D01*
X18076021Y-25833400D02*
X18401579Y-25833400D01*
X18076021Y-24813400D02*
X18401579Y-24813400D01*
D10*
X12051800Y-15423400D02*
X10451800Y-15423400D01*
X12051800Y-23848400D02*
X17801800Y-23848400D01*
X12051800Y-15198400D02*
X17801800Y-15198400D01*
X12051800Y-23848400D02*
X12051800Y-23548400D01*
X17801800Y-23848400D02*
X17801800Y-23548400D01*
X17801800Y-15198400D02*
X17801800Y-15498400D01*
X12051800Y-15198400D02*
X12051800Y-15423400D01*
D14*
X26526800Y4976600D02*
X27926800Y4976600D01*
X28626800Y4276600D02*
X28626800Y3676600D01*
X27926800Y2976600D02*
X26526800Y2976600D01*
X25826800Y3676600D02*
X25826800Y4276600D01*
X25826800Y4276600D02*
G75*
G02X26526800Y4976600I700000J0D01*
G01*
X26526800Y2976600D02*
G75*
G02X25826800Y3676600I0J700000D01*
G01*
X28626800Y3676600D02*
G75*
G02X27926800Y2976600I-700000J0D01*
G01*
X27926800Y4976600D02*
G75*
G02X28626800Y4276600I0J-700000D01*
G01*
X23201800Y4976600D02*
X24601800Y4976600D01*
X25301800Y4276600D02*
X25301800Y3676600D01*
X24601800Y2976600D02*
X23201800Y2976600D01*
X22501800Y3676600D02*
X22501800Y4276600D01*
X22501800Y4276600D02*
G75*
G02X23201800Y4976600I700000J0D01*
G01*
X23201800Y2976600D02*
G75*
G02X22501800Y3676600I0J700000D01*
G01*
X25301800Y3676600D02*
G75*
G02X24601800Y2976600I-700000J0D01*
G01*
X24601800Y4976600D02*
G75*
G02X25301800Y4276600I0J-700000D01*
G01*
X29836800Y-6898679D02*
X29836800Y-6573121D01*
X28816800Y-6898679D02*
X28816800Y-6573121D01*
D10*
X-247200Y9534800D02*
G75*
G02X4752800Y14534800I5000000J0D01*
G01*
X53752800Y-34465200D02*
G75*
G02X48752800Y-39465200I-5000000J0D01*
G01*
X4752800Y-39465200D02*
G75*
G02X-247200Y-34465200I0J5000000D01*
G01*
X48752800Y14534800D02*
G75*
G02X53752800Y9534800I0J-5000000D01*
G01*
X22739895Y-2480780D02*
X22739895Y-3290304D01*
X22787514Y-3385542D01*
X22835133Y-3433161D01*
X22930371Y-3480780D01*
X23120847Y-3480780D01*
X23216085Y-3433161D01*
X23263704Y-3385542D01*
X23311323Y-3290304D01*
X23311323Y-2480780D01*
X23739895Y-2576019D02*
X23787514Y-2528400D01*
X23882752Y-2480780D01*
X24120847Y-2480780D01*
X24216085Y-2528400D01*
X24263704Y-2576019D01*
X24311323Y-2671257D01*
X24311323Y-2766495D01*
X24263704Y-2909352D01*
X23692276Y-3480780D01*
X24311323Y-3480780D01*
X18897133Y1479220D02*
X18563800Y1955410D01*
X18325704Y1479220D02*
X18325704Y2479220D01*
X18706657Y2479220D01*
X18801895Y2431600D01*
X18849514Y2383981D01*
X18897133Y2288743D01*
X18897133Y2145886D01*
X18849514Y2050648D01*
X18801895Y2003029D01*
X18706657Y1955410D01*
X18325704Y1955410D01*
X19849514Y1479220D02*
X19278085Y1479220D01*
X19563800Y1479220D02*
X19563800Y2479220D01*
X19468561Y2336362D01*
X19373323Y2241124D01*
X19278085Y2193505D01*
X15484633Y1569458D02*
X15437014Y1521839D01*
X15294157Y1474220D01*
X15198919Y1474220D01*
X15056061Y1521839D01*
X14960823Y1617077D01*
X14913204Y1712315D01*
X14865585Y1902791D01*
X14865585Y2045648D01*
X14913204Y2236124D01*
X14960823Y2331362D01*
X15056061Y2426600D01*
X15198919Y2474220D01*
X15294157Y2474220D01*
X15437014Y2426600D01*
X15484633Y2378981D01*
X16341776Y2140886D02*
X16341776Y1474220D01*
X16103680Y2521839D02*
X15865585Y1807553D01*
X16484633Y1807553D01*
X14497133Y-27655542D02*
X14449514Y-27703161D01*
X14306657Y-27750780D01*
X14211419Y-27750780D01*
X14068561Y-27703161D01*
X13973323Y-27607923D01*
X13925704Y-27512685D01*
X13878085Y-27322209D01*
X13878085Y-27179352D01*
X13925704Y-26988876D01*
X13973323Y-26893638D01*
X14068561Y-26798400D01*
X14211419Y-26750780D01*
X14306657Y-26750780D01*
X14449514Y-26798400D01*
X14497133Y-26846019D01*
X14830466Y-26750780D02*
X15449514Y-26750780D01*
X15116180Y-27131733D01*
X15259038Y-27131733D01*
X15354276Y-27179352D01*
X15401895Y-27226971D01*
X15449514Y-27322209D01*
X15449514Y-27560304D01*
X15401895Y-27655542D01*
X15354276Y-27703161D01*
X15259038Y-27750780D01*
X14973323Y-27750780D01*
X14878085Y-27703161D01*
X14830466Y-27655542D01*
X18034633Y-27205542D02*
X17987014Y-27253161D01*
X17844157Y-27300780D01*
X17748919Y-27300780D01*
X17606061Y-27253161D01*
X17510823Y-27157923D01*
X17463204Y-27062685D01*
X17415585Y-26872209D01*
X17415585Y-26729352D01*
X17463204Y-26538876D01*
X17510823Y-26443638D01*
X17606061Y-26348400D01*
X17748919Y-26300780D01*
X17844157Y-26300780D01*
X17987014Y-26348400D01*
X18034633Y-26396019D01*
X18415585Y-26396019D02*
X18463204Y-26348400D01*
X18558442Y-26300780D01*
X18796538Y-26300780D01*
X18891776Y-26348400D01*
X18939395Y-26396019D01*
X18987014Y-26491257D01*
X18987014Y-26586495D01*
X18939395Y-26729352D01*
X18367966Y-27300780D01*
X18987014Y-27300780D01*
X14164895Y-13725780D02*
X14164895Y-14535304D01*
X14212514Y-14630542D01*
X14260133Y-14678161D01*
X14355371Y-14725780D01*
X14545847Y-14725780D01*
X14641085Y-14678161D01*
X14688704Y-14630542D01*
X14736323Y-14535304D01*
X14736323Y-13725780D01*
X15736323Y-14725780D02*
X15164895Y-14725780D01*
X15450609Y-14725780D02*
X15450609Y-13725780D01*
X15355371Y-13868638D01*
X15260133Y-13963876D01*
X15164895Y-14011495D01*
X31358942Y-6752566D02*
X31406561Y-6800185D01*
X31454180Y-6943042D01*
X31454180Y-7038280D01*
X31406561Y-7181138D01*
X31311323Y-7276376D01*
X31216085Y-7323995D01*
X31025609Y-7371614D01*
X30882752Y-7371614D01*
X30692276Y-7323995D01*
X30597038Y-7276376D01*
X30501800Y-7181138D01*
X30454180Y-7038280D01*
X30454180Y-6943042D01*
X30501800Y-6800185D01*
X30549419Y-6752566D01*
X31454180Y-5800185D02*
X31454180Y-6371614D01*
X31454180Y-6085900D02*
X30454180Y-6085900D01*
X30597038Y-6181138D01*
X30692276Y-6276376D01*
X30739895Y-6371614D01*
%LPC*%
D15*
X23501800Y-6848400D03*
D16*
G36*
X21930228Y-3774182D02*
G01*
X21946002Y-3776522D01*
X21961471Y-3780397D01*
X21976486Y-3785770D01*
X21990902Y-3792588D01*
X22004580Y-3800786D01*
X22017389Y-3810286D01*
X22029205Y-3820995D01*
X22039914Y-3832811D01*
X22049414Y-3845620D01*
X22057612Y-3859298D01*
X22064430Y-3873714D01*
X22069803Y-3888729D01*
X22073678Y-3904198D01*
X22076018Y-3919972D01*
X22076800Y-3935900D01*
X22076800Y-4885900D01*
X22076018Y-4901828D01*
X22073678Y-4917602D01*
X22069803Y-4933071D01*
X22064430Y-4948086D01*
X22057612Y-4962502D01*
X22049414Y-4976180D01*
X22039914Y-4988989D01*
X22029205Y-5000805D01*
X22017389Y-5011514D01*
X22004580Y-5021014D01*
X21990902Y-5029212D01*
X21976486Y-5036030D01*
X21961471Y-5041403D01*
X21946002Y-5045278D01*
X21930228Y-5047618D01*
X21914300Y-5048400D01*
X21589300Y-5048400D01*
X21573372Y-5047618D01*
X21557598Y-5045278D01*
X21542129Y-5041403D01*
X21527114Y-5036030D01*
X21512698Y-5029212D01*
X21499020Y-5021014D01*
X21486211Y-5011514D01*
X21474395Y-5000805D01*
X21463686Y-4988989D01*
X21454186Y-4976180D01*
X21445988Y-4962502D01*
X21439170Y-4948086D01*
X21433797Y-4933071D01*
X21429922Y-4917602D01*
X21427582Y-4901828D01*
X21426800Y-4885900D01*
X21426800Y-3935900D01*
X21427582Y-3919972D01*
X21429922Y-3904198D01*
X21433797Y-3888729D01*
X21439170Y-3873714D01*
X21445988Y-3859298D01*
X21454186Y-3845620D01*
X21463686Y-3832811D01*
X21474395Y-3820995D01*
X21486211Y-3810286D01*
X21499020Y-3800786D01*
X21512698Y-3792588D01*
X21527114Y-3785770D01*
X21542129Y-3780397D01*
X21557598Y-3776522D01*
X21573372Y-3774182D01*
X21589300Y-3773400D01*
X21914300Y-3773400D01*
X21930228Y-3774182D01*
G37*
G36*
X22430228Y-3774182D02*
G01*
X22446002Y-3776522D01*
X22461471Y-3780397D01*
X22476486Y-3785770D01*
X22490902Y-3792588D01*
X22504580Y-3800786D01*
X22517389Y-3810286D01*
X22529205Y-3820995D01*
X22539914Y-3832811D01*
X22549414Y-3845620D01*
X22557612Y-3859298D01*
X22564430Y-3873714D01*
X22569803Y-3888729D01*
X22573678Y-3904198D01*
X22576018Y-3919972D01*
X22576800Y-3935900D01*
X22576800Y-4885900D01*
X22576018Y-4901828D01*
X22573678Y-4917602D01*
X22569803Y-4933071D01*
X22564430Y-4948086D01*
X22557612Y-4962502D01*
X22549414Y-4976180D01*
X22539914Y-4988989D01*
X22529205Y-5000805D01*
X22517389Y-5011514D01*
X22504580Y-5021014D01*
X22490902Y-5029212D01*
X22476486Y-5036030D01*
X22461471Y-5041403D01*
X22446002Y-5045278D01*
X22430228Y-5047618D01*
X22414300Y-5048400D01*
X22089300Y-5048400D01*
X22073372Y-5047618D01*
X22057598Y-5045278D01*
X22042129Y-5041403D01*
X22027114Y-5036030D01*
X22012698Y-5029212D01*
X21999020Y-5021014D01*
X21986211Y-5011514D01*
X21974395Y-5000805D01*
X21963686Y-4988989D01*
X21954186Y-4976180D01*
X21945988Y-4962502D01*
X21939170Y-4948086D01*
X21933797Y-4933071D01*
X21929922Y-4917602D01*
X21927582Y-4901828D01*
X21926800Y-4885900D01*
X21926800Y-3935900D01*
X21927582Y-3919972D01*
X21929922Y-3904198D01*
X21933797Y-3888729D01*
X21939170Y-3873714D01*
X21945988Y-3859298D01*
X21954186Y-3845620D01*
X21963686Y-3832811D01*
X21974395Y-3820995D01*
X21986211Y-3810286D01*
X21999020Y-3800786D01*
X22012698Y-3792588D01*
X22027114Y-3785770D01*
X22042129Y-3780397D01*
X22057598Y-3776522D01*
X22073372Y-3774182D01*
X22089300Y-3773400D01*
X22414300Y-3773400D01*
X22430228Y-3774182D01*
G37*
G36*
X22930228Y-3774182D02*
G01*
X22946002Y-3776522D01*
X22961471Y-3780397D01*
X22976486Y-3785770D01*
X22990902Y-3792588D01*
X23004580Y-3800786D01*
X23017389Y-3810286D01*
X23029205Y-3820995D01*
X23039914Y-3832811D01*
X23049414Y-3845620D01*
X23057612Y-3859298D01*
X23064430Y-3873714D01*
X23069803Y-3888729D01*
X23073678Y-3904198D01*
X23076018Y-3919972D01*
X23076800Y-3935900D01*
X23076800Y-4885900D01*
X23076018Y-4901828D01*
X23073678Y-4917602D01*
X23069803Y-4933071D01*
X23064430Y-4948086D01*
X23057612Y-4962502D01*
X23049414Y-4976180D01*
X23039914Y-4988989D01*
X23029205Y-5000805D01*
X23017389Y-5011514D01*
X23004580Y-5021014D01*
X22990902Y-5029212D01*
X22976486Y-5036030D01*
X22961471Y-5041403D01*
X22946002Y-5045278D01*
X22930228Y-5047618D01*
X22914300Y-5048400D01*
X22589300Y-5048400D01*
X22573372Y-5047618D01*
X22557598Y-5045278D01*
X22542129Y-5041403D01*
X22527114Y-5036030D01*
X22512698Y-5029212D01*
X22499020Y-5021014D01*
X22486211Y-5011514D01*
X22474395Y-5000805D01*
X22463686Y-4988989D01*
X22454186Y-4976180D01*
X22445988Y-4962502D01*
X22439170Y-4948086D01*
X22433797Y-4933071D01*
X22429922Y-4917602D01*
X22427582Y-4901828D01*
X22426800Y-4885900D01*
X22426800Y-3935900D01*
X22427582Y-3919972D01*
X22429922Y-3904198D01*
X22433797Y-3888729D01*
X22439170Y-3873714D01*
X22445988Y-3859298D01*
X22454186Y-3845620D01*
X22463686Y-3832811D01*
X22474395Y-3820995D01*
X22486211Y-3810286D01*
X22499020Y-3800786D01*
X22512698Y-3792588D01*
X22527114Y-3785770D01*
X22542129Y-3780397D01*
X22557598Y-3776522D01*
X22573372Y-3774182D01*
X22589300Y-3773400D01*
X22914300Y-3773400D01*
X22930228Y-3774182D01*
G37*
G36*
X23430228Y-3774182D02*
G01*
X23446002Y-3776522D01*
X23461471Y-3780397D01*
X23476486Y-3785770D01*
X23490902Y-3792588D01*
X23504580Y-3800786D01*
X23517389Y-3810286D01*
X23529205Y-3820995D01*
X23539914Y-3832811D01*
X23549414Y-3845620D01*
X23557612Y-3859298D01*
X23564430Y-3873714D01*
X23569803Y-3888729D01*
X23573678Y-3904198D01*
X23576018Y-3919972D01*
X23576800Y-3935900D01*
X23576800Y-4885900D01*
X23576018Y-4901828D01*
X23573678Y-4917602D01*
X23569803Y-4933071D01*
X23564430Y-4948086D01*
X23557612Y-4962502D01*
X23549414Y-4976180D01*
X23539914Y-4988989D01*
X23529205Y-5000805D01*
X23517389Y-5011514D01*
X23504580Y-5021014D01*
X23490902Y-5029212D01*
X23476486Y-5036030D01*
X23461471Y-5041403D01*
X23446002Y-5045278D01*
X23430228Y-5047618D01*
X23414300Y-5048400D01*
X23089300Y-5048400D01*
X23073372Y-5047618D01*
X23057598Y-5045278D01*
X23042129Y-5041403D01*
X23027114Y-5036030D01*
X23012698Y-5029212D01*
X22999020Y-5021014D01*
X22986211Y-5011514D01*
X22974395Y-5000805D01*
X22963686Y-4988989D01*
X22954186Y-4976180D01*
X22945988Y-4962502D01*
X22939170Y-4948086D01*
X22933797Y-4933071D01*
X22929922Y-4917602D01*
X22927582Y-4901828D01*
X22926800Y-4885900D01*
X22926800Y-3935900D01*
X22927582Y-3919972D01*
X22929922Y-3904198D01*
X22933797Y-3888729D01*
X22939170Y-3873714D01*
X22945988Y-3859298D01*
X22954186Y-3845620D01*
X22963686Y-3832811D01*
X22974395Y-3820995D01*
X22986211Y-3810286D01*
X22999020Y-3800786D01*
X23012698Y-3792588D01*
X23027114Y-3785770D01*
X23042129Y-3780397D01*
X23057598Y-3776522D01*
X23073372Y-3774182D01*
X23089300Y-3773400D01*
X23414300Y-3773400D01*
X23430228Y-3774182D01*
G37*
G36*
X23930228Y-3774182D02*
G01*
X23946002Y-3776522D01*
X23961471Y-3780397D01*
X23976486Y-3785770D01*
X23990902Y-3792588D01*
X24004580Y-3800786D01*
X24017389Y-3810286D01*
X24029205Y-3820995D01*
X24039914Y-3832811D01*
X24049414Y-3845620D01*
X24057612Y-3859298D01*
X24064430Y-3873714D01*
X24069803Y-3888729D01*
X24073678Y-3904198D01*
X24076018Y-3919972D01*
X24076800Y-3935900D01*
X24076800Y-4885900D01*
X24076018Y-4901828D01*
X24073678Y-4917602D01*
X24069803Y-4933071D01*
X24064430Y-4948086D01*
X24057612Y-4962502D01*
X24049414Y-4976180D01*
X24039914Y-4988989D01*
X24029205Y-5000805D01*
X24017389Y-5011514D01*
X24004580Y-5021014D01*
X23990902Y-5029212D01*
X23976486Y-5036030D01*
X23961471Y-5041403D01*
X23946002Y-5045278D01*
X23930228Y-5047618D01*
X23914300Y-5048400D01*
X23589300Y-5048400D01*
X23573372Y-5047618D01*
X23557598Y-5045278D01*
X23542129Y-5041403D01*
X23527114Y-5036030D01*
X23512698Y-5029212D01*
X23499020Y-5021014D01*
X23486211Y-5011514D01*
X23474395Y-5000805D01*
X23463686Y-4988989D01*
X23454186Y-4976180D01*
X23445988Y-4962502D01*
X23439170Y-4948086D01*
X23433797Y-4933071D01*
X23429922Y-4917602D01*
X23427582Y-4901828D01*
X23426800Y-4885900D01*
X23426800Y-3935900D01*
X23427582Y-3919972D01*
X23429922Y-3904198D01*
X23433797Y-3888729D01*
X23439170Y-3873714D01*
X23445988Y-3859298D01*
X23454186Y-3845620D01*
X23463686Y-3832811D01*
X23474395Y-3820995D01*
X23486211Y-3810286D01*
X23499020Y-3800786D01*
X23512698Y-3792588D01*
X23527114Y-3785770D01*
X23542129Y-3780397D01*
X23557598Y-3776522D01*
X23573372Y-3774182D01*
X23589300Y-3773400D01*
X23914300Y-3773400D01*
X23930228Y-3774182D01*
G37*
G36*
X24430228Y-3774182D02*
G01*
X24446002Y-3776522D01*
X24461471Y-3780397D01*
X24476486Y-3785770D01*
X24490902Y-3792588D01*
X24504580Y-3800786D01*
X24517389Y-3810286D01*
X24529205Y-3820995D01*
X24539914Y-3832811D01*
X24549414Y-3845620D01*
X24557612Y-3859298D01*
X24564430Y-3873714D01*
X24569803Y-3888729D01*
X24573678Y-3904198D01*
X24576018Y-3919972D01*
X24576800Y-3935900D01*
X24576800Y-4885900D01*
X24576018Y-4901828D01*
X24573678Y-4917602D01*
X24569803Y-4933071D01*
X24564430Y-4948086D01*
X24557612Y-4962502D01*
X24549414Y-4976180D01*
X24539914Y-4988989D01*
X24529205Y-5000805D01*
X24517389Y-5011514D01*
X24504580Y-5021014D01*
X24490902Y-5029212D01*
X24476486Y-5036030D01*
X24461471Y-5041403D01*
X24446002Y-5045278D01*
X24430228Y-5047618D01*
X24414300Y-5048400D01*
X24089300Y-5048400D01*
X24073372Y-5047618D01*
X24057598Y-5045278D01*
X24042129Y-5041403D01*
X24027114Y-5036030D01*
X24012698Y-5029212D01*
X23999020Y-5021014D01*
X23986211Y-5011514D01*
X23974395Y-5000805D01*
X23963686Y-4988989D01*
X23954186Y-4976180D01*
X23945988Y-4962502D01*
X23939170Y-4948086D01*
X23933797Y-4933071D01*
X23929922Y-4917602D01*
X23927582Y-4901828D01*
X23926800Y-4885900D01*
X23926800Y-3935900D01*
X23927582Y-3919972D01*
X23929922Y-3904198D01*
X23933797Y-3888729D01*
X23939170Y-3873714D01*
X23945988Y-3859298D01*
X23954186Y-3845620D01*
X23963686Y-3832811D01*
X23974395Y-3820995D01*
X23986211Y-3810286D01*
X23999020Y-3800786D01*
X24012698Y-3792588D01*
X24027114Y-3785770D01*
X24042129Y-3780397D01*
X24057598Y-3776522D01*
X24073372Y-3774182D01*
X24089300Y-3773400D01*
X24414300Y-3773400D01*
X24430228Y-3774182D01*
G37*
G36*
X24930228Y-3774182D02*
G01*
X24946002Y-3776522D01*
X24961471Y-3780397D01*
X24976486Y-3785770D01*
X24990902Y-3792588D01*
X25004580Y-3800786D01*
X25017389Y-3810286D01*
X25029205Y-3820995D01*
X25039914Y-3832811D01*
X25049414Y-3845620D01*
X25057612Y-3859298D01*
X25064430Y-3873714D01*
X25069803Y-3888729D01*
X25073678Y-3904198D01*
X25076018Y-3919972D01*
X25076800Y-3935900D01*
X25076800Y-4885900D01*
X25076018Y-4901828D01*
X25073678Y-4917602D01*
X25069803Y-4933071D01*
X25064430Y-4948086D01*
X25057612Y-4962502D01*
X25049414Y-4976180D01*
X25039914Y-4988989D01*
X25029205Y-5000805D01*
X25017389Y-5011514D01*
X25004580Y-5021014D01*
X24990902Y-5029212D01*
X24976486Y-5036030D01*
X24961471Y-5041403D01*
X24946002Y-5045278D01*
X24930228Y-5047618D01*
X24914300Y-5048400D01*
X24589300Y-5048400D01*
X24573372Y-5047618D01*
X24557598Y-5045278D01*
X24542129Y-5041403D01*
X24527114Y-5036030D01*
X24512698Y-5029212D01*
X24499020Y-5021014D01*
X24486211Y-5011514D01*
X24474395Y-5000805D01*
X24463686Y-4988989D01*
X24454186Y-4976180D01*
X24445988Y-4962502D01*
X24439170Y-4948086D01*
X24433797Y-4933071D01*
X24429922Y-4917602D01*
X24427582Y-4901828D01*
X24426800Y-4885900D01*
X24426800Y-3935900D01*
X24427582Y-3919972D01*
X24429922Y-3904198D01*
X24433797Y-3888729D01*
X24439170Y-3873714D01*
X24445988Y-3859298D01*
X24454186Y-3845620D01*
X24463686Y-3832811D01*
X24474395Y-3820995D01*
X24486211Y-3810286D01*
X24499020Y-3800786D01*
X24512698Y-3792588D01*
X24527114Y-3785770D01*
X24542129Y-3780397D01*
X24557598Y-3776522D01*
X24573372Y-3774182D01*
X24589300Y-3773400D01*
X24914300Y-3773400D01*
X24930228Y-3774182D01*
G37*
G36*
X25430228Y-3774182D02*
G01*
X25446002Y-3776522D01*
X25461471Y-3780397D01*
X25476486Y-3785770D01*
X25490902Y-3792588D01*
X25504580Y-3800786D01*
X25517389Y-3810286D01*
X25529205Y-3820995D01*
X25539914Y-3832811D01*
X25549414Y-3845620D01*
X25557612Y-3859298D01*
X25564430Y-3873714D01*
X25569803Y-3888729D01*
X25573678Y-3904198D01*
X25576018Y-3919972D01*
X25576800Y-3935900D01*
X25576800Y-4885900D01*
X25576018Y-4901828D01*
X25573678Y-4917602D01*
X25569803Y-4933071D01*
X25564430Y-4948086D01*
X25557612Y-4962502D01*
X25549414Y-4976180D01*
X25539914Y-4988989D01*
X25529205Y-5000805D01*
X25517389Y-5011514D01*
X25504580Y-5021014D01*
X25490902Y-5029212D01*
X25476486Y-5036030D01*
X25461471Y-5041403D01*
X25446002Y-5045278D01*
X25430228Y-5047618D01*
X25414300Y-5048400D01*
X25089300Y-5048400D01*
X25073372Y-5047618D01*
X25057598Y-5045278D01*
X25042129Y-5041403D01*
X25027114Y-5036030D01*
X25012698Y-5029212D01*
X24999020Y-5021014D01*
X24986211Y-5011514D01*
X24974395Y-5000805D01*
X24963686Y-4988989D01*
X24954186Y-4976180D01*
X24945988Y-4962502D01*
X24939170Y-4948086D01*
X24933797Y-4933071D01*
X24929922Y-4917602D01*
X24927582Y-4901828D01*
X24926800Y-4885900D01*
X24926800Y-3935900D01*
X24927582Y-3919972D01*
X24929922Y-3904198D01*
X24933797Y-3888729D01*
X24939170Y-3873714D01*
X24945988Y-3859298D01*
X24954186Y-3845620D01*
X24963686Y-3832811D01*
X24974395Y-3820995D01*
X24986211Y-3810286D01*
X24999020Y-3800786D01*
X25012698Y-3792588D01*
X25027114Y-3785770D01*
X25042129Y-3780397D01*
X25057598Y-3776522D01*
X25073372Y-3774182D01*
X25089300Y-3773400D01*
X25414300Y-3773400D01*
X25430228Y-3774182D01*
G37*
G36*
X26430228Y-4774182D02*
G01*
X26446002Y-4776522D01*
X26461471Y-4780397D01*
X26476486Y-4785770D01*
X26490902Y-4792588D01*
X26504580Y-4800786D01*
X26517389Y-4810286D01*
X26529205Y-4820995D01*
X26539914Y-4832811D01*
X26549414Y-4845620D01*
X26557612Y-4859298D01*
X26564430Y-4873714D01*
X26569803Y-4888729D01*
X26573678Y-4904198D01*
X26576018Y-4919972D01*
X26576800Y-4935900D01*
X26576800Y-5260900D01*
X26576018Y-5276828D01*
X26573678Y-5292602D01*
X26569803Y-5308071D01*
X26564430Y-5323086D01*
X26557612Y-5337502D01*
X26549414Y-5351180D01*
X26539914Y-5363989D01*
X26529205Y-5375805D01*
X26517389Y-5386514D01*
X26504580Y-5396014D01*
X26490902Y-5404212D01*
X26476486Y-5411030D01*
X26461471Y-5416403D01*
X26446002Y-5420278D01*
X26430228Y-5422618D01*
X26414300Y-5423400D01*
X25464300Y-5423400D01*
X25448372Y-5422618D01*
X25432598Y-5420278D01*
X25417129Y-5416403D01*
X25402114Y-5411030D01*
X25387698Y-5404212D01*
X25374020Y-5396014D01*
X25361211Y-5386514D01*
X25349395Y-5375805D01*
X25338686Y-5363989D01*
X25329186Y-5351180D01*
X25320988Y-5337502D01*
X25314170Y-5323086D01*
X25308797Y-5308071D01*
X25304922Y-5292602D01*
X25302582Y-5276828D01*
X25301800Y-5260900D01*
X25301800Y-4935900D01*
X25302582Y-4919972D01*
X25304922Y-4904198D01*
X25308797Y-4888729D01*
X25314170Y-4873714D01*
X25320988Y-4859298D01*
X25329186Y-4845620D01*
X25338686Y-4832811D01*
X25349395Y-4820995D01*
X25361211Y-4810286D01*
X25374020Y-4800786D01*
X25387698Y-4792588D01*
X25402114Y-4785770D01*
X25417129Y-4780397D01*
X25432598Y-4776522D01*
X25448372Y-4774182D01*
X25464300Y-4773400D01*
X26414300Y-4773400D01*
X26430228Y-4774182D01*
G37*
G36*
X26430228Y-5274182D02*
G01*
X26446002Y-5276522D01*
X26461471Y-5280397D01*
X26476486Y-5285770D01*
X26490902Y-5292588D01*
X26504580Y-5300786D01*
X26517389Y-5310286D01*
X26529205Y-5320995D01*
X26539914Y-5332811D01*
X26549414Y-5345620D01*
X26557612Y-5359298D01*
X26564430Y-5373714D01*
X26569803Y-5388729D01*
X26573678Y-5404198D01*
X26576018Y-5419972D01*
X26576800Y-5435900D01*
X26576800Y-5760900D01*
X26576018Y-5776828D01*
X26573678Y-5792602D01*
X26569803Y-5808071D01*
X26564430Y-5823086D01*
X26557612Y-5837502D01*
X26549414Y-5851180D01*
X26539914Y-5863989D01*
X26529205Y-5875805D01*
X26517389Y-5886514D01*
X26504580Y-5896014D01*
X26490902Y-5904212D01*
X26476486Y-5911030D01*
X26461471Y-5916403D01*
X26446002Y-5920278D01*
X26430228Y-5922618D01*
X26414300Y-5923400D01*
X25464300Y-5923400D01*
X25448372Y-5922618D01*
X25432598Y-5920278D01*
X25417129Y-5916403D01*
X25402114Y-5911030D01*
X25387698Y-5904212D01*
X25374020Y-5896014D01*
X25361211Y-5886514D01*
X25349395Y-5875805D01*
X25338686Y-5863989D01*
X25329186Y-5851180D01*
X25320988Y-5837502D01*
X25314170Y-5823086D01*
X25308797Y-5808071D01*
X25304922Y-5792602D01*
X25302582Y-5776828D01*
X25301800Y-5760900D01*
X25301800Y-5435900D01*
X25302582Y-5419972D01*
X25304922Y-5404198D01*
X25308797Y-5388729D01*
X25314170Y-5373714D01*
X25320988Y-5359298D01*
X25329186Y-5345620D01*
X25338686Y-5332811D01*
X25349395Y-5320995D01*
X25361211Y-5310286D01*
X25374020Y-5300786D01*
X25387698Y-5292588D01*
X25402114Y-5285770D01*
X25417129Y-5280397D01*
X25432598Y-5276522D01*
X25448372Y-5274182D01*
X25464300Y-5273400D01*
X26414300Y-5273400D01*
X26430228Y-5274182D01*
G37*
G36*
X26430228Y-5774182D02*
G01*
X26446002Y-5776522D01*
X26461471Y-5780397D01*
X26476486Y-5785770D01*
X26490902Y-5792588D01*
X26504580Y-5800786D01*
X26517389Y-5810286D01*
X26529205Y-5820995D01*
X26539914Y-5832811D01*
X26549414Y-5845620D01*
X26557612Y-5859298D01*
X26564430Y-5873714D01*
X26569803Y-5888729D01*
X26573678Y-5904198D01*
X26576018Y-5919972D01*
X26576800Y-5935900D01*
X26576800Y-6260900D01*
X26576018Y-6276828D01*
X26573678Y-6292602D01*
X26569803Y-6308071D01*
X26564430Y-6323086D01*
X26557612Y-6337502D01*
X26549414Y-6351180D01*
X26539914Y-6363989D01*
X26529205Y-6375805D01*
X26517389Y-6386514D01*
X26504580Y-6396014D01*
X26490902Y-6404212D01*
X26476486Y-6411030D01*
X26461471Y-6416403D01*
X26446002Y-6420278D01*
X26430228Y-6422618D01*
X26414300Y-6423400D01*
X25464300Y-6423400D01*
X25448372Y-6422618D01*
X25432598Y-6420278D01*
X25417129Y-6416403D01*
X25402114Y-6411030D01*
X25387698Y-6404212D01*
X25374020Y-6396014D01*
X25361211Y-6386514D01*
X25349395Y-6375805D01*
X25338686Y-6363989D01*
X25329186Y-6351180D01*
X25320988Y-6337502D01*
X25314170Y-6323086D01*
X25308797Y-6308071D01*
X25304922Y-6292602D01*
X25302582Y-6276828D01*
X25301800Y-6260900D01*
X25301800Y-5935900D01*
X25302582Y-5919972D01*
X25304922Y-5904198D01*
X25308797Y-5888729D01*
X25314170Y-5873714D01*
X25320988Y-5859298D01*
X25329186Y-5845620D01*
X25338686Y-5832811D01*
X25349395Y-5820995D01*
X25361211Y-5810286D01*
X25374020Y-5800786D01*
X25387698Y-5792588D01*
X25402114Y-5785770D01*
X25417129Y-5780397D01*
X25432598Y-5776522D01*
X25448372Y-5774182D01*
X25464300Y-5773400D01*
X26414300Y-5773400D01*
X26430228Y-5774182D01*
G37*
G36*
X26430228Y-6274182D02*
G01*
X26446002Y-6276522D01*
X26461471Y-6280397D01*
X26476486Y-6285770D01*
X26490902Y-6292588D01*
X26504580Y-6300786D01*
X26517389Y-6310286D01*
X26529205Y-6320995D01*
X26539914Y-6332811D01*
X26549414Y-6345620D01*
X26557612Y-6359298D01*
X26564430Y-6373714D01*
X26569803Y-6388729D01*
X26573678Y-6404198D01*
X26576018Y-6419972D01*
X26576800Y-6435900D01*
X26576800Y-6760900D01*
X26576018Y-6776828D01*
X26573678Y-6792602D01*
X26569803Y-6808071D01*
X26564430Y-6823086D01*
X26557612Y-6837502D01*
X26549414Y-6851180D01*
X26539914Y-6863989D01*
X26529205Y-6875805D01*
X26517389Y-6886514D01*
X26504580Y-6896014D01*
X26490902Y-6904212D01*
X26476486Y-6911030D01*
X26461471Y-6916403D01*
X26446002Y-6920278D01*
X26430228Y-6922618D01*
X26414300Y-6923400D01*
X25464300Y-6923400D01*
X25448372Y-6922618D01*
X25432598Y-6920278D01*
X25417129Y-6916403D01*
X25402114Y-6911030D01*
X25387698Y-6904212D01*
X25374020Y-6896014D01*
X25361211Y-6886514D01*
X25349395Y-6875805D01*
X25338686Y-6863989D01*
X25329186Y-6851180D01*
X25320988Y-6837502D01*
X25314170Y-6823086D01*
X25308797Y-6808071D01*
X25304922Y-6792602D01*
X25302582Y-6776828D01*
X25301800Y-6760900D01*
X25301800Y-6435900D01*
X25302582Y-6419972D01*
X25304922Y-6404198D01*
X25308797Y-6388729D01*
X25314170Y-6373714D01*
X25320988Y-6359298D01*
X25329186Y-6345620D01*
X25338686Y-6332811D01*
X25349395Y-6320995D01*
X25361211Y-6310286D01*
X25374020Y-6300786D01*
X25387698Y-6292588D01*
X25402114Y-6285770D01*
X25417129Y-6280397D01*
X25432598Y-6276522D01*
X25448372Y-6274182D01*
X25464300Y-6273400D01*
X26414300Y-6273400D01*
X26430228Y-6274182D01*
G37*
G36*
X26430228Y-6774182D02*
G01*
X26446002Y-6776522D01*
X26461471Y-6780397D01*
X26476486Y-6785770D01*
X26490902Y-6792588D01*
X26504580Y-6800786D01*
X26517389Y-6810286D01*
X26529205Y-6820995D01*
X26539914Y-6832811D01*
X26549414Y-6845620D01*
X26557612Y-6859298D01*
X26564430Y-6873714D01*
X26569803Y-6888729D01*
X26573678Y-6904198D01*
X26576018Y-6919972D01*
X26576800Y-6935900D01*
X26576800Y-7260900D01*
X26576018Y-7276828D01*
X26573678Y-7292602D01*
X26569803Y-7308071D01*
X26564430Y-7323086D01*
X26557612Y-7337502D01*
X26549414Y-7351180D01*
X26539914Y-7363989D01*
X26529205Y-7375805D01*
X26517389Y-7386514D01*
X26504580Y-7396014D01*
X26490902Y-7404212D01*
X26476486Y-7411030D01*
X26461471Y-7416403D01*
X26446002Y-7420278D01*
X26430228Y-7422618D01*
X26414300Y-7423400D01*
X25464300Y-7423400D01*
X25448372Y-7422618D01*
X25432598Y-7420278D01*
X25417129Y-7416403D01*
X25402114Y-7411030D01*
X25387698Y-7404212D01*
X25374020Y-7396014D01*
X25361211Y-7386514D01*
X25349395Y-7375805D01*
X25338686Y-7363989D01*
X25329186Y-7351180D01*
X25320988Y-7337502D01*
X25314170Y-7323086D01*
X25308797Y-7308071D01*
X25304922Y-7292602D01*
X25302582Y-7276828D01*
X25301800Y-7260900D01*
X25301800Y-6935900D01*
X25302582Y-6919972D01*
X25304922Y-6904198D01*
X25308797Y-6888729D01*
X25314170Y-6873714D01*
X25320988Y-6859298D01*
X25329186Y-6845620D01*
X25338686Y-6832811D01*
X25349395Y-6820995D01*
X25361211Y-6810286D01*
X25374020Y-6800786D01*
X25387698Y-6792588D01*
X25402114Y-6785770D01*
X25417129Y-6780397D01*
X25432598Y-6776522D01*
X25448372Y-6774182D01*
X25464300Y-6773400D01*
X26414300Y-6773400D01*
X26430228Y-6774182D01*
G37*
G36*
X26430228Y-7274182D02*
G01*
X26446002Y-7276522D01*
X26461471Y-7280397D01*
X26476486Y-7285770D01*
X26490902Y-7292588D01*
X26504580Y-7300786D01*
X26517389Y-7310286D01*
X26529205Y-7320995D01*
X26539914Y-7332811D01*
X26549414Y-7345620D01*
X26557612Y-7359298D01*
X26564430Y-7373714D01*
X26569803Y-7388729D01*
X26573678Y-7404198D01*
X26576018Y-7419972D01*
X26576800Y-7435900D01*
X26576800Y-7760900D01*
X26576018Y-7776828D01*
X26573678Y-7792602D01*
X26569803Y-7808071D01*
X26564430Y-7823086D01*
X26557612Y-7837502D01*
X26549414Y-7851180D01*
X26539914Y-7863989D01*
X26529205Y-7875805D01*
X26517389Y-7886514D01*
X26504580Y-7896014D01*
X26490902Y-7904212D01*
X26476486Y-7911030D01*
X26461471Y-7916403D01*
X26446002Y-7920278D01*
X26430228Y-7922618D01*
X26414300Y-7923400D01*
X25464300Y-7923400D01*
X25448372Y-7922618D01*
X25432598Y-7920278D01*
X25417129Y-7916403D01*
X25402114Y-7911030D01*
X25387698Y-7904212D01*
X25374020Y-7896014D01*
X25361211Y-7886514D01*
X25349395Y-7875805D01*
X25338686Y-7863989D01*
X25329186Y-7851180D01*
X25320988Y-7837502D01*
X25314170Y-7823086D01*
X25308797Y-7808071D01*
X25304922Y-7792602D01*
X25302582Y-7776828D01*
X25301800Y-7760900D01*
X25301800Y-7435900D01*
X25302582Y-7419972D01*
X25304922Y-7404198D01*
X25308797Y-7388729D01*
X25314170Y-7373714D01*
X25320988Y-7359298D01*
X25329186Y-7345620D01*
X25338686Y-7332811D01*
X25349395Y-7320995D01*
X25361211Y-7310286D01*
X25374020Y-7300786D01*
X25387698Y-7292588D01*
X25402114Y-7285770D01*
X25417129Y-7280397D01*
X25432598Y-7276522D01*
X25448372Y-7274182D01*
X25464300Y-7273400D01*
X26414300Y-7273400D01*
X26430228Y-7274182D01*
G37*
G36*
X26430228Y-7774182D02*
G01*
X26446002Y-7776522D01*
X26461471Y-7780397D01*
X26476486Y-7785770D01*
X26490902Y-7792588D01*
X26504580Y-7800786D01*
X26517389Y-7810286D01*
X26529205Y-7820995D01*
X26539914Y-7832811D01*
X26549414Y-7845620D01*
X26557612Y-7859298D01*
X26564430Y-7873714D01*
X26569803Y-7888729D01*
X26573678Y-7904198D01*
X26576018Y-7919972D01*
X26576800Y-7935900D01*
X26576800Y-8260900D01*
X26576018Y-8276828D01*
X26573678Y-8292602D01*
X26569803Y-8308071D01*
X26564430Y-8323086D01*
X26557612Y-8337502D01*
X26549414Y-8351180D01*
X26539914Y-8363989D01*
X26529205Y-8375805D01*
X26517389Y-8386514D01*
X26504580Y-8396014D01*
X26490902Y-8404212D01*
X26476486Y-8411030D01*
X26461471Y-8416403D01*
X26446002Y-8420278D01*
X26430228Y-8422618D01*
X26414300Y-8423400D01*
X25464300Y-8423400D01*
X25448372Y-8422618D01*
X25432598Y-8420278D01*
X25417129Y-8416403D01*
X25402114Y-8411030D01*
X25387698Y-8404212D01*
X25374020Y-8396014D01*
X25361211Y-8386514D01*
X25349395Y-8375805D01*
X25338686Y-8363989D01*
X25329186Y-8351180D01*
X25320988Y-8337502D01*
X25314170Y-8323086D01*
X25308797Y-8308071D01*
X25304922Y-8292602D01*
X25302582Y-8276828D01*
X25301800Y-8260900D01*
X25301800Y-7935900D01*
X25302582Y-7919972D01*
X25304922Y-7904198D01*
X25308797Y-7888729D01*
X25314170Y-7873714D01*
X25320988Y-7859298D01*
X25329186Y-7845620D01*
X25338686Y-7832811D01*
X25349395Y-7820995D01*
X25361211Y-7810286D01*
X25374020Y-7800786D01*
X25387698Y-7792588D01*
X25402114Y-7785770D01*
X25417129Y-7780397D01*
X25432598Y-7776522D01*
X25448372Y-7774182D01*
X25464300Y-7773400D01*
X26414300Y-7773400D01*
X26430228Y-7774182D01*
G37*
G36*
X26430228Y-8274182D02*
G01*
X26446002Y-8276522D01*
X26461471Y-8280397D01*
X26476486Y-8285770D01*
X26490902Y-8292588D01*
X26504580Y-8300786D01*
X26517389Y-8310286D01*
X26529205Y-8320995D01*
X26539914Y-8332811D01*
X26549414Y-8345620D01*
X26557612Y-8359298D01*
X26564430Y-8373714D01*
X26569803Y-8388729D01*
X26573678Y-8404198D01*
X26576018Y-8419972D01*
X26576800Y-8435900D01*
X26576800Y-8760900D01*
X26576018Y-8776828D01*
X26573678Y-8792602D01*
X26569803Y-8808071D01*
X26564430Y-8823086D01*
X26557612Y-8837502D01*
X26549414Y-8851180D01*
X26539914Y-8863989D01*
X26529205Y-8875805D01*
X26517389Y-8886514D01*
X26504580Y-8896014D01*
X26490902Y-8904212D01*
X26476486Y-8911030D01*
X26461471Y-8916403D01*
X26446002Y-8920278D01*
X26430228Y-8922618D01*
X26414300Y-8923400D01*
X25464300Y-8923400D01*
X25448372Y-8922618D01*
X25432598Y-8920278D01*
X25417129Y-8916403D01*
X25402114Y-8911030D01*
X25387698Y-8904212D01*
X25374020Y-8896014D01*
X25361211Y-8886514D01*
X25349395Y-8875805D01*
X25338686Y-8863989D01*
X25329186Y-8851180D01*
X25320988Y-8837502D01*
X25314170Y-8823086D01*
X25308797Y-8808071D01*
X25304922Y-8792602D01*
X25302582Y-8776828D01*
X25301800Y-8760900D01*
X25301800Y-8435900D01*
X25302582Y-8419972D01*
X25304922Y-8404198D01*
X25308797Y-8388729D01*
X25314170Y-8373714D01*
X25320988Y-8359298D01*
X25329186Y-8345620D01*
X25338686Y-8332811D01*
X25349395Y-8320995D01*
X25361211Y-8310286D01*
X25374020Y-8300786D01*
X25387698Y-8292588D01*
X25402114Y-8285770D01*
X25417129Y-8280397D01*
X25432598Y-8276522D01*
X25448372Y-8274182D01*
X25464300Y-8273400D01*
X26414300Y-8273400D01*
X26430228Y-8274182D01*
G37*
G36*
X25430228Y-8649182D02*
G01*
X25446002Y-8651522D01*
X25461471Y-8655397D01*
X25476486Y-8660770D01*
X25490902Y-8667588D01*
X25504580Y-8675786D01*
X25517389Y-8685286D01*
X25529205Y-8695995D01*
X25539914Y-8707811D01*
X25549414Y-8720620D01*
X25557612Y-8734298D01*
X25564430Y-8748714D01*
X25569803Y-8763729D01*
X25573678Y-8779198D01*
X25576018Y-8794972D01*
X25576800Y-8810900D01*
X25576800Y-9760900D01*
X25576018Y-9776828D01*
X25573678Y-9792602D01*
X25569803Y-9808071D01*
X25564430Y-9823086D01*
X25557612Y-9837502D01*
X25549414Y-9851180D01*
X25539914Y-9863989D01*
X25529205Y-9875805D01*
X25517389Y-9886514D01*
X25504580Y-9896014D01*
X25490902Y-9904212D01*
X25476486Y-9911030D01*
X25461471Y-9916403D01*
X25446002Y-9920278D01*
X25430228Y-9922618D01*
X25414300Y-9923400D01*
X25089300Y-9923400D01*
X25073372Y-9922618D01*
X25057598Y-9920278D01*
X25042129Y-9916403D01*
X25027114Y-9911030D01*
X25012698Y-9904212D01*
X24999020Y-9896014D01*
X24986211Y-9886514D01*
X24974395Y-9875805D01*
X24963686Y-9863989D01*
X24954186Y-9851180D01*
X24945988Y-9837502D01*
X24939170Y-9823086D01*
X24933797Y-9808071D01*
X24929922Y-9792602D01*
X24927582Y-9776828D01*
X24926800Y-9760900D01*
X24926800Y-8810900D01*
X24927582Y-8794972D01*
X24929922Y-8779198D01*
X24933797Y-8763729D01*
X24939170Y-8748714D01*
X24945988Y-8734298D01*
X24954186Y-8720620D01*
X24963686Y-8707811D01*
X24974395Y-8695995D01*
X24986211Y-8685286D01*
X24999020Y-8675786D01*
X25012698Y-8667588D01*
X25027114Y-8660770D01*
X25042129Y-8655397D01*
X25057598Y-8651522D01*
X25073372Y-8649182D01*
X25089300Y-8648400D01*
X25414300Y-8648400D01*
X25430228Y-8649182D01*
G37*
G36*
X24930228Y-8649182D02*
G01*
X24946002Y-8651522D01*
X24961471Y-8655397D01*
X24976486Y-8660770D01*
X24990902Y-8667588D01*
X25004580Y-8675786D01*
X25017389Y-8685286D01*
X25029205Y-8695995D01*
X25039914Y-8707811D01*
X25049414Y-8720620D01*
X25057612Y-8734298D01*
X25064430Y-8748714D01*
X25069803Y-8763729D01*
X25073678Y-8779198D01*
X25076018Y-8794972D01*
X25076800Y-8810900D01*
X25076800Y-9760900D01*
X25076018Y-9776828D01*
X25073678Y-9792602D01*
X25069803Y-9808071D01*
X25064430Y-9823086D01*
X25057612Y-9837502D01*
X25049414Y-9851180D01*
X25039914Y-9863989D01*
X25029205Y-9875805D01*
X25017389Y-9886514D01*
X25004580Y-9896014D01*
X24990902Y-9904212D01*
X24976486Y-9911030D01*
X24961471Y-9916403D01*
X24946002Y-9920278D01*
X24930228Y-9922618D01*
X24914300Y-9923400D01*
X24589300Y-9923400D01*
X24573372Y-9922618D01*
X24557598Y-9920278D01*
X24542129Y-9916403D01*
X24527114Y-9911030D01*
X24512698Y-9904212D01*
X24499020Y-9896014D01*
X24486211Y-9886514D01*
X24474395Y-9875805D01*
X24463686Y-9863989D01*
X24454186Y-9851180D01*
X24445988Y-9837502D01*
X24439170Y-9823086D01*
X24433797Y-9808071D01*
X24429922Y-9792602D01*
X24427582Y-9776828D01*
X24426800Y-9760900D01*
X24426800Y-8810900D01*
X24427582Y-8794972D01*
X24429922Y-8779198D01*
X24433797Y-8763729D01*
X24439170Y-8748714D01*
X24445988Y-8734298D01*
X24454186Y-8720620D01*
X24463686Y-8707811D01*
X24474395Y-8695995D01*
X24486211Y-8685286D01*
X24499020Y-8675786D01*
X24512698Y-8667588D01*
X24527114Y-8660770D01*
X24542129Y-8655397D01*
X24557598Y-8651522D01*
X24573372Y-8649182D01*
X24589300Y-8648400D01*
X24914300Y-8648400D01*
X24930228Y-8649182D01*
G37*
G36*
X24430228Y-8649182D02*
G01*
X24446002Y-8651522D01*
X24461471Y-8655397D01*
X24476486Y-8660770D01*
X24490902Y-8667588D01*
X24504580Y-8675786D01*
X24517389Y-8685286D01*
X24529205Y-8695995D01*
X24539914Y-8707811D01*
X24549414Y-8720620D01*
X24557612Y-8734298D01*
X24564430Y-8748714D01*
X24569803Y-8763729D01*
X24573678Y-8779198D01*
X24576018Y-8794972D01*
X24576800Y-8810900D01*
X24576800Y-9760900D01*
X24576018Y-9776828D01*
X24573678Y-9792602D01*
X24569803Y-9808071D01*
X24564430Y-9823086D01*
X24557612Y-9837502D01*
X24549414Y-9851180D01*
X24539914Y-9863989D01*
X24529205Y-9875805D01*
X24517389Y-9886514D01*
X24504580Y-9896014D01*
X24490902Y-9904212D01*
X24476486Y-9911030D01*
X24461471Y-9916403D01*
X24446002Y-9920278D01*
X24430228Y-9922618D01*
X24414300Y-9923400D01*
X24089300Y-9923400D01*
X24073372Y-9922618D01*
X24057598Y-9920278D01*
X24042129Y-9916403D01*
X24027114Y-9911030D01*
X24012698Y-9904212D01*
X23999020Y-9896014D01*
X23986211Y-9886514D01*
X23974395Y-9875805D01*
X23963686Y-9863989D01*
X23954186Y-9851180D01*
X23945988Y-9837502D01*
X23939170Y-9823086D01*
X23933797Y-9808071D01*
X23929922Y-9792602D01*
X23927582Y-9776828D01*
X23926800Y-9760900D01*
X23926800Y-8810900D01*
X23927582Y-8794972D01*
X23929922Y-8779198D01*
X23933797Y-8763729D01*
X23939170Y-8748714D01*
X23945988Y-8734298D01*
X23954186Y-8720620D01*
X23963686Y-8707811D01*
X23974395Y-8695995D01*
X23986211Y-8685286D01*
X23999020Y-8675786D01*
X24012698Y-8667588D01*
X24027114Y-8660770D01*
X24042129Y-8655397D01*
X24057598Y-8651522D01*
X24073372Y-8649182D01*
X24089300Y-8648400D01*
X24414300Y-8648400D01*
X24430228Y-8649182D01*
G37*
G36*
X23930228Y-8649182D02*
G01*
X23946002Y-8651522D01*
X23961471Y-8655397D01*
X23976486Y-8660770D01*
X23990902Y-8667588D01*
X24004580Y-8675786D01*
X24017389Y-8685286D01*
X24029205Y-8695995D01*
X24039914Y-8707811D01*
X24049414Y-8720620D01*
X24057612Y-8734298D01*
X24064430Y-8748714D01*
X24069803Y-8763729D01*
X24073678Y-8779198D01*
X24076018Y-8794972D01*
X24076800Y-8810900D01*
X24076800Y-9760900D01*
X24076018Y-9776828D01*
X24073678Y-9792602D01*
X24069803Y-9808071D01*
X24064430Y-9823086D01*
X24057612Y-9837502D01*
X24049414Y-9851180D01*
X24039914Y-9863989D01*
X24029205Y-9875805D01*
X24017389Y-9886514D01*
X24004580Y-9896014D01*
X23990902Y-9904212D01*
X23976486Y-9911030D01*
X23961471Y-9916403D01*
X23946002Y-9920278D01*
X23930228Y-9922618D01*
X23914300Y-9923400D01*
X23589300Y-9923400D01*
X23573372Y-9922618D01*
X23557598Y-9920278D01*
X23542129Y-9916403D01*
X23527114Y-9911030D01*
X23512698Y-9904212D01*
X23499020Y-9896014D01*
X23486211Y-9886514D01*
X23474395Y-9875805D01*
X23463686Y-9863989D01*
X23454186Y-9851180D01*
X23445988Y-9837502D01*
X23439170Y-9823086D01*
X23433797Y-9808071D01*
X23429922Y-9792602D01*
X23427582Y-9776828D01*
X23426800Y-9760900D01*
X23426800Y-8810900D01*
X23427582Y-8794972D01*
X23429922Y-8779198D01*
X23433797Y-8763729D01*
X23439170Y-8748714D01*
X23445988Y-8734298D01*
X23454186Y-8720620D01*
X23463686Y-8707811D01*
X23474395Y-8695995D01*
X23486211Y-8685286D01*
X23499020Y-8675786D01*
X23512698Y-8667588D01*
X23527114Y-8660770D01*
X23542129Y-8655397D01*
X23557598Y-8651522D01*
X23573372Y-8649182D01*
X23589300Y-8648400D01*
X23914300Y-8648400D01*
X23930228Y-8649182D01*
G37*
G36*
X23430228Y-8649182D02*
G01*
X23446002Y-8651522D01*
X23461471Y-8655397D01*
X23476486Y-8660770D01*
X23490902Y-8667588D01*
X23504580Y-8675786D01*
X23517389Y-8685286D01*
X23529205Y-8695995D01*
X23539914Y-8707811D01*
X23549414Y-8720620D01*
X23557612Y-8734298D01*
X23564430Y-8748714D01*
X23569803Y-8763729D01*
X23573678Y-8779198D01*
X23576018Y-8794972D01*
X23576800Y-8810900D01*
X23576800Y-9760900D01*
X23576018Y-9776828D01*
X23573678Y-9792602D01*
X23569803Y-9808071D01*
X23564430Y-9823086D01*
X23557612Y-9837502D01*
X23549414Y-9851180D01*
X23539914Y-9863989D01*
X23529205Y-9875805D01*
X23517389Y-9886514D01*
X23504580Y-9896014D01*
X23490902Y-9904212D01*
X23476486Y-9911030D01*
X23461471Y-9916403D01*
X23446002Y-9920278D01*
X23430228Y-9922618D01*
X23414300Y-9923400D01*
X23089300Y-9923400D01*
X23073372Y-9922618D01*
X23057598Y-9920278D01*
X23042129Y-9916403D01*
X23027114Y-9911030D01*
X23012698Y-9904212D01*
X22999020Y-9896014D01*
X22986211Y-9886514D01*
X22974395Y-9875805D01*
X22963686Y-9863989D01*
X22954186Y-9851180D01*
X22945988Y-9837502D01*
X22939170Y-9823086D01*
X22933797Y-9808071D01*
X22929922Y-9792602D01*
X22927582Y-9776828D01*
X22926800Y-9760900D01*
X22926800Y-8810900D01*
X22927582Y-8794972D01*
X22929922Y-8779198D01*
X22933797Y-8763729D01*
X22939170Y-8748714D01*
X22945988Y-8734298D01*
X22954186Y-8720620D01*
X22963686Y-8707811D01*
X22974395Y-8695995D01*
X22986211Y-8685286D01*
X22999020Y-8675786D01*
X23012698Y-8667588D01*
X23027114Y-8660770D01*
X23042129Y-8655397D01*
X23057598Y-8651522D01*
X23073372Y-8649182D01*
X23089300Y-8648400D01*
X23414300Y-8648400D01*
X23430228Y-8649182D01*
G37*
G36*
X22930228Y-8649182D02*
G01*
X22946002Y-8651522D01*
X22961471Y-8655397D01*
X22976486Y-8660770D01*
X22990902Y-8667588D01*
X23004580Y-8675786D01*
X23017389Y-8685286D01*
X23029205Y-8695995D01*
X23039914Y-8707811D01*
X23049414Y-8720620D01*
X23057612Y-8734298D01*
X23064430Y-8748714D01*
X23069803Y-8763729D01*
X23073678Y-8779198D01*
X23076018Y-8794972D01*
X23076800Y-8810900D01*
X23076800Y-9760900D01*
X23076018Y-9776828D01*
X23073678Y-9792602D01*
X23069803Y-9808071D01*
X23064430Y-9823086D01*
X23057612Y-9837502D01*
X23049414Y-9851180D01*
X23039914Y-9863989D01*
X23029205Y-9875805D01*
X23017389Y-9886514D01*
X23004580Y-9896014D01*
X22990902Y-9904212D01*
X22976486Y-9911030D01*
X22961471Y-9916403D01*
X22946002Y-9920278D01*
X22930228Y-9922618D01*
X22914300Y-9923400D01*
X22589300Y-9923400D01*
X22573372Y-9922618D01*
X22557598Y-9920278D01*
X22542129Y-9916403D01*
X22527114Y-9911030D01*
X22512698Y-9904212D01*
X22499020Y-9896014D01*
X22486211Y-9886514D01*
X22474395Y-9875805D01*
X22463686Y-9863989D01*
X22454186Y-9851180D01*
X22445988Y-9837502D01*
X22439170Y-9823086D01*
X22433797Y-9808071D01*
X22429922Y-9792602D01*
X22427582Y-9776828D01*
X22426800Y-9760900D01*
X22426800Y-8810900D01*
X22427582Y-8794972D01*
X22429922Y-8779198D01*
X22433797Y-8763729D01*
X22439170Y-8748714D01*
X22445988Y-8734298D01*
X22454186Y-8720620D01*
X22463686Y-8707811D01*
X22474395Y-8695995D01*
X22486211Y-8685286D01*
X22499020Y-8675786D01*
X22512698Y-8667588D01*
X22527114Y-8660770D01*
X22542129Y-8655397D01*
X22557598Y-8651522D01*
X22573372Y-8649182D01*
X22589300Y-8648400D01*
X22914300Y-8648400D01*
X22930228Y-8649182D01*
G37*
G36*
X22430228Y-8649182D02*
G01*
X22446002Y-8651522D01*
X22461471Y-8655397D01*
X22476486Y-8660770D01*
X22490902Y-8667588D01*
X22504580Y-8675786D01*
X22517389Y-8685286D01*
X22529205Y-8695995D01*
X22539914Y-8707811D01*
X22549414Y-8720620D01*
X22557612Y-8734298D01*
X22564430Y-8748714D01*
X22569803Y-8763729D01*
X22573678Y-8779198D01*
X22576018Y-8794972D01*
X22576800Y-8810900D01*
X22576800Y-9760900D01*
X22576018Y-9776828D01*
X22573678Y-9792602D01*
X22569803Y-9808071D01*
X22564430Y-9823086D01*
X22557612Y-9837502D01*
X22549414Y-9851180D01*
X22539914Y-9863989D01*
X22529205Y-9875805D01*
X22517389Y-9886514D01*
X22504580Y-9896014D01*
X22490902Y-9904212D01*
X22476486Y-9911030D01*
X22461471Y-9916403D01*
X22446002Y-9920278D01*
X22430228Y-9922618D01*
X22414300Y-9923400D01*
X22089300Y-9923400D01*
X22073372Y-9922618D01*
X22057598Y-9920278D01*
X22042129Y-9916403D01*
X22027114Y-9911030D01*
X22012698Y-9904212D01*
X21999020Y-9896014D01*
X21986211Y-9886514D01*
X21974395Y-9875805D01*
X21963686Y-9863989D01*
X21954186Y-9851180D01*
X21945988Y-9837502D01*
X21939170Y-9823086D01*
X21933797Y-9808071D01*
X21929922Y-9792602D01*
X21927582Y-9776828D01*
X21926800Y-9760900D01*
X21926800Y-8810900D01*
X21927582Y-8794972D01*
X21929922Y-8779198D01*
X21933797Y-8763729D01*
X21939170Y-8748714D01*
X21945988Y-8734298D01*
X21954186Y-8720620D01*
X21963686Y-8707811D01*
X21974395Y-8695995D01*
X21986211Y-8685286D01*
X21999020Y-8675786D01*
X22012698Y-8667588D01*
X22027114Y-8660770D01*
X22042129Y-8655397D01*
X22057598Y-8651522D01*
X22073372Y-8649182D01*
X22089300Y-8648400D01*
X22414300Y-8648400D01*
X22430228Y-8649182D01*
G37*
G36*
X21930228Y-8649182D02*
G01*
X21946002Y-8651522D01*
X21961471Y-8655397D01*
X21976486Y-8660770D01*
X21990902Y-8667588D01*
X22004580Y-8675786D01*
X22017389Y-8685286D01*
X22029205Y-8695995D01*
X22039914Y-8707811D01*
X22049414Y-8720620D01*
X22057612Y-8734298D01*
X22064430Y-8748714D01*
X22069803Y-8763729D01*
X22073678Y-8779198D01*
X22076018Y-8794972D01*
X22076800Y-8810900D01*
X22076800Y-9760900D01*
X22076018Y-9776828D01*
X22073678Y-9792602D01*
X22069803Y-9808071D01*
X22064430Y-9823086D01*
X22057612Y-9837502D01*
X22049414Y-9851180D01*
X22039914Y-9863989D01*
X22029205Y-9875805D01*
X22017389Y-9886514D01*
X22004580Y-9896014D01*
X21990902Y-9904212D01*
X21976486Y-9911030D01*
X21961471Y-9916403D01*
X21946002Y-9920278D01*
X21930228Y-9922618D01*
X21914300Y-9923400D01*
X21589300Y-9923400D01*
X21573372Y-9922618D01*
X21557598Y-9920278D01*
X21542129Y-9916403D01*
X21527114Y-9911030D01*
X21512698Y-9904212D01*
X21499020Y-9896014D01*
X21486211Y-9886514D01*
X21474395Y-9875805D01*
X21463686Y-9863989D01*
X21454186Y-9851180D01*
X21445988Y-9837502D01*
X21439170Y-9823086D01*
X21433797Y-9808071D01*
X21429922Y-9792602D01*
X21427582Y-9776828D01*
X21426800Y-9760900D01*
X21426800Y-8810900D01*
X21427582Y-8794972D01*
X21429922Y-8779198D01*
X21433797Y-8763729D01*
X21439170Y-8748714D01*
X21445988Y-8734298D01*
X21454186Y-8720620D01*
X21463686Y-8707811D01*
X21474395Y-8695995D01*
X21486211Y-8685286D01*
X21499020Y-8675786D01*
X21512698Y-8667588D01*
X21527114Y-8660770D01*
X21542129Y-8655397D01*
X21557598Y-8651522D01*
X21573372Y-8649182D01*
X21589300Y-8648400D01*
X21914300Y-8648400D01*
X21930228Y-8649182D01*
G37*
G36*
X21555228Y-8274182D02*
G01*
X21571002Y-8276522D01*
X21586471Y-8280397D01*
X21601486Y-8285770D01*
X21615902Y-8292588D01*
X21629580Y-8300786D01*
X21642389Y-8310286D01*
X21654205Y-8320995D01*
X21664914Y-8332811D01*
X21674414Y-8345620D01*
X21682612Y-8359298D01*
X21689430Y-8373714D01*
X21694803Y-8388729D01*
X21698678Y-8404198D01*
X21701018Y-8419972D01*
X21701800Y-8435900D01*
X21701800Y-8760900D01*
X21701018Y-8776828D01*
X21698678Y-8792602D01*
X21694803Y-8808071D01*
X21689430Y-8823086D01*
X21682612Y-8837502D01*
X21674414Y-8851180D01*
X21664914Y-8863989D01*
X21654205Y-8875805D01*
X21642389Y-8886514D01*
X21629580Y-8896014D01*
X21615902Y-8904212D01*
X21601486Y-8911030D01*
X21586471Y-8916403D01*
X21571002Y-8920278D01*
X21555228Y-8922618D01*
X21539300Y-8923400D01*
X20589300Y-8923400D01*
X20573372Y-8922618D01*
X20557598Y-8920278D01*
X20542129Y-8916403D01*
X20527114Y-8911030D01*
X20512698Y-8904212D01*
X20499020Y-8896014D01*
X20486211Y-8886514D01*
X20474395Y-8875805D01*
X20463686Y-8863989D01*
X20454186Y-8851180D01*
X20445988Y-8837502D01*
X20439170Y-8823086D01*
X20433797Y-8808071D01*
X20429922Y-8792602D01*
X20427582Y-8776828D01*
X20426800Y-8760900D01*
X20426800Y-8435900D01*
X20427582Y-8419972D01*
X20429922Y-8404198D01*
X20433797Y-8388729D01*
X20439170Y-8373714D01*
X20445988Y-8359298D01*
X20454186Y-8345620D01*
X20463686Y-8332811D01*
X20474395Y-8320995D01*
X20486211Y-8310286D01*
X20499020Y-8300786D01*
X20512698Y-8292588D01*
X20527114Y-8285770D01*
X20542129Y-8280397D01*
X20557598Y-8276522D01*
X20573372Y-8274182D01*
X20589300Y-8273400D01*
X21539300Y-8273400D01*
X21555228Y-8274182D01*
G37*
G36*
X21555228Y-7774182D02*
G01*
X21571002Y-7776522D01*
X21586471Y-7780397D01*
X21601486Y-7785770D01*
X21615902Y-7792588D01*
X21629580Y-7800786D01*
X21642389Y-7810286D01*
X21654205Y-7820995D01*
X21664914Y-7832811D01*
X21674414Y-7845620D01*
X21682612Y-7859298D01*
X21689430Y-7873714D01*
X21694803Y-7888729D01*
X21698678Y-7904198D01*
X21701018Y-7919972D01*
X21701800Y-7935900D01*
X21701800Y-8260900D01*
X21701018Y-8276828D01*
X21698678Y-8292602D01*
X21694803Y-8308071D01*
X21689430Y-8323086D01*
X21682612Y-8337502D01*
X21674414Y-8351180D01*
X21664914Y-8363989D01*
X21654205Y-8375805D01*
X21642389Y-8386514D01*
X21629580Y-8396014D01*
X21615902Y-8404212D01*
X21601486Y-8411030D01*
X21586471Y-8416403D01*
X21571002Y-8420278D01*
X21555228Y-8422618D01*
X21539300Y-8423400D01*
X20589300Y-8423400D01*
X20573372Y-8422618D01*
X20557598Y-8420278D01*
X20542129Y-8416403D01*
X20527114Y-8411030D01*
X20512698Y-8404212D01*
X20499020Y-8396014D01*
X20486211Y-8386514D01*
X20474395Y-8375805D01*
X20463686Y-8363989D01*
X20454186Y-8351180D01*
X20445988Y-8337502D01*
X20439170Y-8323086D01*
X20433797Y-8308071D01*
X20429922Y-8292602D01*
X20427582Y-8276828D01*
X20426800Y-8260900D01*
X20426800Y-7935900D01*
X20427582Y-7919972D01*
X20429922Y-7904198D01*
X20433797Y-7888729D01*
X20439170Y-7873714D01*
X20445988Y-7859298D01*
X20454186Y-7845620D01*
X20463686Y-7832811D01*
X20474395Y-7820995D01*
X20486211Y-7810286D01*
X20499020Y-7800786D01*
X20512698Y-7792588D01*
X20527114Y-7785770D01*
X20542129Y-7780397D01*
X20557598Y-7776522D01*
X20573372Y-7774182D01*
X20589300Y-7773400D01*
X21539300Y-7773400D01*
X21555228Y-7774182D01*
G37*
G36*
X21555228Y-7274182D02*
G01*
X21571002Y-7276522D01*
X21586471Y-7280397D01*
X21601486Y-7285770D01*
X21615902Y-7292588D01*
X21629580Y-7300786D01*
X21642389Y-7310286D01*
X21654205Y-7320995D01*
X21664914Y-7332811D01*
X21674414Y-7345620D01*
X21682612Y-7359298D01*
X21689430Y-7373714D01*
X21694803Y-7388729D01*
X21698678Y-7404198D01*
X21701018Y-7419972D01*
X21701800Y-7435900D01*
X21701800Y-7760900D01*
X21701018Y-7776828D01*
X21698678Y-7792602D01*
X21694803Y-7808071D01*
X21689430Y-7823086D01*
X21682612Y-7837502D01*
X21674414Y-7851180D01*
X21664914Y-7863989D01*
X21654205Y-7875805D01*
X21642389Y-7886514D01*
X21629580Y-7896014D01*
X21615902Y-7904212D01*
X21601486Y-7911030D01*
X21586471Y-7916403D01*
X21571002Y-7920278D01*
X21555228Y-7922618D01*
X21539300Y-7923400D01*
X20589300Y-7923400D01*
X20573372Y-7922618D01*
X20557598Y-7920278D01*
X20542129Y-7916403D01*
X20527114Y-7911030D01*
X20512698Y-7904212D01*
X20499020Y-7896014D01*
X20486211Y-7886514D01*
X20474395Y-7875805D01*
X20463686Y-7863989D01*
X20454186Y-7851180D01*
X20445988Y-7837502D01*
X20439170Y-7823086D01*
X20433797Y-7808071D01*
X20429922Y-7792602D01*
X20427582Y-7776828D01*
X20426800Y-7760900D01*
X20426800Y-7435900D01*
X20427582Y-7419972D01*
X20429922Y-7404198D01*
X20433797Y-7388729D01*
X20439170Y-7373714D01*
X20445988Y-7359298D01*
X20454186Y-7345620D01*
X20463686Y-7332811D01*
X20474395Y-7320995D01*
X20486211Y-7310286D01*
X20499020Y-7300786D01*
X20512698Y-7292588D01*
X20527114Y-7285770D01*
X20542129Y-7280397D01*
X20557598Y-7276522D01*
X20573372Y-7274182D01*
X20589300Y-7273400D01*
X21539300Y-7273400D01*
X21555228Y-7274182D01*
G37*
G36*
X21555228Y-6774182D02*
G01*
X21571002Y-6776522D01*
X21586471Y-6780397D01*
X21601486Y-6785770D01*
X21615902Y-6792588D01*
X21629580Y-6800786D01*
X21642389Y-6810286D01*
X21654205Y-6820995D01*
X21664914Y-6832811D01*
X21674414Y-6845620D01*
X21682612Y-6859298D01*
X21689430Y-6873714D01*
X21694803Y-6888729D01*
X21698678Y-6904198D01*
X21701018Y-6919972D01*
X21701800Y-6935900D01*
X21701800Y-7260900D01*
X21701018Y-7276828D01*
X21698678Y-7292602D01*
X21694803Y-7308071D01*
X21689430Y-7323086D01*
X21682612Y-7337502D01*
X21674414Y-7351180D01*
X21664914Y-7363989D01*
X21654205Y-7375805D01*
X21642389Y-7386514D01*
X21629580Y-7396014D01*
X21615902Y-7404212D01*
X21601486Y-7411030D01*
X21586471Y-7416403D01*
X21571002Y-7420278D01*
X21555228Y-7422618D01*
X21539300Y-7423400D01*
X20589300Y-7423400D01*
X20573372Y-7422618D01*
X20557598Y-7420278D01*
X20542129Y-7416403D01*
X20527114Y-7411030D01*
X20512698Y-7404212D01*
X20499020Y-7396014D01*
X20486211Y-7386514D01*
X20474395Y-7375805D01*
X20463686Y-7363989D01*
X20454186Y-7351180D01*
X20445988Y-7337502D01*
X20439170Y-7323086D01*
X20433797Y-7308071D01*
X20429922Y-7292602D01*
X20427582Y-7276828D01*
X20426800Y-7260900D01*
X20426800Y-6935900D01*
X20427582Y-6919972D01*
X20429922Y-6904198D01*
X20433797Y-6888729D01*
X20439170Y-6873714D01*
X20445988Y-6859298D01*
X20454186Y-6845620D01*
X20463686Y-6832811D01*
X20474395Y-6820995D01*
X20486211Y-6810286D01*
X20499020Y-6800786D01*
X20512698Y-6792588D01*
X20527114Y-6785770D01*
X20542129Y-6780397D01*
X20557598Y-6776522D01*
X20573372Y-6774182D01*
X20589300Y-6773400D01*
X21539300Y-6773400D01*
X21555228Y-6774182D01*
G37*
G36*
X21555228Y-6274182D02*
G01*
X21571002Y-6276522D01*
X21586471Y-6280397D01*
X21601486Y-6285770D01*
X21615902Y-6292588D01*
X21629580Y-6300786D01*
X21642389Y-6310286D01*
X21654205Y-6320995D01*
X21664914Y-6332811D01*
X21674414Y-6345620D01*
X21682612Y-6359298D01*
X21689430Y-6373714D01*
X21694803Y-6388729D01*
X21698678Y-6404198D01*
X21701018Y-6419972D01*
X21701800Y-6435900D01*
X21701800Y-6760900D01*
X21701018Y-6776828D01*
X21698678Y-6792602D01*
X21694803Y-6808071D01*
X21689430Y-6823086D01*
X21682612Y-6837502D01*
X21674414Y-6851180D01*
X21664914Y-6863989D01*
X21654205Y-6875805D01*
X21642389Y-6886514D01*
X21629580Y-6896014D01*
X21615902Y-6904212D01*
X21601486Y-6911030D01*
X21586471Y-6916403D01*
X21571002Y-6920278D01*
X21555228Y-6922618D01*
X21539300Y-6923400D01*
X20589300Y-6923400D01*
X20573372Y-6922618D01*
X20557598Y-6920278D01*
X20542129Y-6916403D01*
X20527114Y-6911030D01*
X20512698Y-6904212D01*
X20499020Y-6896014D01*
X20486211Y-6886514D01*
X20474395Y-6875805D01*
X20463686Y-6863989D01*
X20454186Y-6851180D01*
X20445988Y-6837502D01*
X20439170Y-6823086D01*
X20433797Y-6808071D01*
X20429922Y-6792602D01*
X20427582Y-6776828D01*
X20426800Y-6760900D01*
X20426800Y-6435900D01*
X20427582Y-6419972D01*
X20429922Y-6404198D01*
X20433797Y-6388729D01*
X20439170Y-6373714D01*
X20445988Y-6359298D01*
X20454186Y-6345620D01*
X20463686Y-6332811D01*
X20474395Y-6320995D01*
X20486211Y-6310286D01*
X20499020Y-6300786D01*
X20512698Y-6292588D01*
X20527114Y-6285770D01*
X20542129Y-6280397D01*
X20557598Y-6276522D01*
X20573372Y-6274182D01*
X20589300Y-6273400D01*
X21539300Y-6273400D01*
X21555228Y-6274182D01*
G37*
G36*
X21555228Y-5774182D02*
G01*
X21571002Y-5776522D01*
X21586471Y-5780397D01*
X21601486Y-5785770D01*
X21615902Y-5792588D01*
X21629580Y-5800786D01*
X21642389Y-5810286D01*
X21654205Y-5820995D01*
X21664914Y-5832811D01*
X21674414Y-5845620D01*
X21682612Y-5859298D01*
X21689430Y-5873714D01*
X21694803Y-5888729D01*
X21698678Y-5904198D01*
X21701018Y-5919972D01*
X21701800Y-5935900D01*
X21701800Y-6260900D01*
X21701018Y-6276828D01*
X21698678Y-6292602D01*
X21694803Y-6308071D01*
X21689430Y-6323086D01*
X21682612Y-6337502D01*
X21674414Y-6351180D01*
X21664914Y-6363989D01*
X21654205Y-6375805D01*
X21642389Y-6386514D01*
X21629580Y-6396014D01*
X21615902Y-6404212D01*
X21601486Y-6411030D01*
X21586471Y-6416403D01*
X21571002Y-6420278D01*
X21555228Y-6422618D01*
X21539300Y-6423400D01*
X20589300Y-6423400D01*
X20573372Y-6422618D01*
X20557598Y-6420278D01*
X20542129Y-6416403D01*
X20527114Y-6411030D01*
X20512698Y-6404212D01*
X20499020Y-6396014D01*
X20486211Y-6386514D01*
X20474395Y-6375805D01*
X20463686Y-6363989D01*
X20454186Y-6351180D01*
X20445988Y-6337502D01*
X20439170Y-6323086D01*
X20433797Y-6308071D01*
X20429922Y-6292602D01*
X20427582Y-6276828D01*
X20426800Y-6260900D01*
X20426800Y-5935900D01*
X20427582Y-5919972D01*
X20429922Y-5904198D01*
X20433797Y-5888729D01*
X20439170Y-5873714D01*
X20445988Y-5859298D01*
X20454186Y-5845620D01*
X20463686Y-5832811D01*
X20474395Y-5820995D01*
X20486211Y-5810286D01*
X20499020Y-5800786D01*
X20512698Y-5792588D01*
X20527114Y-5785770D01*
X20542129Y-5780397D01*
X20557598Y-5776522D01*
X20573372Y-5774182D01*
X20589300Y-5773400D01*
X21539300Y-5773400D01*
X21555228Y-5774182D01*
G37*
G36*
X21555228Y-5274182D02*
G01*
X21571002Y-5276522D01*
X21586471Y-5280397D01*
X21601486Y-5285770D01*
X21615902Y-5292588D01*
X21629580Y-5300786D01*
X21642389Y-5310286D01*
X21654205Y-5320995D01*
X21664914Y-5332811D01*
X21674414Y-5345620D01*
X21682612Y-5359298D01*
X21689430Y-5373714D01*
X21694803Y-5388729D01*
X21698678Y-5404198D01*
X21701018Y-5419972D01*
X21701800Y-5435900D01*
X21701800Y-5760900D01*
X21701018Y-5776828D01*
X21698678Y-5792602D01*
X21694803Y-5808071D01*
X21689430Y-5823086D01*
X21682612Y-5837502D01*
X21674414Y-5851180D01*
X21664914Y-5863989D01*
X21654205Y-5875805D01*
X21642389Y-5886514D01*
X21629580Y-5896014D01*
X21615902Y-5904212D01*
X21601486Y-5911030D01*
X21586471Y-5916403D01*
X21571002Y-5920278D01*
X21555228Y-5922618D01*
X21539300Y-5923400D01*
X20589300Y-5923400D01*
X20573372Y-5922618D01*
X20557598Y-5920278D01*
X20542129Y-5916403D01*
X20527114Y-5911030D01*
X20512698Y-5904212D01*
X20499020Y-5896014D01*
X20486211Y-5886514D01*
X20474395Y-5875805D01*
X20463686Y-5863989D01*
X20454186Y-5851180D01*
X20445988Y-5837502D01*
X20439170Y-5823086D01*
X20433797Y-5808071D01*
X20429922Y-5792602D01*
X20427582Y-5776828D01*
X20426800Y-5760900D01*
X20426800Y-5435900D01*
X20427582Y-5419972D01*
X20429922Y-5404198D01*
X20433797Y-5388729D01*
X20439170Y-5373714D01*
X20445988Y-5359298D01*
X20454186Y-5345620D01*
X20463686Y-5332811D01*
X20474395Y-5320995D01*
X20486211Y-5310286D01*
X20499020Y-5300786D01*
X20512698Y-5292588D01*
X20527114Y-5285770D01*
X20542129Y-5280397D01*
X20557598Y-5276522D01*
X20573372Y-5274182D01*
X20589300Y-5273400D01*
X21539300Y-5273400D01*
X21555228Y-5274182D01*
G37*
G36*
X21555228Y-4774182D02*
G01*
X21571002Y-4776522D01*
X21586471Y-4780397D01*
X21601486Y-4785770D01*
X21615902Y-4792588D01*
X21629580Y-4800786D01*
X21642389Y-4810286D01*
X21654205Y-4820995D01*
X21664914Y-4832811D01*
X21674414Y-4845620D01*
X21682612Y-4859298D01*
X21689430Y-4873714D01*
X21694803Y-4888729D01*
X21698678Y-4904198D01*
X21701018Y-4919972D01*
X21701800Y-4935900D01*
X21701800Y-5260900D01*
X21701018Y-5276828D01*
X21698678Y-5292602D01*
X21694803Y-5308071D01*
X21689430Y-5323086D01*
X21682612Y-5337502D01*
X21674414Y-5351180D01*
X21664914Y-5363989D01*
X21654205Y-5375805D01*
X21642389Y-5386514D01*
X21629580Y-5396014D01*
X21615902Y-5404212D01*
X21601486Y-5411030D01*
X21586471Y-5416403D01*
X21571002Y-5420278D01*
X21555228Y-5422618D01*
X21539300Y-5423400D01*
X20589300Y-5423400D01*
X20573372Y-5422618D01*
X20557598Y-5420278D01*
X20542129Y-5416403D01*
X20527114Y-5411030D01*
X20512698Y-5404212D01*
X20499020Y-5396014D01*
X20486211Y-5386514D01*
X20474395Y-5375805D01*
X20463686Y-5363989D01*
X20454186Y-5351180D01*
X20445988Y-5337502D01*
X20439170Y-5323086D01*
X20433797Y-5308071D01*
X20429922Y-5292602D01*
X20427582Y-5276828D01*
X20426800Y-5260900D01*
X20426800Y-4935900D01*
X20427582Y-4919972D01*
X20429922Y-4904198D01*
X20433797Y-4888729D01*
X20439170Y-4873714D01*
X20445988Y-4859298D01*
X20454186Y-4845620D01*
X20463686Y-4832811D01*
X20474395Y-4820995D01*
X20486211Y-4810286D01*
X20499020Y-4800786D01*
X20512698Y-4792588D01*
X20527114Y-4785770D01*
X20542129Y-4780397D01*
X20557598Y-4776522D01*
X20573372Y-4774182D01*
X20589300Y-4773400D01*
X21539300Y-4773400D01*
X21555228Y-4774182D01*
G37*
G36*
X15570688Y-6997798D02*
G01*
X15552266Y-6997798D01*
X15532660Y-6996835D01*
X15483829Y-6992025D01*
X15464420Y-6989146D01*
X15416295Y-6979574D01*
X15397252Y-6974804D01*
X15350297Y-6960560D01*
X15331820Y-6953949D01*
X15286487Y-6935172D01*
X15268739Y-6926777D01*
X15225466Y-6903646D01*
X15208638Y-6893560D01*
X15167839Y-6866300D01*
X15152070Y-6854605D01*
X15114141Y-6823477D01*
X15099600Y-6810297D01*
X15064903Y-6775600D01*
X15051723Y-6761059D01*
X15020595Y-6723130D01*
X15008900Y-6707361D01*
X14981640Y-6666562D01*
X14971554Y-6649734D01*
X14948423Y-6606461D01*
X14940028Y-6588713D01*
X14921251Y-6543380D01*
X14914640Y-6524903D01*
X14900396Y-6477948D01*
X14895626Y-6458905D01*
X14886054Y-6410780D01*
X14883175Y-6391371D01*
X14878365Y-6342540D01*
X14877402Y-6322934D01*
X14877402Y-6304512D01*
X14876800Y-6298400D01*
X14876800Y-5798400D01*
X14877402Y-5792288D01*
X14877402Y-5773866D01*
X14878365Y-5754260D01*
X14883175Y-5705429D01*
X14886054Y-5686020D01*
X14895626Y-5637895D01*
X14900396Y-5618852D01*
X14914640Y-5571897D01*
X14921251Y-5553420D01*
X14940028Y-5508087D01*
X14948423Y-5490339D01*
X14971554Y-5447066D01*
X14981640Y-5430238D01*
X15008900Y-5389439D01*
X15020595Y-5373670D01*
X15051723Y-5335741D01*
X15064903Y-5321200D01*
X15099600Y-5286503D01*
X15114141Y-5273323D01*
X15152070Y-5242195D01*
X15167839Y-5230500D01*
X15208638Y-5203240D01*
X15225466Y-5193154D01*
X15268739Y-5170023D01*
X15286487Y-5161628D01*
X15331820Y-5142851D01*
X15350297Y-5136240D01*
X15397252Y-5121996D01*
X15416295Y-5117226D01*
X15464420Y-5107654D01*
X15483829Y-5104775D01*
X15532660Y-5099965D01*
X15552266Y-5099002D01*
X15570688Y-5099002D01*
X15576800Y-5098400D01*
X16076800Y-5098400D01*
X16115818Y-5102243D01*
X16153337Y-5113624D01*
X16187914Y-5132106D01*
X16218221Y-5156979D01*
X16243094Y-5187286D01*
X16261576Y-5221863D01*
X16272957Y-5259382D01*
X16276800Y-5298400D01*
X16276800Y-6798400D01*
X16272957Y-6837418D01*
X16261576Y-6874937D01*
X16243094Y-6909514D01*
X16218221Y-6939821D01*
X16187914Y-6964694D01*
X16153337Y-6983176D01*
X16115818Y-6994557D01*
X16076800Y-6998400D01*
X15576800Y-6998400D01*
X15570688Y-6997798D01*
G37*
G36*
X16337782Y-6994557D02*
G01*
X16300263Y-6983176D01*
X16265686Y-6964694D01*
X16235379Y-6939821D01*
X16210506Y-6909514D01*
X16192024Y-6874937D01*
X16180643Y-6837418D01*
X16176800Y-6798400D01*
X16176800Y-5298400D01*
X16180643Y-5259382D01*
X16192024Y-5221863D01*
X16210506Y-5187286D01*
X16235379Y-5156979D01*
X16265686Y-5132106D01*
X16300263Y-5113624D01*
X16337782Y-5102243D01*
X16376800Y-5098400D01*
X16876800Y-5098400D01*
X16882912Y-5099002D01*
X16901334Y-5099002D01*
X16920940Y-5099965D01*
X16969771Y-5104775D01*
X16989180Y-5107654D01*
X17037305Y-5117226D01*
X17056348Y-5121996D01*
X17103303Y-5136240D01*
X17121780Y-5142851D01*
X17167113Y-5161628D01*
X17184861Y-5170023D01*
X17228134Y-5193154D01*
X17244962Y-5203240D01*
X17285761Y-5230500D01*
X17301530Y-5242195D01*
X17339459Y-5273323D01*
X17354000Y-5286503D01*
X17388697Y-5321200D01*
X17401877Y-5335741D01*
X17433005Y-5373670D01*
X17444700Y-5389439D01*
X17471960Y-5430238D01*
X17482046Y-5447066D01*
X17505177Y-5490339D01*
X17513572Y-5508087D01*
X17532349Y-5553420D01*
X17538960Y-5571897D01*
X17553204Y-5618852D01*
X17557974Y-5637895D01*
X17567546Y-5686020D01*
X17570425Y-5705429D01*
X17575235Y-5754260D01*
X17576198Y-5773866D01*
X17576198Y-5792288D01*
X17576800Y-5798400D01*
X17576800Y-6298400D01*
X17576198Y-6304512D01*
X17576198Y-6322934D01*
X17575235Y-6342540D01*
X17570425Y-6391371D01*
X17567546Y-6410780D01*
X17557974Y-6458905D01*
X17553204Y-6477948D01*
X17538960Y-6524903D01*
X17532349Y-6543380D01*
X17513572Y-6588713D01*
X17505177Y-6606461D01*
X17482046Y-6649734D01*
X17471960Y-6666562D01*
X17444700Y-6707361D01*
X17433005Y-6723130D01*
X17401877Y-6761059D01*
X17388697Y-6775600D01*
X17354000Y-6810297D01*
X17339459Y-6823477D01*
X17301530Y-6854605D01*
X17285761Y-6866300D01*
X17244962Y-6893560D01*
X17228134Y-6903646D01*
X17184861Y-6926777D01*
X17167113Y-6935172D01*
X17121780Y-6953949D01*
X17103303Y-6960560D01*
X17056348Y-6974804D01*
X17037305Y-6979574D01*
X16989180Y-6989146D01*
X16969771Y-6992025D01*
X16920940Y-6996835D01*
X16901334Y-6997798D01*
X16882912Y-6997798D01*
X16876800Y-6998400D01*
X16376800Y-6998400D01*
X16337782Y-6994557D01*
G37*
G36*
X15570688Y-4347798D02*
G01*
X15552266Y-4347798D01*
X15532660Y-4346835D01*
X15483829Y-4342025D01*
X15464420Y-4339146D01*
X15416295Y-4329574D01*
X15397252Y-4324804D01*
X15350297Y-4310560D01*
X15331820Y-4303949D01*
X15286487Y-4285172D01*
X15268739Y-4276777D01*
X15225466Y-4253646D01*
X15208638Y-4243560D01*
X15167839Y-4216300D01*
X15152070Y-4204605D01*
X15114141Y-4173477D01*
X15099600Y-4160297D01*
X15064903Y-4125600D01*
X15051723Y-4111059D01*
X15020595Y-4073130D01*
X15008900Y-4057361D01*
X14981640Y-4016562D01*
X14971554Y-3999734D01*
X14948423Y-3956461D01*
X14940028Y-3938713D01*
X14921251Y-3893380D01*
X14914640Y-3874903D01*
X14900396Y-3827948D01*
X14895626Y-3808905D01*
X14886054Y-3760780D01*
X14883175Y-3741371D01*
X14878365Y-3692540D01*
X14877402Y-3672934D01*
X14877402Y-3654512D01*
X14876800Y-3648400D01*
X14876800Y-3148400D01*
X14877402Y-3142288D01*
X14877402Y-3123866D01*
X14878365Y-3104260D01*
X14883175Y-3055429D01*
X14886054Y-3036020D01*
X14895626Y-2987895D01*
X14900396Y-2968852D01*
X14914640Y-2921897D01*
X14921251Y-2903420D01*
X14940028Y-2858087D01*
X14948423Y-2840339D01*
X14971554Y-2797066D01*
X14981640Y-2780238D01*
X15008900Y-2739439D01*
X15020595Y-2723670D01*
X15051723Y-2685741D01*
X15064903Y-2671200D01*
X15099600Y-2636503D01*
X15114141Y-2623323D01*
X15152070Y-2592195D01*
X15167839Y-2580500D01*
X15208638Y-2553240D01*
X15225466Y-2543154D01*
X15268739Y-2520023D01*
X15286487Y-2511628D01*
X15331820Y-2492851D01*
X15350297Y-2486240D01*
X15397252Y-2471996D01*
X15416295Y-2467226D01*
X15464420Y-2457654D01*
X15483829Y-2454775D01*
X15532660Y-2449965D01*
X15552266Y-2449002D01*
X15570688Y-2449002D01*
X15576800Y-2448400D01*
X16076800Y-2448400D01*
X16115818Y-2452243D01*
X16153337Y-2463624D01*
X16187914Y-2482106D01*
X16218221Y-2506979D01*
X16243094Y-2537286D01*
X16261576Y-2571863D01*
X16272957Y-2609382D01*
X16276800Y-2648400D01*
X16276800Y-4148400D01*
X16272957Y-4187418D01*
X16261576Y-4224937D01*
X16243094Y-4259514D01*
X16218221Y-4289821D01*
X16187914Y-4314694D01*
X16153337Y-4333176D01*
X16115818Y-4344557D01*
X16076800Y-4348400D01*
X15576800Y-4348400D01*
X15570688Y-4347798D01*
G37*
G36*
X16337782Y-4344557D02*
G01*
X16300263Y-4333176D01*
X16265686Y-4314694D01*
X16235379Y-4289821D01*
X16210506Y-4259514D01*
X16192024Y-4224937D01*
X16180643Y-4187418D01*
X16176800Y-4148400D01*
X16176800Y-2648400D01*
X16180643Y-2609382D01*
X16192024Y-2571863D01*
X16210506Y-2537286D01*
X16235379Y-2506979D01*
X16265686Y-2482106D01*
X16300263Y-2463624D01*
X16337782Y-2452243D01*
X16376800Y-2448400D01*
X16876800Y-2448400D01*
X16882912Y-2449002D01*
X16901334Y-2449002D01*
X16920940Y-2449965D01*
X16969771Y-2454775D01*
X16989180Y-2457654D01*
X17037305Y-2467226D01*
X17056348Y-2471996D01*
X17103303Y-2486240D01*
X17121780Y-2492851D01*
X17167113Y-2511628D01*
X17184861Y-2520023D01*
X17228134Y-2543154D01*
X17244962Y-2553240D01*
X17285761Y-2580500D01*
X17301530Y-2592195D01*
X17339459Y-2623323D01*
X17354000Y-2636503D01*
X17388697Y-2671200D01*
X17401877Y-2685741D01*
X17433005Y-2723670D01*
X17444700Y-2739439D01*
X17471960Y-2780238D01*
X17482046Y-2797066D01*
X17505177Y-2840339D01*
X17513572Y-2858087D01*
X17532349Y-2903420D01*
X17538960Y-2921897D01*
X17553204Y-2968852D01*
X17557974Y-2987895D01*
X17567546Y-3036020D01*
X17570425Y-3055429D01*
X17575235Y-3104260D01*
X17576198Y-3123866D01*
X17576198Y-3142288D01*
X17576800Y-3148400D01*
X17576800Y-3648400D01*
X17576198Y-3654512D01*
X17576198Y-3672934D01*
X17575235Y-3692540D01*
X17570425Y-3741371D01*
X17567546Y-3760780D01*
X17557974Y-3808905D01*
X17553204Y-3827948D01*
X17538960Y-3874903D01*
X17532349Y-3893380D01*
X17513572Y-3938713D01*
X17505177Y-3956461D01*
X17482046Y-3999734D01*
X17471960Y-4016562D01*
X17444700Y-4057361D01*
X17433005Y-4073130D01*
X17401877Y-4111059D01*
X17388697Y-4125600D01*
X17354000Y-4160297D01*
X17339459Y-4173477D01*
X17301530Y-4204605D01*
X17285761Y-4216300D01*
X17244962Y-4243560D01*
X17228134Y-4253646D01*
X17184861Y-4276777D01*
X17167113Y-4285172D01*
X17121780Y-4303949D01*
X17103303Y-4310560D01*
X17056348Y-4324804D01*
X17037305Y-4329574D01*
X16989180Y-4339146D01*
X16969771Y-4342025D01*
X16920940Y-4346835D01*
X16901334Y-4347798D01*
X16882912Y-4347798D01*
X16876800Y-4348400D01*
X16376800Y-4348400D01*
X16337782Y-4344557D01*
G37*
D17*
X27416800Y-25528400D03*
X24876800Y-25528400D03*
X27416800Y-22988400D03*
X24876800Y-22988400D03*
X27416800Y-20448400D03*
D18*
X24876800Y-20448400D03*
D16*
G36*
X20201293Y1175065D02*
G01*
X20232235Y1170475D01*
X20262578Y1162875D01*
X20292030Y1152337D01*
X20320308Y1138962D01*
X20347138Y1122881D01*
X20372263Y1104247D01*
X20395440Y1083240D01*
X20416447Y1060063D01*
X20435081Y1034938D01*
X20451162Y1008108D01*
X20464537Y979830D01*
X20475075Y950378D01*
X20482675Y920035D01*
X20487265Y889093D01*
X20488800Y857850D01*
X20488800Y145350D01*
X20487265Y114107D01*
X20482675Y83165D01*
X20475075Y52822D01*
X20464537Y23370D01*
X20451162Y-4908D01*
X20435081Y-31738D01*
X20416447Y-56863D01*
X20395440Y-80040D01*
X20372263Y-101047D01*
X20347138Y-119681D01*
X20320308Y-135762D01*
X20292030Y-149137D01*
X20262578Y-159675D01*
X20232235Y-167275D01*
X20201293Y-171865D01*
X20170050Y-173400D01*
X19532550Y-173400D01*
X19501307Y-171865D01*
X19470365Y-167275D01*
X19440022Y-159675D01*
X19410570Y-149137D01*
X19382292Y-135762D01*
X19355462Y-119681D01*
X19330337Y-101047D01*
X19307160Y-80040D01*
X19286153Y-56863D01*
X19267519Y-31738D01*
X19251438Y-4908D01*
X19238063Y23370D01*
X19227525Y52822D01*
X19219925Y83165D01*
X19215335Y114107D01*
X19213800Y145350D01*
X19213800Y857850D01*
X19215335Y889093D01*
X19219925Y920035D01*
X19227525Y950378D01*
X19238063Y979830D01*
X19251438Y1008108D01*
X19267519Y1034938D01*
X19286153Y1060063D01*
X19307160Y1083240D01*
X19330337Y1104247D01*
X19355462Y1122881D01*
X19382292Y1138962D01*
X19410570Y1152337D01*
X19440022Y1162875D01*
X19470365Y1170475D01*
X19501307Y1175065D01*
X19532550Y1176600D01*
X20170050Y1176600D01*
X20201293Y1175065D01*
G37*
G36*
X18626293Y1175065D02*
G01*
X18657235Y1170475D01*
X18687578Y1162875D01*
X18717030Y1152337D01*
X18745308Y1138962D01*
X18772138Y1122881D01*
X18797263Y1104247D01*
X18820440Y1083240D01*
X18841447Y1060063D01*
X18860081Y1034938D01*
X18876162Y1008108D01*
X18889537Y979830D01*
X18900075Y950378D01*
X18907675Y920035D01*
X18912265Y889093D01*
X18913800Y857850D01*
X18913800Y145350D01*
X18912265Y114107D01*
X18907675Y83165D01*
X18900075Y52822D01*
X18889537Y23370D01*
X18876162Y-4908D01*
X18860081Y-31738D01*
X18841447Y-56863D01*
X18820440Y-80040D01*
X18797263Y-101047D01*
X18772138Y-119681D01*
X18745308Y-135762D01*
X18717030Y-149137D01*
X18687578Y-159675D01*
X18657235Y-167275D01*
X18626293Y-171865D01*
X18595050Y-173400D01*
X17957550Y-173400D01*
X17926307Y-171865D01*
X17895365Y-167275D01*
X17865022Y-159675D01*
X17835570Y-149137D01*
X17807292Y-135762D01*
X17780462Y-119681D01*
X17755337Y-101047D01*
X17732160Y-80040D01*
X17711153Y-56863D01*
X17692519Y-31738D01*
X17676438Y-4908D01*
X17663063Y23370D01*
X17652525Y52822D01*
X17644925Y83165D01*
X17640335Y114107D01*
X17638800Y145350D01*
X17638800Y857850D01*
X17640335Y889093D01*
X17644925Y920035D01*
X17652525Y950378D01*
X17663063Y979830D01*
X17676438Y1008108D01*
X17692519Y1034938D01*
X17711153Y1060063D01*
X17732160Y1083240D01*
X17755337Y1104247D01*
X17780462Y1122881D01*
X17807292Y1138962D01*
X17835570Y1152337D01*
X17865022Y1162875D01*
X17895365Y1170475D01*
X17926307Y1175065D01*
X17957550Y1176600D01*
X18595050Y1176600D01*
X18626293Y1175065D01*
G37*
G36*
X15151293Y1125065D02*
G01*
X15182235Y1120475D01*
X15212578Y1112875D01*
X15242030Y1102337D01*
X15270308Y1088962D01*
X15297138Y1072881D01*
X15322263Y1054247D01*
X15345440Y1033240D01*
X15366447Y1010063D01*
X15385081Y984938D01*
X15401162Y958108D01*
X15414537Y929830D01*
X15425075Y900378D01*
X15432675Y870035D01*
X15437265Y839093D01*
X15438800Y807850D01*
X15438800Y95350D01*
X15437265Y64107D01*
X15432675Y33165D01*
X15425075Y2822D01*
X15414537Y-26630D01*
X15401162Y-54908D01*
X15385081Y-81738D01*
X15366447Y-106863D01*
X15345440Y-130040D01*
X15322263Y-151047D01*
X15297138Y-169681D01*
X15270308Y-185762D01*
X15242030Y-199137D01*
X15212578Y-209675D01*
X15182235Y-217275D01*
X15151293Y-221865D01*
X15120050Y-223400D01*
X14482550Y-223400D01*
X14451307Y-221865D01*
X14420365Y-217275D01*
X14390022Y-209675D01*
X14360570Y-199137D01*
X14332292Y-185762D01*
X14305462Y-169681D01*
X14280337Y-151047D01*
X14257160Y-130040D01*
X14236153Y-106863D01*
X14217519Y-81738D01*
X14201438Y-54908D01*
X14188063Y-26630D01*
X14177525Y2822D01*
X14169925Y33165D01*
X14165335Y64107D01*
X14163800Y95350D01*
X14163800Y807850D01*
X14165335Y839093D01*
X14169925Y870035D01*
X14177525Y900378D01*
X14188063Y929830D01*
X14201438Y958108D01*
X14217519Y984938D01*
X14236153Y1010063D01*
X14257160Y1033240D01*
X14280337Y1054247D01*
X14305462Y1072881D01*
X14332292Y1088962D01*
X14360570Y1102337D01*
X14390022Y1112875D01*
X14420365Y1120475D01*
X14451307Y1125065D01*
X14482550Y1126600D01*
X15120050Y1126600D01*
X15151293Y1125065D01*
G37*
G36*
X16726293Y1125065D02*
G01*
X16757235Y1120475D01*
X16787578Y1112875D01*
X16817030Y1102337D01*
X16845308Y1088962D01*
X16872138Y1072881D01*
X16897263Y1054247D01*
X16920440Y1033240D01*
X16941447Y1010063D01*
X16960081Y984938D01*
X16976162Y958108D01*
X16989537Y929830D01*
X17000075Y900378D01*
X17007675Y870035D01*
X17012265Y839093D01*
X17013800Y807850D01*
X17013800Y95350D01*
X17012265Y64107D01*
X17007675Y33165D01*
X17000075Y2822D01*
X16989537Y-26630D01*
X16976162Y-54908D01*
X16960081Y-81738D01*
X16941447Y-106863D01*
X16920440Y-130040D01*
X16897263Y-151047D01*
X16872138Y-169681D01*
X16845308Y-185762D01*
X16817030Y-199137D01*
X16787578Y-209675D01*
X16757235Y-217275D01*
X16726293Y-221865D01*
X16695050Y-223400D01*
X16057550Y-223400D01*
X16026307Y-221865D01*
X15995365Y-217275D01*
X15965022Y-209675D01*
X15935570Y-199137D01*
X15907292Y-185762D01*
X15880462Y-169681D01*
X15855337Y-151047D01*
X15832160Y-130040D01*
X15811153Y-106863D01*
X15792519Y-81738D01*
X15776438Y-54908D01*
X15763063Y-26630D01*
X15752525Y2822D01*
X15744925Y33165D01*
X15740335Y64107D01*
X15738800Y95350D01*
X15738800Y807850D01*
X15740335Y839093D01*
X15744925Y870035D01*
X15752525Y900378D01*
X15763063Y929830D01*
X15776438Y958108D01*
X15792519Y984938D01*
X15811153Y1010063D01*
X15832160Y1033240D01*
X15855337Y1054247D01*
X15880462Y1072881D01*
X15907292Y1088962D01*
X15935570Y1102337D01*
X15965022Y1112875D01*
X15995365Y1120475D01*
X16026307Y1125065D01*
X16057550Y1126600D01*
X16695050Y1126600D01*
X16726293Y1125065D01*
G37*
G36*
X14103743Y-24750055D02*
G01*
X14137112Y-24755005D01*
X14169835Y-24763202D01*
X14201597Y-24774566D01*
X14232093Y-24788990D01*
X14261027Y-24806332D01*
X14288123Y-24826428D01*
X14313118Y-24849082D01*
X14335772Y-24874077D01*
X14355868Y-24901173D01*
X14373210Y-24930107D01*
X14387634Y-24960603D01*
X14398998Y-24992365D01*
X14407195Y-25025088D01*
X14412145Y-25058457D01*
X14413800Y-25092150D01*
X14413800Y-26204650D01*
X14412145Y-26238343D01*
X14407195Y-26271712D01*
X14398998Y-26304435D01*
X14387634Y-26336197D01*
X14373210Y-26366693D01*
X14355868Y-26395627D01*
X14335772Y-26422723D01*
X14313118Y-26447718D01*
X14288123Y-26470372D01*
X14261027Y-26490468D01*
X14232093Y-26507810D01*
X14201597Y-26522234D01*
X14169835Y-26533598D01*
X14137112Y-26541795D01*
X14103743Y-26546745D01*
X14070050Y-26548400D01*
X13382550Y-26548400D01*
X13348857Y-26546745D01*
X13315488Y-26541795D01*
X13282765Y-26533598D01*
X13251003Y-26522234D01*
X13220507Y-26507810D01*
X13191573Y-26490468D01*
X13164477Y-26470372D01*
X13139482Y-26447718D01*
X13116828Y-26422723D01*
X13096732Y-26395627D01*
X13079390Y-26366693D01*
X13064966Y-26336197D01*
X13053602Y-26304435D01*
X13045405Y-26271712D01*
X13040455Y-26238343D01*
X13038800Y-26204650D01*
X13038800Y-25092150D01*
X13040455Y-25058457D01*
X13045405Y-25025088D01*
X13053602Y-24992365D01*
X13064966Y-24960603D01*
X13079390Y-24930107D01*
X13096732Y-24901173D01*
X13116828Y-24874077D01*
X13139482Y-24849082D01*
X13164477Y-24826428D01*
X13191573Y-24806332D01*
X13220507Y-24788990D01*
X13251003Y-24774566D01*
X13282765Y-24763202D01*
X13315488Y-24755005D01*
X13348857Y-24750055D01*
X13382550Y-24748400D01*
X14070050Y-24748400D01*
X14103743Y-24750055D01*
G37*
G36*
X15978743Y-24750055D02*
G01*
X16012112Y-24755005D01*
X16044835Y-24763202D01*
X16076597Y-24774566D01*
X16107093Y-24788990D01*
X16136027Y-24806332D01*
X16163123Y-24826428D01*
X16188118Y-24849082D01*
X16210772Y-24874077D01*
X16230868Y-24901173D01*
X16248210Y-24930107D01*
X16262634Y-24960603D01*
X16273998Y-24992365D01*
X16282195Y-25025088D01*
X16287145Y-25058457D01*
X16288800Y-25092150D01*
X16288800Y-26204650D01*
X16287145Y-26238343D01*
X16282195Y-26271712D01*
X16273998Y-26304435D01*
X16262634Y-26336197D01*
X16248210Y-26366693D01*
X16230868Y-26395627D01*
X16210772Y-26422723D01*
X16188118Y-26447718D01*
X16163123Y-26470372D01*
X16136027Y-26490468D01*
X16107093Y-26507810D01*
X16076597Y-26522234D01*
X16044835Y-26533598D01*
X16012112Y-26541795D01*
X15978743Y-26546745D01*
X15945050Y-26548400D01*
X15257550Y-26548400D01*
X15223857Y-26546745D01*
X15190488Y-26541795D01*
X15157765Y-26533598D01*
X15126003Y-26522234D01*
X15095507Y-26507810D01*
X15066573Y-26490468D01*
X15039477Y-26470372D01*
X15014482Y-26447718D01*
X14991828Y-26422723D01*
X14971732Y-26395627D01*
X14954390Y-26366693D01*
X14939966Y-26336197D01*
X14928602Y-26304435D01*
X14920405Y-26271712D01*
X14915455Y-26238343D01*
X14913800Y-26204650D01*
X14913800Y-25092150D01*
X14915455Y-25058457D01*
X14920405Y-25025088D01*
X14928602Y-24992365D01*
X14939966Y-24960603D01*
X14954390Y-24930107D01*
X14971732Y-24901173D01*
X14991828Y-24874077D01*
X15014482Y-24849082D01*
X15039477Y-24826428D01*
X15066573Y-24806332D01*
X15095507Y-24788990D01*
X15126003Y-24774566D01*
X15157765Y-24763202D01*
X15190488Y-24755005D01*
X15223857Y-24750055D01*
X15257550Y-24748400D01*
X15945050Y-24748400D01*
X15978743Y-24750055D01*
G37*
G36*
X19376293Y-24649935D02*
G01*
X19407235Y-24654525D01*
X19437578Y-24662125D01*
X19467030Y-24672663D01*
X19495308Y-24686038D01*
X19522138Y-24702119D01*
X19547263Y-24720753D01*
X19570440Y-24741760D01*
X19591447Y-24764937D01*
X19610081Y-24790062D01*
X19626162Y-24816892D01*
X19639537Y-24845170D01*
X19650075Y-24874622D01*
X19657675Y-24904965D01*
X19662265Y-24935907D01*
X19663800Y-24967150D01*
X19663800Y-25679650D01*
X19662265Y-25710893D01*
X19657675Y-25741835D01*
X19650075Y-25772178D01*
X19639537Y-25801630D01*
X19626162Y-25829908D01*
X19610081Y-25856738D01*
X19591447Y-25881863D01*
X19570440Y-25905040D01*
X19547263Y-25926047D01*
X19522138Y-25944681D01*
X19495308Y-25960762D01*
X19467030Y-25974137D01*
X19437578Y-25984675D01*
X19407235Y-25992275D01*
X19376293Y-25996865D01*
X19345050Y-25998400D01*
X18707550Y-25998400D01*
X18676307Y-25996865D01*
X18645365Y-25992275D01*
X18615022Y-25984675D01*
X18585570Y-25974137D01*
X18557292Y-25960762D01*
X18530462Y-25944681D01*
X18505337Y-25926047D01*
X18482160Y-25905040D01*
X18461153Y-25881863D01*
X18442519Y-25856738D01*
X18426438Y-25829908D01*
X18413063Y-25801630D01*
X18402525Y-25772178D01*
X18394925Y-25741835D01*
X18390335Y-25710893D01*
X18388800Y-25679650D01*
X18388800Y-24967150D01*
X18390335Y-24935907D01*
X18394925Y-24904965D01*
X18402525Y-24874622D01*
X18413063Y-24845170D01*
X18426438Y-24816892D01*
X18442519Y-24790062D01*
X18461153Y-24764937D01*
X18482160Y-24741760D01*
X18505337Y-24720753D01*
X18530462Y-24702119D01*
X18557292Y-24686038D01*
X18585570Y-24672663D01*
X18615022Y-24662125D01*
X18645365Y-24654525D01*
X18676307Y-24649935D01*
X18707550Y-24648400D01*
X19345050Y-24648400D01*
X19376293Y-24649935D01*
G37*
G36*
X17801293Y-24649935D02*
G01*
X17832235Y-24654525D01*
X17862578Y-24662125D01*
X17892030Y-24672663D01*
X17920308Y-24686038D01*
X17947138Y-24702119D01*
X17972263Y-24720753D01*
X17995440Y-24741760D01*
X18016447Y-24764937D01*
X18035081Y-24790062D01*
X18051162Y-24816892D01*
X18064537Y-24845170D01*
X18075075Y-24874622D01*
X18082675Y-24904965D01*
X18087265Y-24935907D01*
X18088800Y-24967150D01*
X18088800Y-25679650D01*
X18087265Y-25710893D01*
X18082675Y-25741835D01*
X18075075Y-25772178D01*
X18064537Y-25801630D01*
X18051162Y-25829908D01*
X18035081Y-25856738D01*
X18016447Y-25881863D01*
X17995440Y-25905040D01*
X17972263Y-25926047D01*
X17947138Y-25944681D01*
X17920308Y-25960762D01*
X17892030Y-25974137D01*
X17862578Y-25984675D01*
X17832235Y-25992275D01*
X17801293Y-25996865D01*
X17770050Y-25998400D01*
X17132550Y-25998400D01*
X17101307Y-25996865D01*
X17070365Y-25992275D01*
X17040022Y-25984675D01*
X17010570Y-25974137D01*
X16982292Y-25960762D01*
X16955462Y-25944681D01*
X16930337Y-25926047D01*
X16907160Y-25905040D01*
X16886153Y-25881863D01*
X16867519Y-25856738D01*
X16851438Y-25829908D01*
X16838063Y-25801630D01*
X16827525Y-25772178D01*
X16819925Y-25741835D01*
X16815335Y-25710893D01*
X16813800Y-25679650D01*
X16813800Y-24967150D01*
X16815335Y-24935907D01*
X16819925Y-24904965D01*
X16827525Y-24874622D01*
X16838063Y-24845170D01*
X16851438Y-24816892D01*
X16867519Y-24790062D01*
X16886153Y-24764937D01*
X16907160Y-24741760D01*
X16930337Y-24720753D01*
X16955462Y-24702119D01*
X16982292Y-24686038D01*
X17010570Y-24672663D01*
X17040022Y-24662125D01*
X17070365Y-24654525D01*
X17101307Y-24649935D01*
X17132550Y-24648400D01*
X17770050Y-24648400D01*
X17801293Y-24649935D01*
G37*
D19*
X18526800Y-15948400D03*
X18526800Y-16598400D03*
X18526800Y-17248400D03*
X18526800Y-17898400D03*
X18526800Y-18548400D03*
X18526800Y-19198400D03*
X18526800Y-19848400D03*
X18526800Y-20498400D03*
X18526800Y-21148400D03*
X18526800Y-21798400D03*
X18526800Y-22448400D03*
X18526800Y-23098400D03*
X11326800Y-23098400D03*
X11326800Y-22448400D03*
X11326800Y-21798400D03*
X11326800Y-21148400D03*
X11326800Y-20498400D03*
X11326800Y-19848400D03*
X11326800Y-19198400D03*
X11326800Y-18548400D03*
X11326800Y-17898400D03*
X11326800Y-17248400D03*
X11326800Y-16598400D03*
X11326800Y-15948400D03*
D16*
G36*
X27882912Y4925998D02*
G01*
X27901334Y4925998D01*
X27920940Y4925035D01*
X27969771Y4920225D01*
X27989180Y4917346D01*
X28037305Y4907774D01*
X28056348Y4903004D01*
X28103303Y4888760D01*
X28121780Y4882149D01*
X28167113Y4863372D01*
X28184861Y4854977D01*
X28228134Y4831846D01*
X28244962Y4821760D01*
X28285761Y4794500D01*
X28301530Y4782805D01*
X28339459Y4751677D01*
X28354000Y4738497D01*
X28388697Y4703800D01*
X28401877Y4689259D01*
X28433005Y4651330D01*
X28444700Y4635561D01*
X28471960Y4594762D01*
X28482046Y4577934D01*
X28505177Y4534661D01*
X28513572Y4516913D01*
X28532349Y4471580D01*
X28538960Y4453103D01*
X28553204Y4406148D01*
X28557974Y4387105D01*
X28567546Y4338980D01*
X28570425Y4319571D01*
X28575235Y4270740D01*
X28576198Y4251134D01*
X28576198Y4232712D01*
X28576800Y4226600D01*
X28576800Y3726600D01*
X28576198Y3720488D01*
X28576198Y3702066D01*
X28575235Y3682460D01*
X28570425Y3633629D01*
X28567546Y3614220D01*
X28557974Y3566095D01*
X28553204Y3547052D01*
X28538960Y3500097D01*
X28532349Y3481620D01*
X28513572Y3436287D01*
X28505177Y3418539D01*
X28482046Y3375266D01*
X28471960Y3358438D01*
X28444700Y3317639D01*
X28433005Y3301870D01*
X28401877Y3263941D01*
X28388697Y3249400D01*
X28354000Y3214703D01*
X28339459Y3201523D01*
X28301530Y3170395D01*
X28285761Y3158700D01*
X28244962Y3131440D01*
X28228134Y3121354D01*
X28184861Y3098223D01*
X28167113Y3089828D01*
X28121780Y3071051D01*
X28103303Y3064440D01*
X28056348Y3050196D01*
X28037305Y3045426D01*
X27989180Y3035854D01*
X27969771Y3032975D01*
X27920940Y3028165D01*
X27901334Y3027202D01*
X27882912Y3027202D01*
X27876800Y3026600D01*
X27376800Y3026600D01*
X27337782Y3030443D01*
X27300263Y3041824D01*
X27265686Y3060306D01*
X27235379Y3085179D01*
X27210506Y3115486D01*
X27192024Y3150063D01*
X27180643Y3187582D01*
X27176800Y3226600D01*
X27176800Y4726600D01*
X27180643Y4765618D01*
X27192024Y4803137D01*
X27210506Y4837714D01*
X27235379Y4868021D01*
X27265686Y4892894D01*
X27300263Y4911376D01*
X27337782Y4922757D01*
X27376800Y4926600D01*
X27876800Y4926600D01*
X27882912Y4925998D01*
G37*
G36*
X27115818Y4922757D02*
G01*
X27153337Y4911376D01*
X27187914Y4892894D01*
X27218221Y4868021D01*
X27243094Y4837714D01*
X27261576Y4803137D01*
X27272957Y4765618D01*
X27276800Y4726600D01*
X27276800Y3226600D01*
X27272957Y3187582D01*
X27261576Y3150063D01*
X27243094Y3115486D01*
X27218221Y3085179D01*
X27187914Y3060306D01*
X27153337Y3041824D01*
X27115818Y3030443D01*
X27076800Y3026600D01*
X26576800Y3026600D01*
X26570688Y3027202D01*
X26552266Y3027202D01*
X26532660Y3028165D01*
X26483829Y3032975D01*
X26464420Y3035854D01*
X26416295Y3045426D01*
X26397252Y3050196D01*
X26350297Y3064440D01*
X26331820Y3071051D01*
X26286487Y3089828D01*
X26268739Y3098223D01*
X26225466Y3121354D01*
X26208638Y3131440D01*
X26167839Y3158700D01*
X26152070Y3170395D01*
X26114141Y3201523D01*
X26099600Y3214703D01*
X26064903Y3249400D01*
X26051723Y3263941D01*
X26020595Y3301870D01*
X26008900Y3317639D01*
X25981640Y3358438D01*
X25971554Y3375266D01*
X25948423Y3418539D01*
X25940028Y3436287D01*
X25921251Y3481620D01*
X25914640Y3500097D01*
X25900396Y3547052D01*
X25895626Y3566095D01*
X25886054Y3614220D01*
X25883175Y3633629D01*
X25878365Y3682460D01*
X25877402Y3702066D01*
X25877402Y3720488D01*
X25876800Y3726600D01*
X25876800Y4226600D01*
X25877402Y4232712D01*
X25877402Y4251134D01*
X25878365Y4270740D01*
X25883175Y4319571D01*
X25886054Y4338980D01*
X25895626Y4387105D01*
X25900396Y4406148D01*
X25914640Y4453103D01*
X25921251Y4471580D01*
X25940028Y4516913D01*
X25948423Y4534661D01*
X25971554Y4577934D01*
X25981640Y4594762D01*
X26008900Y4635561D01*
X26020595Y4651330D01*
X26051723Y4689259D01*
X26064903Y4703800D01*
X26099600Y4738497D01*
X26114141Y4751677D01*
X26152070Y4782805D01*
X26167839Y4794500D01*
X26208638Y4821760D01*
X26225466Y4831846D01*
X26268739Y4854977D01*
X26286487Y4863372D01*
X26331820Y4882149D01*
X26350297Y4888760D01*
X26397252Y4903004D01*
X26416295Y4907774D01*
X26464420Y4917346D01*
X26483829Y4920225D01*
X26532660Y4925035D01*
X26552266Y4925998D01*
X26570688Y4925998D01*
X26576800Y4926600D01*
X27076800Y4926600D01*
X27115818Y4922757D01*
G37*
G36*
X23790818Y4922757D02*
G01*
X23828337Y4911376D01*
X23862914Y4892894D01*
X23893221Y4868021D01*
X23918094Y4837714D01*
X23936576Y4803137D01*
X23947957Y4765618D01*
X23951800Y4726600D01*
X23951800Y3226600D01*
X23947957Y3187582D01*
X23936576Y3150063D01*
X23918094Y3115486D01*
X23893221Y3085179D01*
X23862914Y3060306D01*
X23828337Y3041824D01*
X23790818Y3030443D01*
X23751800Y3026600D01*
X23251800Y3026600D01*
X23245688Y3027202D01*
X23227266Y3027202D01*
X23207660Y3028165D01*
X23158829Y3032975D01*
X23139420Y3035854D01*
X23091295Y3045426D01*
X23072252Y3050196D01*
X23025297Y3064440D01*
X23006820Y3071051D01*
X22961487Y3089828D01*
X22943739Y3098223D01*
X22900466Y3121354D01*
X22883638Y3131440D01*
X22842839Y3158700D01*
X22827070Y3170395D01*
X22789141Y3201523D01*
X22774600Y3214703D01*
X22739903Y3249400D01*
X22726723Y3263941D01*
X22695595Y3301870D01*
X22683900Y3317639D01*
X22656640Y3358438D01*
X22646554Y3375266D01*
X22623423Y3418539D01*
X22615028Y3436287D01*
X22596251Y3481620D01*
X22589640Y3500097D01*
X22575396Y3547052D01*
X22570626Y3566095D01*
X22561054Y3614220D01*
X22558175Y3633629D01*
X22553365Y3682460D01*
X22552402Y3702066D01*
X22552402Y3720488D01*
X22551800Y3726600D01*
X22551800Y4226600D01*
X22552402Y4232712D01*
X22552402Y4251134D01*
X22553365Y4270740D01*
X22558175Y4319571D01*
X22561054Y4338980D01*
X22570626Y4387105D01*
X22575396Y4406148D01*
X22589640Y4453103D01*
X22596251Y4471580D01*
X22615028Y4516913D01*
X22623423Y4534661D01*
X22646554Y4577934D01*
X22656640Y4594762D01*
X22683900Y4635561D01*
X22695595Y4651330D01*
X22726723Y4689259D01*
X22739903Y4703800D01*
X22774600Y4738497D01*
X22789141Y4751677D01*
X22827070Y4782805D01*
X22842839Y4794500D01*
X22883638Y4821760D01*
X22900466Y4831846D01*
X22943739Y4854977D01*
X22961487Y4863372D01*
X23006820Y4882149D01*
X23025297Y4888760D01*
X23072252Y4903004D01*
X23091295Y4907774D01*
X23139420Y4917346D01*
X23158829Y4920225D01*
X23207660Y4925035D01*
X23227266Y4925998D01*
X23245688Y4925998D01*
X23251800Y4926600D01*
X23751800Y4926600D01*
X23790818Y4922757D01*
G37*
G36*
X24557912Y4925998D02*
G01*
X24576334Y4925998D01*
X24595940Y4925035D01*
X24644771Y4920225D01*
X24664180Y4917346D01*
X24712305Y4907774D01*
X24731348Y4903004D01*
X24778303Y4888760D01*
X24796780Y4882149D01*
X24842113Y4863372D01*
X24859861Y4854977D01*
X24903134Y4831846D01*
X24919962Y4821760D01*
X24960761Y4794500D01*
X24976530Y4782805D01*
X25014459Y4751677D01*
X25029000Y4738497D01*
X25063697Y4703800D01*
X25076877Y4689259D01*
X25108005Y4651330D01*
X25119700Y4635561D01*
X25146960Y4594762D01*
X25157046Y4577934D01*
X25180177Y4534661D01*
X25188572Y4516913D01*
X25207349Y4471580D01*
X25213960Y4453103D01*
X25228204Y4406148D01*
X25232974Y4387105D01*
X25242546Y4338980D01*
X25245425Y4319571D01*
X25250235Y4270740D01*
X25251198Y4251134D01*
X25251198Y4232712D01*
X25251800Y4226600D01*
X25251800Y3726600D01*
X25251198Y3720488D01*
X25251198Y3702066D01*
X25250235Y3682460D01*
X25245425Y3633629D01*
X25242546Y3614220D01*
X25232974Y3566095D01*
X25228204Y3547052D01*
X25213960Y3500097D01*
X25207349Y3481620D01*
X25188572Y3436287D01*
X25180177Y3418539D01*
X25157046Y3375266D01*
X25146960Y3358438D01*
X25119700Y3317639D01*
X25108005Y3301870D01*
X25076877Y3263941D01*
X25063697Y3249400D01*
X25029000Y3214703D01*
X25014459Y3201523D01*
X24976530Y3170395D01*
X24960761Y3158700D01*
X24919962Y3131440D01*
X24903134Y3121354D01*
X24859861Y3098223D01*
X24842113Y3089828D01*
X24796780Y3071051D01*
X24778303Y3064440D01*
X24731348Y3050196D01*
X24712305Y3045426D01*
X24664180Y3035854D01*
X24644771Y3032975D01*
X24595940Y3028165D01*
X24576334Y3027202D01*
X24557912Y3027202D01*
X24551800Y3026600D01*
X24051800Y3026600D01*
X24012782Y3030443D01*
X23975263Y3041824D01*
X23940686Y3060306D01*
X23910379Y3085179D01*
X23885506Y3115486D01*
X23867024Y3150063D01*
X23855643Y3187582D01*
X23851800Y3226600D01*
X23851800Y4726600D01*
X23855643Y4765618D01*
X23867024Y4803137D01*
X23885506Y4837714D01*
X23910379Y4868021D01*
X23940686Y4892894D01*
X23975263Y4911376D01*
X24012782Y4922757D01*
X24051800Y4926600D01*
X24551800Y4926600D01*
X24557912Y4925998D01*
G37*
D20*
X5876800Y-27513400D03*
D21*
X5876800Y-12273400D03*
D20*
X5876800Y-22433400D03*
X5876800Y-17353400D03*
D16*
G36*
X29714293Y-5312435D02*
G01*
X29745235Y-5317025D01*
X29775578Y-5324625D01*
X29805030Y-5335163D01*
X29833308Y-5348538D01*
X29860138Y-5364619D01*
X29885263Y-5383253D01*
X29908440Y-5404260D01*
X29929447Y-5427437D01*
X29948081Y-5452562D01*
X29964162Y-5479392D01*
X29977537Y-5507670D01*
X29988075Y-5537122D01*
X29995675Y-5567465D01*
X30000265Y-5598407D01*
X30001800Y-5629650D01*
X30001800Y-6267150D01*
X30000265Y-6298393D01*
X29995675Y-6329335D01*
X29988075Y-6359678D01*
X29977537Y-6389130D01*
X29964162Y-6417408D01*
X29948081Y-6444238D01*
X29929447Y-6469363D01*
X29908440Y-6492540D01*
X29885263Y-6513547D01*
X29860138Y-6532181D01*
X29833308Y-6548262D01*
X29805030Y-6561637D01*
X29775578Y-6572175D01*
X29745235Y-6579775D01*
X29714293Y-6584365D01*
X29683050Y-6585900D01*
X28970550Y-6585900D01*
X28939307Y-6584365D01*
X28908365Y-6579775D01*
X28878022Y-6572175D01*
X28848570Y-6561637D01*
X28820292Y-6548262D01*
X28793462Y-6532181D01*
X28768337Y-6513547D01*
X28745160Y-6492540D01*
X28724153Y-6469363D01*
X28705519Y-6444238D01*
X28689438Y-6417408D01*
X28676063Y-6389130D01*
X28665525Y-6359678D01*
X28657925Y-6329335D01*
X28653335Y-6298393D01*
X28651800Y-6267150D01*
X28651800Y-5629650D01*
X28653335Y-5598407D01*
X28657925Y-5567465D01*
X28665525Y-5537122D01*
X28676063Y-5507670D01*
X28689438Y-5479392D01*
X28705519Y-5452562D01*
X28724153Y-5427437D01*
X28745160Y-5404260D01*
X28768337Y-5383253D01*
X28793462Y-5364619D01*
X28820292Y-5348538D01*
X28848570Y-5335163D01*
X28878022Y-5324625D01*
X28908365Y-5317025D01*
X28939307Y-5312435D01*
X28970550Y-5310900D01*
X29683050Y-5310900D01*
X29714293Y-5312435D01*
G37*
G36*
X29714293Y-6887435D02*
G01*
X29745235Y-6892025D01*
X29775578Y-6899625D01*
X29805030Y-6910163D01*
X29833308Y-6923538D01*
X29860138Y-6939619D01*
X29885263Y-6958253D01*
X29908440Y-6979260D01*
X29929447Y-7002437D01*
X29948081Y-7027562D01*
X29964162Y-7054392D01*
X29977537Y-7082670D01*
X29988075Y-7112122D01*
X29995675Y-7142465D01*
X30000265Y-7173407D01*
X30001800Y-7204650D01*
X30001800Y-7842150D01*
X30000265Y-7873393D01*
X29995675Y-7904335D01*
X29988075Y-7934678D01*
X29977537Y-7964130D01*
X29964162Y-7992408D01*
X29948081Y-8019238D01*
X29929447Y-8044363D01*
X29908440Y-8067540D01*
X29885263Y-8088547D01*
X29860138Y-8107181D01*
X29833308Y-8123262D01*
X29805030Y-8136637D01*
X29775578Y-8147175D01*
X29745235Y-8154775D01*
X29714293Y-8159365D01*
X29683050Y-8160900D01*
X28970550Y-8160900D01*
X28939307Y-8159365D01*
X28908365Y-8154775D01*
X28878022Y-8147175D01*
X28848570Y-8136637D01*
X28820292Y-8123262D01*
X28793462Y-8107181D01*
X28768337Y-8088547D01*
X28745160Y-8067540D01*
X28724153Y-8044363D01*
X28705519Y-8019238D01*
X28689438Y-7992408D01*
X28676063Y-7964130D01*
X28665525Y-7934678D01*
X28657925Y-7904335D01*
X28653335Y-7873393D01*
X28651800Y-7842150D01*
X28651800Y-7204650D01*
X28653335Y-7173407D01*
X28657925Y-7142465D01*
X28665525Y-7112122D01*
X28676063Y-7082670D01*
X28689438Y-7054392D01*
X28705519Y-7027562D01*
X28724153Y-7002437D01*
X28745160Y-6979260D01*
X28768337Y-6958253D01*
X28793462Y-6939619D01*
X28820292Y-6923538D01*
X28848570Y-6910163D01*
X28878022Y-6899625D01*
X28908365Y-6892025D01*
X28939307Y-6887435D01*
X28970550Y-6885900D01*
X29683050Y-6885900D01*
X29714293Y-6887435D01*
G37*
D22*
X4752800Y9534800D03*
X48752800Y9534800D03*
X4752800Y-34465200D03*
X48752800Y-34465200D03*
D23*
X8752800Y9534800D03*
X44752800Y9534800D03*
X8752800Y-34465200D03*
X44752800Y-34465200D03*
D24*
X36752800Y5949800D03*
X36752800Y4679800D03*
X36752800Y3409800D03*
X36752800Y2139800D03*
X36752800Y869800D03*
X36752800Y-400200D03*
X36752800Y-1670200D03*
X36752800Y-2940200D03*
X36752800Y-4210200D03*
X36752800Y-5480200D03*
X36752800Y-6750200D03*
X36752800Y-8020200D03*
X36752800Y-9290200D03*
X36752800Y-10560200D03*
X36752800Y-11830200D03*
X36752800Y-13100200D03*
X36752800Y-14370200D03*
X36752800Y-15640200D03*
X36752800Y-16910200D03*
X36752800Y-18180200D03*
X36752800Y-19450200D03*
X36752800Y-20720200D03*
X36752800Y-21990200D03*
X36752800Y-23260200D03*
X36752800Y-24530200D03*
X36752800Y-25800200D03*
X36752800Y-27070200D03*
X36752800Y-28340200D03*
X36752800Y-29610200D03*
X36752800Y-30880200D03*
M02*
