M48
METRIC,TZ
T1C0.400
T2C1.000
T3C1.520
%
G90
G05
T1
X10627Y12927
X10627Y-38048
X16690Y-7576
X19956Y-7704
X20238Y-15945
X20319Y-13587
X20633Y-17523
X21352Y-2723
X21572Y-22349
X22968Y-11094
X23131Y-13277
X23502Y-6848
X24752Y-14400
X24818Y-1944
X27802Y-5848
X29227Y5877
X29577Y-373
X31227Y-10248
X35002Y-27623
X35174Y-15416
X35275Y-8234
X38108Y-24905
X39152Y702
X39252Y-25848
X46427Y-38073
X46477Y13077
T2
X24877Y-20448
X24877Y-22988
X24877Y-25528
X27417Y-20448
X27417Y-22988
X27417Y-25528
T3
X5877Y-12273
X5877Y-17353
X5877Y-22433
X5877Y-27513
T0
M30
