G04 #@! TF.GenerationSoftware,KiCad,Pcbnew,5.1.5-52549c5~84~ubuntu18.04.1*
G04 #@! TF.CreationDate,2020-02-10T01:03:59+09:00*
G04 #@! TF.ProjectId,I2CMotorsForM5Stack,4932434d-6f74-46f7-9273-466f724d3553,rev?*
G04 #@! TF.SameCoordinates,Original*
G04 #@! TF.FileFunction,Legend,Bot*
G04 #@! TF.FilePolarity,Positive*
%FSLAX46Y46*%
G04 Gerber Fmt 4.6, Leading zero omitted, Abs format (unit mm)*
G04 Created by KiCad (PCBNEW 5.1.5-52549c5~84~ubuntu18.04.1) date 2020-02-10 01:03:59*
%MOMM*%
%LPD*%
G04 APERTURE LIST*
%ADD10C,0.150000*%
%ADD11C,0.200000*%
%ADD12C,0.120000*%
%ADD13O,2.100000X2.100000*%
%ADD14R,2.100000X2.100000*%
%ADD15C,3.400000*%
%ADD16R,3.400000X3.400000*%
%ADD17C,3.600000*%
%ADD18C,2.600000*%
G04 APERTURE END LIST*
D10*
X848028Y-27728161D02*
X800409Y-27585304D01*
X752790Y-27537685D01*
X657552Y-27490066D01*
X514695Y-27490066D01*
X419457Y-27537685D01*
X371838Y-27585304D01*
X324219Y-27680542D01*
X324219Y-28061495D01*
X1324219Y-28061495D01*
X1324219Y-27728161D01*
X1276600Y-27632923D01*
X1228980Y-27585304D01*
X1133742Y-27537685D01*
X1038504Y-27537685D01*
X943266Y-27585304D01*
X895647Y-27632923D01*
X848028Y-27728161D01*
X848028Y-28061495D01*
X324219Y-26537685D02*
X324219Y-27109114D01*
X324219Y-26823400D02*
X1324219Y-26823400D01*
X1181361Y-26918638D01*
X1086123Y-27013876D01*
X1038504Y-27109114D01*
X848028Y-22753161D02*
X800409Y-22610304D01*
X752790Y-22562685D01*
X657552Y-22515066D01*
X514695Y-22515066D01*
X419457Y-22562685D01*
X371838Y-22610304D01*
X324219Y-22705542D01*
X324219Y-23086495D01*
X1324219Y-23086495D01*
X1324219Y-22753161D01*
X1276600Y-22657923D01*
X1228980Y-22610304D01*
X1133742Y-22562685D01*
X1038504Y-22562685D01*
X943266Y-22610304D01*
X895647Y-22657923D01*
X848028Y-22753161D01*
X848028Y-23086495D01*
X1228980Y-22134114D02*
X1276600Y-22086495D01*
X1324219Y-21991257D01*
X1324219Y-21753161D01*
X1276600Y-21657923D01*
X1228980Y-21610304D01*
X1133742Y-21562685D01*
X1038504Y-21562685D01*
X895647Y-21610304D01*
X324219Y-22181733D01*
X324219Y-21562685D01*
X709933Y-18087685D02*
X709933Y-17611495D01*
X424219Y-18182923D02*
X1424219Y-17849590D01*
X424219Y-17516257D01*
X1328980Y-17230542D02*
X1376600Y-17182923D01*
X1424219Y-17087685D01*
X1424219Y-16849590D01*
X1376600Y-16754352D01*
X1328980Y-16706733D01*
X1233742Y-16659114D01*
X1138504Y-16659114D01*
X995647Y-16706733D01*
X424219Y-17278161D01*
X424219Y-16659114D01*
X659933Y-13062685D02*
X659933Y-12586495D01*
X374219Y-13157923D02*
X1374219Y-12824590D01*
X374219Y-12491257D01*
X374219Y-11634114D02*
X374219Y-12205542D01*
X374219Y-11919828D02*
X1374219Y-11919828D01*
X1231361Y-12015066D01*
X1136123Y-12110304D01*
X1088504Y-12205542D01*
X53752800Y9534800D02*
X53752800Y6534800D01*
X38252800Y-23465200D02*
X53752800Y-31465200D01*
X38252800Y-1465200D02*
X38252800Y-23465200D01*
X53752800Y6534800D02*
X38252800Y-1465200D01*
X4752800Y14534800D02*
X48752800Y14534800D01*
D11*
X53752800Y-31465200D02*
X53752800Y-34465200D01*
D10*
X-247200Y-34465200D02*
X-247200Y9534800D01*
X48752800Y-39465200D02*
X4752800Y-39465200D01*
D12*
X9686800Y-9733400D02*
X9686800Y-30053400D01*
X2066800Y-9733400D02*
X2066800Y-30053400D01*
X8416800Y-30053400D02*
X8416800Y-9733400D01*
X9686800Y-30053400D02*
X2066800Y-30053400D01*
X2066800Y-9733400D02*
X9686800Y-9733400D01*
D10*
X-247200Y9534800D02*
G75*
G02X4752800Y14534800I5000000J0D01*
G01*
X53752800Y-34465200D02*
G75*
G02X48752800Y-39465200I-5000000J0D01*
G01*
X4752800Y-39465200D02*
G75*
G02X-247200Y-34465200I0J5000000D01*
G01*
X48752800Y14534800D02*
G75*
G02X53752800Y9534800I0J-5000000D01*
G01*
X10179180Y-19690066D02*
X10893466Y-19690066D01*
X11036323Y-19642447D01*
X11131561Y-19547209D01*
X11179180Y-19404352D01*
X11179180Y-19309114D01*
X10274419Y-20118638D02*
X10226800Y-20166257D01*
X10179180Y-20261495D01*
X10179180Y-20499590D01*
X10226800Y-20594828D01*
X10274419Y-20642447D01*
X10369657Y-20690066D01*
X10464895Y-20690066D01*
X10607752Y-20642447D01*
X11179180Y-20071019D01*
X11179180Y-20690066D01*
%LPC*%
D13*
X27416800Y-25528400D03*
X24876800Y-25528400D03*
X27416800Y-22988400D03*
X24876800Y-22988400D03*
X27416800Y-20448400D03*
D14*
X24876800Y-20448400D03*
D15*
X5876800Y-27513400D03*
D16*
X5876800Y-12273400D03*
D15*
X5876800Y-22433400D03*
X5876800Y-17353400D03*
D17*
X4752800Y9534800D03*
X48752800Y9534800D03*
X4752800Y-34465200D03*
X48752800Y-34465200D03*
D18*
X8752800Y9534800D03*
X44752800Y9534800D03*
X8752800Y-34465200D03*
X44752800Y-34465200D03*
M02*
