G04 #@! TF.GenerationSoftware,KiCad,Pcbnew,5.1.5-52549c5~84~ubuntu18.04.1*
G04 #@! TF.CreationDate,2020-02-10T01:03:59+09:00*
G04 #@! TF.ProjectId,I2CMotorsForM5Stack,4932434d-6f74-46f7-9273-466f724d3553,rev?*
G04 #@! TF.SameCoordinates,Original*
G04 #@! TF.FileFunction,Copper,L2,Bot*
G04 #@! TF.FilePolarity,Positive*
%FSLAX46Y46*%
G04 Gerber Fmt 4.6, Leading zero omitted, Abs format (unit mm)*
G04 Created by KiCad (PCBNEW 5.1.5-52549c5~84~ubuntu18.04.1) date 2020-02-10 01:03:59*
%MOMM*%
%LPD*%
G04 APERTURE LIST*
%ADD10C,0.150000*%
%ADD11C,0.200000*%
%ADD12O,1.700000X1.700000*%
%ADD13R,1.700000X1.700000*%
%ADD14C,3.000000*%
%ADD15R,3.000000X3.000000*%
%ADD16C,0.800000*%
%ADD17C,0.250000*%
%ADD18C,0.254000*%
%ADD19C,0.350000*%
G04 APERTURE END LIST*
D10*
X53752800Y9534800D02*
X53752800Y6534800D01*
X38252800Y-23465200D02*
X53752800Y-31465200D01*
X38252800Y-1465200D02*
X38252800Y-23465200D01*
X53752800Y6534800D02*
X38252800Y-1465200D01*
X4752800Y14534800D02*
X48752800Y14534800D01*
D11*
X53752800Y-31465200D02*
X53752800Y-34465200D01*
D10*
X-247200Y-34465200D02*
X-247200Y9534800D01*
X48752800Y-39465200D02*
X4752800Y-39465200D01*
X-247200Y9534800D02*
G75*
G02X4752800Y14534800I5000000J0D01*
G01*
X53752800Y-34465200D02*
G75*
G02X48752800Y-39465200I-5000000J0D01*
G01*
X4752800Y-39465200D02*
G75*
G02X-247200Y-34465200I0J5000000D01*
G01*
X48752800Y14534800D02*
G75*
G02X53752800Y9534800I0J-5000000D01*
G01*
D12*
X27416800Y-25528400D03*
X24876800Y-25528400D03*
X27416800Y-22988400D03*
X24876800Y-22988400D03*
X27416800Y-20448400D03*
D13*
X24876800Y-20448400D03*
D14*
X5876800Y-27513400D03*
D15*
X5876800Y-12273400D03*
D14*
X5876800Y-22433400D03*
X5876800Y-17353400D03*
D16*
X23501800Y-6848400D03*
X21351600Y-2723400D03*
X29576600Y-373400D03*
X31226600Y-10248400D03*
X35001600Y-27623400D03*
X29226600Y5876600D03*
X10626600Y-38048400D03*
X46426600Y-38073400D03*
X10626600Y12926600D03*
X46476600Y13076600D03*
X39151600Y701600D03*
X39251600Y-25848400D03*
X20238400Y-15944700D03*
X21572300Y-22348800D03*
X16690100Y-7575700D03*
X19955700Y-7704500D03*
X38108000Y-24904600D03*
X27802200Y-5847500D03*
X35274600Y-8234200D03*
X35174400Y-15415700D03*
X23130600Y-13277400D03*
X20318600Y-13586700D03*
X22967800Y-11094100D03*
X20632900Y-17523400D03*
X24817600Y-1943600D03*
X24751800Y-14400400D03*
D17*
X23501800Y-6848400D02*
X23501800Y-4873600D01*
X23501800Y-4873600D02*
X21351600Y-2723400D01*
X29576600Y-373400D02*
X31226600Y-2023400D01*
X31226600Y-2023400D02*
X31226600Y-10248400D01*
X32906600Y-25528400D02*
X27416800Y-25528400D01*
X35001600Y-27623400D02*
X32906600Y-25528400D01*
X10626600Y-38048400D02*
X46401600Y-38048400D01*
X46401600Y-38048400D02*
X46426600Y-38073400D01*
X10626600Y12926600D02*
X46326600Y12926600D01*
X46326600Y12926600D02*
X46476600Y13076600D01*
X21572300Y-22348800D02*
X19874800Y-20651300D01*
X19874800Y-20651300D02*
X19874800Y-16308300D01*
X19874800Y-16308300D02*
X20238400Y-15944700D01*
X16690100Y-7575700D02*
X19826900Y-7575700D01*
X19826900Y-7575700D02*
X19955700Y-7704500D01*
X27416800Y-20448400D02*
X27416800Y-14500400D01*
X27416800Y-14500400D02*
X20620900Y-7704500D01*
X20620900Y-7704500D02*
X19955700Y-7704500D01*
X27802200Y-5847500D02*
X28592200Y-6637500D01*
X28592200Y-6637500D02*
X28592200Y-15388800D01*
X28592200Y-15388800D02*
X38108000Y-24904600D01*
X35174400Y-15415700D02*
X35274600Y-15315500D01*
X35274600Y-15315500D02*
X35274600Y-8234200D01*
X20318600Y-13586700D02*
X22821300Y-13586700D01*
X22821300Y-13586700D02*
X23130600Y-13277400D01*
X20632900Y-17523400D02*
X23855900Y-14300400D01*
X23855900Y-14300400D02*
X23855900Y-11982200D01*
X23855900Y-11982200D02*
X22967800Y-11094100D01*
X24876800Y-25528400D02*
X26052100Y-25528400D01*
X24817600Y-1943600D02*
X24817600Y-3918400D01*
X24817600Y-3918400D02*
X27867200Y-6968000D01*
X27867200Y-6968000D02*
X27867200Y-17043300D01*
X27867200Y-17043300D02*
X28592900Y-17769000D01*
X28592900Y-17769000D02*
X28592900Y-23486100D01*
X28592900Y-23486100D02*
X27725900Y-24353100D01*
X27725900Y-24353100D02*
X26860000Y-24353100D01*
X26860000Y-24353100D02*
X26052100Y-25161000D01*
X26052100Y-25161000D02*
X26052100Y-25528400D01*
X27416800Y-22988400D02*
X27416800Y-21813100D01*
X27416800Y-21813100D02*
X27049400Y-21813100D01*
X27049400Y-21813100D02*
X26241500Y-21005200D01*
X26241500Y-21005200D02*
X26241500Y-15890100D01*
X26241500Y-15890100D02*
X24751800Y-14400400D01*
D18*
G36*
X49511992Y13754222D02*
G01*
X50247189Y13553095D01*
X50935151Y13224954D01*
X51554131Y12780172D01*
X52084561Y12232812D01*
X52509684Y11600161D01*
X52816051Y10902239D01*
X52995299Y10155617D01*
X53042800Y9508769D01*
X53042801Y6967339D01*
X37984722Y-804573D01*
X37979780Y-806072D01*
X37922573Y-836650D01*
X37896172Y-850276D01*
X37891878Y-853056D01*
X37856437Y-872000D01*
X37833306Y-890984D01*
X37808194Y-907244D01*
X37779380Y-935239D01*
X37748325Y-960726D01*
X37729344Y-983855D01*
X37707885Y-1004704D01*
X37685087Y-1037782D01*
X37659600Y-1068838D01*
X37645496Y-1095225D01*
X37628517Y-1119860D01*
X37612610Y-1156750D01*
X37593672Y-1192181D01*
X37584986Y-1220814D01*
X37573140Y-1248287D01*
X37564737Y-1287567D01*
X37553073Y-1326017D01*
X37550140Y-1355800D01*
X37543882Y-1385051D01*
X37543303Y-1425214D01*
X37542800Y-1430324D01*
X37542800Y-1460142D01*
X37541867Y-1524893D01*
X37542800Y-1529964D01*
X37542801Y-23264598D01*
X29591963Y-15313761D01*
X34139400Y-15313761D01*
X34139400Y-15517639D01*
X34179174Y-15717598D01*
X34257195Y-15905956D01*
X34370463Y-16075474D01*
X34514626Y-16219637D01*
X34684144Y-16332905D01*
X34872502Y-16410926D01*
X35072461Y-16450700D01*
X35276339Y-16450700D01*
X35476298Y-16410926D01*
X35664656Y-16332905D01*
X35834174Y-16219637D01*
X35978337Y-16075474D01*
X36091605Y-15905956D01*
X36169626Y-15717598D01*
X36209400Y-15517639D01*
X36209400Y-15313761D01*
X36169626Y-15113802D01*
X36091605Y-14925444D01*
X36034600Y-14840130D01*
X36034600Y-8937911D01*
X36078537Y-8893974D01*
X36191805Y-8724456D01*
X36269826Y-8536098D01*
X36309600Y-8336139D01*
X36309600Y-8132261D01*
X36269826Y-7932302D01*
X36191805Y-7743944D01*
X36078537Y-7574426D01*
X35934374Y-7430263D01*
X35764856Y-7316995D01*
X35576498Y-7238974D01*
X35376539Y-7199200D01*
X35172661Y-7199200D01*
X34972702Y-7238974D01*
X34784344Y-7316995D01*
X34614826Y-7430263D01*
X34470663Y-7574426D01*
X34357395Y-7743944D01*
X34279374Y-7932302D01*
X34239600Y-8132261D01*
X34239600Y-8336139D01*
X34279374Y-8536098D01*
X34357395Y-8724456D01*
X34470663Y-8893974D01*
X34514601Y-8937912D01*
X34514600Y-14611789D01*
X34370463Y-14755926D01*
X34257195Y-14925444D01*
X34179174Y-15113802D01*
X34139400Y-15313761D01*
X29591963Y-15313761D01*
X29352200Y-15073999D01*
X29352200Y-6674825D01*
X29355876Y-6637500D01*
X29352200Y-6600175D01*
X29352200Y-6600167D01*
X29341203Y-6488514D01*
X29297746Y-6345253D01*
X29227174Y-6213224D01*
X29132201Y-6097499D01*
X29103204Y-6073702D01*
X28837200Y-5807698D01*
X28837200Y-5745561D01*
X28797426Y-5545602D01*
X28719405Y-5357244D01*
X28606137Y-5187726D01*
X28461974Y-5043563D01*
X28292456Y-4930295D01*
X28104098Y-4852274D01*
X27904139Y-4812500D01*
X27700261Y-4812500D01*
X27500302Y-4852274D01*
X27311944Y-4930295D01*
X27142426Y-5043563D01*
X27079995Y-5105994D01*
X25577600Y-3603599D01*
X25577600Y-2647311D01*
X25621537Y-2603374D01*
X25734805Y-2433856D01*
X25812826Y-2245498D01*
X25852600Y-2045539D01*
X25852600Y-1841661D01*
X25812826Y-1641702D01*
X25734805Y-1453344D01*
X25621537Y-1283826D01*
X25477374Y-1139663D01*
X25307856Y-1026395D01*
X25119498Y-948374D01*
X24919539Y-908600D01*
X24715661Y-908600D01*
X24515702Y-948374D01*
X24327344Y-1026395D01*
X24157826Y-1139663D01*
X24013663Y-1283826D01*
X23900395Y-1453344D01*
X23822374Y-1641702D01*
X23782600Y-1841661D01*
X23782600Y-2045539D01*
X23822374Y-2245498D01*
X23900395Y-2433856D01*
X24013663Y-2603374D01*
X24057600Y-2647311D01*
X24057601Y-3881068D01*
X24053924Y-3918400D01*
X24068598Y-4067385D01*
X24112054Y-4210646D01*
X24182626Y-4342676D01*
X24253801Y-4429402D01*
X24277600Y-4458401D01*
X24306598Y-4482199D01*
X27107200Y-7282802D01*
X27107201Y-13115999D01*
X21184704Y-7193503D01*
X21160901Y-7164499D01*
X21045176Y-7069526D01*
X20913147Y-6998954D01*
X20769886Y-6955497D01*
X20659540Y-6944629D01*
X20615474Y-6900563D01*
X20445956Y-6787295D01*
X20257598Y-6709274D01*
X20057639Y-6669500D01*
X19853761Y-6669500D01*
X19653802Y-6709274D01*
X19465444Y-6787295D01*
X19422933Y-6815700D01*
X17393811Y-6815700D01*
X17349874Y-6771763D01*
X17180356Y-6658495D01*
X16991998Y-6580474D01*
X16792039Y-6540700D01*
X16588161Y-6540700D01*
X16388202Y-6580474D01*
X16199844Y-6658495D01*
X16030326Y-6771763D01*
X15886163Y-6915926D01*
X15772895Y-7085444D01*
X15694874Y-7273802D01*
X15655100Y-7473761D01*
X15655100Y-7677639D01*
X15694874Y-7877598D01*
X15772895Y-8065956D01*
X15886163Y-8235474D01*
X16030326Y-8379637D01*
X16199844Y-8492905D01*
X16388202Y-8570926D01*
X16588161Y-8610700D01*
X16792039Y-8610700D01*
X16991998Y-8570926D01*
X17180356Y-8492905D01*
X17349874Y-8379637D01*
X17393811Y-8335700D01*
X19132671Y-8335700D01*
X19151763Y-8364274D01*
X19295926Y-8508437D01*
X19465444Y-8621705D01*
X19653802Y-8699726D01*
X19853761Y-8739500D01*
X20057639Y-8739500D01*
X20257598Y-8699726D01*
X20445956Y-8621705D01*
X20456355Y-8614756D01*
X22219894Y-10378295D01*
X22163863Y-10434326D01*
X22050595Y-10603844D01*
X21972574Y-10792202D01*
X21932800Y-10992161D01*
X21932800Y-11196039D01*
X21972574Y-11395998D01*
X22050595Y-11584356D01*
X22163863Y-11753874D01*
X22308026Y-11898037D01*
X22477544Y-12011305D01*
X22665902Y-12089326D01*
X22865861Y-12129100D01*
X22927998Y-12129100D01*
X23041298Y-12242400D01*
X23028661Y-12242400D01*
X22828702Y-12282174D01*
X22640344Y-12360195D01*
X22470826Y-12473463D01*
X22326663Y-12617626D01*
X22213395Y-12787144D01*
X22197010Y-12826700D01*
X21022311Y-12826700D01*
X20978374Y-12782763D01*
X20808856Y-12669495D01*
X20620498Y-12591474D01*
X20420539Y-12551700D01*
X20216661Y-12551700D01*
X20016702Y-12591474D01*
X19828344Y-12669495D01*
X19658826Y-12782763D01*
X19514663Y-12926926D01*
X19401395Y-13096444D01*
X19323374Y-13284802D01*
X19283600Y-13484761D01*
X19283600Y-13688639D01*
X19323374Y-13888598D01*
X19401395Y-14076956D01*
X19514663Y-14246474D01*
X19658826Y-14390637D01*
X19828344Y-14503905D01*
X20016702Y-14581926D01*
X20216661Y-14621700D01*
X20420539Y-14621700D01*
X20620498Y-14581926D01*
X20808856Y-14503905D01*
X20978374Y-14390637D01*
X21022311Y-14346700D01*
X22734798Y-14346700D01*
X21267649Y-15813849D01*
X21233626Y-15642802D01*
X21155605Y-15454444D01*
X21042337Y-15284926D01*
X20898174Y-15140763D01*
X20728656Y-15027495D01*
X20540298Y-14949474D01*
X20340339Y-14909700D01*
X20136461Y-14909700D01*
X19936502Y-14949474D01*
X19748144Y-15027495D01*
X19578626Y-15140763D01*
X19434463Y-15284926D01*
X19321195Y-15454444D01*
X19243174Y-15642802D01*
X19203400Y-15842761D01*
X19203400Y-15952172D01*
X19169254Y-16016054D01*
X19125798Y-16159315D01*
X19111124Y-16308300D01*
X19114801Y-16345632D01*
X19114800Y-20613977D01*
X19111124Y-20651300D01*
X19114800Y-20688622D01*
X19114800Y-20688632D01*
X19125797Y-20800285D01*
X19169254Y-20943546D01*
X19239826Y-21075576D01*
X19246226Y-21083374D01*
X19334799Y-21191301D01*
X19363803Y-21215104D01*
X20537300Y-22388602D01*
X20537300Y-22450739D01*
X20577074Y-22650698D01*
X20655095Y-22839056D01*
X20768363Y-23008574D01*
X20912526Y-23152737D01*
X21082044Y-23266005D01*
X21270402Y-23344026D01*
X21470361Y-23383800D01*
X21674239Y-23383800D01*
X21874198Y-23344026D01*
X22062556Y-23266005D01*
X22232074Y-23152737D01*
X22376237Y-23008574D01*
X22489505Y-22839056D01*
X22567526Y-22650698D01*
X22607300Y-22450739D01*
X22607300Y-22246861D01*
X22567526Y-22046902D01*
X22489505Y-21858544D01*
X22376237Y-21689026D01*
X22232074Y-21544863D01*
X22062556Y-21431595D01*
X21874198Y-21353574D01*
X21674239Y-21313800D01*
X21612102Y-21313800D01*
X20634800Y-20336499D01*
X20634800Y-18558400D01*
X20734839Y-18558400D01*
X20934798Y-18518626D01*
X21123156Y-18440605D01*
X21292674Y-18327337D01*
X21436837Y-18183174D01*
X21550105Y-18013656D01*
X21628126Y-17825298D01*
X21667900Y-17625339D01*
X21667900Y-17563201D01*
X24059395Y-15171706D01*
X24092026Y-15204337D01*
X24261544Y-15317605D01*
X24449902Y-15395626D01*
X24649861Y-15435400D01*
X24711999Y-15435400D01*
X25481501Y-16204903D01*
X25481500Y-18960328D01*
X24026800Y-18960328D01*
X23902318Y-18972588D01*
X23782620Y-19008898D01*
X23672306Y-19067863D01*
X23575615Y-19147215D01*
X23496263Y-19243906D01*
X23437298Y-19354220D01*
X23400988Y-19473918D01*
X23388728Y-19598400D01*
X23388728Y-21298400D01*
X23400988Y-21422882D01*
X23437298Y-21542580D01*
X23496263Y-21652894D01*
X23575615Y-21749585D01*
X23672306Y-21828937D01*
X23782620Y-21887902D01*
X23855180Y-21909913D01*
X23723325Y-22041768D01*
X23560810Y-22284989D01*
X23448868Y-22555242D01*
X23391800Y-22842140D01*
X23391800Y-23134660D01*
X23448868Y-23421558D01*
X23560810Y-23691811D01*
X23723325Y-23935032D01*
X23930168Y-24141875D01*
X24104560Y-24258400D01*
X23930168Y-24374925D01*
X23723325Y-24581768D01*
X23560810Y-24824989D01*
X23448868Y-25095242D01*
X23391800Y-25382140D01*
X23391800Y-25674660D01*
X23448868Y-25961558D01*
X23560810Y-26231811D01*
X23723325Y-26475032D01*
X23930168Y-26681875D01*
X24173389Y-26844390D01*
X24443642Y-26956332D01*
X24730540Y-27013400D01*
X25023060Y-27013400D01*
X25309958Y-26956332D01*
X25580211Y-26844390D01*
X25823432Y-26681875D01*
X26030275Y-26475032D01*
X26147900Y-26298994D01*
X26319212Y-26528669D01*
X26535445Y-26723578D01*
X26785548Y-26872557D01*
X27059909Y-26969881D01*
X27289800Y-26849214D01*
X27289800Y-25655400D01*
X27543800Y-25655400D01*
X27543800Y-26849214D01*
X27773691Y-26969881D01*
X28048052Y-26872557D01*
X28298155Y-26723578D01*
X28514388Y-26528669D01*
X28688441Y-26295320D01*
X28813625Y-26032499D01*
X28858276Y-25885290D01*
X28736955Y-25655400D01*
X27543800Y-25655400D01*
X27289800Y-25655400D01*
X27269800Y-25655400D01*
X27269800Y-25401400D01*
X27289800Y-25401400D01*
X27289800Y-25381400D01*
X27543800Y-25381400D01*
X27543800Y-25401400D01*
X28736955Y-25401400D01*
X28858276Y-25171510D01*
X28813625Y-25024301D01*
X28688441Y-24761480D01*
X28561931Y-24591871D01*
X29103903Y-24049899D01*
X29132901Y-24026101D01*
X29227874Y-23910376D01*
X29298446Y-23778347D01*
X29341903Y-23635086D01*
X29352900Y-23523433D01*
X29352900Y-23523424D01*
X29356576Y-23486101D01*
X29352900Y-23448778D01*
X29352900Y-17806325D01*
X29356576Y-17769000D01*
X29352900Y-17731675D01*
X29352900Y-17731667D01*
X29341903Y-17620014D01*
X29298446Y-17476753D01*
X29227874Y-17344724D01*
X29132901Y-17228999D01*
X29103904Y-17205202D01*
X28627200Y-16728499D01*
X28627200Y-16498601D01*
X37073000Y-24944403D01*
X37073000Y-25006539D01*
X37112774Y-25206498D01*
X37190795Y-25394856D01*
X37304063Y-25564374D01*
X37448226Y-25708537D01*
X37617744Y-25821805D01*
X37806102Y-25899826D01*
X38006061Y-25939600D01*
X38209939Y-25939600D01*
X38409898Y-25899826D01*
X38598256Y-25821805D01*
X38767774Y-25708537D01*
X38911937Y-25564374D01*
X39025205Y-25394856D01*
X39103226Y-25206498D01*
X39143000Y-25006539D01*
X39143000Y-24802661D01*
X39125485Y-24714608D01*
X53017800Y-31884836D01*
X53017801Y-34501305D01*
X53027745Y-34602269D01*
X52972222Y-35224393D01*
X52771095Y-35959589D01*
X52442952Y-36647555D01*
X51998174Y-37266528D01*
X51450812Y-37796961D01*
X50818162Y-38222083D01*
X50120239Y-38528451D01*
X49373619Y-38707699D01*
X48726770Y-38755200D01*
X4784418Y-38755200D01*
X3993607Y-38684622D01*
X3258411Y-38483495D01*
X2570445Y-38155352D01*
X1951472Y-37710574D01*
X1421039Y-37163212D01*
X995917Y-36530562D01*
X689549Y-35832639D01*
X510301Y-35086019D01*
X462800Y-34439170D01*
X462800Y-34245072D01*
X2517800Y-34245072D01*
X2517800Y-34685328D01*
X2603690Y-35117125D01*
X2772169Y-35523869D01*
X3016762Y-35889929D01*
X3328071Y-36201238D01*
X3694131Y-36445831D01*
X4100875Y-36614310D01*
X4532672Y-36700200D01*
X4972928Y-36700200D01*
X5404725Y-36614310D01*
X5811469Y-36445831D01*
X6177529Y-36201238D01*
X6488838Y-35889929D01*
X6733431Y-35523869D01*
X6901910Y-35117125D01*
X6987800Y-34685328D01*
X6987800Y-34294317D01*
X7017800Y-34294317D01*
X7017800Y-34636083D01*
X7084475Y-34971281D01*
X7215263Y-35287031D01*
X7405137Y-35571198D01*
X7646802Y-35812863D01*
X7930969Y-36002737D01*
X8246719Y-36133525D01*
X8581917Y-36200200D01*
X8923683Y-36200200D01*
X9258881Y-36133525D01*
X9574631Y-36002737D01*
X9858798Y-35812863D01*
X10100463Y-35571198D01*
X10290337Y-35287031D01*
X10421125Y-34971281D01*
X10487800Y-34636083D01*
X10487800Y-34294317D01*
X43017800Y-34294317D01*
X43017800Y-34636083D01*
X43084475Y-34971281D01*
X43215263Y-35287031D01*
X43405137Y-35571198D01*
X43646802Y-35812863D01*
X43930969Y-36002737D01*
X44246719Y-36133525D01*
X44581917Y-36200200D01*
X44923683Y-36200200D01*
X45258881Y-36133525D01*
X45574631Y-36002737D01*
X45858798Y-35812863D01*
X46100463Y-35571198D01*
X46290337Y-35287031D01*
X46421125Y-34971281D01*
X46487800Y-34636083D01*
X46487800Y-34294317D01*
X46478005Y-34245072D01*
X46517800Y-34245072D01*
X46517800Y-34685328D01*
X46603690Y-35117125D01*
X46772169Y-35523869D01*
X47016762Y-35889929D01*
X47328071Y-36201238D01*
X47694131Y-36445831D01*
X48100875Y-36614310D01*
X48532672Y-36700200D01*
X48972928Y-36700200D01*
X49404725Y-36614310D01*
X49811469Y-36445831D01*
X50177529Y-36201238D01*
X50488838Y-35889929D01*
X50733431Y-35523869D01*
X50901910Y-35117125D01*
X50987800Y-34685328D01*
X50987800Y-34245072D01*
X50901910Y-33813275D01*
X50733431Y-33406531D01*
X50488838Y-33040471D01*
X50177529Y-32729162D01*
X49811469Y-32484569D01*
X49404725Y-32316090D01*
X48972928Y-32230200D01*
X48532672Y-32230200D01*
X48100875Y-32316090D01*
X47694131Y-32484569D01*
X47328071Y-32729162D01*
X47016762Y-33040471D01*
X46772169Y-33406531D01*
X46603690Y-33813275D01*
X46517800Y-34245072D01*
X46478005Y-34245072D01*
X46421125Y-33959119D01*
X46290337Y-33643369D01*
X46100463Y-33359202D01*
X45858798Y-33117537D01*
X45574631Y-32927663D01*
X45258881Y-32796875D01*
X44923683Y-32730200D01*
X44581917Y-32730200D01*
X44246719Y-32796875D01*
X43930969Y-32927663D01*
X43646802Y-33117537D01*
X43405137Y-33359202D01*
X43215263Y-33643369D01*
X43084475Y-33959119D01*
X43017800Y-34294317D01*
X10487800Y-34294317D01*
X10421125Y-33959119D01*
X10290337Y-33643369D01*
X10100463Y-33359202D01*
X9858798Y-33117537D01*
X9574631Y-32927663D01*
X9258881Y-32796875D01*
X8923683Y-32730200D01*
X8581917Y-32730200D01*
X8246719Y-32796875D01*
X7930969Y-32927663D01*
X7646802Y-33117537D01*
X7405137Y-33359202D01*
X7215263Y-33643369D01*
X7084475Y-33959119D01*
X7017800Y-34294317D01*
X6987800Y-34294317D01*
X6987800Y-34245072D01*
X6901910Y-33813275D01*
X6733431Y-33406531D01*
X6488838Y-33040471D01*
X6177529Y-32729162D01*
X5811469Y-32484569D01*
X5404725Y-32316090D01*
X4972928Y-32230200D01*
X4532672Y-32230200D01*
X4100875Y-32316090D01*
X3694131Y-32484569D01*
X3328071Y-32729162D01*
X3016762Y-33040471D01*
X2772169Y-33406531D01*
X2603690Y-33813275D01*
X2517800Y-34245072D01*
X462800Y-34245072D01*
X462800Y-27303121D01*
X3741800Y-27303121D01*
X3741800Y-27723679D01*
X3823847Y-28136156D01*
X3984788Y-28524702D01*
X4218437Y-28874383D01*
X4515817Y-29171763D01*
X4865498Y-29405412D01*
X5254044Y-29566353D01*
X5666521Y-29648400D01*
X6087079Y-29648400D01*
X6499556Y-29566353D01*
X6888102Y-29405412D01*
X7237783Y-29171763D01*
X7535163Y-28874383D01*
X7768812Y-28524702D01*
X7929753Y-28136156D01*
X8011800Y-27723679D01*
X8011800Y-27303121D01*
X7929753Y-26890644D01*
X7768812Y-26502098D01*
X7535163Y-26152417D01*
X7237783Y-25855037D01*
X6888102Y-25621388D01*
X6499556Y-25460447D01*
X6087079Y-25378400D01*
X5666521Y-25378400D01*
X5254044Y-25460447D01*
X4865498Y-25621388D01*
X4515817Y-25855037D01*
X4218437Y-26152417D01*
X3984788Y-26502098D01*
X3823847Y-26890644D01*
X3741800Y-27303121D01*
X462800Y-27303121D01*
X462800Y-22223121D01*
X3741800Y-22223121D01*
X3741800Y-22643679D01*
X3823847Y-23056156D01*
X3984788Y-23444702D01*
X4218437Y-23794383D01*
X4515817Y-24091763D01*
X4865498Y-24325412D01*
X5254044Y-24486353D01*
X5666521Y-24568400D01*
X6087079Y-24568400D01*
X6499556Y-24486353D01*
X6888102Y-24325412D01*
X7237783Y-24091763D01*
X7535163Y-23794383D01*
X7768812Y-23444702D01*
X7929753Y-23056156D01*
X8011800Y-22643679D01*
X8011800Y-22223121D01*
X7929753Y-21810644D01*
X7768812Y-21422098D01*
X7535163Y-21072417D01*
X7237783Y-20775037D01*
X6888102Y-20541388D01*
X6499556Y-20380447D01*
X6087079Y-20298400D01*
X5666521Y-20298400D01*
X5254044Y-20380447D01*
X4865498Y-20541388D01*
X4515817Y-20775037D01*
X4218437Y-21072417D01*
X3984788Y-21422098D01*
X3823847Y-21810644D01*
X3741800Y-22223121D01*
X462800Y-22223121D01*
X462800Y-17143121D01*
X3741800Y-17143121D01*
X3741800Y-17563679D01*
X3823847Y-17976156D01*
X3984788Y-18364702D01*
X4218437Y-18714383D01*
X4515817Y-19011763D01*
X4865498Y-19245412D01*
X5254044Y-19406353D01*
X5666521Y-19488400D01*
X6087079Y-19488400D01*
X6499556Y-19406353D01*
X6888102Y-19245412D01*
X7237783Y-19011763D01*
X7535163Y-18714383D01*
X7768812Y-18364702D01*
X7929753Y-17976156D01*
X8011800Y-17563679D01*
X8011800Y-17143121D01*
X7929753Y-16730644D01*
X7768812Y-16342098D01*
X7535163Y-15992417D01*
X7237783Y-15695037D01*
X6888102Y-15461388D01*
X6499556Y-15300447D01*
X6087079Y-15218400D01*
X5666521Y-15218400D01*
X5254044Y-15300447D01*
X4865498Y-15461388D01*
X4515817Y-15695037D01*
X4218437Y-15992417D01*
X3984788Y-16342098D01*
X3823847Y-16730644D01*
X3741800Y-17143121D01*
X462800Y-17143121D01*
X462800Y-10773400D01*
X3738728Y-10773400D01*
X3738728Y-13773400D01*
X3750988Y-13897882D01*
X3787298Y-14017580D01*
X3846263Y-14127894D01*
X3925615Y-14224585D01*
X4022306Y-14303937D01*
X4132620Y-14362902D01*
X4252318Y-14399212D01*
X4376800Y-14411472D01*
X7376800Y-14411472D01*
X7501282Y-14399212D01*
X7620980Y-14362902D01*
X7731294Y-14303937D01*
X7827985Y-14224585D01*
X7907337Y-14127894D01*
X7966302Y-14017580D01*
X8002612Y-13897882D01*
X8014872Y-13773400D01*
X8014872Y-10773400D01*
X8002612Y-10648918D01*
X7966302Y-10529220D01*
X7907337Y-10418906D01*
X7827985Y-10322215D01*
X7731294Y-10242863D01*
X7620980Y-10183898D01*
X7501282Y-10147588D01*
X7376800Y-10135328D01*
X4376800Y-10135328D01*
X4252318Y-10147588D01*
X4132620Y-10183898D01*
X4022306Y-10242863D01*
X3925615Y-10322215D01*
X3846263Y-10418906D01*
X3787298Y-10529220D01*
X3750988Y-10648918D01*
X3738728Y-10773400D01*
X462800Y-10773400D01*
X462800Y9503182D01*
X485267Y9754928D01*
X2517800Y9754928D01*
X2517800Y9314672D01*
X2603690Y8882875D01*
X2772169Y8476131D01*
X3016762Y8110071D01*
X3328071Y7798762D01*
X3694131Y7554169D01*
X4100875Y7385690D01*
X4532672Y7299800D01*
X4972928Y7299800D01*
X5404725Y7385690D01*
X5811469Y7554169D01*
X6177529Y7798762D01*
X6488838Y8110071D01*
X6733431Y8476131D01*
X6901910Y8882875D01*
X6987800Y9314672D01*
X6987800Y9705683D01*
X7017800Y9705683D01*
X7017800Y9363917D01*
X7084475Y9028719D01*
X7215263Y8712969D01*
X7405137Y8428802D01*
X7646802Y8187137D01*
X7930969Y7997263D01*
X8246719Y7866475D01*
X8581917Y7799800D01*
X8923683Y7799800D01*
X9258881Y7866475D01*
X9574631Y7997263D01*
X9858798Y8187137D01*
X10100463Y8428802D01*
X10290337Y8712969D01*
X10421125Y9028719D01*
X10487800Y9363917D01*
X10487800Y9705683D01*
X43017800Y9705683D01*
X43017800Y9363917D01*
X43084475Y9028719D01*
X43215263Y8712969D01*
X43405137Y8428802D01*
X43646802Y8187137D01*
X43930969Y7997263D01*
X44246719Y7866475D01*
X44581917Y7799800D01*
X44923683Y7799800D01*
X45258881Y7866475D01*
X45574631Y7997263D01*
X45858798Y8187137D01*
X46100463Y8428802D01*
X46290337Y8712969D01*
X46421125Y9028719D01*
X46487800Y9363917D01*
X46487800Y9705683D01*
X46478005Y9754928D01*
X46517800Y9754928D01*
X46517800Y9314672D01*
X46603690Y8882875D01*
X46772169Y8476131D01*
X47016762Y8110071D01*
X47328071Y7798762D01*
X47694131Y7554169D01*
X48100875Y7385690D01*
X48532672Y7299800D01*
X48972928Y7299800D01*
X49404725Y7385690D01*
X49811469Y7554169D01*
X50177529Y7798762D01*
X50488838Y8110071D01*
X50733431Y8476131D01*
X50901910Y8882875D01*
X50987800Y9314672D01*
X50987800Y9754928D01*
X50901910Y10186725D01*
X50733431Y10593469D01*
X50488838Y10959529D01*
X50177529Y11270838D01*
X49811469Y11515431D01*
X49404725Y11683910D01*
X48972928Y11769800D01*
X48532672Y11769800D01*
X48100875Y11683910D01*
X47694131Y11515431D01*
X47328071Y11270838D01*
X47016762Y10959529D01*
X46772169Y10593469D01*
X46603690Y10186725D01*
X46517800Y9754928D01*
X46478005Y9754928D01*
X46421125Y10040881D01*
X46290337Y10356631D01*
X46100463Y10640798D01*
X45858798Y10882463D01*
X45574631Y11072337D01*
X45258881Y11203125D01*
X44923683Y11269800D01*
X44581917Y11269800D01*
X44246719Y11203125D01*
X43930969Y11072337D01*
X43646802Y10882463D01*
X43405137Y10640798D01*
X43215263Y10356631D01*
X43084475Y10040881D01*
X43017800Y9705683D01*
X10487800Y9705683D01*
X10421125Y10040881D01*
X10290337Y10356631D01*
X10100463Y10640798D01*
X9858798Y10882463D01*
X9574631Y11072337D01*
X9258881Y11203125D01*
X8923683Y11269800D01*
X8581917Y11269800D01*
X8246719Y11203125D01*
X7930969Y11072337D01*
X7646802Y10882463D01*
X7405137Y10640798D01*
X7215263Y10356631D01*
X7084475Y10040881D01*
X7017800Y9705683D01*
X6987800Y9705683D01*
X6987800Y9754928D01*
X6901910Y10186725D01*
X6733431Y10593469D01*
X6488838Y10959529D01*
X6177529Y11270838D01*
X5811469Y11515431D01*
X5404725Y11683910D01*
X4972928Y11769800D01*
X4532672Y11769800D01*
X4100875Y11683910D01*
X3694131Y11515431D01*
X3328071Y11270838D01*
X3016762Y10959529D01*
X2772169Y10593469D01*
X2603690Y10186725D01*
X2517800Y9754928D01*
X485267Y9754928D01*
X533378Y10293992D01*
X734505Y11029189D01*
X1062646Y11717151D01*
X1507428Y12336131D01*
X2054788Y12866561D01*
X2687439Y13291684D01*
X3385361Y13598051D01*
X4131983Y13777299D01*
X4778830Y13824800D01*
X48721182Y13824800D01*
X49511992Y13754222D01*
G37*
X49511992Y13754222D02*
X50247189Y13553095D01*
X50935151Y13224954D01*
X51554131Y12780172D01*
X52084561Y12232812D01*
X52509684Y11600161D01*
X52816051Y10902239D01*
X52995299Y10155617D01*
X53042800Y9508769D01*
X53042801Y6967339D01*
X37984722Y-804573D01*
X37979780Y-806072D01*
X37922573Y-836650D01*
X37896172Y-850276D01*
X37891878Y-853056D01*
X37856437Y-872000D01*
X37833306Y-890984D01*
X37808194Y-907244D01*
X37779380Y-935239D01*
X37748325Y-960726D01*
X37729344Y-983855D01*
X37707885Y-1004704D01*
X37685087Y-1037782D01*
X37659600Y-1068838D01*
X37645496Y-1095225D01*
X37628517Y-1119860D01*
X37612610Y-1156750D01*
X37593672Y-1192181D01*
X37584986Y-1220814D01*
X37573140Y-1248287D01*
X37564737Y-1287567D01*
X37553073Y-1326017D01*
X37550140Y-1355800D01*
X37543882Y-1385051D01*
X37543303Y-1425214D01*
X37542800Y-1430324D01*
X37542800Y-1460142D01*
X37541867Y-1524893D01*
X37542800Y-1529964D01*
X37542801Y-23264598D01*
X29591963Y-15313761D01*
X34139400Y-15313761D01*
X34139400Y-15517639D01*
X34179174Y-15717598D01*
X34257195Y-15905956D01*
X34370463Y-16075474D01*
X34514626Y-16219637D01*
X34684144Y-16332905D01*
X34872502Y-16410926D01*
X35072461Y-16450700D01*
X35276339Y-16450700D01*
X35476298Y-16410926D01*
X35664656Y-16332905D01*
X35834174Y-16219637D01*
X35978337Y-16075474D01*
X36091605Y-15905956D01*
X36169626Y-15717598D01*
X36209400Y-15517639D01*
X36209400Y-15313761D01*
X36169626Y-15113802D01*
X36091605Y-14925444D01*
X36034600Y-14840130D01*
X36034600Y-8937911D01*
X36078537Y-8893974D01*
X36191805Y-8724456D01*
X36269826Y-8536098D01*
X36309600Y-8336139D01*
X36309600Y-8132261D01*
X36269826Y-7932302D01*
X36191805Y-7743944D01*
X36078537Y-7574426D01*
X35934374Y-7430263D01*
X35764856Y-7316995D01*
X35576498Y-7238974D01*
X35376539Y-7199200D01*
X35172661Y-7199200D01*
X34972702Y-7238974D01*
X34784344Y-7316995D01*
X34614826Y-7430263D01*
X34470663Y-7574426D01*
X34357395Y-7743944D01*
X34279374Y-7932302D01*
X34239600Y-8132261D01*
X34239600Y-8336139D01*
X34279374Y-8536098D01*
X34357395Y-8724456D01*
X34470663Y-8893974D01*
X34514601Y-8937912D01*
X34514600Y-14611789D01*
X34370463Y-14755926D01*
X34257195Y-14925444D01*
X34179174Y-15113802D01*
X34139400Y-15313761D01*
X29591963Y-15313761D01*
X29352200Y-15073999D01*
X29352200Y-6674825D01*
X29355876Y-6637500D01*
X29352200Y-6600175D01*
X29352200Y-6600167D01*
X29341203Y-6488514D01*
X29297746Y-6345253D01*
X29227174Y-6213224D01*
X29132201Y-6097499D01*
X29103204Y-6073702D01*
X28837200Y-5807698D01*
X28837200Y-5745561D01*
X28797426Y-5545602D01*
X28719405Y-5357244D01*
X28606137Y-5187726D01*
X28461974Y-5043563D01*
X28292456Y-4930295D01*
X28104098Y-4852274D01*
X27904139Y-4812500D01*
X27700261Y-4812500D01*
X27500302Y-4852274D01*
X27311944Y-4930295D01*
X27142426Y-5043563D01*
X27079995Y-5105994D01*
X25577600Y-3603599D01*
X25577600Y-2647311D01*
X25621537Y-2603374D01*
X25734805Y-2433856D01*
X25812826Y-2245498D01*
X25852600Y-2045539D01*
X25852600Y-1841661D01*
X25812826Y-1641702D01*
X25734805Y-1453344D01*
X25621537Y-1283826D01*
X25477374Y-1139663D01*
X25307856Y-1026395D01*
X25119498Y-948374D01*
X24919539Y-908600D01*
X24715661Y-908600D01*
X24515702Y-948374D01*
X24327344Y-1026395D01*
X24157826Y-1139663D01*
X24013663Y-1283826D01*
X23900395Y-1453344D01*
X23822374Y-1641702D01*
X23782600Y-1841661D01*
X23782600Y-2045539D01*
X23822374Y-2245498D01*
X23900395Y-2433856D01*
X24013663Y-2603374D01*
X24057600Y-2647311D01*
X24057601Y-3881068D01*
X24053924Y-3918400D01*
X24068598Y-4067385D01*
X24112054Y-4210646D01*
X24182626Y-4342676D01*
X24253801Y-4429402D01*
X24277600Y-4458401D01*
X24306598Y-4482199D01*
X27107200Y-7282802D01*
X27107201Y-13115999D01*
X21184704Y-7193503D01*
X21160901Y-7164499D01*
X21045176Y-7069526D01*
X20913147Y-6998954D01*
X20769886Y-6955497D01*
X20659540Y-6944629D01*
X20615474Y-6900563D01*
X20445956Y-6787295D01*
X20257598Y-6709274D01*
X20057639Y-6669500D01*
X19853761Y-6669500D01*
X19653802Y-6709274D01*
X19465444Y-6787295D01*
X19422933Y-6815700D01*
X17393811Y-6815700D01*
X17349874Y-6771763D01*
X17180356Y-6658495D01*
X16991998Y-6580474D01*
X16792039Y-6540700D01*
X16588161Y-6540700D01*
X16388202Y-6580474D01*
X16199844Y-6658495D01*
X16030326Y-6771763D01*
X15886163Y-6915926D01*
X15772895Y-7085444D01*
X15694874Y-7273802D01*
X15655100Y-7473761D01*
X15655100Y-7677639D01*
X15694874Y-7877598D01*
X15772895Y-8065956D01*
X15886163Y-8235474D01*
X16030326Y-8379637D01*
X16199844Y-8492905D01*
X16388202Y-8570926D01*
X16588161Y-8610700D01*
X16792039Y-8610700D01*
X16991998Y-8570926D01*
X17180356Y-8492905D01*
X17349874Y-8379637D01*
X17393811Y-8335700D01*
X19132671Y-8335700D01*
X19151763Y-8364274D01*
X19295926Y-8508437D01*
X19465444Y-8621705D01*
X19653802Y-8699726D01*
X19853761Y-8739500D01*
X20057639Y-8739500D01*
X20257598Y-8699726D01*
X20445956Y-8621705D01*
X20456355Y-8614756D01*
X22219894Y-10378295D01*
X22163863Y-10434326D01*
X22050595Y-10603844D01*
X21972574Y-10792202D01*
X21932800Y-10992161D01*
X21932800Y-11196039D01*
X21972574Y-11395998D01*
X22050595Y-11584356D01*
X22163863Y-11753874D01*
X22308026Y-11898037D01*
X22477544Y-12011305D01*
X22665902Y-12089326D01*
X22865861Y-12129100D01*
X22927998Y-12129100D01*
X23041298Y-12242400D01*
X23028661Y-12242400D01*
X22828702Y-12282174D01*
X22640344Y-12360195D01*
X22470826Y-12473463D01*
X22326663Y-12617626D01*
X22213395Y-12787144D01*
X22197010Y-12826700D01*
X21022311Y-12826700D01*
X20978374Y-12782763D01*
X20808856Y-12669495D01*
X20620498Y-12591474D01*
X20420539Y-12551700D01*
X20216661Y-12551700D01*
X20016702Y-12591474D01*
X19828344Y-12669495D01*
X19658826Y-12782763D01*
X19514663Y-12926926D01*
X19401395Y-13096444D01*
X19323374Y-13284802D01*
X19283600Y-13484761D01*
X19283600Y-13688639D01*
X19323374Y-13888598D01*
X19401395Y-14076956D01*
X19514663Y-14246474D01*
X19658826Y-14390637D01*
X19828344Y-14503905D01*
X20016702Y-14581926D01*
X20216661Y-14621700D01*
X20420539Y-14621700D01*
X20620498Y-14581926D01*
X20808856Y-14503905D01*
X20978374Y-14390637D01*
X21022311Y-14346700D01*
X22734798Y-14346700D01*
X21267649Y-15813849D01*
X21233626Y-15642802D01*
X21155605Y-15454444D01*
X21042337Y-15284926D01*
X20898174Y-15140763D01*
X20728656Y-15027495D01*
X20540298Y-14949474D01*
X20340339Y-14909700D01*
X20136461Y-14909700D01*
X19936502Y-14949474D01*
X19748144Y-15027495D01*
X19578626Y-15140763D01*
X19434463Y-15284926D01*
X19321195Y-15454444D01*
X19243174Y-15642802D01*
X19203400Y-15842761D01*
X19203400Y-15952172D01*
X19169254Y-16016054D01*
X19125798Y-16159315D01*
X19111124Y-16308300D01*
X19114801Y-16345632D01*
X19114800Y-20613977D01*
X19111124Y-20651300D01*
X19114800Y-20688622D01*
X19114800Y-20688632D01*
X19125797Y-20800285D01*
X19169254Y-20943546D01*
X19239826Y-21075576D01*
X19246226Y-21083374D01*
X19334799Y-21191301D01*
X19363803Y-21215104D01*
X20537300Y-22388602D01*
X20537300Y-22450739D01*
X20577074Y-22650698D01*
X20655095Y-22839056D01*
X20768363Y-23008574D01*
X20912526Y-23152737D01*
X21082044Y-23266005D01*
X21270402Y-23344026D01*
X21470361Y-23383800D01*
X21674239Y-23383800D01*
X21874198Y-23344026D01*
X22062556Y-23266005D01*
X22232074Y-23152737D01*
X22376237Y-23008574D01*
X22489505Y-22839056D01*
X22567526Y-22650698D01*
X22607300Y-22450739D01*
X22607300Y-22246861D01*
X22567526Y-22046902D01*
X22489505Y-21858544D01*
X22376237Y-21689026D01*
X22232074Y-21544863D01*
X22062556Y-21431595D01*
X21874198Y-21353574D01*
X21674239Y-21313800D01*
X21612102Y-21313800D01*
X20634800Y-20336499D01*
X20634800Y-18558400D01*
X20734839Y-18558400D01*
X20934798Y-18518626D01*
X21123156Y-18440605D01*
X21292674Y-18327337D01*
X21436837Y-18183174D01*
X21550105Y-18013656D01*
X21628126Y-17825298D01*
X21667900Y-17625339D01*
X21667900Y-17563201D01*
X24059395Y-15171706D01*
X24092026Y-15204337D01*
X24261544Y-15317605D01*
X24449902Y-15395626D01*
X24649861Y-15435400D01*
X24711999Y-15435400D01*
X25481501Y-16204903D01*
X25481500Y-18960328D01*
X24026800Y-18960328D01*
X23902318Y-18972588D01*
X23782620Y-19008898D01*
X23672306Y-19067863D01*
X23575615Y-19147215D01*
X23496263Y-19243906D01*
X23437298Y-19354220D01*
X23400988Y-19473918D01*
X23388728Y-19598400D01*
X23388728Y-21298400D01*
X23400988Y-21422882D01*
X23437298Y-21542580D01*
X23496263Y-21652894D01*
X23575615Y-21749585D01*
X23672306Y-21828937D01*
X23782620Y-21887902D01*
X23855180Y-21909913D01*
X23723325Y-22041768D01*
X23560810Y-22284989D01*
X23448868Y-22555242D01*
X23391800Y-22842140D01*
X23391800Y-23134660D01*
X23448868Y-23421558D01*
X23560810Y-23691811D01*
X23723325Y-23935032D01*
X23930168Y-24141875D01*
X24104560Y-24258400D01*
X23930168Y-24374925D01*
X23723325Y-24581768D01*
X23560810Y-24824989D01*
X23448868Y-25095242D01*
X23391800Y-25382140D01*
X23391800Y-25674660D01*
X23448868Y-25961558D01*
X23560810Y-26231811D01*
X23723325Y-26475032D01*
X23930168Y-26681875D01*
X24173389Y-26844390D01*
X24443642Y-26956332D01*
X24730540Y-27013400D01*
X25023060Y-27013400D01*
X25309958Y-26956332D01*
X25580211Y-26844390D01*
X25823432Y-26681875D01*
X26030275Y-26475032D01*
X26147900Y-26298994D01*
X26319212Y-26528669D01*
X26535445Y-26723578D01*
X26785548Y-26872557D01*
X27059909Y-26969881D01*
X27289800Y-26849214D01*
X27289800Y-25655400D01*
X27543800Y-25655400D01*
X27543800Y-26849214D01*
X27773691Y-26969881D01*
X28048052Y-26872557D01*
X28298155Y-26723578D01*
X28514388Y-26528669D01*
X28688441Y-26295320D01*
X28813625Y-26032499D01*
X28858276Y-25885290D01*
X28736955Y-25655400D01*
X27543800Y-25655400D01*
X27289800Y-25655400D01*
X27269800Y-25655400D01*
X27269800Y-25401400D01*
X27289800Y-25401400D01*
X27289800Y-25381400D01*
X27543800Y-25381400D01*
X27543800Y-25401400D01*
X28736955Y-25401400D01*
X28858276Y-25171510D01*
X28813625Y-25024301D01*
X28688441Y-24761480D01*
X28561931Y-24591871D01*
X29103903Y-24049899D01*
X29132901Y-24026101D01*
X29227874Y-23910376D01*
X29298446Y-23778347D01*
X29341903Y-23635086D01*
X29352900Y-23523433D01*
X29352900Y-23523424D01*
X29356576Y-23486101D01*
X29352900Y-23448778D01*
X29352900Y-17806325D01*
X29356576Y-17769000D01*
X29352900Y-17731675D01*
X29352900Y-17731667D01*
X29341903Y-17620014D01*
X29298446Y-17476753D01*
X29227874Y-17344724D01*
X29132901Y-17228999D01*
X29103904Y-17205202D01*
X28627200Y-16728499D01*
X28627200Y-16498601D01*
X37073000Y-24944403D01*
X37073000Y-25006539D01*
X37112774Y-25206498D01*
X37190795Y-25394856D01*
X37304063Y-25564374D01*
X37448226Y-25708537D01*
X37617744Y-25821805D01*
X37806102Y-25899826D01*
X38006061Y-25939600D01*
X38209939Y-25939600D01*
X38409898Y-25899826D01*
X38598256Y-25821805D01*
X38767774Y-25708537D01*
X38911937Y-25564374D01*
X39025205Y-25394856D01*
X39103226Y-25206498D01*
X39143000Y-25006539D01*
X39143000Y-24802661D01*
X39125485Y-24714608D01*
X53017800Y-31884836D01*
X53017801Y-34501305D01*
X53027745Y-34602269D01*
X52972222Y-35224393D01*
X52771095Y-35959589D01*
X52442952Y-36647555D01*
X51998174Y-37266528D01*
X51450812Y-37796961D01*
X50818162Y-38222083D01*
X50120239Y-38528451D01*
X49373619Y-38707699D01*
X48726770Y-38755200D01*
X4784418Y-38755200D01*
X3993607Y-38684622D01*
X3258411Y-38483495D01*
X2570445Y-38155352D01*
X1951472Y-37710574D01*
X1421039Y-37163212D01*
X995917Y-36530562D01*
X689549Y-35832639D01*
X510301Y-35086019D01*
X462800Y-34439170D01*
X462800Y-34245072D01*
X2517800Y-34245072D01*
X2517800Y-34685328D01*
X2603690Y-35117125D01*
X2772169Y-35523869D01*
X3016762Y-35889929D01*
X3328071Y-36201238D01*
X3694131Y-36445831D01*
X4100875Y-36614310D01*
X4532672Y-36700200D01*
X4972928Y-36700200D01*
X5404725Y-36614310D01*
X5811469Y-36445831D01*
X6177529Y-36201238D01*
X6488838Y-35889929D01*
X6733431Y-35523869D01*
X6901910Y-35117125D01*
X6987800Y-34685328D01*
X6987800Y-34294317D01*
X7017800Y-34294317D01*
X7017800Y-34636083D01*
X7084475Y-34971281D01*
X7215263Y-35287031D01*
X7405137Y-35571198D01*
X7646802Y-35812863D01*
X7930969Y-36002737D01*
X8246719Y-36133525D01*
X8581917Y-36200200D01*
X8923683Y-36200200D01*
X9258881Y-36133525D01*
X9574631Y-36002737D01*
X9858798Y-35812863D01*
X10100463Y-35571198D01*
X10290337Y-35287031D01*
X10421125Y-34971281D01*
X10487800Y-34636083D01*
X10487800Y-34294317D01*
X43017800Y-34294317D01*
X43017800Y-34636083D01*
X43084475Y-34971281D01*
X43215263Y-35287031D01*
X43405137Y-35571198D01*
X43646802Y-35812863D01*
X43930969Y-36002737D01*
X44246719Y-36133525D01*
X44581917Y-36200200D01*
X44923683Y-36200200D01*
X45258881Y-36133525D01*
X45574631Y-36002737D01*
X45858798Y-35812863D01*
X46100463Y-35571198D01*
X46290337Y-35287031D01*
X46421125Y-34971281D01*
X46487800Y-34636083D01*
X46487800Y-34294317D01*
X46478005Y-34245072D01*
X46517800Y-34245072D01*
X46517800Y-34685328D01*
X46603690Y-35117125D01*
X46772169Y-35523869D01*
X47016762Y-35889929D01*
X47328071Y-36201238D01*
X47694131Y-36445831D01*
X48100875Y-36614310D01*
X48532672Y-36700200D01*
X48972928Y-36700200D01*
X49404725Y-36614310D01*
X49811469Y-36445831D01*
X50177529Y-36201238D01*
X50488838Y-35889929D01*
X50733431Y-35523869D01*
X50901910Y-35117125D01*
X50987800Y-34685328D01*
X50987800Y-34245072D01*
X50901910Y-33813275D01*
X50733431Y-33406531D01*
X50488838Y-33040471D01*
X50177529Y-32729162D01*
X49811469Y-32484569D01*
X49404725Y-32316090D01*
X48972928Y-32230200D01*
X48532672Y-32230200D01*
X48100875Y-32316090D01*
X47694131Y-32484569D01*
X47328071Y-32729162D01*
X47016762Y-33040471D01*
X46772169Y-33406531D01*
X46603690Y-33813275D01*
X46517800Y-34245072D01*
X46478005Y-34245072D01*
X46421125Y-33959119D01*
X46290337Y-33643369D01*
X46100463Y-33359202D01*
X45858798Y-33117537D01*
X45574631Y-32927663D01*
X45258881Y-32796875D01*
X44923683Y-32730200D01*
X44581917Y-32730200D01*
X44246719Y-32796875D01*
X43930969Y-32927663D01*
X43646802Y-33117537D01*
X43405137Y-33359202D01*
X43215263Y-33643369D01*
X43084475Y-33959119D01*
X43017800Y-34294317D01*
X10487800Y-34294317D01*
X10421125Y-33959119D01*
X10290337Y-33643369D01*
X10100463Y-33359202D01*
X9858798Y-33117537D01*
X9574631Y-32927663D01*
X9258881Y-32796875D01*
X8923683Y-32730200D01*
X8581917Y-32730200D01*
X8246719Y-32796875D01*
X7930969Y-32927663D01*
X7646802Y-33117537D01*
X7405137Y-33359202D01*
X7215263Y-33643369D01*
X7084475Y-33959119D01*
X7017800Y-34294317D01*
X6987800Y-34294317D01*
X6987800Y-34245072D01*
X6901910Y-33813275D01*
X6733431Y-33406531D01*
X6488838Y-33040471D01*
X6177529Y-32729162D01*
X5811469Y-32484569D01*
X5404725Y-32316090D01*
X4972928Y-32230200D01*
X4532672Y-32230200D01*
X4100875Y-32316090D01*
X3694131Y-32484569D01*
X3328071Y-32729162D01*
X3016762Y-33040471D01*
X2772169Y-33406531D01*
X2603690Y-33813275D01*
X2517800Y-34245072D01*
X462800Y-34245072D01*
X462800Y-27303121D01*
X3741800Y-27303121D01*
X3741800Y-27723679D01*
X3823847Y-28136156D01*
X3984788Y-28524702D01*
X4218437Y-28874383D01*
X4515817Y-29171763D01*
X4865498Y-29405412D01*
X5254044Y-29566353D01*
X5666521Y-29648400D01*
X6087079Y-29648400D01*
X6499556Y-29566353D01*
X6888102Y-29405412D01*
X7237783Y-29171763D01*
X7535163Y-28874383D01*
X7768812Y-28524702D01*
X7929753Y-28136156D01*
X8011800Y-27723679D01*
X8011800Y-27303121D01*
X7929753Y-26890644D01*
X7768812Y-26502098D01*
X7535163Y-26152417D01*
X7237783Y-25855037D01*
X6888102Y-25621388D01*
X6499556Y-25460447D01*
X6087079Y-25378400D01*
X5666521Y-25378400D01*
X5254044Y-25460447D01*
X4865498Y-25621388D01*
X4515817Y-25855037D01*
X4218437Y-26152417D01*
X3984788Y-26502098D01*
X3823847Y-26890644D01*
X3741800Y-27303121D01*
X462800Y-27303121D01*
X462800Y-22223121D01*
X3741800Y-22223121D01*
X3741800Y-22643679D01*
X3823847Y-23056156D01*
X3984788Y-23444702D01*
X4218437Y-23794383D01*
X4515817Y-24091763D01*
X4865498Y-24325412D01*
X5254044Y-24486353D01*
X5666521Y-24568400D01*
X6087079Y-24568400D01*
X6499556Y-24486353D01*
X6888102Y-24325412D01*
X7237783Y-24091763D01*
X7535163Y-23794383D01*
X7768812Y-23444702D01*
X7929753Y-23056156D01*
X8011800Y-22643679D01*
X8011800Y-22223121D01*
X7929753Y-21810644D01*
X7768812Y-21422098D01*
X7535163Y-21072417D01*
X7237783Y-20775037D01*
X6888102Y-20541388D01*
X6499556Y-20380447D01*
X6087079Y-20298400D01*
X5666521Y-20298400D01*
X5254044Y-20380447D01*
X4865498Y-20541388D01*
X4515817Y-20775037D01*
X4218437Y-21072417D01*
X3984788Y-21422098D01*
X3823847Y-21810644D01*
X3741800Y-22223121D01*
X462800Y-22223121D01*
X462800Y-17143121D01*
X3741800Y-17143121D01*
X3741800Y-17563679D01*
X3823847Y-17976156D01*
X3984788Y-18364702D01*
X4218437Y-18714383D01*
X4515817Y-19011763D01*
X4865498Y-19245412D01*
X5254044Y-19406353D01*
X5666521Y-19488400D01*
X6087079Y-19488400D01*
X6499556Y-19406353D01*
X6888102Y-19245412D01*
X7237783Y-19011763D01*
X7535163Y-18714383D01*
X7768812Y-18364702D01*
X7929753Y-17976156D01*
X8011800Y-17563679D01*
X8011800Y-17143121D01*
X7929753Y-16730644D01*
X7768812Y-16342098D01*
X7535163Y-15992417D01*
X7237783Y-15695037D01*
X6888102Y-15461388D01*
X6499556Y-15300447D01*
X6087079Y-15218400D01*
X5666521Y-15218400D01*
X5254044Y-15300447D01*
X4865498Y-15461388D01*
X4515817Y-15695037D01*
X4218437Y-15992417D01*
X3984788Y-16342098D01*
X3823847Y-16730644D01*
X3741800Y-17143121D01*
X462800Y-17143121D01*
X462800Y-10773400D01*
X3738728Y-10773400D01*
X3738728Y-13773400D01*
X3750988Y-13897882D01*
X3787298Y-14017580D01*
X3846263Y-14127894D01*
X3925615Y-14224585D01*
X4022306Y-14303937D01*
X4132620Y-14362902D01*
X4252318Y-14399212D01*
X4376800Y-14411472D01*
X7376800Y-14411472D01*
X7501282Y-14399212D01*
X7620980Y-14362902D01*
X7731294Y-14303937D01*
X7827985Y-14224585D01*
X7907337Y-14127894D01*
X7966302Y-14017580D01*
X8002612Y-13897882D01*
X8014872Y-13773400D01*
X8014872Y-10773400D01*
X8002612Y-10648918D01*
X7966302Y-10529220D01*
X7907337Y-10418906D01*
X7827985Y-10322215D01*
X7731294Y-10242863D01*
X7620980Y-10183898D01*
X7501282Y-10147588D01*
X7376800Y-10135328D01*
X4376800Y-10135328D01*
X4252318Y-10147588D01*
X4132620Y-10183898D01*
X4022306Y-10242863D01*
X3925615Y-10322215D01*
X3846263Y-10418906D01*
X3787298Y-10529220D01*
X3750988Y-10648918D01*
X3738728Y-10773400D01*
X462800Y-10773400D01*
X462800Y9503182D01*
X485267Y9754928D01*
X2517800Y9754928D01*
X2517800Y9314672D01*
X2603690Y8882875D01*
X2772169Y8476131D01*
X3016762Y8110071D01*
X3328071Y7798762D01*
X3694131Y7554169D01*
X4100875Y7385690D01*
X4532672Y7299800D01*
X4972928Y7299800D01*
X5404725Y7385690D01*
X5811469Y7554169D01*
X6177529Y7798762D01*
X6488838Y8110071D01*
X6733431Y8476131D01*
X6901910Y8882875D01*
X6987800Y9314672D01*
X6987800Y9705683D01*
X7017800Y9705683D01*
X7017800Y9363917D01*
X7084475Y9028719D01*
X7215263Y8712969D01*
X7405137Y8428802D01*
X7646802Y8187137D01*
X7930969Y7997263D01*
X8246719Y7866475D01*
X8581917Y7799800D01*
X8923683Y7799800D01*
X9258881Y7866475D01*
X9574631Y7997263D01*
X9858798Y8187137D01*
X10100463Y8428802D01*
X10290337Y8712969D01*
X10421125Y9028719D01*
X10487800Y9363917D01*
X10487800Y9705683D01*
X43017800Y9705683D01*
X43017800Y9363917D01*
X43084475Y9028719D01*
X43215263Y8712969D01*
X43405137Y8428802D01*
X43646802Y8187137D01*
X43930969Y7997263D01*
X44246719Y7866475D01*
X44581917Y7799800D01*
X44923683Y7799800D01*
X45258881Y7866475D01*
X45574631Y7997263D01*
X45858798Y8187137D01*
X46100463Y8428802D01*
X46290337Y8712969D01*
X46421125Y9028719D01*
X46487800Y9363917D01*
X46487800Y9705683D01*
X46478005Y9754928D01*
X46517800Y9754928D01*
X46517800Y9314672D01*
X46603690Y8882875D01*
X46772169Y8476131D01*
X47016762Y8110071D01*
X47328071Y7798762D01*
X47694131Y7554169D01*
X48100875Y7385690D01*
X48532672Y7299800D01*
X48972928Y7299800D01*
X49404725Y7385690D01*
X49811469Y7554169D01*
X50177529Y7798762D01*
X50488838Y8110071D01*
X50733431Y8476131D01*
X50901910Y8882875D01*
X50987800Y9314672D01*
X50987800Y9754928D01*
X50901910Y10186725D01*
X50733431Y10593469D01*
X50488838Y10959529D01*
X50177529Y11270838D01*
X49811469Y11515431D01*
X49404725Y11683910D01*
X48972928Y11769800D01*
X48532672Y11769800D01*
X48100875Y11683910D01*
X47694131Y11515431D01*
X47328071Y11270838D01*
X47016762Y10959529D01*
X46772169Y10593469D01*
X46603690Y10186725D01*
X46517800Y9754928D01*
X46478005Y9754928D01*
X46421125Y10040881D01*
X46290337Y10356631D01*
X46100463Y10640798D01*
X45858798Y10882463D01*
X45574631Y11072337D01*
X45258881Y11203125D01*
X44923683Y11269800D01*
X44581917Y11269800D01*
X44246719Y11203125D01*
X43930969Y11072337D01*
X43646802Y10882463D01*
X43405137Y10640798D01*
X43215263Y10356631D01*
X43084475Y10040881D01*
X43017800Y9705683D01*
X10487800Y9705683D01*
X10421125Y10040881D01*
X10290337Y10356631D01*
X10100463Y10640798D01*
X9858798Y10882463D01*
X9574631Y11072337D01*
X9258881Y11203125D01*
X8923683Y11269800D01*
X8581917Y11269800D01*
X8246719Y11203125D01*
X7930969Y11072337D01*
X7646802Y10882463D01*
X7405137Y10640798D01*
X7215263Y10356631D01*
X7084475Y10040881D01*
X7017800Y9705683D01*
X6987800Y9705683D01*
X6987800Y9754928D01*
X6901910Y10186725D01*
X6733431Y10593469D01*
X6488838Y10959529D01*
X6177529Y11270838D01*
X5811469Y11515431D01*
X5404725Y11683910D01*
X4972928Y11769800D01*
X4532672Y11769800D01*
X4100875Y11683910D01*
X3694131Y11515431D01*
X3328071Y11270838D01*
X3016762Y10959529D01*
X2772169Y10593469D01*
X2603690Y10186725D01*
X2517800Y9754928D01*
X485267Y9754928D01*
X533378Y10293992D01*
X734505Y11029189D01*
X1062646Y11717151D01*
X1507428Y12336131D01*
X2054788Y12866561D01*
X2687439Y13291684D01*
X3385361Y13598051D01*
X4131983Y13777299D01*
X4778830Y13824800D01*
X48721182Y13824800D01*
X49511992Y13754222D01*
D19*
X23501800Y-6848400D03*
X21351600Y-2723400D03*
X29576600Y-373400D03*
X31226600Y-10248400D03*
X35001600Y-27623400D03*
X29226600Y5876600D03*
X10626600Y-38048400D03*
X46426600Y-38073400D03*
X10626600Y12926600D03*
X46476600Y13076600D03*
X39151600Y701600D03*
X39251600Y-25848400D03*
X20238400Y-15944700D03*
X21572300Y-22348800D03*
X16690100Y-7575700D03*
X19955700Y-7704500D03*
X38108000Y-24904600D03*
X27802200Y-5847500D03*
X35274600Y-8234200D03*
X35174400Y-15415700D03*
X23130600Y-13277400D03*
X20318600Y-13586700D03*
X22967800Y-11094100D03*
X20632900Y-17523400D03*
X24817600Y-1943600D03*
X24751800Y-14400400D03*
X27416800Y-25528400D03*
X24876800Y-25528400D03*
X27416800Y-22988400D03*
X24876800Y-22988400D03*
X27416800Y-20448400D03*
X24876800Y-20448400D03*
X5876800Y-27513400D03*
X5876800Y-12273400D03*
X5876800Y-22433400D03*
X5876800Y-17353400D03*
X4752800Y9534800D03*
X48752800Y9534800D03*
X4752800Y-34465200D03*
X48752800Y-34465200D03*
X8752800Y9534800D03*
X44752800Y9534800D03*
X8752800Y-34465200D03*
X44752800Y-34465200D03*
M02*
