G04 #@! TF.GenerationSoftware,KiCad,Pcbnew,5.1.5-52549c5~84~ubuntu18.04.1*
G04 #@! TF.CreationDate,2020-02-10T01:03:59+09:00*
G04 #@! TF.ProjectId,I2CMotorsForM5Stack,4932434d-6f74-46f7-9273-466f724d3553,rev?*
G04 #@! TF.SameCoordinates,Original*
G04 #@! TF.FileFunction,Copper,L1,Top*
G04 #@! TF.FilePolarity,Positive*
%FSLAX46Y46*%
G04 Gerber Fmt 4.6, Leading zero omitted, Abs format (unit mm)*
G04 Created by KiCad (PCBNEW 5.1.5-52549c5~84~ubuntu18.04.1) date 2020-02-10 01:03:59*
%MOMM*%
%LPD*%
G04 APERTURE LIST*
%ADD10C,0.150000*%
%ADD11C,0.200000*%
%ADD12C,0.100000*%
%ADD13R,3.100000X3.100000*%
%ADD14O,1.700000X1.700000*%
%ADD15R,1.700000X1.700000*%
%ADD16R,1.750000X0.450000*%
%ADD17C,3.000000*%
%ADD18R,3.000000X3.000000*%
%ADD19O,1.400000X0.700000*%
%ADD20C,0.800000*%
%ADD21C,0.250000*%
%ADD22C,0.254000*%
%ADD23C,0.350000*%
G04 APERTURE END LIST*
D10*
X53752800Y9534800D02*
X53752800Y6534800D01*
X38252800Y-23465200D02*
X53752800Y-31465200D01*
X38252800Y-1465200D02*
X38252800Y-23465200D01*
X53752800Y6534800D02*
X38252800Y-1465200D01*
X4752800Y14534800D02*
X48752800Y14534800D01*
D11*
X53752800Y-31465200D02*
X53752800Y-34465200D01*
D10*
X-247200Y-34465200D02*
X-247200Y9534800D01*
X48752800Y-39465200D02*
X4752800Y-39465200D01*
D12*
G36*
X24151800Y4276600D02*
G01*
X23651800Y4276600D01*
X23651800Y3676600D01*
X24151800Y3676600D01*
X24151800Y4276600D01*
G37*
D10*
X-247200Y9534800D02*
G75*
G02X4752800Y14534800I5000000J0D01*
G01*
X53752800Y-34465200D02*
G75*
G02X48752800Y-39465200I-5000000J0D01*
G01*
X4752800Y-39465200D02*
G75*
G02X-247200Y-34465200I0J5000000D01*
G01*
X48752800Y14534800D02*
G75*
G02X53752800Y9534800I0J-5000000D01*
G01*
D13*
X23501800Y-6848400D03*
G04 #@! TA.AperFunction,SMDPad,CuDef*
D12*
G36*
X21820426Y-3973701D02*
G01*
X21826493Y-3974601D01*
X21832443Y-3976091D01*
X21838218Y-3978158D01*
X21843762Y-3980780D01*
X21849023Y-3983933D01*
X21853950Y-3987587D01*
X21858494Y-3991706D01*
X21862613Y-3996250D01*
X21866267Y-4001177D01*
X21869420Y-4006438D01*
X21872042Y-4011982D01*
X21874109Y-4017757D01*
X21875599Y-4023707D01*
X21876499Y-4029774D01*
X21876800Y-4035900D01*
X21876800Y-4785900D01*
X21876499Y-4792026D01*
X21875599Y-4798093D01*
X21874109Y-4804043D01*
X21872042Y-4809818D01*
X21869420Y-4815362D01*
X21866267Y-4820623D01*
X21862613Y-4825550D01*
X21858494Y-4830094D01*
X21853950Y-4834213D01*
X21849023Y-4837867D01*
X21843762Y-4841020D01*
X21838218Y-4843642D01*
X21832443Y-4845709D01*
X21826493Y-4847199D01*
X21820426Y-4848099D01*
X21814300Y-4848400D01*
X21689300Y-4848400D01*
X21683174Y-4848099D01*
X21677107Y-4847199D01*
X21671157Y-4845709D01*
X21665382Y-4843642D01*
X21659838Y-4841020D01*
X21654577Y-4837867D01*
X21649650Y-4834213D01*
X21645106Y-4830094D01*
X21640987Y-4825550D01*
X21637333Y-4820623D01*
X21634180Y-4815362D01*
X21631558Y-4809818D01*
X21629491Y-4804043D01*
X21628001Y-4798093D01*
X21627101Y-4792026D01*
X21626800Y-4785900D01*
X21626800Y-4035900D01*
X21627101Y-4029774D01*
X21628001Y-4023707D01*
X21629491Y-4017757D01*
X21631558Y-4011982D01*
X21634180Y-4006438D01*
X21637333Y-4001177D01*
X21640987Y-3996250D01*
X21645106Y-3991706D01*
X21649650Y-3987587D01*
X21654577Y-3983933D01*
X21659838Y-3980780D01*
X21665382Y-3978158D01*
X21671157Y-3976091D01*
X21677107Y-3974601D01*
X21683174Y-3973701D01*
X21689300Y-3973400D01*
X21814300Y-3973400D01*
X21820426Y-3973701D01*
G37*
G04 #@! TD.AperFunction*
G04 #@! TA.AperFunction,SMDPad,CuDef*
G36*
X22320426Y-3973701D02*
G01*
X22326493Y-3974601D01*
X22332443Y-3976091D01*
X22338218Y-3978158D01*
X22343762Y-3980780D01*
X22349023Y-3983933D01*
X22353950Y-3987587D01*
X22358494Y-3991706D01*
X22362613Y-3996250D01*
X22366267Y-4001177D01*
X22369420Y-4006438D01*
X22372042Y-4011982D01*
X22374109Y-4017757D01*
X22375599Y-4023707D01*
X22376499Y-4029774D01*
X22376800Y-4035900D01*
X22376800Y-4785900D01*
X22376499Y-4792026D01*
X22375599Y-4798093D01*
X22374109Y-4804043D01*
X22372042Y-4809818D01*
X22369420Y-4815362D01*
X22366267Y-4820623D01*
X22362613Y-4825550D01*
X22358494Y-4830094D01*
X22353950Y-4834213D01*
X22349023Y-4837867D01*
X22343762Y-4841020D01*
X22338218Y-4843642D01*
X22332443Y-4845709D01*
X22326493Y-4847199D01*
X22320426Y-4848099D01*
X22314300Y-4848400D01*
X22189300Y-4848400D01*
X22183174Y-4848099D01*
X22177107Y-4847199D01*
X22171157Y-4845709D01*
X22165382Y-4843642D01*
X22159838Y-4841020D01*
X22154577Y-4837867D01*
X22149650Y-4834213D01*
X22145106Y-4830094D01*
X22140987Y-4825550D01*
X22137333Y-4820623D01*
X22134180Y-4815362D01*
X22131558Y-4809818D01*
X22129491Y-4804043D01*
X22128001Y-4798093D01*
X22127101Y-4792026D01*
X22126800Y-4785900D01*
X22126800Y-4035900D01*
X22127101Y-4029774D01*
X22128001Y-4023707D01*
X22129491Y-4017757D01*
X22131558Y-4011982D01*
X22134180Y-4006438D01*
X22137333Y-4001177D01*
X22140987Y-3996250D01*
X22145106Y-3991706D01*
X22149650Y-3987587D01*
X22154577Y-3983933D01*
X22159838Y-3980780D01*
X22165382Y-3978158D01*
X22171157Y-3976091D01*
X22177107Y-3974601D01*
X22183174Y-3973701D01*
X22189300Y-3973400D01*
X22314300Y-3973400D01*
X22320426Y-3973701D01*
G37*
G04 #@! TD.AperFunction*
G04 #@! TA.AperFunction,SMDPad,CuDef*
G36*
X22820426Y-3973701D02*
G01*
X22826493Y-3974601D01*
X22832443Y-3976091D01*
X22838218Y-3978158D01*
X22843762Y-3980780D01*
X22849023Y-3983933D01*
X22853950Y-3987587D01*
X22858494Y-3991706D01*
X22862613Y-3996250D01*
X22866267Y-4001177D01*
X22869420Y-4006438D01*
X22872042Y-4011982D01*
X22874109Y-4017757D01*
X22875599Y-4023707D01*
X22876499Y-4029774D01*
X22876800Y-4035900D01*
X22876800Y-4785900D01*
X22876499Y-4792026D01*
X22875599Y-4798093D01*
X22874109Y-4804043D01*
X22872042Y-4809818D01*
X22869420Y-4815362D01*
X22866267Y-4820623D01*
X22862613Y-4825550D01*
X22858494Y-4830094D01*
X22853950Y-4834213D01*
X22849023Y-4837867D01*
X22843762Y-4841020D01*
X22838218Y-4843642D01*
X22832443Y-4845709D01*
X22826493Y-4847199D01*
X22820426Y-4848099D01*
X22814300Y-4848400D01*
X22689300Y-4848400D01*
X22683174Y-4848099D01*
X22677107Y-4847199D01*
X22671157Y-4845709D01*
X22665382Y-4843642D01*
X22659838Y-4841020D01*
X22654577Y-4837867D01*
X22649650Y-4834213D01*
X22645106Y-4830094D01*
X22640987Y-4825550D01*
X22637333Y-4820623D01*
X22634180Y-4815362D01*
X22631558Y-4809818D01*
X22629491Y-4804043D01*
X22628001Y-4798093D01*
X22627101Y-4792026D01*
X22626800Y-4785900D01*
X22626800Y-4035900D01*
X22627101Y-4029774D01*
X22628001Y-4023707D01*
X22629491Y-4017757D01*
X22631558Y-4011982D01*
X22634180Y-4006438D01*
X22637333Y-4001177D01*
X22640987Y-3996250D01*
X22645106Y-3991706D01*
X22649650Y-3987587D01*
X22654577Y-3983933D01*
X22659838Y-3980780D01*
X22665382Y-3978158D01*
X22671157Y-3976091D01*
X22677107Y-3974601D01*
X22683174Y-3973701D01*
X22689300Y-3973400D01*
X22814300Y-3973400D01*
X22820426Y-3973701D01*
G37*
G04 #@! TD.AperFunction*
G04 #@! TA.AperFunction,SMDPad,CuDef*
G36*
X23320426Y-3973701D02*
G01*
X23326493Y-3974601D01*
X23332443Y-3976091D01*
X23338218Y-3978158D01*
X23343762Y-3980780D01*
X23349023Y-3983933D01*
X23353950Y-3987587D01*
X23358494Y-3991706D01*
X23362613Y-3996250D01*
X23366267Y-4001177D01*
X23369420Y-4006438D01*
X23372042Y-4011982D01*
X23374109Y-4017757D01*
X23375599Y-4023707D01*
X23376499Y-4029774D01*
X23376800Y-4035900D01*
X23376800Y-4785900D01*
X23376499Y-4792026D01*
X23375599Y-4798093D01*
X23374109Y-4804043D01*
X23372042Y-4809818D01*
X23369420Y-4815362D01*
X23366267Y-4820623D01*
X23362613Y-4825550D01*
X23358494Y-4830094D01*
X23353950Y-4834213D01*
X23349023Y-4837867D01*
X23343762Y-4841020D01*
X23338218Y-4843642D01*
X23332443Y-4845709D01*
X23326493Y-4847199D01*
X23320426Y-4848099D01*
X23314300Y-4848400D01*
X23189300Y-4848400D01*
X23183174Y-4848099D01*
X23177107Y-4847199D01*
X23171157Y-4845709D01*
X23165382Y-4843642D01*
X23159838Y-4841020D01*
X23154577Y-4837867D01*
X23149650Y-4834213D01*
X23145106Y-4830094D01*
X23140987Y-4825550D01*
X23137333Y-4820623D01*
X23134180Y-4815362D01*
X23131558Y-4809818D01*
X23129491Y-4804043D01*
X23128001Y-4798093D01*
X23127101Y-4792026D01*
X23126800Y-4785900D01*
X23126800Y-4035900D01*
X23127101Y-4029774D01*
X23128001Y-4023707D01*
X23129491Y-4017757D01*
X23131558Y-4011982D01*
X23134180Y-4006438D01*
X23137333Y-4001177D01*
X23140987Y-3996250D01*
X23145106Y-3991706D01*
X23149650Y-3987587D01*
X23154577Y-3983933D01*
X23159838Y-3980780D01*
X23165382Y-3978158D01*
X23171157Y-3976091D01*
X23177107Y-3974601D01*
X23183174Y-3973701D01*
X23189300Y-3973400D01*
X23314300Y-3973400D01*
X23320426Y-3973701D01*
G37*
G04 #@! TD.AperFunction*
G04 #@! TA.AperFunction,SMDPad,CuDef*
G36*
X23820426Y-3973701D02*
G01*
X23826493Y-3974601D01*
X23832443Y-3976091D01*
X23838218Y-3978158D01*
X23843762Y-3980780D01*
X23849023Y-3983933D01*
X23853950Y-3987587D01*
X23858494Y-3991706D01*
X23862613Y-3996250D01*
X23866267Y-4001177D01*
X23869420Y-4006438D01*
X23872042Y-4011982D01*
X23874109Y-4017757D01*
X23875599Y-4023707D01*
X23876499Y-4029774D01*
X23876800Y-4035900D01*
X23876800Y-4785900D01*
X23876499Y-4792026D01*
X23875599Y-4798093D01*
X23874109Y-4804043D01*
X23872042Y-4809818D01*
X23869420Y-4815362D01*
X23866267Y-4820623D01*
X23862613Y-4825550D01*
X23858494Y-4830094D01*
X23853950Y-4834213D01*
X23849023Y-4837867D01*
X23843762Y-4841020D01*
X23838218Y-4843642D01*
X23832443Y-4845709D01*
X23826493Y-4847199D01*
X23820426Y-4848099D01*
X23814300Y-4848400D01*
X23689300Y-4848400D01*
X23683174Y-4848099D01*
X23677107Y-4847199D01*
X23671157Y-4845709D01*
X23665382Y-4843642D01*
X23659838Y-4841020D01*
X23654577Y-4837867D01*
X23649650Y-4834213D01*
X23645106Y-4830094D01*
X23640987Y-4825550D01*
X23637333Y-4820623D01*
X23634180Y-4815362D01*
X23631558Y-4809818D01*
X23629491Y-4804043D01*
X23628001Y-4798093D01*
X23627101Y-4792026D01*
X23626800Y-4785900D01*
X23626800Y-4035900D01*
X23627101Y-4029774D01*
X23628001Y-4023707D01*
X23629491Y-4017757D01*
X23631558Y-4011982D01*
X23634180Y-4006438D01*
X23637333Y-4001177D01*
X23640987Y-3996250D01*
X23645106Y-3991706D01*
X23649650Y-3987587D01*
X23654577Y-3983933D01*
X23659838Y-3980780D01*
X23665382Y-3978158D01*
X23671157Y-3976091D01*
X23677107Y-3974601D01*
X23683174Y-3973701D01*
X23689300Y-3973400D01*
X23814300Y-3973400D01*
X23820426Y-3973701D01*
G37*
G04 #@! TD.AperFunction*
G04 #@! TA.AperFunction,SMDPad,CuDef*
G36*
X24320426Y-3973701D02*
G01*
X24326493Y-3974601D01*
X24332443Y-3976091D01*
X24338218Y-3978158D01*
X24343762Y-3980780D01*
X24349023Y-3983933D01*
X24353950Y-3987587D01*
X24358494Y-3991706D01*
X24362613Y-3996250D01*
X24366267Y-4001177D01*
X24369420Y-4006438D01*
X24372042Y-4011982D01*
X24374109Y-4017757D01*
X24375599Y-4023707D01*
X24376499Y-4029774D01*
X24376800Y-4035900D01*
X24376800Y-4785900D01*
X24376499Y-4792026D01*
X24375599Y-4798093D01*
X24374109Y-4804043D01*
X24372042Y-4809818D01*
X24369420Y-4815362D01*
X24366267Y-4820623D01*
X24362613Y-4825550D01*
X24358494Y-4830094D01*
X24353950Y-4834213D01*
X24349023Y-4837867D01*
X24343762Y-4841020D01*
X24338218Y-4843642D01*
X24332443Y-4845709D01*
X24326493Y-4847199D01*
X24320426Y-4848099D01*
X24314300Y-4848400D01*
X24189300Y-4848400D01*
X24183174Y-4848099D01*
X24177107Y-4847199D01*
X24171157Y-4845709D01*
X24165382Y-4843642D01*
X24159838Y-4841020D01*
X24154577Y-4837867D01*
X24149650Y-4834213D01*
X24145106Y-4830094D01*
X24140987Y-4825550D01*
X24137333Y-4820623D01*
X24134180Y-4815362D01*
X24131558Y-4809818D01*
X24129491Y-4804043D01*
X24128001Y-4798093D01*
X24127101Y-4792026D01*
X24126800Y-4785900D01*
X24126800Y-4035900D01*
X24127101Y-4029774D01*
X24128001Y-4023707D01*
X24129491Y-4017757D01*
X24131558Y-4011982D01*
X24134180Y-4006438D01*
X24137333Y-4001177D01*
X24140987Y-3996250D01*
X24145106Y-3991706D01*
X24149650Y-3987587D01*
X24154577Y-3983933D01*
X24159838Y-3980780D01*
X24165382Y-3978158D01*
X24171157Y-3976091D01*
X24177107Y-3974601D01*
X24183174Y-3973701D01*
X24189300Y-3973400D01*
X24314300Y-3973400D01*
X24320426Y-3973701D01*
G37*
G04 #@! TD.AperFunction*
G04 #@! TA.AperFunction,SMDPad,CuDef*
G36*
X24820426Y-3973701D02*
G01*
X24826493Y-3974601D01*
X24832443Y-3976091D01*
X24838218Y-3978158D01*
X24843762Y-3980780D01*
X24849023Y-3983933D01*
X24853950Y-3987587D01*
X24858494Y-3991706D01*
X24862613Y-3996250D01*
X24866267Y-4001177D01*
X24869420Y-4006438D01*
X24872042Y-4011982D01*
X24874109Y-4017757D01*
X24875599Y-4023707D01*
X24876499Y-4029774D01*
X24876800Y-4035900D01*
X24876800Y-4785900D01*
X24876499Y-4792026D01*
X24875599Y-4798093D01*
X24874109Y-4804043D01*
X24872042Y-4809818D01*
X24869420Y-4815362D01*
X24866267Y-4820623D01*
X24862613Y-4825550D01*
X24858494Y-4830094D01*
X24853950Y-4834213D01*
X24849023Y-4837867D01*
X24843762Y-4841020D01*
X24838218Y-4843642D01*
X24832443Y-4845709D01*
X24826493Y-4847199D01*
X24820426Y-4848099D01*
X24814300Y-4848400D01*
X24689300Y-4848400D01*
X24683174Y-4848099D01*
X24677107Y-4847199D01*
X24671157Y-4845709D01*
X24665382Y-4843642D01*
X24659838Y-4841020D01*
X24654577Y-4837867D01*
X24649650Y-4834213D01*
X24645106Y-4830094D01*
X24640987Y-4825550D01*
X24637333Y-4820623D01*
X24634180Y-4815362D01*
X24631558Y-4809818D01*
X24629491Y-4804043D01*
X24628001Y-4798093D01*
X24627101Y-4792026D01*
X24626800Y-4785900D01*
X24626800Y-4035900D01*
X24627101Y-4029774D01*
X24628001Y-4023707D01*
X24629491Y-4017757D01*
X24631558Y-4011982D01*
X24634180Y-4006438D01*
X24637333Y-4001177D01*
X24640987Y-3996250D01*
X24645106Y-3991706D01*
X24649650Y-3987587D01*
X24654577Y-3983933D01*
X24659838Y-3980780D01*
X24665382Y-3978158D01*
X24671157Y-3976091D01*
X24677107Y-3974601D01*
X24683174Y-3973701D01*
X24689300Y-3973400D01*
X24814300Y-3973400D01*
X24820426Y-3973701D01*
G37*
G04 #@! TD.AperFunction*
G04 #@! TA.AperFunction,SMDPad,CuDef*
G36*
X25320426Y-3973701D02*
G01*
X25326493Y-3974601D01*
X25332443Y-3976091D01*
X25338218Y-3978158D01*
X25343762Y-3980780D01*
X25349023Y-3983933D01*
X25353950Y-3987587D01*
X25358494Y-3991706D01*
X25362613Y-3996250D01*
X25366267Y-4001177D01*
X25369420Y-4006438D01*
X25372042Y-4011982D01*
X25374109Y-4017757D01*
X25375599Y-4023707D01*
X25376499Y-4029774D01*
X25376800Y-4035900D01*
X25376800Y-4785900D01*
X25376499Y-4792026D01*
X25375599Y-4798093D01*
X25374109Y-4804043D01*
X25372042Y-4809818D01*
X25369420Y-4815362D01*
X25366267Y-4820623D01*
X25362613Y-4825550D01*
X25358494Y-4830094D01*
X25353950Y-4834213D01*
X25349023Y-4837867D01*
X25343762Y-4841020D01*
X25338218Y-4843642D01*
X25332443Y-4845709D01*
X25326493Y-4847199D01*
X25320426Y-4848099D01*
X25314300Y-4848400D01*
X25189300Y-4848400D01*
X25183174Y-4848099D01*
X25177107Y-4847199D01*
X25171157Y-4845709D01*
X25165382Y-4843642D01*
X25159838Y-4841020D01*
X25154577Y-4837867D01*
X25149650Y-4834213D01*
X25145106Y-4830094D01*
X25140987Y-4825550D01*
X25137333Y-4820623D01*
X25134180Y-4815362D01*
X25131558Y-4809818D01*
X25129491Y-4804043D01*
X25128001Y-4798093D01*
X25127101Y-4792026D01*
X25126800Y-4785900D01*
X25126800Y-4035900D01*
X25127101Y-4029774D01*
X25128001Y-4023707D01*
X25129491Y-4017757D01*
X25131558Y-4011982D01*
X25134180Y-4006438D01*
X25137333Y-4001177D01*
X25140987Y-3996250D01*
X25145106Y-3991706D01*
X25149650Y-3987587D01*
X25154577Y-3983933D01*
X25159838Y-3980780D01*
X25165382Y-3978158D01*
X25171157Y-3976091D01*
X25177107Y-3974601D01*
X25183174Y-3973701D01*
X25189300Y-3973400D01*
X25314300Y-3973400D01*
X25320426Y-3973701D01*
G37*
G04 #@! TD.AperFunction*
G04 #@! TA.AperFunction,SMDPad,CuDef*
G36*
X26320426Y-4973701D02*
G01*
X26326493Y-4974601D01*
X26332443Y-4976091D01*
X26338218Y-4978158D01*
X26343762Y-4980780D01*
X26349023Y-4983933D01*
X26353950Y-4987587D01*
X26358494Y-4991706D01*
X26362613Y-4996250D01*
X26366267Y-5001177D01*
X26369420Y-5006438D01*
X26372042Y-5011982D01*
X26374109Y-5017757D01*
X26375599Y-5023707D01*
X26376499Y-5029774D01*
X26376800Y-5035900D01*
X26376800Y-5160900D01*
X26376499Y-5167026D01*
X26375599Y-5173093D01*
X26374109Y-5179043D01*
X26372042Y-5184818D01*
X26369420Y-5190362D01*
X26366267Y-5195623D01*
X26362613Y-5200550D01*
X26358494Y-5205094D01*
X26353950Y-5209213D01*
X26349023Y-5212867D01*
X26343762Y-5216020D01*
X26338218Y-5218642D01*
X26332443Y-5220709D01*
X26326493Y-5222199D01*
X26320426Y-5223099D01*
X26314300Y-5223400D01*
X25564300Y-5223400D01*
X25558174Y-5223099D01*
X25552107Y-5222199D01*
X25546157Y-5220709D01*
X25540382Y-5218642D01*
X25534838Y-5216020D01*
X25529577Y-5212867D01*
X25524650Y-5209213D01*
X25520106Y-5205094D01*
X25515987Y-5200550D01*
X25512333Y-5195623D01*
X25509180Y-5190362D01*
X25506558Y-5184818D01*
X25504491Y-5179043D01*
X25503001Y-5173093D01*
X25502101Y-5167026D01*
X25501800Y-5160900D01*
X25501800Y-5035900D01*
X25502101Y-5029774D01*
X25503001Y-5023707D01*
X25504491Y-5017757D01*
X25506558Y-5011982D01*
X25509180Y-5006438D01*
X25512333Y-5001177D01*
X25515987Y-4996250D01*
X25520106Y-4991706D01*
X25524650Y-4987587D01*
X25529577Y-4983933D01*
X25534838Y-4980780D01*
X25540382Y-4978158D01*
X25546157Y-4976091D01*
X25552107Y-4974601D01*
X25558174Y-4973701D01*
X25564300Y-4973400D01*
X26314300Y-4973400D01*
X26320426Y-4973701D01*
G37*
G04 #@! TD.AperFunction*
G04 #@! TA.AperFunction,SMDPad,CuDef*
G36*
X26320426Y-5473701D02*
G01*
X26326493Y-5474601D01*
X26332443Y-5476091D01*
X26338218Y-5478158D01*
X26343762Y-5480780D01*
X26349023Y-5483933D01*
X26353950Y-5487587D01*
X26358494Y-5491706D01*
X26362613Y-5496250D01*
X26366267Y-5501177D01*
X26369420Y-5506438D01*
X26372042Y-5511982D01*
X26374109Y-5517757D01*
X26375599Y-5523707D01*
X26376499Y-5529774D01*
X26376800Y-5535900D01*
X26376800Y-5660900D01*
X26376499Y-5667026D01*
X26375599Y-5673093D01*
X26374109Y-5679043D01*
X26372042Y-5684818D01*
X26369420Y-5690362D01*
X26366267Y-5695623D01*
X26362613Y-5700550D01*
X26358494Y-5705094D01*
X26353950Y-5709213D01*
X26349023Y-5712867D01*
X26343762Y-5716020D01*
X26338218Y-5718642D01*
X26332443Y-5720709D01*
X26326493Y-5722199D01*
X26320426Y-5723099D01*
X26314300Y-5723400D01*
X25564300Y-5723400D01*
X25558174Y-5723099D01*
X25552107Y-5722199D01*
X25546157Y-5720709D01*
X25540382Y-5718642D01*
X25534838Y-5716020D01*
X25529577Y-5712867D01*
X25524650Y-5709213D01*
X25520106Y-5705094D01*
X25515987Y-5700550D01*
X25512333Y-5695623D01*
X25509180Y-5690362D01*
X25506558Y-5684818D01*
X25504491Y-5679043D01*
X25503001Y-5673093D01*
X25502101Y-5667026D01*
X25501800Y-5660900D01*
X25501800Y-5535900D01*
X25502101Y-5529774D01*
X25503001Y-5523707D01*
X25504491Y-5517757D01*
X25506558Y-5511982D01*
X25509180Y-5506438D01*
X25512333Y-5501177D01*
X25515987Y-5496250D01*
X25520106Y-5491706D01*
X25524650Y-5487587D01*
X25529577Y-5483933D01*
X25534838Y-5480780D01*
X25540382Y-5478158D01*
X25546157Y-5476091D01*
X25552107Y-5474601D01*
X25558174Y-5473701D01*
X25564300Y-5473400D01*
X26314300Y-5473400D01*
X26320426Y-5473701D01*
G37*
G04 #@! TD.AperFunction*
G04 #@! TA.AperFunction,SMDPad,CuDef*
G36*
X26320426Y-5973701D02*
G01*
X26326493Y-5974601D01*
X26332443Y-5976091D01*
X26338218Y-5978158D01*
X26343762Y-5980780D01*
X26349023Y-5983933D01*
X26353950Y-5987587D01*
X26358494Y-5991706D01*
X26362613Y-5996250D01*
X26366267Y-6001177D01*
X26369420Y-6006438D01*
X26372042Y-6011982D01*
X26374109Y-6017757D01*
X26375599Y-6023707D01*
X26376499Y-6029774D01*
X26376800Y-6035900D01*
X26376800Y-6160900D01*
X26376499Y-6167026D01*
X26375599Y-6173093D01*
X26374109Y-6179043D01*
X26372042Y-6184818D01*
X26369420Y-6190362D01*
X26366267Y-6195623D01*
X26362613Y-6200550D01*
X26358494Y-6205094D01*
X26353950Y-6209213D01*
X26349023Y-6212867D01*
X26343762Y-6216020D01*
X26338218Y-6218642D01*
X26332443Y-6220709D01*
X26326493Y-6222199D01*
X26320426Y-6223099D01*
X26314300Y-6223400D01*
X25564300Y-6223400D01*
X25558174Y-6223099D01*
X25552107Y-6222199D01*
X25546157Y-6220709D01*
X25540382Y-6218642D01*
X25534838Y-6216020D01*
X25529577Y-6212867D01*
X25524650Y-6209213D01*
X25520106Y-6205094D01*
X25515987Y-6200550D01*
X25512333Y-6195623D01*
X25509180Y-6190362D01*
X25506558Y-6184818D01*
X25504491Y-6179043D01*
X25503001Y-6173093D01*
X25502101Y-6167026D01*
X25501800Y-6160900D01*
X25501800Y-6035900D01*
X25502101Y-6029774D01*
X25503001Y-6023707D01*
X25504491Y-6017757D01*
X25506558Y-6011982D01*
X25509180Y-6006438D01*
X25512333Y-6001177D01*
X25515987Y-5996250D01*
X25520106Y-5991706D01*
X25524650Y-5987587D01*
X25529577Y-5983933D01*
X25534838Y-5980780D01*
X25540382Y-5978158D01*
X25546157Y-5976091D01*
X25552107Y-5974601D01*
X25558174Y-5973701D01*
X25564300Y-5973400D01*
X26314300Y-5973400D01*
X26320426Y-5973701D01*
G37*
G04 #@! TD.AperFunction*
G04 #@! TA.AperFunction,SMDPad,CuDef*
G36*
X26320426Y-6473701D02*
G01*
X26326493Y-6474601D01*
X26332443Y-6476091D01*
X26338218Y-6478158D01*
X26343762Y-6480780D01*
X26349023Y-6483933D01*
X26353950Y-6487587D01*
X26358494Y-6491706D01*
X26362613Y-6496250D01*
X26366267Y-6501177D01*
X26369420Y-6506438D01*
X26372042Y-6511982D01*
X26374109Y-6517757D01*
X26375599Y-6523707D01*
X26376499Y-6529774D01*
X26376800Y-6535900D01*
X26376800Y-6660900D01*
X26376499Y-6667026D01*
X26375599Y-6673093D01*
X26374109Y-6679043D01*
X26372042Y-6684818D01*
X26369420Y-6690362D01*
X26366267Y-6695623D01*
X26362613Y-6700550D01*
X26358494Y-6705094D01*
X26353950Y-6709213D01*
X26349023Y-6712867D01*
X26343762Y-6716020D01*
X26338218Y-6718642D01*
X26332443Y-6720709D01*
X26326493Y-6722199D01*
X26320426Y-6723099D01*
X26314300Y-6723400D01*
X25564300Y-6723400D01*
X25558174Y-6723099D01*
X25552107Y-6722199D01*
X25546157Y-6720709D01*
X25540382Y-6718642D01*
X25534838Y-6716020D01*
X25529577Y-6712867D01*
X25524650Y-6709213D01*
X25520106Y-6705094D01*
X25515987Y-6700550D01*
X25512333Y-6695623D01*
X25509180Y-6690362D01*
X25506558Y-6684818D01*
X25504491Y-6679043D01*
X25503001Y-6673093D01*
X25502101Y-6667026D01*
X25501800Y-6660900D01*
X25501800Y-6535900D01*
X25502101Y-6529774D01*
X25503001Y-6523707D01*
X25504491Y-6517757D01*
X25506558Y-6511982D01*
X25509180Y-6506438D01*
X25512333Y-6501177D01*
X25515987Y-6496250D01*
X25520106Y-6491706D01*
X25524650Y-6487587D01*
X25529577Y-6483933D01*
X25534838Y-6480780D01*
X25540382Y-6478158D01*
X25546157Y-6476091D01*
X25552107Y-6474601D01*
X25558174Y-6473701D01*
X25564300Y-6473400D01*
X26314300Y-6473400D01*
X26320426Y-6473701D01*
G37*
G04 #@! TD.AperFunction*
G04 #@! TA.AperFunction,SMDPad,CuDef*
G36*
X26320426Y-6973701D02*
G01*
X26326493Y-6974601D01*
X26332443Y-6976091D01*
X26338218Y-6978158D01*
X26343762Y-6980780D01*
X26349023Y-6983933D01*
X26353950Y-6987587D01*
X26358494Y-6991706D01*
X26362613Y-6996250D01*
X26366267Y-7001177D01*
X26369420Y-7006438D01*
X26372042Y-7011982D01*
X26374109Y-7017757D01*
X26375599Y-7023707D01*
X26376499Y-7029774D01*
X26376800Y-7035900D01*
X26376800Y-7160900D01*
X26376499Y-7167026D01*
X26375599Y-7173093D01*
X26374109Y-7179043D01*
X26372042Y-7184818D01*
X26369420Y-7190362D01*
X26366267Y-7195623D01*
X26362613Y-7200550D01*
X26358494Y-7205094D01*
X26353950Y-7209213D01*
X26349023Y-7212867D01*
X26343762Y-7216020D01*
X26338218Y-7218642D01*
X26332443Y-7220709D01*
X26326493Y-7222199D01*
X26320426Y-7223099D01*
X26314300Y-7223400D01*
X25564300Y-7223400D01*
X25558174Y-7223099D01*
X25552107Y-7222199D01*
X25546157Y-7220709D01*
X25540382Y-7218642D01*
X25534838Y-7216020D01*
X25529577Y-7212867D01*
X25524650Y-7209213D01*
X25520106Y-7205094D01*
X25515987Y-7200550D01*
X25512333Y-7195623D01*
X25509180Y-7190362D01*
X25506558Y-7184818D01*
X25504491Y-7179043D01*
X25503001Y-7173093D01*
X25502101Y-7167026D01*
X25501800Y-7160900D01*
X25501800Y-7035900D01*
X25502101Y-7029774D01*
X25503001Y-7023707D01*
X25504491Y-7017757D01*
X25506558Y-7011982D01*
X25509180Y-7006438D01*
X25512333Y-7001177D01*
X25515987Y-6996250D01*
X25520106Y-6991706D01*
X25524650Y-6987587D01*
X25529577Y-6983933D01*
X25534838Y-6980780D01*
X25540382Y-6978158D01*
X25546157Y-6976091D01*
X25552107Y-6974601D01*
X25558174Y-6973701D01*
X25564300Y-6973400D01*
X26314300Y-6973400D01*
X26320426Y-6973701D01*
G37*
G04 #@! TD.AperFunction*
G04 #@! TA.AperFunction,SMDPad,CuDef*
G36*
X26320426Y-7473701D02*
G01*
X26326493Y-7474601D01*
X26332443Y-7476091D01*
X26338218Y-7478158D01*
X26343762Y-7480780D01*
X26349023Y-7483933D01*
X26353950Y-7487587D01*
X26358494Y-7491706D01*
X26362613Y-7496250D01*
X26366267Y-7501177D01*
X26369420Y-7506438D01*
X26372042Y-7511982D01*
X26374109Y-7517757D01*
X26375599Y-7523707D01*
X26376499Y-7529774D01*
X26376800Y-7535900D01*
X26376800Y-7660900D01*
X26376499Y-7667026D01*
X26375599Y-7673093D01*
X26374109Y-7679043D01*
X26372042Y-7684818D01*
X26369420Y-7690362D01*
X26366267Y-7695623D01*
X26362613Y-7700550D01*
X26358494Y-7705094D01*
X26353950Y-7709213D01*
X26349023Y-7712867D01*
X26343762Y-7716020D01*
X26338218Y-7718642D01*
X26332443Y-7720709D01*
X26326493Y-7722199D01*
X26320426Y-7723099D01*
X26314300Y-7723400D01*
X25564300Y-7723400D01*
X25558174Y-7723099D01*
X25552107Y-7722199D01*
X25546157Y-7720709D01*
X25540382Y-7718642D01*
X25534838Y-7716020D01*
X25529577Y-7712867D01*
X25524650Y-7709213D01*
X25520106Y-7705094D01*
X25515987Y-7700550D01*
X25512333Y-7695623D01*
X25509180Y-7690362D01*
X25506558Y-7684818D01*
X25504491Y-7679043D01*
X25503001Y-7673093D01*
X25502101Y-7667026D01*
X25501800Y-7660900D01*
X25501800Y-7535900D01*
X25502101Y-7529774D01*
X25503001Y-7523707D01*
X25504491Y-7517757D01*
X25506558Y-7511982D01*
X25509180Y-7506438D01*
X25512333Y-7501177D01*
X25515987Y-7496250D01*
X25520106Y-7491706D01*
X25524650Y-7487587D01*
X25529577Y-7483933D01*
X25534838Y-7480780D01*
X25540382Y-7478158D01*
X25546157Y-7476091D01*
X25552107Y-7474601D01*
X25558174Y-7473701D01*
X25564300Y-7473400D01*
X26314300Y-7473400D01*
X26320426Y-7473701D01*
G37*
G04 #@! TD.AperFunction*
G04 #@! TA.AperFunction,SMDPad,CuDef*
G36*
X26320426Y-7973701D02*
G01*
X26326493Y-7974601D01*
X26332443Y-7976091D01*
X26338218Y-7978158D01*
X26343762Y-7980780D01*
X26349023Y-7983933D01*
X26353950Y-7987587D01*
X26358494Y-7991706D01*
X26362613Y-7996250D01*
X26366267Y-8001177D01*
X26369420Y-8006438D01*
X26372042Y-8011982D01*
X26374109Y-8017757D01*
X26375599Y-8023707D01*
X26376499Y-8029774D01*
X26376800Y-8035900D01*
X26376800Y-8160900D01*
X26376499Y-8167026D01*
X26375599Y-8173093D01*
X26374109Y-8179043D01*
X26372042Y-8184818D01*
X26369420Y-8190362D01*
X26366267Y-8195623D01*
X26362613Y-8200550D01*
X26358494Y-8205094D01*
X26353950Y-8209213D01*
X26349023Y-8212867D01*
X26343762Y-8216020D01*
X26338218Y-8218642D01*
X26332443Y-8220709D01*
X26326493Y-8222199D01*
X26320426Y-8223099D01*
X26314300Y-8223400D01*
X25564300Y-8223400D01*
X25558174Y-8223099D01*
X25552107Y-8222199D01*
X25546157Y-8220709D01*
X25540382Y-8218642D01*
X25534838Y-8216020D01*
X25529577Y-8212867D01*
X25524650Y-8209213D01*
X25520106Y-8205094D01*
X25515987Y-8200550D01*
X25512333Y-8195623D01*
X25509180Y-8190362D01*
X25506558Y-8184818D01*
X25504491Y-8179043D01*
X25503001Y-8173093D01*
X25502101Y-8167026D01*
X25501800Y-8160900D01*
X25501800Y-8035900D01*
X25502101Y-8029774D01*
X25503001Y-8023707D01*
X25504491Y-8017757D01*
X25506558Y-8011982D01*
X25509180Y-8006438D01*
X25512333Y-8001177D01*
X25515987Y-7996250D01*
X25520106Y-7991706D01*
X25524650Y-7987587D01*
X25529577Y-7983933D01*
X25534838Y-7980780D01*
X25540382Y-7978158D01*
X25546157Y-7976091D01*
X25552107Y-7974601D01*
X25558174Y-7973701D01*
X25564300Y-7973400D01*
X26314300Y-7973400D01*
X26320426Y-7973701D01*
G37*
G04 #@! TD.AperFunction*
G04 #@! TA.AperFunction,SMDPad,CuDef*
G36*
X26320426Y-8473701D02*
G01*
X26326493Y-8474601D01*
X26332443Y-8476091D01*
X26338218Y-8478158D01*
X26343762Y-8480780D01*
X26349023Y-8483933D01*
X26353950Y-8487587D01*
X26358494Y-8491706D01*
X26362613Y-8496250D01*
X26366267Y-8501177D01*
X26369420Y-8506438D01*
X26372042Y-8511982D01*
X26374109Y-8517757D01*
X26375599Y-8523707D01*
X26376499Y-8529774D01*
X26376800Y-8535900D01*
X26376800Y-8660900D01*
X26376499Y-8667026D01*
X26375599Y-8673093D01*
X26374109Y-8679043D01*
X26372042Y-8684818D01*
X26369420Y-8690362D01*
X26366267Y-8695623D01*
X26362613Y-8700550D01*
X26358494Y-8705094D01*
X26353950Y-8709213D01*
X26349023Y-8712867D01*
X26343762Y-8716020D01*
X26338218Y-8718642D01*
X26332443Y-8720709D01*
X26326493Y-8722199D01*
X26320426Y-8723099D01*
X26314300Y-8723400D01*
X25564300Y-8723400D01*
X25558174Y-8723099D01*
X25552107Y-8722199D01*
X25546157Y-8720709D01*
X25540382Y-8718642D01*
X25534838Y-8716020D01*
X25529577Y-8712867D01*
X25524650Y-8709213D01*
X25520106Y-8705094D01*
X25515987Y-8700550D01*
X25512333Y-8695623D01*
X25509180Y-8690362D01*
X25506558Y-8684818D01*
X25504491Y-8679043D01*
X25503001Y-8673093D01*
X25502101Y-8667026D01*
X25501800Y-8660900D01*
X25501800Y-8535900D01*
X25502101Y-8529774D01*
X25503001Y-8523707D01*
X25504491Y-8517757D01*
X25506558Y-8511982D01*
X25509180Y-8506438D01*
X25512333Y-8501177D01*
X25515987Y-8496250D01*
X25520106Y-8491706D01*
X25524650Y-8487587D01*
X25529577Y-8483933D01*
X25534838Y-8480780D01*
X25540382Y-8478158D01*
X25546157Y-8476091D01*
X25552107Y-8474601D01*
X25558174Y-8473701D01*
X25564300Y-8473400D01*
X26314300Y-8473400D01*
X26320426Y-8473701D01*
G37*
G04 #@! TD.AperFunction*
G04 #@! TA.AperFunction,SMDPad,CuDef*
G36*
X25320426Y-8848701D02*
G01*
X25326493Y-8849601D01*
X25332443Y-8851091D01*
X25338218Y-8853158D01*
X25343762Y-8855780D01*
X25349023Y-8858933D01*
X25353950Y-8862587D01*
X25358494Y-8866706D01*
X25362613Y-8871250D01*
X25366267Y-8876177D01*
X25369420Y-8881438D01*
X25372042Y-8886982D01*
X25374109Y-8892757D01*
X25375599Y-8898707D01*
X25376499Y-8904774D01*
X25376800Y-8910900D01*
X25376800Y-9660900D01*
X25376499Y-9667026D01*
X25375599Y-9673093D01*
X25374109Y-9679043D01*
X25372042Y-9684818D01*
X25369420Y-9690362D01*
X25366267Y-9695623D01*
X25362613Y-9700550D01*
X25358494Y-9705094D01*
X25353950Y-9709213D01*
X25349023Y-9712867D01*
X25343762Y-9716020D01*
X25338218Y-9718642D01*
X25332443Y-9720709D01*
X25326493Y-9722199D01*
X25320426Y-9723099D01*
X25314300Y-9723400D01*
X25189300Y-9723400D01*
X25183174Y-9723099D01*
X25177107Y-9722199D01*
X25171157Y-9720709D01*
X25165382Y-9718642D01*
X25159838Y-9716020D01*
X25154577Y-9712867D01*
X25149650Y-9709213D01*
X25145106Y-9705094D01*
X25140987Y-9700550D01*
X25137333Y-9695623D01*
X25134180Y-9690362D01*
X25131558Y-9684818D01*
X25129491Y-9679043D01*
X25128001Y-9673093D01*
X25127101Y-9667026D01*
X25126800Y-9660900D01*
X25126800Y-8910900D01*
X25127101Y-8904774D01*
X25128001Y-8898707D01*
X25129491Y-8892757D01*
X25131558Y-8886982D01*
X25134180Y-8881438D01*
X25137333Y-8876177D01*
X25140987Y-8871250D01*
X25145106Y-8866706D01*
X25149650Y-8862587D01*
X25154577Y-8858933D01*
X25159838Y-8855780D01*
X25165382Y-8853158D01*
X25171157Y-8851091D01*
X25177107Y-8849601D01*
X25183174Y-8848701D01*
X25189300Y-8848400D01*
X25314300Y-8848400D01*
X25320426Y-8848701D01*
G37*
G04 #@! TD.AperFunction*
G04 #@! TA.AperFunction,SMDPad,CuDef*
G36*
X24820426Y-8848701D02*
G01*
X24826493Y-8849601D01*
X24832443Y-8851091D01*
X24838218Y-8853158D01*
X24843762Y-8855780D01*
X24849023Y-8858933D01*
X24853950Y-8862587D01*
X24858494Y-8866706D01*
X24862613Y-8871250D01*
X24866267Y-8876177D01*
X24869420Y-8881438D01*
X24872042Y-8886982D01*
X24874109Y-8892757D01*
X24875599Y-8898707D01*
X24876499Y-8904774D01*
X24876800Y-8910900D01*
X24876800Y-9660900D01*
X24876499Y-9667026D01*
X24875599Y-9673093D01*
X24874109Y-9679043D01*
X24872042Y-9684818D01*
X24869420Y-9690362D01*
X24866267Y-9695623D01*
X24862613Y-9700550D01*
X24858494Y-9705094D01*
X24853950Y-9709213D01*
X24849023Y-9712867D01*
X24843762Y-9716020D01*
X24838218Y-9718642D01*
X24832443Y-9720709D01*
X24826493Y-9722199D01*
X24820426Y-9723099D01*
X24814300Y-9723400D01*
X24689300Y-9723400D01*
X24683174Y-9723099D01*
X24677107Y-9722199D01*
X24671157Y-9720709D01*
X24665382Y-9718642D01*
X24659838Y-9716020D01*
X24654577Y-9712867D01*
X24649650Y-9709213D01*
X24645106Y-9705094D01*
X24640987Y-9700550D01*
X24637333Y-9695623D01*
X24634180Y-9690362D01*
X24631558Y-9684818D01*
X24629491Y-9679043D01*
X24628001Y-9673093D01*
X24627101Y-9667026D01*
X24626800Y-9660900D01*
X24626800Y-8910900D01*
X24627101Y-8904774D01*
X24628001Y-8898707D01*
X24629491Y-8892757D01*
X24631558Y-8886982D01*
X24634180Y-8881438D01*
X24637333Y-8876177D01*
X24640987Y-8871250D01*
X24645106Y-8866706D01*
X24649650Y-8862587D01*
X24654577Y-8858933D01*
X24659838Y-8855780D01*
X24665382Y-8853158D01*
X24671157Y-8851091D01*
X24677107Y-8849601D01*
X24683174Y-8848701D01*
X24689300Y-8848400D01*
X24814300Y-8848400D01*
X24820426Y-8848701D01*
G37*
G04 #@! TD.AperFunction*
G04 #@! TA.AperFunction,SMDPad,CuDef*
G36*
X24320426Y-8848701D02*
G01*
X24326493Y-8849601D01*
X24332443Y-8851091D01*
X24338218Y-8853158D01*
X24343762Y-8855780D01*
X24349023Y-8858933D01*
X24353950Y-8862587D01*
X24358494Y-8866706D01*
X24362613Y-8871250D01*
X24366267Y-8876177D01*
X24369420Y-8881438D01*
X24372042Y-8886982D01*
X24374109Y-8892757D01*
X24375599Y-8898707D01*
X24376499Y-8904774D01*
X24376800Y-8910900D01*
X24376800Y-9660900D01*
X24376499Y-9667026D01*
X24375599Y-9673093D01*
X24374109Y-9679043D01*
X24372042Y-9684818D01*
X24369420Y-9690362D01*
X24366267Y-9695623D01*
X24362613Y-9700550D01*
X24358494Y-9705094D01*
X24353950Y-9709213D01*
X24349023Y-9712867D01*
X24343762Y-9716020D01*
X24338218Y-9718642D01*
X24332443Y-9720709D01*
X24326493Y-9722199D01*
X24320426Y-9723099D01*
X24314300Y-9723400D01*
X24189300Y-9723400D01*
X24183174Y-9723099D01*
X24177107Y-9722199D01*
X24171157Y-9720709D01*
X24165382Y-9718642D01*
X24159838Y-9716020D01*
X24154577Y-9712867D01*
X24149650Y-9709213D01*
X24145106Y-9705094D01*
X24140987Y-9700550D01*
X24137333Y-9695623D01*
X24134180Y-9690362D01*
X24131558Y-9684818D01*
X24129491Y-9679043D01*
X24128001Y-9673093D01*
X24127101Y-9667026D01*
X24126800Y-9660900D01*
X24126800Y-8910900D01*
X24127101Y-8904774D01*
X24128001Y-8898707D01*
X24129491Y-8892757D01*
X24131558Y-8886982D01*
X24134180Y-8881438D01*
X24137333Y-8876177D01*
X24140987Y-8871250D01*
X24145106Y-8866706D01*
X24149650Y-8862587D01*
X24154577Y-8858933D01*
X24159838Y-8855780D01*
X24165382Y-8853158D01*
X24171157Y-8851091D01*
X24177107Y-8849601D01*
X24183174Y-8848701D01*
X24189300Y-8848400D01*
X24314300Y-8848400D01*
X24320426Y-8848701D01*
G37*
G04 #@! TD.AperFunction*
G04 #@! TA.AperFunction,SMDPad,CuDef*
G36*
X23820426Y-8848701D02*
G01*
X23826493Y-8849601D01*
X23832443Y-8851091D01*
X23838218Y-8853158D01*
X23843762Y-8855780D01*
X23849023Y-8858933D01*
X23853950Y-8862587D01*
X23858494Y-8866706D01*
X23862613Y-8871250D01*
X23866267Y-8876177D01*
X23869420Y-8881438D01*
X23872042Y-8886982D01*
X23874109Y-8892757D01*
X23875599Y-8898707D01*
X23876499Y-8904774D01*
X23876800Y-8910900D01*
X23876800Y-9660900D01*
X23876499Y-9667026D01*
X23875599Y-9673093D01*
X23874109Y-9679043D01*
X23872042Y-9684818D01*
X23869420Y-9690362D01*
X23866267Y-9695623D01*
X23862613Y-9700550D01*
X23858494Y-9705094D01*
X23853950Y-9709213D01*
X23849023Y-9712867D01*
X23843762Y-9716020D01*
X23838218Y-9718642D01*
X23832443Y-9720709D01*
X23826493Y-9722199D01*
X23820426Y-9723099D01*
X23814300Y-9723400D01*
X23689300Y-9723400D01*
X23683174Y-9723099D01*
X23677107Y-9722199D01*
X23671157Y-9720709D01*
X23665382Y-9718642D01*
X23659838Y-9716020D01*
X23654577Y-9712867D01*
X23649650Y-9709213D01*
X23645106Y-9705094D01*
X23640987Y-9700550D01*
X23637333Y-9695623D01*
X23634180Y-9690362D01*
X23631558Y-9684818D01*
X23629491Y-9679043D01*
X23628001Y-9673093D01*
X23627101Y-9667026D01*
X23626800Y-9660900D01*
X23626800Y-8910900D01*
X23627101Y-8904774D01*
X23628001Y-8898707D01*
X23629491Y-8892757D01*
X23631558Y-8886982D01*
X23634180Y-8881438D01*
X23637333Y-8876177D01*
X23640987Y-8871250D01*
X23645106Y-8866706D01*
X23649650Y-8862587D01*
X23654577Y-8858933D01*
X23659838Y-8855780D01*
X23665382Y-8853158D01*
X23671157Y-8851091D01*
X23677107Y-8849601D01*
X23683174Y-8848701D01*
X23689300Y-8848400D01*
X23814300Y-8848400D01*
X23820426Y-8848701D01*
G37*
G04 #@! TD.AperFunction*
G04 #@! TA.AperFunction,SMDPad,CuDef*
G36*
X23320426Y-8848701D02*
G01*
X23326493Y-8849601D01*
X23332443Y-8851091D01*
X23338218Y-8853158D01*
X23343762Y-8855780D01*
X23349023Y-8858933D01*
X23353950Y-8862587D01*
X23358494Y-8866706D01*
X23362613Y-8871250D01*
X23366267Y-8876177D01*
X23369420Y-8881438D01*
X23372042Y-8886982D01*
X23374109Y-8892757D01*
X23375599Y-8898707D01*
X23376499Y-8904774D01*
X23376800Y-8910900D01*
X23376800Y-9660900D01*
X23376499Y-9667026D01*
X23375599Y-9673093D01*
X23374109Y-9679043D01*
X23372042Y-9684818D01*
X23369420Y-9690362D01*
X23366267Y-9695623D01*
X23362613Y-9700550D01*
X23358494Y-9705094D01*
X23353950Y-9709213D01*
X23349023Y-9712867D01*
X23343762Y-9716020D01*
X23338218Y-9718642D01*
X23332443Y-9720709D01*
X23326493Y-9722199D01*
X23320426Y-9723099D01*
X23314300Y-9723400D01*
X23189300Y-9723400D01*
X23183174Y-9723099D01*
X23177107Y-9722199D01*
X23171157Y-9720709D01*
X23165382Y-9718642D01*
X23159838Y-9716020D01*
X23154577Y-9712867D01*
X23149650Y-9709213D01*
X23145106Y-9705094D01*
X23140987Y-9700550D01*
X23137333Y-9695623D01*
X23134180Y-9690362D01*
X23131558Y-9684818D01*
X23129491Y-9679043D01*
X23128001Y-9673093D01*
X23127101Y-9667026D01*
X23126800Y-9660900D01*
X23126800Y-8910900D01*
X23127101Y-8904774D01*
X23128001Y-8898707D01*
X23129491Y-8892757D01*
X23131558Y-8886982D01*
X23134180Y-8881438D01*
X23137333Y-8876177D01*
X23140987Y-8871250D01*
X23145106Y-8866706D01*
X23149650Y-8862587D01*
X23154577Y-8858933D01*
X23159838Y-8855780D01*
X23165382Y-8853158D01*
X23171157Y-8851091D01*
X23177107Y-8849601D01*
X23183174Y-8848701D01*
X23189300Y-8848400D01*
X23314300Y-8848400D01*
X23320426Y-8848701D01*
G37*
G04 #@! TD.AperFunction*
G04 #@! TA.AperFunction,SMDPad,CuDef*
G36*
X22820426Y-8848701D02*
G01*
X22826493Y-8849601D01*
X22832443Y-8851091D01*
X22838218Y-8853158D01*
X22843762Y-8855780D01*
X22849023Y-8858933D01*
X22853950Y-8862587D01*
X22858494Y-8866706D01*
X22862613Y-8871250D01*
X22866267Y-8876177D01*
X22869420Y-8881438D01*
X22872042Y-8886982D01*
X22874109Y-8892757D01*
X22875599Y-8898707D01*
X22876499Y-8904774D01*
X22876800Y-8910900D01*
X22876800Y-9660900D01*
X22876499Y-9667026D01*
X22875599Y-9673093D01*
X22874109Y-9679043D01*
X22872042Y-9684818D01*
X22869420Y-9690362D01*
X22866267Y-9695623D01*
X22862613Y-9700550D01*
X22858494Y-9705094D01*
X22853950Y-9709213D01*
X22849023Y-9712867D01*
X22843762Y-9716020D01*
X22838218Y-9718642D01*
X22832443Y-9720709D01*
X22826493Y-9722199D01*
X22820426Y-9723099D01*
X22814300Y-9723400D01*
X22689300Y-9723400D01*
X22683174Y-9723099D01*
X22677107Y-9722199D01*
X22671157Y-9720709D01*
X22665382Y-9718642D01*
X22659838Y-9716020D01*
X22654577Y-9712867D01*
X22649650Y-9709213D01*
X22645106Y-9705094D01*
X22640987Y-9700550D01*
X22637333Y-9695623D01*
X22634180Y-9690362D01*
X22631558Y-9684818D01*
X22629491Y-9679043D01*
X22628001Y-9673093D01*
X22627101Y-9667026D01*
X22626800Y-9660900D01*
X22626800Y-8910900D01*
X22627101Y-8904774D01*
X22628001Y-8898707D01*
X22629491Y-8892757D01*
X22631558Y-8886982D01*
X22634180Y-8881438D01*
X22637333Y-8876177D01*
X22640987Y-8871250D01*
X22645106Y-8866706D01*
X22649650Y-8862587D01*
X22654577Y-8858933D01*
X22659838Y-8855780D01*
X22665382Y-8853158D01*
X22671157Y-8851091D01*
X22677107Y-8849601D01*
X22683174Y-8848701D01*
X22689300Y-8848400D01*
X22814300Y-8848400D01*
X22820426Y-8848701D01*
G37*
G04 #@! TD.AperFunction*
G04 #@! TA.AperFunction,SMDPad,CuDef*
G36*
X22320426Y-8848701D02*
G01*
X22326493Y-8849601D01*
X22332443Y-8851091D01*
X22338218Y-8853158D01*
X22343762Y-8855780D01*
X22349023Y-8858933D01*
X22353950Y-8862587D01*
X22358494Y-8866706D01*
X22362613Y-8871250D01*
X22366267Y-8876177D01*
X22369420Y-8881438D01*
X22372042Y-8886982D01*
X22374109Y-8892757D01*
X22375599Y-8898707D01*
X22376499Y-8904774D01*
X22376800Y-8910900D01*
X22376800Y-9660900D01*
X22376499Y-9667026D01*
X22375599Y-9673093D01*
X22374109Y-9679043D01*
X22372042Y-9684818D01*
X22369420Y-9690362D01*
X22366267Y-9695623D01*
X22362613Y-9700550D01*
X22358494Y-9705094D01*
X22353950Y-9709213D01*
X22349023Y-9712867D01*
X22343762Y-9716020D01*
X22338218Y-9718642D01*
X22332443Y-9720709D01*
X22326493Y-9722199D01*
X22320426Y-9723099D01*
X22314300Y-9723400D01*
X22189300Y-9723400D01*
X22183174Y-9723099D01*
X22177107Y-9722199D01*
X22171157Y-9720709D01*
X22165382Y-9718642D01*
X22159838Y-9716020D01*
X22154577Y-9712867D01*
X22149650Y-9709213D01*
X22145106Y-9705094D01*
X22140987Y-9700550D01*
X22137333Y-9695623D01*
X22134180Y-9690362D01*
X22131558Y-9684818D01*
X22129491Y-9679043D01*
X22128001Y-9673093D01*
X22127101Y-9667026D01*
X22126800Y-9660900D01*
X22126800Y-8910900D01*
X22127101Y-8904774D01*
X22128001Y-8898707D01*
X22129491Y-8892757D01*
X22131558Y-8886982D01*
X22134180Y-8881438D01*
X22137333Y-8876177D01*
X22140987Y-8871250D01*
X22145106Y-8866706D01*
X22149650Y-8862587D01*
X22154577Y-8858933D01*
X22159838Y-8855780D01*
X22165382Y-8853158D01*
X22171157Y-8851091D01*
X22177107Y-8849601D01*
X22183174Y-8848701D01*
X22189300Y-8848400D01*
X22314300Y-8848400D01*
X22320426Y-8848701D01*
G37*
G04 #@! TD.AperFunction*
G04 #@! TA.AperFunction,SMDPad,CuDef*
G36*
X21820426Y-8848701D02*
G01*
X21826493Y-8849601D01*
X21832443Y-8851091D01*
X21838218Y-8853158D01*
X21843762Y-8855780D01*
X21849023Y-8858933D01*
X21853950Y-8862587D01*
X21858494Y-8866706D01*
X21862613Y-8871250D01*
X21866267Y-8876177D01*
X21869420Y-8881438D01*
X21872042Y-8886982D01*
X21874109Y-8892757D01*
X21875599Y-8898707D01*
X21876499Y-8904774D01*
X21876800Y-8910900D01*
X21876800Y-9660900D01*
X21876499Y-9667026D01*
X21875599Y-9673093D01*
X21874109Y-9679043D01*
X21872042Y-9684818D01*
X21869420Y-9690362D01*
X21866267Y-9695623D01*
X21862613Y-9700550D01*
X21858494Y-9705094D01*
X21853950Y-9709213D01*
X21849023Y-9712867D01*
X21843762Y-9716020D01*
X21838218Y-9718642D01*
X21832443Y-9720709D01*
X21826493Y-9722199D01*
X21820426Y-9723099D01*
X21814300Y-9723400D01*
X21689300Y-9723400D01*
X21683174Y-9723099D01*
X21677107Y-9722199D01*
X21671157Y-9720709D01*
X21665382Y-9718642D01*
X21659838Y-9716020D01*
X21654577Y-9712867D01*
X21649650Y-9709213D01*
X21645106Y-9705094D01*
X21640987Y-9700550D01*
X21637333Y-9695623D01*
X21634180Y-9690362D01*
X21631558Y-9684818D01*
X21629491Y-9679043D01*
X21628001Y-9673093D01*
X21627101Y-9667026D01*
X21626800Y-9660900D01*
X21626800Y-8910900D01*
X21627101Y-8904774D01*
X21628001Y-8898707D01*
X21629491Y-8892757D01*
X21631558Y-8886982D01*
X21634180Y-8881438D01*
X21637333Y-8876177D01*
X21640987Y-8871250D01*
X21645106Y-8866706D01*
X21649650Y-8862587D01*
X21654577Y-8858933D01*
X21659838Y-8855780D01*
X21665382Y-8853158D01*
X21671157Y-8851091D01*
X21677107Y-8849601D01*
X21683174Y-8848701D01*
X21689300Y-8848400D01*
X21814300Y-8848400D01*
X21820426Y-8848701D01*
G37*
G04 #@! TD.AperFunction*
G04 #@! TA.AperFunction,SMDPad,CuDef*
G36*
X21445426Y-8473701D02*
G01*
X21451493Y-8474601D01*
X21457443Y-8476091D01*
X21463218Y-8478158D01*
X21468762Y-8480780D01*
X21474023Y-8483933D01*
X21478950Y-8487587D01*
X21483494Y-8491706D01*
X21487613Y-8496250D01*
X21491267Y-8501177D01*
X21494420Y-8506438D01*
X21497042Y-8511982D01*
X21499109Y-8517757D01*
X21500599Y-8523707D01*
X21501499Y-8529774D01*
X21501800Y-8535900D01*
X21501800Y-8660900D01*
X21501499Y-8667026D01*
X21500599Y-8673093D01*
X21499109Y-8679043D01*
X21497042Y-8684818D01*
X21494420Y-8690362D01*
X21491267Y-8695623D01*
X21487613Y-8700550D01*
X21483494Y-8705094D01*
X21478950Y-8709213D01*
X21474023Y-8712867D01*
X21468762Y-8716020D01*
X21463218Y-8718642D01*
X21457443Y-8720709D01*
X21451493Y-8722199D01*
X21445426Y-8723099D01*
X21439300Y-8723400D01*
X20689300Y-8723400D01*
X20683174Y-8723099D01*
X20677107Y-8722199D01*
X20671157Y-8720709D01*
X20665382Y-8718642D01*
X20659838Y-8716020D01*
X20654577Y-8712867D01*
X20649650Y-8709213D01*
X20645106Y-8705094D01*
X20640987Y-8700550D01*
X20637333Y-8695623D01*
X20634180Y-8690362D01*
X20631558Y-8684818D01*
X20629491Y-8679043D01*
X20628001Y-8673093D01*
X20627101Y-8667026D01*
X20626800Y-8660900D01*
X20626800Y-8535900D01*
X20627101Y-8529774D01*
X20628001Y-8523707D01*
X20629491Y-8517757D01*
X20631558Y-8511982D01*
X20634180Y-8506438D01*
X20637333Y-8501177D01*
X20640987Y-8496250D01*
X20645106Y-8491706D01*
X20649650Y-8487587D01*
X20654577Y-8483933D01*
X20659838Y-8480780D01*
X20665382Y-8478158D01*
X20671157Y-8476091D01*
X20677107Y-8474601D01*
X20683174Y-8473701D01*
X20689300Y-8473400D01*
X21439300Y-8473400D01*
X21445426Y-8473701D01*
G37*
G04 #@! TD.AperFunction*
G04 #@! TA.AperFunction,SMDPad,CuDef*
G36*
X21445426Y-7973701D02*
G01*
X21451493Y-7974601D01*
X21457443Y-7976091D01*
X21463218Y-7978158D01*
X21468762Y-7980780D01*
X21474023Y-7983933D01*
X21478950Y-7987587D01*
X21483494Y-7991706D01*
X21487613Y-7996250D01*
X21491267Y-8001177D01*
X21494420Y-8006438D01*
X21497042Y-8011982D01*
X21499109Y-8017757D01*
X21500599Y-8023707D01*
X21501499Y-8029774D01*
X21501800Y-8035900D01*
X21501800Y-8160900D01*
X21501499Y-8167026D01*
X21500599Y-8173093D01*
X21499109Y-8179043D01*
X21497042Y-8184818D01*
X21494420Y-8190362D01*
X21491267Y-8195623D01*
X21487613Y-8200550D01*
X21483494Y-8205094D01*
X21478950Y-8209213D01*
X21474023Y-8212867D01*
X21468762Y-8216020D01*
X21463218Y-8218642D01*
X21457443Y-8220709D01*
X21451493Y-8222199D01*
X21445426Y-8223099D01*
X21439300Y-8223400D01*
X20689300Y-8223400D01*
X20683174Y-8223099D01*
X20677107Y-8222199D01*
X20671157Y-8220709D01*
X20665382Y-8218642D01*
X20659838Y-8216020D01*
X20654577Y-8212867D01*
X20649650Y-8209213D01*
X20645106Y-8205094D01*
X20640987Y-8200550D01*
X20637333Y-8195623D01*
X20634180Y-8190362D01*
X20631558Y-8184818D01*
X20629491Y-8179043D01*
X20628001Y-8173093D01*
X20627101Y-8167026D01*
X20626800Y-8160900D01*
X20626800Y-8035900D01*
X20627101Y-8029774D01*
X20628001Y-8023707D01*
X20629491Y-8017757D01*
X20631558Y-8011982D01*
X20634180Y-8006438D01*
X20637333Y-8001177D01*
X20640987Y-7996250D01*
X20645106Y-7991706D01*
X20649650Y-7987587D01*
X20654577Y-7983933D01*
X20659838Y-7980780D01*
X20665382Y-7978158D01*
X20671157Y-7976091D01*
X20677107Y-7974601D01*
X20683174Y-7973701D01*
X20689300Y-7973400D01*
X21439300Y-7973400D01*
X21445426Y-7973701D01*
G37*
G04 #@! TD.AperFunction*
G04 #@! TA.AperFunction,SMDPad,CuDef*
G36*
X21445426Y-7473701D02*
G01*
X21451493Y-7474601D01*
X21457443Y-7476091D01*
X21463218Y-7478158D01*
X21468762Y-7480780D01*
X21474023Y-7483933D01*
X21478950Y-7487587D01*
X21483494Y-7491706D01*
X21487613Y-7496250D01*
X21491267Y-7501177D01*
X21494420Y-7506438D01*
X21497042Y-7511982D01*
X21499109Y-7517757D01*
X21500599Y-7523707D01*
X21501499Y-7529774D01*
X21501800Y-7535900D01*
X21501800Y-7660900D01*
X21501499Y-7667026D01*
X21500599Y-7673093D01*
X21499109Y-7679043D01*
X21497042Y-7684818D01*
X21494420Y-7690362D01*
X21491267Y-7695623D01*
X21487613Y-7700550D01*
X21483494Y-7705094D01*
X21478950Y-7709213D01*
X21474023Y-7712867D01*
X21468762Y-7716020D01*
X21463218Y-7718642D01*
X21457443Y-7720709D01*
X21451493Y-7722199D01*
X21445426Y-7723099D01*
X21439300Y-7723400D01*
X20689300Y-7723400D01*
X20683174Y-7723099D01*
X20677107Y-7722199D01*
X20671157Y-7720709D01*
X20665382Y-7718642D01*
X20659838Y-7716020D01*
X20654577Y-7712867D01*
X20649650Y-7709213D01*
X20645106Y-7705094D01*
X20640987Y-7700550D01*
X20637333Y-7695623D01*
X20634180Y-7690362D01*
X20631558Y-7684818D01*
X20629491Y-7679043D01*
X20628001Y-7673093D01*
X20627101Y-7667026D01*
X20626800Y-7660900D01*
X20626800Y-7535900D01*
X20627101Y-7529774D01*
X20628001Y-7523707D01*
X20629491Y-7517757D01*
X20631558Y-7511982D01*
X20634180Y-7506438D01*
X20637333Y-7501177D01*
X20640987Y-7496250D01*
X20645106Y-7491706D01*
X20649650Y-7487587D01*
X20654577Y-7483933D01*
X20659838Y-7480780D01*
X20665382Y-7478158D01*
X20671157Y-7476091D01*
X20677107Y-7474601D01*
X20683174Y-7473701D01*
X20689300Y-7473400D01*
X21439300Y-7473400D01*
X21445426Y-7473701D01*
G37*
G04 #@! TD.AperFunction*
G04 #@! TA.AperFunction,SMDPad,CuDef*
G36*
X21445426Y-6973701D02*
G01*
X21451493Y-6974601D01*
X21457443Y-6976091D01*
X21463218Y-6978158D01*
X21468762Y-6980780D01*
X21474023Y-6983933D01*
X21478950Y-6987587D01*
X21483494Y-6991706D01*
X21487613Y-6996250D01*
X21491267Y-7001177D01*
X21494420Y-7006438D01*
X21497042Y-7011982D01*
X21499109Y-7017757D01*
X21500599Y-7023707D01*
X21501499Y-7029774D01*
X21501800Y-7035900D01*
X21501800Y-7160900D01*
X21501499Y-7167026D01*
X21500599Y-7173093D01*
X21499109Y-7179043D01*
X21497042Y-7184818D01*
X21494420Y-7190362D01*
X21491267Y-7195623D01*
X21487613Y-7200550D01*
X21483494Y-7205094D01*
X21478950Y-7209213D01*
X21474023Y-7212867D01*
X21468762Y-7216020D01*
X21463218Y-7218642D01*
X21457443Y-7220709D01*
X21451493Y-7222199D01*
X21445426Y-7223099D01*
X21439300Y-7223400D01*
X20689300Y-7223400D01*
X20683174Y-7223099D01*
X20677107Y-7222199D01*
X20671157Y-7220709D01*
X20665382Y-7218642D01*
X20659838Y-7216020D01*
X20654577Y-7212867D01*
X20649650Y-7209213D01*
X20645106Y-7205094D01*
X20640987Y-7200550D01*
X20637333Y-7195623D01*
X20634180Y-7190362D01*
X20631558Y-7184818D01*
X20629491Y-7179043D01*
X20628001Y-7173093D01*
X20627101Y-7167026D01*
X20626800Y-7160900D01*
X20626800Y-7035900D01*
X20627101Y-7029774D01*
X20628001Y-7023707D01*
X20629491Y-7017757D01*
X20631558Y-7011982D01*
X20634180Y-7006438D01*
X20637333Y-7001177D01*
X20640987Y-6996250D01*
X20645106Y-6991706D01*
X20649650Y-6987587D01*
X20654577Y-6983933D01*
X20659838Y-6980780D01*
X20665382Y-6978158D01*
X20671157Y-6976091D01*
X20677107Y-6974601D01*
X20683174Y-6973701D01*
X20689300Y-6973400D01*
X21439300Y-6973400D01*
X21445426Y-6973701D01*
G37*
G04 #@! TD.AperFunction*
G04 #@! TA.AperFunction,SMDPad,CuDef*
G36*
X21445426Y-6473701D02*
G01*
X21451493Y-6474601D01*
X21457443Y-6476091D01*
X21463218Y-6478158D01*
X21468762Y-6480780D01*
X21474023Y-6483933D01*
X21478950Y-6487587D01*
X21483494Y-6491706D01*
X21487613Y-6496250D01*
X21491267Y-6501177D01*
X21494420Y-6506438D01*
X21497042Y-6511982D01*
X21499109Y-6517757D01*
X21500599Y-6523707D01*
X21501499Y-6529774D01*
X21501800Y-6535900D01*
X21501800Y-6660900D01*
X21501499Y-6667026D01*
X21500599Y-6673093D01*
X21499109Y-6679043D01*
X21497042Y-6684818D01*
X21494420Y-6690362D01*
X21491267Y-6695623D01*
X21487613Y-6700550D01*
X21483494Y-6705094D01*
X21478950Y-6709213D01*
X21474023Y-6712867D01*
X21468762Y-6716020D01*
X21463218Y-6718642D01*
X21457443Y-6720709D01*
X21451493Y-6722199D01*
X21445426Y-6723099D01*
X21439300Y-6723400D01*
X20689300Y-6723400D01*
X20683174Y-6723099D01*
X20677107Y-6722199D01*
X20671157Y-6720709D01*
X20665382Y-6718642D01*
X20659838Y-6716020D01*
X20654577Y-6712867D01*
X20649650Y-6709213D01*
X20645106Y-6705094D01*
X20640987Y-6700550D01*
X20637333Y-6695623D01*
X20634180Y-6690362D01*
X20631558Y-6684818D01*
X20629491Y-6679043D01*
X20628001Y-6673093D01*
X20627101Y-6667026D01*
X20626800Y-6660900D01*
X20626800Y-6535900D01*
X20627101Y-6529774D01*
X20628001Y-6523707D01*
X20629491Y-6517757D01*
X20631558Y-6511982D01*
X20634180Y-6506438D01*
X20637333Y-6501177D01*
X20640987Y-6496250D01*
X20645106Y-6491706D01*
X20649650Y-6487587D01*
X20654577Y-6483933D01*
X20659838Y-6480780D01*
X20665382Y-6478158D01*
X20671157Y-6476091D01*
X20677107Y-6474601D01*
X20683174Y-6473701D01*
X20689300Y-6473400D01*
X21439300Y-6473400D01*
X21445426Y-6473701D01*
G37*
G04 #@! TD.AperFunction*
G04 #@! TA.AperFunction,SMDPad,CuDef*
G36*
X21445426Y-5973701D02*
G01*
X21451493Y-5974601D01*
X21457443Y-5976091D01*
X21463218Y-5978158D01*
X21468762Y-5980780D01*
X21474023Y-5983933D01*
X21478950Y-5987587D01*
X21483494Y-5991706D01*
X21487613Y-5996250D01*
X21491267Y-6001177D01*
X21494420Y-6006438D01*
X21497042Y-6011982D01*
X21499109Y-6017757D01*
X21500599Y-6023707D01*
X21501499Y-6029774D01*
X21501800Y-6035900D01*
X21501800Y-6160900D01*
X21501499Y-6167026D01*
X21500599Y-6173093D01*
X21499109Y-6179043D01*
X21497042Y-6184818D01*
X21494420Y-6190362D01*
X21491267Y-6195623D01*
X21487613Y-6200550D01*
X21483494Y-6205094D01*
X21478950Y-6209213D01*
X21474023Y-6212867D01*
X21468762Y-6216020D01*
X21463218Y-6218642D01*
X21457443Y-6220709D01*
X21451493Y-6222199D01*
X21445426Y-6223099D01*
X21439300Y-6223400D01*
X20689300Y-6223400D01*
X20683174Y-6223099D01*
X20677107Y-6222199D01*
X20671157Y-6220709D01*
X20665382Y-6218642D01*
X20659838Y-6216020D01*
X20654577Y-6212867D01*
X20649650Y-6209213D01*
X20645106Y-6205094D01*
X20640987Y-6200550D01*
X20637333Y-6195623D01*
X20634180Y-6190362D01*
X20631558Y-6184818D01*
X20629491Y-6179043D01*
X20628001Y-6173093D01*
X20627101Y-6167026D01*
X20626800Y-6160900D01*
X20626800Y-6035900D01*
X20627101Y-6029774D01*
X20628001Y-6023707D01*
X20629491Y-6017757D01*
X20631558Y-6011982D01*
X20634180Y-6006438D01*
X20637333Y-6001177D01*
X20640987Y-5996250D01*
X20645106Y-5991706D01*
X20649650Y-5987587D01*
X20654577Y-5983933D01*
X20659838Y-5980780D01*
X20665382Y-5978158D01*
X20671157Y-5976091D01*
X20677107Y-5974601D01*
X20683174Y-5973701D01*
X20689300Y-5973400D01*
X21439300Y-5973400D01*
X21445426Y-5973701D01*
G37*
G04 #@! TD.AperFunction*
G04 #@! TA.AperFunction,SMDPad,CuDef*
G36*
X21445426Y-5473701D02*
G01*
X21451493Y-5474601D01*
X21457443Y-5476091D01*
X21463218Y-5478158D01*
X21468762Y-5480780D01*
X21474023Y-5483933D01*
X21478950Y-5487587D01*
X21483494Y-5491706D01*
X21487613Y-5496250D01*
X21491267Y-5501177D01*
X21494420Y-5506438D01*
X21497042Y-5511982D01*
X21499109Y-5517757D01*
X21500599Y-5523707D01*
X21501499Y-5529774D01*
X21501800Y-5535900D01*
X21501800Y-5660900D01*
X21501499Y-5667026D01*
X21500599Y-5673093D01*
X21499109Y-5679043D01*
X21497042Y-5684818D01*
X21494420Y-5690362D01*
X21491267Y-5695623D01*
X21487613Y-5700550D01*
X21483494Y-5705094D01*
X21478950Y-5709213D01*
X21474023Y-5712867D01*
X21468762Y-5716020D01*
X21463218Y-5718642D01*
X21457443Y-5720709D01*
X21451493Y-5722199D01*
X21445426Y-5723099D01*
X21439300Y-5723400D01*
X20689300Y-5723400D01*
X20683174Y-5723099D01*
X20677107Y-5722199D01*
X20671157Y-5720709D01*
X20665382Y-5718642D01*
X20659838Y-5716020D01*
X20654577Y-5712867D01*
X20649650Y-5709213D01*
X20645106Y-5705094D01*
X20640987Y-5700550D01*
X20637333Y-5695623D01*
X20634180Y-5690362D01*
X20631558Y-5684818D01*
X20629491Y-5679043D01*
X20628001Y-5673093D01*
X20627101Y-5667026D01*
X20626800Y-5660900D01*
X20626800Y-5535900D01*
X20627101Y-5529774D01*
X20628001Y-5523707D01*
X20629491Y-5517757D01*
X20631558Y-5511982D01*
X20634180Y-5506438D01*
X20637333Y-5501177D01*
X20640987Y-5496250D01*
X20645106Y-5491706D01*
X20649650Y-5487587D01*
X20654577Y-5483933D01*
X20659838Y-5480780D01*
X20665382Y-5478158D01*
X20671157Y-5476091D01*
X20677107Y-5474601D01*
X20683174Y-5473701D01*
X20689300Y-5473400D01*
X21439300Y-5473400D01*
X21445426Y-5473701D01*
G37*
G04 #@! TD.AperFunction*
G04 #@! TA.AperFunction,SMDPad,CuDef*
G36*
X21445426Y-4973701D02*
G01*
X21451493Y-4974601D01*
X21457443Y-4976091D01*
X21463218Y-4978158D01*
X21468762Y-4980780D01*
X21474023Y-4983933D01*
X21478950Y-4987587D01*
X21483494Y-4991706D01*
X21487613Y-4996250D01*
X21491267Y-5001177D01*
X21494420Y-5006438D01*
X21497042Y-5011982D01*
X21499109Y-5017757D01*
X21500599Y-5023707D01*
X21501499Y-5029774D01*
X21501800Y-5035900D01*
X21501800Y-5160900D01*
X21501499Y-5167026D01*
X21500599Y-5173093D01*
X21499109Y-5179043D01*
X21497042Y-5184818D01*
X21494420Y-5190362D01*
X21491267Y-5195623D01*
X21487613Y-5200550D01*
X21483494Y-5205094D01*
X21478950Y-5209213D01*
X21474023Y-5212867D01*
X21468762Y-5216020D01*
X21463218Y-5218642D01*
X21457443Y-5220709D01*
X21451493Y-5222199D01*
X21445426Y-5223099D01*
X21439300Y-5223400D01*
X20689300Y-5223400D01*
X20683174Y-5223099D01*
X20677107Y-5222199D01*
X20671157Y-5220709D01*
X20665382Y-5218642D01*
X20659838Y-5216020D01*
X20654577Y-5212867D01*
X20649650Y-5209213D01*
X20645106Y-5205094D01*
X20640987Y-5200550D01*
X20637333Y-5195623D01*
X20634180Y-5190362D01*
X20631558Y-5184818D01*
X20629491Y-5179043D01*
X20628001Y-5173093D01*
X20627101Y-5167026D01*
X20626800Y-5160900D01*
X20626800Y-5035900D01*
X20627101Y-5029774D01*
X20628001Y-5023707D01*
X20629491Y-5017757D01*
X20631558Y-5011982D01*
X20634180Y-5006438D01*
X20637333Y-5001177D01*
X20640987Y-4996250D01*
X20645106Y-4991706D01*
X20649650Y-4987587D01*
X20654577Y-4983933D01*
X20659838Y-4980780D01*
X20665382Y-4978158D01*
X20671157Y-4976091D01*
X20677107Y-4974601D01*
X20683174Y-4973701D01*
X20689300Y-4973400D01*
X21439300Y-4973400D01*
X21445426Y-4973701D01*
G37*
G04 #@! TD.AperFunction*
G04 #@! TA.AperFunction,SMDPad,CuDef*
G36*
X15576800Y-6797798D02*
G01*
X15552266Y-6797798D01*
X15503435Y-6792988D01*
X15455310Y-6783416D01*
X15408355Y-6769172D01*
X15363022Y-6750395D01*
X15319749Y-6727264D01*
X15278950Y-6700004D01*
X15241021Y-6668876D01*
X15206324Y-6634179D01*
X15175196Y-6596250D01*
X15147936Y-6555451D01*
X15124805Y-6512178D01*
X15106028Y-6466845D01*
X15091784Y-6419890D01*
X15082212Y-6371765D01*
X15077402Y-6322934D01*
X15077402Y-6298400D01*
X15076800Y-6298400D01*
X15076800Y-5798400D01*
X15077402Y-5798400D01*
X15077402Y-5773866D01*
X15082212Y-5725035D01*
X15091784Y-5676910D01*
X15106028Y-5629955D01*
X15124805Y-5584622D01*
X15147936Y-5541349D01*
X15175196Y-5500550D01*
X15206324Y-5462621D01*
X15241021Y-5427924D01*
X15278950Y-5396796D01*
X15319749Y-5369536D01*
X15363022Y-5346405D01*
X15408355Y-5327628D01*
X15455310Y-5313384D01*
X15503435Y-5303812D01*
X15552266Y-5299002D01*
X15576800Y-5299002D01*
X15576800Y-5298400D01*
X16076800Y-5298400D01*
X16076800Y-6798400D01*
X15576800Y-6798400D01*
X15576800Y-6797798D01*
G37*
G04 #@! TD.AperFunction*
G04 #@! TA.AperFunction,SMDPad,CuDef*
G36*
X16376800Y-5298400D02*
G01*
X16876800Y-5298400D01*
X16876800Y-5299002D01*
X16901334Y-5299002D01*
X16950165Y-5303812D01*
X16998290Y-5313384D01*
X17045245Y-5327628D01*
X17090578Y-5346405D01*
X17133851Y-5369536D01*
X17174650Y-5396796D01*
X17212579Y-5427924D01*
X17247276Y-5462621D01*
X17278404Y-5500550D01*
X17305664Y-5541349D01*
X17328795Y-5584622D01*
X17347572Y-5629955D01*
X17361816Y-5676910D01*
X17371388Y-5725035D01*
X17376198Y-5773866D01*
X17376198Y-5798400D01*
X17376800Y-5798400D01*
X17376800Y-6298400D01*
X17376198Y-6298400D01*
X17376198Y-6322934D01*
X17371388Y-6371765D01*
X17361816Y-6419890D01*
X17347572Y-6466845D01*
X17328795Y-6512178D01*
X17305664Y-6555451D01*
X17278404Y-6596250D01*
X17247276Y-6634179D01*
X17212579Y-6668876D01*
X17174650Y-6700004D01*
X17133851Y-6727264D01*
X17090578Y-6750395D01*
X17045245Y-6769172D01*
X16998290Y-6783416D01*
X16950165Y-6792988D01*
X16901334Y-6797798D01*
X16876800Y-6797798D01*
X16876800Y-6798400D01*
X16376800Y-6798400D01*
X16376800Y-5298400D01*
G37*
G04 #@! TD.AperFunction*
G04 #@! TA.AperFunction,SMDPad,CuDef*
G36*
X15576800Y-4147798D02*
G01*
X15552266Y-4147798D01*
X15503435Y-4142988D01*
X15455310Y-4133416D01*
X15408355Y-4119172D01*
X15363022Y-4100395D01*
X15319749Y-4077264D01*
X15278950Y-4050004D01*
X15241021Y-4018876D01*
X15206324Y-3984179D01*
X15175196Y-3946250D01*
X15147936Y-3905451D01*
X15124805Y-3862178D01*
X15106028Y-3816845D01*
X15091784Y-3769890D01*
X15082212Y-3721765D01*
X15077402Y-3672934D01*
X15077402Y-3648400D01*
X15076800Y-3648400D01*
X15076800Y-3148400D01*
X15077402Y-3148400D01*
X15077402Y-3123866D01*
X15082212Y-3075035D01*
X15091784Y-3026910D01*
X15106028Y-2979955D01*
X15124805Y-2934622D01*
X15147936Y-2891349D01*
X15175196Y-2850550D01*
X15206324Y-2812621D01*
X15241021Y-2777924D01*
X15278950Y-2746796D01*
X15319749Y-2719536D01*
X15363022Y-2696405D01*
X15408355Y-2677628D01*
X15455310Y-2663384D01*
X15503435Y-2653812D01*
X15552266Y-2649002D01*
X15576800Y-2649002D01*
X15576800Y-2648400D01*
X16076800Y-2648400D01*
X16076800Y-4148400D01*
X15576800Y-4148400D01*
X15576800Y-4147798D01*
G37*
G04 #@! TD.AperFunction*
G04 #@! TA.AperFunction,SMDPad,CuDef*
G36*
X16376800Y-2648400D02*
G01*
X16876800Y-2648400D01*
X16876800Y-2649002D01*
X16901334Y-2649002D01*
X16950165Y-2653812D01*
X16998290Y-2663384D01*
X17045245Y-2677628D01*
X17090578Y-2696405D01*
X17133851Y-2719536D01*
X17174650Y-2746796D01*
X17212579Y-2777924D01*
X17247276Y-2812621D01*
X17278404Y-2850550D01*
X17305664Y-2891349D01*
X17328795Y-2934622D01*
X17347572Y-2979955D01*
X17361816Y-3026910D01*
X17371388Y-3075035D01*
X17376198Y-3123866D01*
X17376198Y-3148400D01*
X17376800Y-3148400D01*
X17376800Y-3648400D01*
X17376198Y-3648400D01*
X17376198Y-3672934D01*
X17371388Y-3721765D01*
X17361816Y-3769890D01*
X17347572Y-3816845D01*
X17328795Y-3862178D01*
X17305664Y-3905451D01*
X17278404Y-3946250D01*
X17247276Y-3984179D01*
X17212579Y-4018876D01*
X17174650Y-4050004D01*
X17133851Y-4077264D01*
X17090578Y-4100395D01*
X17045245Y-4119172D01*
X16998290Y-4133416D01*
X16950165Y-4142988D01*
X16901334Y-4147798D01*
X16876800Y-4147798D01*
X16876800Y-4148400D01*
X16376800Y-4148400D01*
X16376800Y-2648400D01*
G37*
G04 #@! TD.AperFunction*
D14*
X27416800Y-25528400D03*
X24876800Y-25528400D03*
X27416800Y-22988400D03*
X24876800Y-22988400D03*
X27416800Y-20448400D03*
D15*
X24876800Y-20448400D03*
G04 #@! TA.AperFunction,SMDPad,CuDef*
D12*
G36*
X20091491Y975547D02*
G01*
X20112726Y972397D01*
X20133550Y967181D01*
X20153762Y959949D01*
X20173168Y950770D01*
X20191581Y939734D01*
X20208824Y926946D01*
X20224730Y912530D01*
X20239146Y896624D01*
X20251934Y879381D01*
X20262970Y860968D01*
X20272149Y841562D01*
X20279381Y821350D01*
X20284597Y800526D01*
X20287747Y779291D01*
X20288800Y757850D01*
X20288800Y245350D01*
X20287747Y223909D01*
X20284597Y202674D01*
X20279381Y181850D01*
X20272149Y161638D01*
X20262970Y142232D01*
X20251934Y123819D01*
X20239146Y106576D01*
X20224730Y90670D01*
X20208824Y76254D01*
X20191581Y63466D01*
X20173168Y52430D01*
X20153762Y43251D01*
X20133550Y36019D01*
X20112726Y30803D01*
X20091491Y27653D01*
X20070050Y26600D01*
X19632550Y26600D01*
X19611109Y27653D01*
X19589874Y30803D01*
X19569050Y36019D01*
X19548838Y43251D01*
X19529432Y52430D01*
X19511019Y63466D01*
X19493776Y76254D01*
X19477870Y90670D01*
X19463454Y106576D01*
X19450666Y123819D01*
X19439630Y142232D01*
X19430451Y161638D01*
X19423219Y181850D01*
X19418003Y202674D01*
X19414853Y223909D01*
X19413800Y245350D01*
X19413800Y757850D01*
X19414853Y779291D01*
X19418003Y800526D01*
X19423219Y821350D01*
X19430451Y841562D01*
X19439630Y860968D01*
X19450666Y879381D01*
X19463454Y896624D01*
X19477870Y912530D01*
X19493776Y926946D01*
X19511019Y939734D01*
X19529432Y950770D01*
X19548838Y959949D01*
X19569050Y967181D01*
X19589874Y972397D01*
X19611109Y975547D01*
X19632550Y976600D01*
X20070050Y976600D01*
X20091491Y975547D01*
G37*
G04 #@! TD.AperFunction*
G04 #@! TA.AperFunction,SMDPad,CuDef*
G36*
X18516491Y975547D02*
G01*
X18537726Y972397D01*
X18558550Y967181D01*
X18578762Y959949D01*
X18598168Y950770D01*
X18616581Y939734D01*
X18633824Y926946D01*
X18649730Y912530D01*
X18664146Y896624D01*
X18676934Y879381D01*
X18687970Y860968D01*
X18697149Y841562D01*
X18704381Y821350D01*
X18709597Y800526D01*
X18712747Y779291D01*
X18713800Y757850D01*
X18713800Y245350D01*
X18712747Y223909D01*
X18709597Y202674D01*
X18704381Y181850D01*
X18697149Y161638D01*
X18687970Y142232D01*
X18676934Y123819D01*
X18664146Y106576D01*
X18649730Y90670D01*
X18633824Y76254D01*
X18616581Y63466D01*
X18598168Y52430D01*
X18578762Y43251D01*
X18558550Y36019D01*
X18537726Y30803D01*
X18516491Y27653D01*
X18495050Y26600D01*
X18057550Y26600D01*
X18036109Y27653D01*
X18014874Y30803D01*
X17994050Y36019D01*
X17973838Y43251D01*
X17954432Y52430D01*
X17936019Y63466D01*
X17918776Y76254D01*
X17902870Y90670D01*
X17888454Y106576D01*
X17875666Y123819D01*
X17864630Y142232D01*
X17855451Y161638D01*
X17848219Y181850D01*
X17843003Y202674D01*
X17839853Y223909D01*
X17838800Y245350D01*
X17838800Y757850D01*
X17839853Y779291D01*
X17843003Y800526D01*
X17848219Y821350D01*
X17855451Y841562D01*
X17864630Y860968D01*
X17875666Y879381D01*
X17888454Y896624D01*
X17902870Y912530D01*
X17918776Y926946D01*
X17936019Y939734D01*
X17954432Y950770D01*
X17973838Y959949D01*
X17994050Y967181D01*
X18014874Y972397D01*
X18036109Y975547D01*
X18057550Y976600D01*
X18495050Y976600D01*
X18516491Y975547D01*
G37*
G04 #@! TD.AperFunction*
G04 #@! TA.AperFunction,SMDPad,CuDef*
G36*
X15041491Y925547D02*
G01*
X15062726Y922397D01*
X15083550Y917181D01*
X15103762Y909949D01*
X15123168Y900770D01*
X15141581Y889734D01*
X15158824Y876946D01*
X15174730Y862530D01*
X15189146Y846624D01*
X15201934Y829381D01*
X15212970Y810968D01*
X15222149Y791562D01*
X15229381Y771350D01*
X15234597Y750526D01*
X15237747Y729291D01*
X15238800Y707850D01*
X15238800Y195350D01*
X15237747Y173909D01*
X15234597Y152674D01*
X15229381Y131850D01*
X15222149Y111638D01*
X15212970Y92232D01*
X15201934Y73819D01*
X15189146Y56576D01*
X15174730Y40670D01*
X15158824Y26254D01*
X15141581Y13466D01*
X15123168Y2430D01*
X15103762Y-6749D01*
X15083550Y-13981D01*
X15062726Y-19197D01*
X15041491Y-22347D01*
X15020050Y-23400D01*
X14582550Y-23400D01*
X14561109Y-22347D01*
X14539874Y-19197D01*
X14519050Y-13981D01*
X14498838Y-6749D01*
X14479432Y2430D01*
X14461019Y13466D01*
X14443776Y26254D01*
X14427870Y40670D01*
X14413454Y56576D01*
X14400666Y73819D01*
X14389630Y92232D01*
X14380451Y111638D01*
X14373219Y131850D01*
X14368003Y152674D01*
X14364853Y173909D01*
X14363800Y195350D01*
X14363800Y707850D01*
X14364853Y729291D01*
X14368003Y750526D01*
X14373219Y771350D01*
X14380451Y791562D01*
X14389630Y810968D01*
X14400666Y829381D01*
X14413454Y846624D01*
X14427870Y862530D01*
X14443776Y876946D01*
X14461019Y889734D01*
X14479432Y900770D01*
X14498838Y909949D01*
X14519050Y917181D01*
X14539874Y922397D01*
X14561109Y925547D01*
X14582550Y926600D01*
X15020050Y926600D01*
X15041491Y925547D01*
G37*
G04 #@! TD.AperFunction*
G04 #@! TA.AperFunction,SMDPad,CuDef*
G36*
X16616491Y925547D02*
G01*
X16637726Y922397D01*
X16658550Y917181D01*
X16678762Y909949D01*
X16698168Y900770D01*
X16716581Y889734D01*
X16733824Y876946D01*
X16749730Y862530D01*
X16764146Y846624D01*
X16776934Y829381D01*
X16787970Y810968D01*
X16797149Y791562D01*
X16804381Y771350D01*
X16809597Y750526D01*
X16812747Y729291D01*
X16813800Y707850D01*
X16813800Y195350D01*
X16812747Y173909D01*
X16809597Y152674D01*
X16804381Y131850D01*
X16797149Y111638D01*
X16787970Y92232D01*
X16776934Y73819D01*
X16764146Y56576D01*
X16749730Y40670D01*
X16733824Y26254D01*
X16716581Y13466D01*
X16698168Y2430D01*
X16678762Y-6749D01*
X16658550Y-13981D01*
X16637726Y-19197D01*
X16616491Y-22347D01*
X16595050Y-23400D01*
X16157550Y-23400D01*
X16136109Y-22347D01*
X16114874Y-19197D01*
X16094050Y-13981D01*
X16073838Y-6749D01*
X16054432Y2430D01*
X16036019Y13466D01*
X16018776Y26254D01*
X16002870Y40670D01*
X15988454Y56576D01*
X15975666Y73819D01*
X15964630Y92232D01*
X15955451Y111638D01*
X15948219Y131850D01*
X15943003Y152674D01*
X15939853Y173909D01*
X15938800Y195350D01*
X15938800Y707850D01*
X15939853Y729291D01*
X15943003Y750526D01*
X15948219Y771350D01*
X15955451Y791562D01*
X15964630Y810968D01*
X15975666Y829381D01*
X15988454Y846624D01*
X16002870Y862530D01*
X16018776Y876946D01*
X16036019Y889734D01*
X16054432Y900770D01*
X16073838Y909949D01*
X16094050Y917181D01*
X16114874Y922397D01*
X16136109Y925547D01*
X16157550Y926600D01*
X16595050Y926600D01*
X16616491Y925547D01*
G37*
G04 #@! TD.AperFunction*
G04 #@! TA.AperFunction,SMDPad,CuDef*
G36*
X13993942Y-24949574D02*
G01*
X14017603Y-24953084D01*
X14040807Y-24958896D01*
X14063329Y-24966954D01*
X14084953Y-24977182D01*
X14105470Y-24989479D01*
X14124683Y-25003729D01*
X14142407Y-25019793D01*
X14158471Y-25037517D01*
X14172721Y-25056730D01*
X14185018Y-25077247D01*
X14195246Y-25098871D01*
X14203304Y-25121393D01*
X14209116Y-25144597D01*
X14212626Y-25168258D01*
X14213800Y-25192150D01*
X14213800Y-26104650D01*
X14212626Y-26128542D01*
X14209116Y-26152203D01*
X14203304Y-26175407D01*
X14195246Y-26197929D01*
X14185018Y-26219553D01*
X14172721Y-26240070D01*
X14158471Y-26259283D01*
X14142407Y-26277007D01*
X14124683Y-26293071D01*
X14105470Y-26307321D01*
X14084953Y-26319618D01*
X14063329Y-26329846D01*
X14040807Y-26337904D01*
X14017603Y-26343716D01*
X13993942Y-26347226D01*
X13970050Y-26348400D01*
X13482550Y-26348400D01*
X13458658Y-26347226D01*
X13434997Y-26343716D01*
X13411793Y-26337904D01*
X13389271Y-26329846D01*
X13367647Y-26319618D01*
X13347130Y-26307321D01*
X13327917Y-26293071D01*
X13310193Y-26277007D01*
X13294129Y-26259283D01*
X13279879Y-26240070D01*
X13267582Y-26219553D01*
X13257354Y-26197929D01*
X13249296Y-26175407D01*
X13243484Y-26152203D01*
X13239974Y-26128542D01*
X13238800Y-26104650D01*
X13238800Y-25192150D01*
X13239974Y-25168258D01*
X13243484Y-25144597D01*
X13249296Y-25121393D01*
X13257354Y-25098871D01*
X13267582Y-25077247D01*
X13279879Y-25056730D01*
X13294129Y-25037517D01*
X13310193Y-25019793D01*
X13327917Y-25003729D01*
X13347130Y-24989479D01*
X13367647Y-24977182D01*
X13389271Y-24966954D01*
X13411793Y-24958896D01*
X13434997Y-24953084D01*
X13458658Y-24949574D01*
X13482550Y-24948400D01*
X13970050Y-24948400D01*
X13993942Y-24949574D01*
G37*
G04 #@! TD.AperFunction*
G04 #@! TA.AperFunction,SMDPad,CuDef*
G36*
X15868942Y-24949574D02*
G01*
X15892603Y-24953084D01*
X15915807Y-24958896D01*
X15938329Y-24966954D01*
X15959953Y-24977182D01*
X15980470Y-24989479D01*
X15999683Y-25003729D01*
X16017407Y-25019793D01*
X16033471Y-25037517D01*
X16047721Y-25056730D01*
X16060018Y-25077247D01*
X16070246Y-25098871D01*
X16078304Y-25121393D01*
X16084116Y-25144597D01*
X16087626Y-25168258D01*
X16088800Y-25192150D01*
X16088800Y-26104650D01*
X16087626Y-26128542D01*
X16084116Y-26152203D01*
X16078304Y-26175407D01*
X16070246Y-26197929D01*
X16060018Y-26219553D01*
X16047721Y-26240070D01*
X16033471Y-26259283D01*
X16017407Y-26277007D01*
X15999683Y-26293071D01*
X15980470Y-26307321D01*
X15959953Y-26319618D01*
X15938329Y-26329846D01*
X15915807Y-26337904D01*
X15892603Y-26343716D01*
X15868942Y-26347226D01*
X15845050Y-26348400D01*
X15357550Y-26348400D01*
X15333658Y-26347226D01*
X15309997Y-26343716D01*
X15286793Y-26337904D01*
X15264271Y-26329846D01*
X15242647Y-26319618D01*
X15222130Y-26307321D01*
X15202917Y-26293071D01*
X15185193Y-26277007D01*
X15169129Y-26259283D01*
X15154879Y-26240070D01*
X15142582Y-26219553D01*
X15132354Y-26197929D01*
X15124296Y-26175407D01*
X15118484Y-26152203D01*
X15114974Y-26128542D01*
X15113800Y-26104650D01*
X15113800Y-25192150D01*
X15114974Y-25168258D01*
X15118484Y-25144597D01*
X15124296Y-25121393D01*
X15132354Y-25098871D01*
X15142582Y-25077247D01*
X15154879Y-25056730D01*
X15169129Y-25037517D01*
X15185193Y-25019793D01*
X15202917Y-25003729D01*
X15222130Y-24989479D01*
X15242647Y-24977182D01*
X15264271Y-24966954D01*
X15286793Y-24958896D01*
X15309997Y-24953084D01*
X15333658Y-24949574D01*
X15357550Y-24948400D01*
X15845050Y-24948400D01*
X15868942Y-24949574D01*
G37*
G04 #@! TD.AperFunction*
G04 #@! TA.AperFunction,SMDPad,CuDef*
G36*
X19266491Y-24849453D02*
G01*
X19287726Y-24852603D01*
X19308550Y-24857819D01*
X19328762Y-24865051D01*
X19348168Y-24874230D01*
X19366581Y-24885266D01*
X19383824Y-24898054D01*
X19399730Y-24912470D01*
X19414146Y-24928376D01*
X19426934Y-24945619D01*
X19437970Y-24964032D01*
X19447149Y-24983438D01*
X19454381Y-25003650D01*
X19459597Y-25024474D01*
X19462747Y-25045709D01*
X19463800Y-25067150D01*
X19463800Y-25579650D01*
X19462747Y-25601091D01*
X19459597Y-25622326D01*
X19454381Y-25643150D01*
X19447149Y-25663362D01*
X19437970Y-25682768D01*
X19426934Y-25701181D01*
X19414146Y-25718424D01*
X19399730Y-25734330D01*
X19383824Y-25748746D01*
X19366581Y-25761534D01*
X19348168Y-25772570D01*
X19328762Y-25781749D01*
X19308550Y-25788981D01*
X19287726Y-25794197D01*
X19266491Y-25797347D01*
X19245050Y-25798400D01*
X18807550Y-25798400D01*
X18786109Y-25797347D01*
X18764874Y-25794197D01*
X18744050Y-25788981D01*
X18723838Y-25781749D01*
X18704432Y-25772570D01*
X18686019Y-25761534D01*
X18668776Y-25748746D01*
X18652870Y-25734330D01*
X18638454Y-25718424D01*
X18625666Y-25701181D01*
X18614630Y-25682768D01*
X18605451Y-25663362D01*
X18598219Y-25643150D01*
X18593003Y-25622326D01*
X18589853Y-25601091D01*
X18588800Y-25579650D01*
X18588800Y-25067150D01*
X18589853Y-25045709D01*
X18593003Y-25024474D01*
X18598219Y-25003650D01*
X18605451Y-24983438D01*
X18614630Y-24964032D01*
X18625666Y-24945619D01*
X18638454Y-24928376D01*
X18652870Y-24912470D01*
X18668776Y-24898054D01*
X18686019Y-24885266D01*
X18704432Y-24874230D01*
X18723838Y-24865051D01*
X18744050Y-24857819D01*
X18764874Y-24852603D01*
X18786109Y-24849453D01*
X18807550Y-24848400D01*
X19245050Y-24848400D01*
X19266491Y-24849453D01*
G37*
G04 #@! TD.AperFunction*
G04 #@! TA.AperFunction,SMDPad,CuDef*
G36*
X17691491Y-24849453D02*
G01*
X17712726Y-24852603D01*
X17733550Y-24857819D01*
X17753762Y-24865051D01*
X17773168Y-24874230D01*
X17791581Y-24885266D01*
X17808824Y-24898054D01*
X17824730Y-24912470D01*
X17839146Y-24928376D01*
X17851934Y-24945619D01*
X17862970Y-24964032D01*
X17872149Y-24983438D01*
X17879381Y-25003650D01*
X17884597Y-25024474D01*
X17887747Y-25045709D01*
X17888800Y-25067150D01*
X17888800Y-25579650D01*
X17887747Y-25601091D01*
X17884597Y-25622326D01*
X17879381Y-25643150D01*
X17872149Y-25663362D01*
X17862970Y-25682768D01*
X17851934Y-25701181D01*
X17839146Y-25718424D01*
X17824730Y-25734330D01*
X17808824Y-25748746D01*
X17791581Y-25761534D01*
X17773168Y-25772570D01*
X17753762Y-25781749D01*
X17733550Y-25788981D01*
X17712726Y-25794197D01*
X17691491Y-25797347D01*
X17670050Y-25798400D01*
X17232550Y-25798400D01*
X17211109Y-25797347D01*
X17189874Y-25794197D01*
X17169050Y-25788981D01*
X17148838Y-25781749D01*
X17129432Y-25772570D01*
X17111019Y-25761534D01*
X17093776Y-25748746D01*
X17077870Y-25734330D01*
X17063454Y-25718424D01*
X17050666Y-25701181D01*
X17039630Y-25682768D01*
X17030451Y-25663362D01*
X17023219Y-25643150D01*
X17018003Y-25622326D01*
X17014853Y-25601091D01*
X17013800Y-25579650D01*
X17013800Y-25067150D01*
X17014853Y-25045709D01*
X17018003Y-25024474D01*
X17023219Y-25003650D01*
X17030451Y-24983438D01*
X17039630Y-24964032D01*
X17050666Y-24945619D01*
X17063454Y-24928376D01*
X17077870Y-24912470D01*
X17093776Y-24898054D01*
X17111019Y-24885266D01*
X17129432Y-24874230D01*
X17148838Y-24865051D01*
X17169050Y-24857819D01*
X17189874Y-24852603D01*
X17211109Y-24849453D01*
X17232550Y-24848400D01*
X17670050Y-24848400D01*
X17691491Y-24849453D01*
G37*
G04 #@! TD.AperFunction*
D16*
X18526800Y-15948400D03*
X18526800Y-16598400D03*
X18526800Y-17248400D03*
X18526800Y-17898400D03*
X18526800Y-18548400D03*
X18526800Y-19198400D03*
X18526800Y-19848400D03*
X18526800Y-20498400D03*
X18526800Y-21148400D03*
X18526800Y-21798400D03*
X18526800Y-22448400D03*
X18526800Y-23098400D03*
X11326800Y-23098400D03*
X11326800Y-22448400D03*
X11326800Y-21798400D03*
X11326800Y-21148400D03*
X11326800Y-20498400D03*
X11326800Y-19848400D03*
X11326800Y-19198400D03*
X11326800Y-18548400D03*
X11326800Y-17898400D03*
X11326800Y-17248400D03*
X11326800Y-16598400D03*
X11326800Y-15948400D03*
G04 #@! TA.AperFunction,SMDPad,CuDef*
D12*
G36*
X27876800Y4725998D02*
G01*
X27901334Y4725998D01*
X27950165Y4721188D01*
X27998290Y4711616D01*
X28045245Y4697372D01*
X28090578Y4678595D01*
X28133851Y4655464D01*
X28174650Y4628204D01*
X28212579Y4597076D01*
X28247276Y4562379D01*
X28278404Y4524450D01*
X28305664Y4483651D01*
X28328795Y4440378D01*
X28347572Y4395045D01*
X28361816Y4348090D01*
X28371388Y4299965D01*
X28376198Y4251134D01*
X28376198Y4226600D01*
X28376800Y4226600D01*
X28376800Y3726600D01*
X28376198Y3726600D01*
X28376198Y3702066D01*
X28371388Y3653235D01*
X28361816Y3605110D01*
X28347572Y3558155D01*
X28328795Y3512822D01*
X28305664Y3469549D01*
X28278404Y3428750D01*
X28247276Y3390821D01*
X28212579Y3356124D01*
X28174650Y3324996D01*
X28133851Y3297736D01*
X28090578Y3274605D01*
X28045245Y3255828D01*
X27998290Y3241584D01*
X27950165Y3232012D01*
X27901334Y3227202D01*
X27876800Y3227202D01*
X27876800Y3226600D01*
X27376800Y3226600D01*
X27376800Y4726600D01*
X27876800Y4726600D01*
X27876800Y4725998D01*
G37*
G04 #@! TD.AperFunction*
G04 #@! TA.AperFunction,SMDPad,CuDef*
G36*
X27076800Y3226600D02*
G01*
X26576800Y3226600D01*
X26576800Y3227202D01*
X26552266Y3227202D01*
X26503435Y3232012D01*
X26455310Y3241584D01*
X26408355Y3255828D01*
X26363022Y3274605D01*
X26319749Y3297736D01*
X26278950Y3324996D01*
X26241021Y3356124D01*
X26206324Y3390821D01*
X26175196Y3428750D01*
X26147936Y3469549D01*
X26124805Y3512822D01*
X26106028Y3558155D01*
X26091784Y3605110D01*
X26082212Y3653235D01*
X26077402Y3702066D01*
X26077402Y3726600D01*
X26076800Y3726600D01*
X26076800Y4226600D01*
X26077402Y4226600D01*
X26077402Y4251134D01*
X26082212Y4299965D01*
X26091784Y4348090D01*
X26106028Y4395045D01*
X26124805Y4440378D01*
X26147936Y4483651D01*
X26175196Y4524450D01*
X26206324Y4562379D01*
X26241021Y4597076D01*
X26278950Y4628204D01*
X26319749Y4655464D01*
X26363022Y4678595D01*
X26408355Y4697372D01*
X26455310Y4711616D01*
X26503435Y4721188D01*
X26552266Y4725998D01*
X26576800Y4725998D01*
X26576800Y4726600D01*
X27076800Y4726600D01*
X27076800Y3226600D01*
G37*
G04 #@! TD.AperFunction*
G04 #@! TA.AperFunction,SMDPad,CuDef*
G36*
X23751800Y3226600D02*
G01*
X23251800Y3226600D01*
X23251800Y3227202D01*
X23227266Y3227202D01*
X23178435Y3232012D01*
X23130310Y3241584D01*
X23083355Y3255828D01*
X23038022Y3274605D01*
X22994749Y3297736D01*
X22953950Y3324996D01*
X22916021Y3356124D01*
X22881324Y3390821D01*
X22850196Y3428750D01*
X22822936Y3469549D01*
X22799805Y3512822D01*
X22781028Y3558155D01*
X22766784Y3605110D01*
X22757212Y3653235D01*
X22752402Y3702066D01*
X22752402Y3726600D01*
X22751800Y3726600D01*
X22751800Y4226600D01*
X22752402Y4226600D01*
X22752402Y4251134D01*
X22757212Y4299965D01*
X22766784Y4348090D01*
X22781028Y4395045D01*
X22799805Y4440378D01*
X22822936Y4483651D01*
X22850196Y4524450D01*
X22881324Y4562379D01*
X22916021Y4597076D01*
X22953950Y4628204D01*
X22994749Y4655464D01*
X23038022Y4678595D01*
X23083355Y4697372D01*
X23130310Y4711616D01*
X23178435Y4721188D01*
X23227266Y4725998D01*
X23251800Y4725998D01*
X23251800Y4726600D01*
X23751800Y4726600D01*
X23751800Y3226600D01*
G37*
G04 #@! TD.AperFunction*
G04 #@! TA.AperFunction,SMDPad,CuDef*
G36*
X24551800Y4725998D02*
G01*
X24576334Y4725998D01*
X24625165Y4721188D01*
X24673290Y4711616D01*
X24720245Y4697372D01*
X24765578Y4678595D01*
X24808851Y4655464D01*
X24849650Y4628204D01*
X24887579Y4597076D01*
X24922276Y4562379D01*
X24953404Y4524450D01*
X24980664Y4483651D01*
X25003795Y4440378D01*
X25022572Y4395045D01*
X25036816Y4348090D01*
X25046388Y4299965D01*
X25051198Y4251134D01*
X25051198Y4226600D01*
X25051800Y4226600D01*
X25051800Y3726600D01*
X25051198Y3726600D01*
X25051198Y3702066D01*
X25046388Y3653235D01*
X25036816Y3605110D01*
X25022572Y3558155D01*
X25003795Y3512822D01*
X24980664Y3469549D01*
X24953404Y3428750D01*
X24922276Y3390821D01*
X24887579Y3356124D01*
X24849650Y3324996D01*
X24808851Y3297736D01*
X24765578Y3274605D01*
X24720245Y3255828D01*
X24673290Y3241584D01*
X24625165Y3232012D01*
X24576334Y3227202D01*
X24551800Y3227202D01*
X24551800Y3226600D01*
X24051800Y3226600D01*
X24051800Y4726600D01*
X24551800Y4726600D01*
X24551800Y4725998D01*
G37*
G04 #@! TD.AperFunction*
D17*
X5876800Y-27513400D03*
D18*
X5876800Y-12273400D03*
D17*
X5876800Y-22433400D03*
X5876800Y-17353400D03*
G04 #@! TA.AperFunction,SMDPad,CuDef*
D12*
G36*
X29604491Y-5511953D02*
G01*
X29625726Y-5515103D01*
X29646550Y-5520319D01*
X29666762Y-5527551D01*
X29686168Y-5536730D01*
X29704581Y-5547766D01*
X29721824Y-5560554D01*
X29737730Y-5574970D01*
X29752146Y-5590876D01*
X29764934Y-5608119D01*
X29775970Y-5626532D01*
X29785149Y-5645938D01*
X29792381Y-5666150D01*
X29797597Y-5686974D01*
X29800747Y-5708209D01*
X29801800Y-5729650D01*
X29801800Y-6167150D01*
X29800747Y-6188591D01*
X29797597Y-6209826D01*
X29792381Y-6230650D01*
X29785149Y-6250862D01*
X29775970Y-6270268D01*
X29764934Y-6288681D01*
X29752146Y-6305924D01*
X29737730Y-6321830D01*
X29721824Y-6336246D01*
X29704581Y-6349034D01*
X29686168Y-6360070D01*
X29666762Y-6369249D01*
X29646550Y-6376481D01*
X29625726Y-6381697D01*
X29604491Y-6384847D01*
X29583050Y-6385900D01*
X29070550Y-6385900D01*
X29049109Y-6384847D01*
X29027874Y-6381697D01*
X29007050Y-6376481D01*
X28986838Y-6369249D01*
X28967432Y-6360070D01*
X28949019Y-6349034D01*
X28931776Y-6336246D01*
X28915870Y-6321830D01*
X28901454Y-6305924D01*
X28888666Y-6288681D01*
X28877630Y-6270268D01*
X28868451Y-6250862D01*
X28861219Y-6230650D01*
X28856003Y-6209826D01*
X28852853Y-6188591D01*
X28851800Y-6167150D01*
X28851800Y-5729650D01*
X28852853Y-5708209D01*
X28856003Y-5686974D01*
X28861219Y-5666150D01*
X28868451Y-5645938D01*
X28877630Y-5626532D01*
X28888666Y-5608119D01*
X28901454Y-5590876D01*
X28915870Y-5574970D01*
X28931776Y-5560554D01*
X28949019Y-5547766D01*
X28967432Y-5536730D01*
X28986838Y-5527551D01*
X29007050Y-5520319D01*
X29027874Y-5515103D01*
X29049109Y-5511953D01*
X29070550Y-5510900D01*
X29583050Y-5510900D01*
X29604491Y-5511953D01*
G37*
G04 #@! TD.AperFunction*
G04 #@! TA.AperFunction,SMDPad,CuDef*
G36*
X29604491Y-7086953D02*
G01*
X29625726Y-7090103D01*
X29646550Y-7095319D01*
X29666762Y-7102551D01*
X29686168Y-7111730D01*
X29704581Y-7122766D01*
X29721824Y-7135554D01*
X29737730Y-7149970D01*
X29752146Y-7165876D01*
X29764934Y-7183119D01*
X29775970Y-7201532D01*
X29785149Y-7220938D01*
X29792381Y-7241150D01*
X29797597Y-7261974D01*
X29800747Y-7283209D01*
X29801800Y-7304650D01*
X29801800Y-7742150D01*
X29800747Y-7763591D01*
X29797597Y-7784826D01*
X29792381Y-7805650D01*
X29785149Y-7825862D01*
X29775970Y-7845268D01*
X29764934Y-7863681D01*
X29752146Y-7880924D01*
X29737730Y-7896830D01*
X29721824Y-7911246D01*
X29704581Y-7924034D01*
X29686168Y-7935070D01*
X29666762Y-7944249D01*
X29646550Y-7951481D01*
X29625726Y-7956697D01*
X29604491Y-7959847D01*
X29583050Y-7960900D01*
X29070550Y-7960900D01*
X29049109Y-7959847D01*
X29027874Y-7956697D01*
X29007050Y-7951481D01*
X28986838Y-7944249D01*
X28967432Y-7935070D01*
X28949019Y-7924034D01*
X28931776Y-7911246D01*
X28915870Y-7896830D01*
X28901454Y-7880924D01*
X28888666Y-7863681D01*
X28877630Y-7845268D01*
X28868451Y-7825862D01*
X28861219Y-7805650D01*
X28856003Y-7784826D01*
X28852853Y-7763591D01*
X28851800Y-7742150D01*
X28851800Y-7304650D01*
X28852853Y-7283209D01*
X28856003Y-7261974D01*
X28861219Y-7241150D01*
X28868451Y-7220938D01*
X28877630Y-7201532D01*
X28888666Y-7183119D01*
X28901454Y-7165876D01*
X28915870Y-7149970D01*
X28931776Y-7135554D01*
X28949019Y-7122766D01*
X28967432Y-7111730D01*
X28986838Y-7102551D01*
X29007050Y-7095319D01*
X29027874Y-7090103D01*
X29049109Y-7086953D01*
X29070550Y-7085900D01*
X29583050Y-7085900D01*
X29604491Y-7086953D01*
G37*
G04 #@! TD.AperFunction*
D19*
X36752800Y5949800D03*
X36752800Y4679800D03*
X36752800Y3409800D03*
X36752800Y2139800D03*
X36752800Y869800D03*
X36752800Y-400200D03*
X36752800Y-1670200D03*
X36752800Y-2940200D03*
X36752800Y-4210200D03*
X36752800Y-5480200D03*
X36752800Y-6750200D03*
X36752800Y-8020200D03*
X36752800Y-9290200D03*
X36752800Y-10560200D03*
X36752800Y-11830200D03*
X36752800Y-13100200D03*
X36752800Y-14370200D03*
X36752800Y-15640200D03*
X36752800Y-16910200D03*
X36752800Y-18180200D03*
X36752800Y-19450200D03*
X36752800Y-20720200D03*
X36752800Y-21990200D03*
X36752800Y-23260200D03*
X36752800Y-24530200D03*
X36752800Y-25800200D03*
X36752800Y-27070200D03*
X36752800Y-28340200D03*
X36752800Y-29610200D03*
X36752800Y-30880200D03*
D20*
X23501800Y-6848400D03*
X21351600Y-2723400D03*
X29576600Y-373400D03*
X31226600Y-10248400D03*
X35001600Y-27623400D03*
X29226600Y5876600D03*
X10626600Y-38048400D03*
X46426600Y-38073400D03*
X10626600Y12926600D03*
X46476600Y13076600D03*
X39151600Y701600D03*
X39251600Y-25848400D03*
X20238400Y-15944700D03*
X21572300Y-22348800D03*
X16690100Y-7575700D03*
X19955700Y-7704500D03*
X38108000Y-24904600D03*
X27802200Y-5847500D03*
X35274600Y-8234200D03*
X35174400Y-15415700D03*
X23130600Y-13277400D03*
X20318600Y-13586700D03*
X22967800Y-11094100D03*
X20632900Y-17523400D03*
X24817600Y-1943600D03*
X24751800Y-14400400D03*
D21*
X11326800Y-17248400D02*
X12651600Y-17248400D01*
X12651600Y-17248400D02*
X13726300Y-18323100D01*
X13626600Y-21798400D02*
X13701600Y-21873400D01*
X11326800Y-21798400D02*
X13626600Y-21798400D01*
X13701600Y-21873400D02*
X13726300Y-25648400D01*
X12526800Y-21073400D02*
X13676600Y-21073400D01*
X12451800Y-21148400D02*
X12526800Y-21073400D01*
X11326800Y-21148400D02*
X12451800Y-21148400D01*
X13676600Y-21073400D02*
X13701600Y-21873400D01*
X13076800Y-18523400D02*
X13751600Y-18523400D01*
X11326800Y-17898400D02*
X12451800Y-17898400D01*
X13726300Y-18323100D02*
X13751600Y-18523400D01*
X12451800Y-17898400D02*
X13076800Y-18523400D01*
X13751600Y-19848400D02*
X13626600Y-19973400D01*
X18526800Y-19848400D02*
X13751600Y-19848400D01*
X13751600Y-18523400D02*
X13626600Y-19973400D01*
X13626600Y-19973400D02*
X13676600Y-21073400D01*
X23751800Y-6598400D02*
X23501800Y-6848400D01*
X25939300Y-6598400D02*
X23751800Y-6598400D01*
X23251800Y-7098400D02*
X23501800Y-6848400D01*
X21064300Y-7098400D02*
X23251800Y-7098400D01*
X21064300Y-6098400D02*
X22751800Y-6098400D01*
X22751800Y-6098400D02*
X23501800Y-6848400D01*
X36752800Y-400200D02*
X29603400Y-400200D01*
X29603400Y-400200D02*
X29576600Y-373400D01*
X29801800Y-5948400D02*
X29326800Y-5948400D01*
X31226600Y-7373200D02*
X29801800Y-5948400D01*
X31226600Y-10248400D02*
X31226600Y-7373200D01*
X31226600Y-10248400D02*
X31226600Y-23848400D01*
X31226600Y-23848400D02*
X35001600Y-27623400D01*
X35802800Y2139800D02*
X32066000Y5876600D01*
X36752800Y2139800D02*
X35802800Y2139800D01*
X32066000Y5876600D02*
X29226600Y5876600D01*
X13726300Y-25648400D02*
X13726300Y-34948700D01*
X13726300Y-34948700D02*
X10626600Y-38048400D01*
X14801300Y451600D02*
X14801300Y8751900D01*
X14801300Y8751900D02*
X10626600Y12926600D01*
X45910915Y13076600D02*
X45335915Y12501600D01*
X46476600Y13076600D02*
X45910915Y13076600D01*
X45335915Y12501600D02*
X42051600Y12501600D01*
X42051600Y12501600D02*
X39151600Y9601600D01*
X39151600Y9601600D02*
X39151600Y701600D01*
X46426600Y-38073400D02*
X42551600Y-38073400D01*
X42551600Y-38073400D02*
X39251600Y-34773400D01*
X39251600Y-34773400D02*
X39251600Y-25848400D01*
X11326800Y-17248400D02*
X9726600Y-17248400D01*
X9726600Y-17248400D02*
X9601600Y-17373400D01*
X10126600Y-17898400D02*
X11326800Y-17898400D01*
X9601600Y-17373400D02*
X10126600Y-17898400D01*
X9976800Y-21573400D02*
X10201800Y-21798400D01*
X9976800Y-21373400D02*
X9976800Y-21573400D01*
X10201800Y-21798400D02*
X11326800Y-21798400D01*
X10201800Y-21148400D02*
X9976800Y-21373400D01*
X11326800Y-21148400D02*
X10201800Y-21148400D01*
X21572300Y-22348800D02*
X23481900Y-24258400D01*
X23481900Y-24258400D02*
X29864000Y-24258400D01*
X29864000Y-24258400D02*
X35215800Y-29610200D01*
X35215800Y-29610200D02*
X36752800Y-29610200D01*
X18526800Y-15948400D02*
X19727100Y-15948400D01*
X20238400Y-15944700D02*
X19730800Y-15944700D01*
X19730800Y-15944700D02*
X19727100Y-15948400D01*
X19727100Y-22524700D02*
X21396400Y-22524700D01*
X21396400Y-22524700D02*
X21572300Y-22348800D01*
X19727100Y-22524700D02*
X19727100Y-23098400D01*
X19561300Y-22448400D02*
X19637600Y-22524700D01*
X19637600Y-22524700D02*
X19727100Y-22524700D01*
X18526800Y-22448400D02*
X19561300Y-22448400D01*
X15601300Y-25648400D02*
X17126300Y-25648400D01*
X17126300Y-25648400D02*
X17451300Y-25323400D01*
X19127000Y-23098400D02*
X17451300Y-24774100D01*
X17451300Y-24774100D02*
X17451300Y-25323400D01*
X19127000Y-23098400D02*
X19727100Y-23098400D01*
X18526800Y-23098400D02*
X19127000Y-23098400D01*
X16376300Y451600D02*
X14713400Y-1211300D01*
X14713400Y-1211300D02*
X14713400Y-6898700D01*
X14713400Y-6898700D02*
X15390400Y-7575700D01*
X15390400Y-7575700D02*
X16353100Y-7575700D01*
X18276300Y501600D02*
X18226300Y451600D01*
X18226300Y451600D02*
X16376300Y451600D01*
X16353100Y-7575700D02*
X16353100Y-17575000D01*
X16353100Y-17575000D02*
X17326500Y-18548400D01*
X16353100Y-7575700D02*
X16690100Y-7575700D01*
X18526800Y-18548400D02*
X17326500Y-18548400D01*
X36752800Y-6750200D02*
X37778100Y-6750200D01*
X37778100Y-6750200D02*
X37778100Y6287300D01*
X37778100Y6287300D02*
X37433600Y6631800D01*
X37433600Y6631800D02*
X24406500Y6631800D01*
X24406500Y6631800D02*
X18276300Y501600D01*
X27416800Y-20448400D02*
X27416800Y-9020800D01*
X27416800Y-9020800D02*
X26494400Y-8098400D01*
X26494400Y-8098400D02*
X25939300Y-8098400D01*
X20301200Y-7598400D02*
X20301200Y-6860600D01*
X20301200Y-6860600D02*
X20563400Y-6598400D01*
X20563400Y-6598400D02*
X21064300Y-6598400D01*
X21064300Y-7598400D02*
X20301200Y-7598400D01*
X19955700Y-7704500D02*
X20061800Y-7598400D01*
X20061800Y-7598400D02*
X20301200Y-7598400D01*
X23251800Y4155100D02*
X23251800Y3976600D01*
X34596800Y869800D02*
X36752800Y869800D01*
X30412500Y5054100D02*
X34596800Y869800D01*
X23581708Y5054100D02*
X30412500Y5054100D01*
X23251800Y4724192D02*
X23581708Y5054100D01*
X23251800Y3976600D02*
X23251800Y4724192D01*
X35727500Y-14370200D02*
X35727500Y-11031200D01*
X35727500Y-11031200D02*
X27858300Y-3162000D01*
X27858300Y-3162000D02*
X24345200Y-3162000D01*
X24345200Y-3162000D02*
X23751800Y-3755400D01*
X23751800Y-3755400D02*
X23751800Y-4410900D01*
X36752800Y-14370200D02*
X35727500Y-14370200D01*
X36752800Y-15640200D02*
X37778100Y-15640200D01*
X38108000Y-24904600D02*
X37778100Y-24574700D01*
X37778100Y-24574700D02*
X37778100Y-15640200D01*
X24251800Y-4410900D02*
X24251800Y-3910000D01*
X24251800Y-3910000D02*
X24514000Y-3647800D01*
X24514000Y-3647800D02*
X25602500Y-3647800D01*
X25602500Y-3647800D02*
X27802200Y-5847500D01*
X36752800Y-16910200D02*
X35727500Y-16910200D01*
X35274600Y-8234200D02*
X27876800Y-836400D01*
X27876800Y-836400D02*
X27876800Y3976600D01*
X35727500Y-16910200D02*
X35727500Y-15968800D01*
X35727500Y-15968800D02*
X35174400Y-15415700D01*
X36752800Y-25800200D02*
X37778100Y-25800200D01*
X37778100Y-28340200D02*
X37778100Y-25800200D01*
X37665500Y-28340200D02*
X37778100Y-28340200D01*
X36752800Y-28340200D02*
X37665500Y-28340200D01*
X36752800Y-30880200D02*
X37778100Y-30880200D01*
X37778100Y-30880200D02*
X37778100Y-28340200D01*
X29326800Y-7523400D02*
X28901800Y-7098400D01*
X28901800Y-7098400D02*
X25939300Y-7098400D01*
X10126500Y-20498400D02*
X11326800Y-20498400D01*
X5876800Y-22433400D02*
X7811800Y-20498400D01*
X7811800Y-20498400D02*
X10126500Y-20498400D01*
X10126500Y-20498400D02*
X10126500Y-19848400D01*
X11326800Y-19848400D02*
X10126500Y-19848400D01*
X5876800Y-12273400D02*
X7702100Y-12273400D01*
X10363700Y-15948400D02*
X10126500Y-16185600D01*
X10126500Y-16185600D02*
X10126500Y-16598400D01*
X10726700Y-15948400D02*
X10363700Y-15948400D01*
X7702100Y-12273400D02*
X7702100Y-13286800D01*
X7702100Y-13286800D02*
X10363700Y-15948400D01*
X11326800Y-16598400D02*
X10126500Y-16598400D01*
X11326800Y-15948400D02*
X10726700Y-15948400D01*
X10363700Y-23098400D02*
X10126500Y-22861200D01*
X10126500Y-22861200D02*
X10126500Y-22448400D01*
X10726700Y-23098400D02*
X10363700Y-23098400D01*
X10363700Y-23098400D02*
X10126500Y-23098400D01*
X11326800Y-22448400D02*
X10126500Y-22448400D01*
X11326800Y-23098400D02*
X10726700Y-23098400D01*
X5876800Y-27513400D02*
X10126500Y-23263700D01*
X10126500Y-23263700D02*
X10126500Y-23098400D01*
X10126500Y-18548400D02*
X11326800Y-18548400D01*
X5876800Y-17353400D02*
X7071800Y-18548400D01*
X7071800Y-18548400D02*
X10126500Y-18548400D01*
X10126500Y-18548400D02*
X10126500Y-19198400D01*
X11326800Y-19198400D02*
X10126500Y-19198400D01*
X18526800Y-16598400D02*
X17326500Y-16598400D01*
X23130600Y-13277400D02*
X23751800Y-12656200D01*
X23751800Y-12656200D02*
X23751800Y-9285900D01*
X17326500Y-16598400D02*
X17326500Y-15561400D01*
X17326500Y-15561400D02*
X19301200Y-13586700D01*
X19301200Y-13586700D02*
X20318600Y-13586700D01*
X19727100Y-17248400D02*
X20305500Y-16670000D01*
X20305500Y-16670000D02*
X20538900Y-16670000D01*
X20538900Y-16670000D02*
X21341900Y-15867000D01*
X21341900Y-15867000D02*
X21341900Y-9695800D01*
X21341900Y-9695800D02*
X21751800Y-9285900D01*
X18526800Y-17248400D02*
X19727100Y-17248400D01*
X18526800Y-17898400D02*
X17326500Y-17898400D01*
X17326500Y-17898400D02*
X16868900Y-17440800D01*
X16868900Y-17440800D02*
X16868900Y-9307700D01*
X16868900Y-9307700D02*
X20578200Y-5598400D01*
X20578200Y-5598400D02*
X21064300Y-5598400D01*
X23251800Y-9285900D02*
X23251800Y-10810100D01*
X23251800Y-10810100D02*
X22967800Y-11094100D01*
X18526800Y-19198400D02*
X19727100Y-19198400D01*
X19727100Y-19198400D02*
X19727100Y-18429200D01*
X19727100Y-18429200D02*
X20632900Y-17523400D01*
X22251800Y-9285900D02*
X22251800Y-10147500D01*
X22251800Y-10147500D02*
X21792200Y-10607100D01*
X21792200Y-10607100D02*
X21792200Y-18433300D01*
X21792200Y-18433300D02*
X19727100Y-20498400D01*
X18526800Y-20498400D02*
X19727100Y-20498400D01*
X22751800Y-9285900D02*
X22751800Y-10284400D01*
X22751800Y-10284400D02*
X22242500Y-10793700D01*
X22242500Y-10793700D02*
X22242500Y-18633000D01*
X22242500Y-18633000D02*
X19727100Y-21148400D01*
X18526800Y-21148400D02*
X19727100Y-21148400D01*
X24251800Y-9285900D02*
X24251800Y-13874700D01*
X24251800Y-13874700D02*
X24026500Y-14100000D01*
X24026500Y-14100000D02*
X24026500Y-17499000D01*
X24026500Y-17499000D02*
X19727100Y-21798400D01*
X18526800Y-21798400D02*
X19727100Y-21798400D01*
X23251800Y-1943600D02*
X23251800Y-4410900D01*
X21488200Y501600D02*
X23251800Y-1262000D01*
X23251800Y-1262000D02*
X23251800Y-1943600D01*
X23251800Y-1943600D02*
X24817600Y-1943600D01*
X21488200Y501600D02*
X19851300Y501600D01*
X21488200Y501600D02*
X24551800Y3565200D01*
X24551800Y3565200D02*
X24551800Y3976600D01*
X24551800Y3976600D02*
X26576800Y3976600D01*
X24751800Y-14400400D02*
X24751800Y-9285900D01*
X24876800Y-22988400D02*
X24876800Y-21813100D01*
X24876800Y-21813100D02*
X25684800Y-21813100D01*
X25684800Y-21813100D02*
X26052200Y-21445700D01*
X26052200Y-21445700D02*
X26052200Y-8711300D01*
X26052200Y-8711300D02*
X25939300Y-8598400D01*
X24876800Y-19273100D02*
X25477100Y-18672800D01*
X25477100Y-18672800D02*
X25477100Y-9511200D01*
X25477100Y-9511200D02*
X25251800Y-9285900D01*
X24876800Y-20448400D02*
X24876800Y-19273100D01*
X16876800Y-3398400D02*
X20739300Y-3398400D01*
X20739300Y-3398400D02*
X21751800Y-4410900D01*
X16876800Y-6048400D02*
X17826800Y-5098400D01*
X17826800Y-5098400D02*
X21064300Y-5098400D01*
D22*
G36*
X49511992Y13754222D02*
G01*
X50247189Y13553095D01*
X50935151Y13224954D01*
X51554131Y12780172D01*
X52084561Y12232812D01*
X52509684Y11600161D01*
X52816051Y10902239D01*
X52995299Y10155617D01*
X53042800Y9508769D01*
X53042801Y6967339D01*
X38538100Y-518958D01*
X38538100Y6249967D01*
X38541777Y6287300D01*
X38527103Y6436286D01*
X38483646Y6579547D01*
X38446164Y6649670D01*
X38413074Y6711576D01*
X38318101Y6827301D01*
X38289097Y6851104D01*
X37997404Y7142797D01*
X37973601Y7171801D01*
X37857876Y7266774D01*
X37725847Y7337346D01*
X37582586Y7380803D01*
X37470933Y7391800D01*
X37470922Y7391800D01*
X37433600Y7395476D01*
X37396278Y7391800D01*
X24443822Y7391800D01*
X24406500Y7395476D01*
X24369177Y7391800D01*
X24369167Y7391800D01*
X24257514Y7380803D01*
X24114253Y7337346D01*
X23982223Y7266774D01*
X23956585Y7245733D01*
X23866499Y7171801D01*
X23842701Y7142803D01*
X18314571Y1614672D01*
X18057550Y1614672D01*
X17890392Y1598208D01*
X17729658Y1549450D01*
X17581525Y1470271D01*
X17451685Y1363715D01*
X17345129Y1233875D01*
X17333223Y1211600D01*
X17284718Y1211600D01*
X17200915Y1313715D01*
X17071075Y1420271D01*
X16922942Y1499450D01*
X16762208Y1548208D01*
X16595050Y1564672D01*
X16157550Y1564672D01*
X15990392Y1548208D01*
X15829658Y1499450D01*
X15681525Y1420271D01*
X15659870Y1402500D01*
X15593294Y1457137D01*
X15482980Y1516102D01*
X15363282Y1552412D01*
X15238800Y1564672D01*
X15087050Y1561600D01*
X14928300Y1402850D01*
X14928300Y578600D01*
X14948300Y578600D01*
X14948300Y324600D01*
X14928300Y324600D01*
X14928300Y304600D01*
X14674300Y304600D01*
X14674300Y324600D01*
X13887550Y324600D01*
X13728800Y165850D01*
X13725728Y-23400D01*
X13737988Y-147882D01*
X13774298Y-267580D01*
X13833263Y-377894D01*
X13912615Y-474585D01*
X14009306Y-553937D01*
X14119620Y-612902D01*
X14209678Y-640221D01*
X14202403Y-647496D01*
X14173399Y-671299D01*
X14131791Y-721999D01*
X14078426Y-787024D01*
X14046240Y-847240D01*
X14007854Y-919054D01*
X13964397Y-1062315D01*
X13953400Y-1173968D01*
X13953400Y-1173978D01*
X13949724Y-1211300D01*
X13953400Y-1248623D01*
X13953401Y-6861368D01*
X13949724Y-6898700D01*
X13953401Y-6936033D01*
X13964398Y-7047686D01*
X13967648Y-7058399D01*
X14007854Y-7190946D01*
X14078426Y-7322976D01*
X14131710Y-7387902D01*
X14173400Y-7438701D01*
X14202398Y-7462499D01*
X14826601Y-8086702D01*
X14850399Y-8115701D01*
X14879397Y-8139499D01*
X14966124Y-8210674D01*
X15098153Y-8281246D01*
X15241414Y-8324703D01*
X15390400Y-8339377D01*
X15427733Y-8335700D01*
X15593100Y-8335700D01*
X15593101Y-17537668D01*
X15589424Y-17575000D01*
X15593101Y-17612333D01*
X15604098Y-17723986D01*
X15606847Y-17733047D01*
X15647554Y-17867246D01*
X15718126Y-17999276D01*
X15770343Y-18062902D01*
X15813100Y-18115001D01*
X15842098Y-18138799D01*
X16762705Y-19059408D01*
X16786499Y-19088401D01*
X16815492Y-19112195D01*
X16815496Y-19112199D01*
X16880079Y-19165200D01*
X16902224Y-19183374D01*
X17013728Y-19242975D01*
X17013728Y-19423400D01*
X17023856Y-19526238D01*
X17016800Y-19591650D01*
X17049047Y-19623897D01*
X17062298Y-19667580D01*
X17121263Y-19777894D01*
X17179126Y-19848400D01*
X17121263Y-19918906D01*
X17062298Y-20029220D01*
X17049047Y-20072903D01*
X17016800Y-20105150D01*
X17023856Y-20170562D01*
X17013728Y-20273400D01*
X17013728Y-20723400D01*
X17023577Y-20823400D01*
X17013728Y-20923400D01*
X17013728Y-21373400D01*
X17023577Y-21473400D01*
X17013728Y-21573400D01*
X17013728Y-22023400D01*
X17023577Y-22123400D01*
X17013728Y-22223400D01*
X17013728Y-22673400D01*
X17023577Y-22773400D01*
X17013728Y-22873400D01*
X17013728Y-23323400D01*
X17025988Y-23447882D01*
X17062298Y-23567580D01*
X17121263Y-23677894D01*
X17200615Y-23774585D01*
X17296952Y-23853647D01*
X16940303Y-24210296D01*
X16911299Y-24234099D01*
X16856171Y-24301274D01*
X16855888Y-24301618D01*
X16756525Y-24354729D01*
X16626685Y-24461285D01*
X16520129Y-24591125D01*
X16507090Y-24615518D01*
X16468592Y-24568608D01*
X16334964Y-24458942D01*
X16182509Y-24377453D01*
X16017085Y-24327272D01*
X15845050Y-24310328D01*
X15357550Y-24310328D01*
X15185515Y-24327272D01*
X15020091Y-24377453D01*
X14867636Y-24458942D01*
X14734008Y-24568608D01*
X14728792Y-24574964D01*
X14664985Y-24497215D01*
X14568294Y-24417863D01*
X14457980Y-24358898D01*
X14338282Y-24322588D01*
X14213800Y-24310328D01*
X14012050Y-24313400D01*
X13853300Y-24472150D01*
X13853300Y-25521400D01*
X13873300Y-25521400D01*
X13873300Y-25775400D01*
X13853300Y-25775400D01*
X13853300Y-26824650D01*
X14012050Y-26983400D01*
X14213800Y-26986472D01*
X14338282Y-26974212D01*
X14457980Y-26937902D01*
X14568294Y-26878937D01*
X14664985Y-26799585D01*
X14728792Y-26721836D01*
X14734008Y-26728192D01*
X14867636Y-26837858D01*
X15020091Y-26919347D01*
X15185515Y-26969528D01*
X15357550Y-26986472D01*
X15845050Y-26986472D01*
X16017085Y-26969528D01*
X16182509Y-26919347D01*
X16334964Y-26837858D01*
X16468592Y-26728192D01*
X16578258Y-26594564D01*
X16659747Y-26442109D01*
X16669973Y-26408400D01*
X17027125Y-26408400D01*
X17065392Y-26420008D01*
X17232550Y-26436472D01*
X17670050Y-26436472D01*
X17837208Y-26420008D01*
X17997942Y-26371250D01*
X18146075Y-26292071D01*
X18167730Y-26274300D01*
X18234306Y-26328937D01*
X18344620Y-26387902D01*
X18464318Y-26424212D01*
X18588800Y-26436472D01*
X18740550Y-26433400D01*
X18899300Y-26274650D01*
X18899300Y-25450400D01*
X19153300Y-25450400D01*
X19153300Y-26274650D01*
X19312050Y-26433400D01*
X19463800Y-26436472D01*
X19588282Y-26424212D01*
X19707980Y-26387902D01*
X19818294Y-26328937D01*
X19914985Y-26249585D01*
X19994337Y-26152894D01*
X20053302Y-26042580D01*
X20089612Y-25922882D01*
X20101872Y-25798400D01*
X20098800Y-25609150D01*
X19940050Y-25450400D01*
X19153300Y-25450400D01*
X18899300Y-25450400D01*
X18879300Y-25450400D01*
X18879300Y-25196400D01*
X18899300Y-25196400D01*
X18899300Y-25176400D01*
X19153300Y-25176400D01*
X19153300Y-25196400D01*
X19940050Y-25196400D01*
X20098800Y-25037650D01*
X20101872Y-24848400D01*
X20089612Y-24723918D01*
X20053302Y-24604220D01*
X19994337Y-24493906D01*
X19914985Y-24397215D01*
X19818294Y-24317863D01*
X19707980Y-24258898D01*
X19588282Y-24222588D01*
X19463800Y-24210328D01*
X19312050Y-24213400D01*
X19153302Y-24372148D01*
X19153302Y-24213400D01*
X19086802Y-24213400D01*
X19338730Y-23961472D01*
X19401800Y-23961472D01*
X19526282Y-23949212D01*
X19645980Y-23912902D01*
X19744220Y-23860391D01*
X19876086Y-23847403D01*
X20019347Y-23803946D01*
X20151376Y-23733374D01*
X20267101Y-23638401D01*
X20362074Y-23522676D01*
X20432646Y-23390647D01*
X20464784Y-23284700D01*
X21127177Y-23284700D01*
X21270402Y-23344026D01*
X21470361Y-23383800D01*
X21532499Y-23383800D01*
X22918100Y-24769402D01*
X22941899Y-24798401D01*
X23057624Y-24893374D01*
X23189653Y-24963946D01*
X23332914Y-25007403D01*
X23444567Y-25018400D01*
X23444576Y-25018400D01*
X23479281Y-25021818D01*
X23448868Y-25095242D01*
X23391800Y-25382140D01*
X23391800Y-25674660D01*
X23448868Y-25961558D01*
X23560810Y-26231811D01*
X23723325Y-26475032D01*
X23930168Y-26681875D01*
X24173389Y-26844390D01*
X24443642Y-26956332D01*
X24730540Y-27013400D01*
X25023060Y-27013400D01*
X25309958Y-26956332D01*
X25580211Y-26844390D01*
X25823432Y-26681875D01*
X26030275Y-26475032D01*
X26147900Y-26298994D01*
X26319212Y-26528669D01*
X26535445Y-26723578D01*
X26785548Y-26872557D01*
X27059909Y-26969881D01*
X27289800Y-26849214D01*
X27289800Y-25655400D01*
X27543800Y-25655400D01*
X27543800Y-26849214D01*
X27773691Y-26969881D01*
X28048052Y-26872557D01*
X28298155Y-26723578D01*
X28514388Y-26528669D01*
X28688441Y-26295320D01*
X28813625Y-26032499D01*
X28858276Y-25885290D01*
X28736955Y-25655400D01*
X27543800Y-25655400D01*
X27289800Y-25655400D01*
X27269800Y-25655400D01*
X27269800Y-25401400D01*
X27289800Y-25401400D01*
X27289800Y-25381400D01*
X27543800Y-25381400D01*
X27543800Y-25401400D01*
X28736955Y-25401400D01*
X28858276Y-25171510D01*
X28813625Y-25024301D01*
X28810814Y-25018400D01*
X29549199Y-25018400D01*
X34652001Y-30121203D01*
X34675799Y-30150201D01*
X34704797Y-30173999D01*
X34791523Y-30245174D01*
X34912934Y-30310070D01*
X34923553Y-30315746D01*
X35066814Y-30359203D01*
X35178467Y-30370200D01*
X35178476Y-30370200D01*
X35215799Y-30373876D01*
X35253122Y-30370200D01*
X35558522Y-30370200D01*
X35488376Y-30501433D01*
X35432053Y-30687106D01*
X35413035Y-30880200D01*
X35432053Y-31073294D01*
X35488376Y-31258967D01*
X35579840Y-31430084D01*
X35702930Y-31580070D01*
X35852916Y-31703160D01*
X36024033Y-31794624D01*
X36209706Y-31850947D01*
X36354420Y-31865200D01*
X37151180Y-31865200D01*
X37295894Y-31850947D01*
X37481567Y-31794624D01*
X37652684Y-31703160D01*
X37729401Y-31640200D01*
X37740767Y-31640200D01*
X37778100Y-31643877D01*
X37815433Y-31640200D01*
X37927086Y-31629203D01*
X38070347Y-31585746D01*
X38202376Y-31515174D01*
X38318101Y-31420201D01*
X38413074Y-31304476D01*
X38483646Y-31172447D01*
X38527103Y-31029186D01*
X38541777Y-30880200D01*
X38538100Y-30842867D01*
X38538100Y-28377532D01*
X38541777Y-28340200D01*
X38538100Y-28302867D01*
X38538100Y-25846723D01*
X38598256Y-25821805D01*
X38767774Y-25708537D01*
X38911937Y-25564374D01*
X39025205Y-25394856D01*
X39103226Y-25206498D01*
X39143000Y-25006539D01*
X39143000Y-24802661D01*
X39125485Y-24714608D01*
X53017800Y-31884836D01*
X53017801Y-34501305D01*
X53027745Y-34602269D01*
X52972222Y-35224393D01*
X52771095Y-35959589D01*
X52442952Y-36647555D01*
X51998174Y-37266528D01*
X51450812Y-37796961D01*
X50818162Y-38222083D01*
X50120239Y-38528451D01*
X49373619Y-38707699D01*
X48726770Y-38755200D01*
X4784418Y-38755200D01*
X3993607Y-38684622D01*
X3258411Y-38483495D01*
X2570445Y-38155352D01*
X1951472Y-37710574D01*
X1421039Y-37163212D01*
X995917Y-36530562D01*
X689549Y-35832639D01*
X510301Y-35086019D01*
X462800Y-34439170D01*
X462800Y-34245072D01*
X2517800Y-34245072D01*
X2517800Y-34685328D01*
X2603690Y-35117125D01*
X2772169Y-35523869D01*
X3016762Y-35889929D01*
X3328071Y-36201238D01*
X3694131Y-36445831D01*
X4100875Y-36614310D01*
X4532672Y-36700200D01*
X4972928Y-36700200D01*
X5404725Y-36614310D01*
X5811469Y-36445831D01*
X6177529Y-36201238D01*
X6488838Y-35889929D01*
X6733431Y-35523869D01*
X6901910Y-35117125D01*
X6987800Y-34685328D01*
X6987800Y-34294317D01*
X7017800Y-34294317D01*
X7017800Y-34636083D01*
X7084475Y-34971281D01*
X7215263Y-35287031D01*
X7405137Y-35571198D01*
X7646802Y-35812863D01*
X7930969Y-36002737D01*
X8246719Y-36133525D01*
X8581917Y-36200200D01*
X8923683Y-36200200D01*
X9258881Y-36133525D01*
X9574631Y-36002737D01*
X9858798Y-35812863D01*
X10100463Y-35571198D01*
X10290337Y-35287031D01*
X10421125Y-34971281D01*
X10487800Y-34636083D01*
X10487800Y-34294317D01*
X43017800Y-34294317D01*
X43017800Y-34636083D01*
X43084475Y-34971281D01*
X43215263Y-35287031D01*
X43405137Y-35571198D01*
X43646802Y-35812863D01*
X43930969Y-36002737D01*
X44246719Y-36133525D01*
X44581917Y-36200200D01*
X44923683Y-36200200D01*
X45258881Y-36133525D01*
X45574631Y-36002737D01*
X45858798Y-35812863D01*
X46100463Y-35571198D01*
X46290337Y-35287031D01*
X46421125Y-34971281D01*
X46487800Y-34636083D01*
X46487800Y-34294317D01*
X46478005Y-34245072D01*
X46517800Y-34245072D01*
X46517800Y-34685328D01*
X46603690Y-35117125D01*
X46772169Y-35523869D01*
X47016762Y-35889929D01*
X47328071Y-36201238D01*
X47694131Y-36445831D01*
X48100875Y-36614310D01*
X48532672Y-36700200D01*
X48972928Y-36700200D01*
X49404725Y-36614310D01*
X49811469Y-36445831D01*
X50177529Y-36201238D01*
X50488838Y-35889929D01*
X50733431Y-35523869D01*
X50901910Y-35117125D01*
X50987800Y-34685328D01*
X50987800Y-34245072D01*
X50901910Y-33813275D01*
X50733431Y-33406531D01*
X50488838Y-33040471D01*
X50177529Y-32729162D01*
X49811469Y-32484569D01*
X49404725Y-32316090D01*
X48972928Y-32230200D01*
X48532672Y-32230200D01*
X48100875Y-32316090D01*
X47694131Y-32484569D01*
X47328071Y-32729162D01*
X47016762Y-33040471D01*
X46772169Y-33406531D01*
X46603690Y-33813275D01*
X46517800Y-34245072D01*
X46478005Y-34245072D01*
X46421125Y-33959119D01*
X46290337Y-33643369D01*
X46100463Y-33359202D01*
X45858798Y-33117537D01*
X45574631Y-32927663D01*
X45258881Y-32796875D01*
X44923683Y-32730200D01*
X44581917Y-32730200D01*
X44246719Y-32796875D01*
X43930969Y-32927663D01*
X43646802Y-33117537D01*
X43405137Y-33359202D01*
X43215263Y-33643369D01*
X43084475Y-33959119D01*
X43017800Y-34294317D01*
X10487800Y-34294317D01*
X10421125Y-33959119D01*
X10290337Y-33643369D01*
X10100463Y-33359202D01*
X9858798Y-33117537D01*
X9574631Y-32927663D01*
X9258881Y-32796875D01*
X8923683Y-32730200D01*
X8581917Y-32730200D01*
X8246719Y-32796875D01*
X7930969Y-32927663D01*
X7646802Y-33117537D01*
X7405137Y-33359202D01*
X7215263Y-33643369D01*
X7084475Y-33959119D01*
X7017800Y-34294317D01*
X6987800Y-34294317D01*
X6987800Y-34245072D01*
X6901910Y-33813275D01*
X6733431Y-33406531D01*
X6488838Y-33040471D01*
X6177529Y-32729162D01*
X5811469Y-32484569D01*
X5404725Y-32316090D01*
X4972928Y-32230200D01*
X4532672Y-32230200D01*
X4100875Y-32316090D01*
X3694131Y-32484569D01*
X3328071Y-32729162D01*
X3016762Y-33040471D01*
X2772169Y-33406531D01*
X2603690Y-33813275D01*
X2517800Y-34245072D01*
X462800Y-34245072D01*
X462800Y-10773400D01*
X3738728Y-10773400D01*
X3738728Y-13773400D01*
X3750988Y-13897882D01*
X3787298Y-14017580D01*
X3846263Y-14127894D01*
X3925615Y-14224585D01*
X4022306Y-14303937D01*
X4132620Y-14362902D01*
X4252318Y-14399212D01*
X4376800Y-14411472D01*
X7376800Y-14411472D01*
X7501282Y-14399212D01*
X7620980Y-14362902D01*
X7674691Y-14334192D01*
X9377463Y-16036964D01*
X9366500Y-16148268D01*
X9366500Y-16148278D01*
X9362824Y-16185600D01*
X9366500Y-16222922D01*
X9366500Y-16561067D01*
X9362823Y-16598400D01*
X9377497Y-16747386D01*
X9420954Y-16890647D01*
X9491526Y-17022676D01*
X9586499Y-17138401D01*
X9702224Y-17233374D01*
X9816800Y-17294617D01*
X9816800Y-17375402D01*
X9890978Y-17375402D01*
X9865601Y-17421395D01*
X9849307Y-17472643D01*
X9816800Y-17505150D01*
X9824163Y-17573400D01*
X9816800Y-17641650D01*
X9849307Y-17674157D01*
X9865601Y-17725405D01*
X9890977Y-17771398D01*
X9816800Y-17771398D01*
X9816800Y-17788400D01*
X7967100Y-17788400D01*
X8011800Y-17563679D01*
X8011800Y-17143121D01*
X7929753Y-16730644D01*
X7768812Y-16342098D01*
X7535163Y-15992417D01*
X7237783Y-15695037D01*
X6888102Y-15461388D01*
X6499556Y-15300447D01*
X6087079Y-15218400D01*
X5666521Y-15218400D01*
X5254044Y-15300447D01*
X4865498Y-15461388D01*
X4515817Y-15695037D01*
X4218437Y-15992417D01*
X3984788Y-16342098D01*
X3823847Y-16730644D01*
X3741800Y-17143121D01*
X3741800Y-17563679D01*
X3823847Y-17976156D01*
X3984788Y-18364702D01*
X4218437Y-18714383D01*
X4515817Y-19011763D01*
X4865498Y-19245412D01*
X5254044Y-19406353D01*
X5666521Y-19488400D01*
X6087079Y-19488400D01*
X6499556Y-19406353D01*
X6830320Y-19269346D01*
X6922814Y-19297403D01*
X7034467Y-19308400D01*
X7034476Y-19308400D01*
X7071799Y-19312076D01*
X7109122Y-19308400D01*
X9373657Y-19308400D01*
X9377497Y-19347386D01*
X9420954Y-19490647D01*
X9438461Y-19523400D01*
X9420954Y-19556153D01*
X9377497Y-19699414D01*
X9373657Y-19738400D01*
X7849122Y-19738400D01*
X7811799Y-19734724D01*
X7774476Y-19738400D01*
X7774467Y-19738400D01*
X7662814Y-19749397D01*
X7519553Y-19792854D01*
X7387524Y-19863426D01*
X7271799Y-19958399D01*
X7248001Y-19987397D01*
X6750858Y-20484540D01*
X6499556Y-20380447D01*
X6087079Y-20298400D01*
X5666521Y-20298400D01*
X5254044Y-20380447D01*
X4865498Y-20541388D01*
X4515817Y-20775037D01*
X4218437Y-21072417D01*
X3984788Y-21422098D01*
X3823847Y-21810644D01*
X3741800Y-22223121D01*
X3741800Y-22643679D01*
X3823847Y-23056156D01*
X3984788Y-23444702D01*
X4218437Y-23794383D01*
X4515817Y-24091763D01*
X4865498Y-24325412D01*
X5254044Y-24486353D01*
X5666521Y-24568400D01*
X6087079Y-24568400D01*
X6499556Y-24486353D01*
X6888102Y-24325412D01*
X7237783Y-24091763D01*
X7535163Y-23794383D01*
X7768812Y-23444702D01*
X7929753Y-23056156D01*
X8011800Y-22643679D01*
X8011800Y-22223121D01*
X7929753Y-21810644D01*
X7825660Y-21559342D01*
X8126602Y-21258400D01*
X9816800Y-21258400D01*
X9816800Y-21275402D01*
X9890977Y-21275402D01*
X9865601Y-21321395D01*
X9849307Y-21372643D01*
X9816800Y-21405150D01*
X9824163Y-21473400D01*
X9816800Y-21541650D01*
X9849307Y-21574157D01*
X9865601Y-21625405D01*
X9890978Y-21671398D01*
X9816800Y-21671398D01*
X9816800Y-21752183D01*
X9702224Y-21813426D01*
X9586499Y-21908399D01*
X9491526Y-22024124D01*
X9420954Y-22156153D01*
X9377497Y-22299414D01*
X9362823Y-22448400D01*
X9366500Y-22485733D01*
X9366500Y-22823878D01*
X9362824Y-22861200D01*
X9366500Y-22898522D01*
X9366500Y-22898532D01*
X9371016Y-22944381D01*
X6750858Y-25564540D01*
X6499556Y-25460447D01*
X6087079Y-25378400D01*
X5666521Y-25378400D01*
X5254044Y-25460447D01*
X4865498Y-25621388D01*
X4515817Y-25855037D01*
X4218437Y-26152417D01*
X3984788Y-26502098D01*
X3823847Y-26890644D01*
X3741800Y-27303121D01*
X3741800Y-27723679D01*
X3823847Y-28136156D01*
X3984788Y-28524702D01*
X4218437Y-28874383D01*
X4515817Y-29171763D01*
X4865498Y-29405412D01*
X5254044Y-29566353D01*
X5666521Y-29648400D01*
X6087079Y-29648400D01*
X6499556Y-29566353D01*
X6888102Y-29405412D01*
X7237783Y-29171763D01*
X7535163Y-28874383D01*
X7768812Y-28524702D01*
X7929753Y-28136156D01*
X8011800Y-27723679D01*
X8011800Y-27303121D01*
X7929753Y-26890644D01*
X7825660Y-26639342D01*
X8116602Y-26348400D01*
X12600728Y-26348400D01*
X12612988Y-26472882D01*
X12649298Y-26592580D01*
X12708263Y-26702894D01*
X12787615Y-26799585D01*
X12884306Y-26878937D01*
X12994620Y-26937902D01*
X13114318Y-26974212D01*
X13238800Y-26986472D01*
X13440550Y-26983400D01*
X13599300Y-26824650D01*
X13599300Y-25775400D01*
X12762550Y-25775400D01*
X12603800Y-25934150D01*
X12600728Y-26348400D01*
X8116602Y-26348400D01*
X9516602Y-24948400D01*
X12600728Y-24948400D01*
X12603800Y-25362650D01*
X12762550Y-25521400D01*
X13599300Y-25521400D01*
X13599300Y-24472150D01*
X13440550Y-24313400D01*
X13238800Y-24310328D01*
X13114318Y-24322588D01*
X12994620Y-24358898D01*
X12884306Y-24417863D01*
X12787615Y-24497215D01*
X12708263Y-24593906D01*
X12649298Y-24704220D01*
X12612988Y-24823918D01*
X12600728Y-24948400D01*
X9516602Y-24948400D01*
X10503531Y-23961472D01*
X12201800Y-23961472D01*
X12326282Y-23949212D01*
X12445980Y-23912902D01*
X12556294Y-23853937D01*
X12652985Y-23774585D01*
X12732337Y-23677894D01*
X12791302Y-23567580D01*
X12827612Y-23447882D01*
X12839872Y-23323400D01*
X12839872Y-22873400D01*
X12830023Y-22773400D01*
X12839872Y-22673400D01*
X12839872Y-22223400D01*
X12829744Y-22120562D01*
X12836800Y-22055150D01*
X12804553Y-22022903D01*
X12791302Y-21979220D01*
X12732337Y-21868906D01*
X12674264Y-21798144D01*
X12727572Y-21734924D01*
X12787999Y-21625405D01*
X12804293Y-21574157D01*
X12836800Y-21541650D01*
X12829437Y-21473400D01*
X12836800Y-21405150D01*
X12804293Y-21372643D01*
X12787999Y-21321395D01*
X12727572Y-21211876D01*
X12674264Y-21148656D01*
X12732337Y-21077894D01*
X12791302Y-20967580D01*
X12804553Y-20923897D01*
X12836800Y-20891650D01*
X12829744Y-20826238D01*
X12839872Y-20723400D01*
X12839872Y-20273400D01*
X12830023Y-20173400D01*
X12839872Y-20073400D01*
X12839872Y-19623400D01*
X12830023Y-19523400D01*
X12839872Y-19423400D01*
X12839872Y-18973400D01*
X12830023Y-18873400D01*
X12839872Y-18773400D01*
X12839872Y-18323400D01*
X12829744Y-18220562D01*
X12836800Y-18155150D01*
X12804553Y-18122903D01*
X12791302Y-18079220D01*
X12732337Y-17968906D01*
X12674264Y-17898144D01*
X12727572Y-17834924D01*
X12787999Y-17725405D01*
X12804293Y-17674157D01*
X12836800Y-17641650D01*
X12829437Y-17573400D01*
X12836800Y-17505150D01*
X12804293Y-17472643D01*
X12787999Y-17421395D01*
X12727572Y-17311876D01*
X12674264Y-17248656D01*
X12732337Y-17177894D01*
X12791302Y-17067580D01*
X12804553Y-17023897D01*
X12836800Y-16991650D01*
X12829744Y-16926238D01*
X12839872Y-16823400D01*
X12839872Y-16373400D01*
X12830023Y-16273400D01*
X12839872Y-16173400D01*
X12839872Y-15723400D01*
X12827612Y-15598918D01*
X12791302Y-15479220D01*
X12732337Y-15368906D01*
X12652985Y-15272215D01*
X12556294Y-15192863D01*
X12445980Y-15133898D01*
X12326282Y-15097588D01*
X12201800Y-15085328D01*
X10575430Y-15085328D01*
X8462100Y-12971999D01*
X8462100Y-12310733D01*
X8465777Y-12273400D01*
X8451103Y-12124414D01*
X8407646Y-11981153D01*
X8337074Y-11849124D01*
X8242101Y-11733399D01*
X8126376Y-11638426D01*
X8014872Y-11578825D01*
X8014872Y-10773400D01*
X8002612Y-10648918D01*
X7966302Y-10529220D01*
X7907337Y-10418906D01*
X7827985Y-10322215D01*
X7731294Y-10242863D01*
X7620980Y-10183898D01*
X7501282Y-10147588D01*
X7376800Y-10135328D01*
X4376800Y-10135328D01*
X4252318Y-10147588D01*
X4132620Y-10183898D01*
X4022306Y-10242863D01*
X3925615Y-10322215D01*
X3846263Y-10418906D01*
X3787298Y-10529220D01*
X3750988Y-10648918D01*
X3738728Y-10773400D01*
X462800Y-10773400D01*
X462800Y926600D01*
X13725728Y926600D01*
X13728800Y737350D01*
X13887550Y578600D01*
X14674300Y578600D01*
X14674300Y1402850D01*
X14515550Y1561600D01*
X14363800Y1564672D01*
X14239318Y1552412D01*
X14119620Y1516102D01*
X14009306Y1457137D01*
X13912615Y1377785D01*
X13833263Y1281094D01*
X13774298Y1170780D01*
X13737988Y1051082D01*
X13725728Y926600D01*
X462800Y926600D01*
X462800Y9503182D01*
X485267Y9754928D01*
X2517800Y9754928D01*
X2517800Y9314672D01*
X2603690Y8882875D01*
X2772169Y8476131D01*
X3016762Y8110071D01*
X3328071Y7798762D01*
X3694131Y7554169D01*
X4100875Y7385690D01*
X4532672Y7299800D01*
X4972928Y7299800D01*
X5404725Y7385690D01*
X5811469Y7554169D01*
X6177529Y7798762D01*
X6488838Y8110071D01*
X6733431Y8476131D01*
X6901910Y8882875D01*
X6987800Y9314672D01*
X6987800Y9705683D01*
X7017800Y9705683D01*
X7017800Y9363917D01*
X7084475Y9028719D01*
X7215263Y8712969D01*
X7405137Y8428802D01*
X7646802Y8187137D01*
X7930969Y7997263D01*
X8246719Y7866475D01*
X8581917Y7799800D01*
X8923683Y7799800D01*
X9258881Y7866475D01*
X9574631Y7997263D01*
X9858798Y8187137D01*
X10100463Y8428802D01*
X10290337Y8712969D01*
X10421125Y9028719D01*
X10487800Y9363917D01*
X10487800Y9705683D01*
X43017800Y9705683D01*
X43017800Y9363917D01*
X43084475Y9028719D01*
X43215263Y8712969D01*
X43405137Y8428802D01*
X43646802Y8187137D01*
X43930969Y7997263D01*
X44246719Y7866475D01*
X44581917Y7799800D01*
X44923683Y7799800D01*
X45258881Y7866475D01*
X45574631Y7997263D01*
X45858798Y8187137D01*
X46100463Y8428802D01*
X46290337Y8712969D01*
X46421125Y9028719D01*
X46487800Y9363917D01*
X46487800Y9705683D01*
X46478005Y9754928D01*
X46517800Y9754928D01*
X46517800Y9314672D01*
X46603690Y8882875D01*
X46772169Y8476131D01*
X47016762Y8110071D01*
X47328071Y7798762D01*
X47694131Y7554169D01*
X48100875Y7385690D01*
X48532672Y7299800D01*
X48972928Y7299800D01*
X49404725Y7385690D01*
X49811469Y7554169D01*
X50177529Y7798762D01*
X50488838Y8110071D01*
X50733431Y8476131D01*
X50901910Y8882875D01*
X50987800Y9314672D01*
X50987800Y9754928D01*
X50901910Y10186725D01*
X50733431Y10593469D01*
X50488838Y10959529D01*
X50177529Y11270838D01*
X49811469Y11515431D01*
X49404725Y11683910D01*
X48972928Y11769800D01*
X48532672Y11769800D01*
X48100875Y11683910D01*
X47694131Y11515431D01*
X47328071Y11270838D01*
X47016762Y10959529D01*
X46772169Y10593469D01*
X46603690Y10186725D01*
X46517800Y9754928D01*
X46478005Y9754928D01*
X46421125Y10040881D01*
X46290337Y10356631D01*
X46100463Y10640798D01*
X45858798Y10882463D01*
X45574631Y11072337D01*
X45258881Y11203125D01*
X44923683Y11269800D01*
X44581917Y11269800D01*
X44246719Y11203125D01*
X43930969Y11072337D01*
X43646802Y10882463D01*
X43405137Y10640798D01*
X43215263Y10356631D01*
X43084475Y10040881D01*
X43017800Y9705683D01*
X10487800Y9705683D01*
X10421125Y10040881D01*
X10290337Y10356631D01*
X10100463Y10640798D01*
X9858798Y10882463D01*
X9574631Y11072337D01*
X9258881Y11203125D01*
X8923683Y11269800D01*
X8581917Y11269800D01*
X8246719Y11203125D01*
X7930969Y11072337D01*
X7646802Y10882463D01*
X7405137Y10640798D01*
X7215263Y10356631D01*
X7084475Y10040881D01*
X7017800Y9705683D01*
X6987800Y9705683D01*
X6987800Y9754928D01*
X6901910Y10186725D01*
X6733431Y10593469D01*
X6488838Y10959529D01*
X6177529Y11270838D01*
X5811469Y11515431D01*
X5404725Y11683910D01*
X4972928Y11769800D01*
X4532672Y11769800D01*
X4100875Y11683910D01*
X3694131Y11515431D01*
X3328071Y11270838D01*
X3016762Y10959529D01*
X2772169Y10593469D01*
X2603690Y10186725D01*
X2517800Y9754928D01*
X485267Y9754928D01*
X533378Y10293992D01*
X734505Y11029189D01*
X1062646Y11717151D01*
X1507428Y12336131D01*
X2054788Y12866561D01*
X2687439Y13291684D01*
X3385361Y13598051D01*
X4131983Y13777299D01*
X4778830Y13824800D01*
X48721182Y13824800D01*
X49511992Y13754222D01*
G37*
X49511992Y13754222D02*
X50247189Y13553095D01*
X50935151Y13224954D01*
X51554131Y12780172D01*
X52084561Y12232812D01*
X52509684Y11600161D01*
X52816051Y10902239D01*
X52995299Y10155617D01*
X53042800Y9508769D01*
X53042801Y6967339D01*
X38538100Y-518958D01*
X38538100Y6249967D01*
X38541777Y6287300D01*
X38527103Y6436286D01*
X38483646Y6579547D01*
X38446164Y6649670D01*
X38413074Y6711576D01*
X38318101Y6827301D01*
X38289097Y6851104D01*
X37997404Y7142797D01*
X37973601Y7171801D01*
X37857876Y7266774D01*
X37725847Y7337346D01*
X37582586Y7380803D01*
X37470933Y7391800D01*
X37470922Y7391800D01*
X37433600Y7395476D01*
X37396278Y7391800D01*
X24443822Y7391800D01*
X24406500Y7395476D01*
X24369177Y7391800D01*
X24369167Y7391800D01*
X24257514Y7380803D01*
X24114253Y7337346D01*
X23982223Y7266774D01*
X23956585Y7245733D01*
X23866499Y7171801D01*
X23842701Y7142803D01*
X18314571Y1614672D01*
X18057550Y1614672D01*
X17890392Y1598208D01*
X17729658Y1549450D01*
X17581525Y1470271D01*
X17451685Y1363715D01*
X17345129Y1233875D01*
X17333223Y1211600D01*
X17284718Y1211600D01*
X17200915Y1313715D01*
X17071075Y1420271D01*
X16922942Y1499450D01*
X16762208Y1548208D01*
X16595050Y1564672D01*
X16157550Y1564672D01*
X15990392Y1548208D01*
X15829658Y1499450D01*
X15681525Y1420271D01*
X15659870Y1402500D01*
X15593294Y1457137D01*
X15482980Y1516102D01*
X15363282Y1552412D01*
X15238800Y1564672D01*
X15087050Y1561600D01*
X14928300Y1402850D01*
X14928300Y578600D01*
X14948300Y578600D01*
X14948300Y324600D01*
X14928300Y324600D01*
X14928300Y304600D01*
X14674300Y304600D01*
X14674300Y324600D01*
X13887550Y324600D01*
X13728800Y165850D01*
X13725728Y-23400D01*
X13737988Y-147882D01*
X13774298Y-267580D01*
X13833263Y-377894D01*
X13912615Y-474585D01*
X14009306Y-553937D01*
X14119620Y-612902D01*
X14209678Y-640221D01*
X14202403Y-647496D01*
X14173399Y-671299D01*
X14131791Y-721999D01*
X14078426Y-787024D01*
X14046240Y-847240D01*
X14007854Y-919054D01*
X13964397Y-1062315D01*
X13953400Y-1173968D01*
X13953400Y-1173978D01*
X13949724Y-1211300D01*
X13953400Y-1248623D01*
X13953401Y-6861368D01*
X13949724Y-6898700D01*
X13953401Y-6936033D01*
X13964398Y-7047686D01*
X13967648Y-7058399D01*
X14007854Y-7190946D01*
X14078426Y-7322976D01*
X14131710Y-7387902D01*
X14173400Y-7438701D01*
X14202398Y-7462499D01*
X14826601Y-8086702D01*
X14850399Y-8115701D01*
X14879397Y-8139499D01*
X14966124Y-8210674D01*
X15098153Y-8281246D01*
X15241414Y-8324703D01*
X15390400Y-8339377D01*
X15427733Y-8335700D01*
X15593100Y-8335700D01*
X15593101Y-17537668D01*
X15589424Y-17575000D01*
X15593101Y-17612333D01*
X15604098Y-17723986D01*
X15606847Y-17733047D01*
X15647554Y-17867246D01*
X15718126Y-17999276D01*
X15770343Y-18062902D01*
X15813100Y-18115001D01*
X15842098Y-18138799D01*
X16762705Y-19059408D01*
X16786499Y-19088401D01*
X16815492Y-19112195D01*
X16815496Y-19112199D01*
X16880079Y-19165200D01*
X16902224Y-19183374D01*
X17013728Y-19242975D01*
X17013728Y-19423400D01*
X17023856Y-19526238D01*
X17016800Y-19591650D01*
X17049047Y-19623897D01*
X17062298Y-19667580D01*
X17121263Y-19777894D01*
X17179126Y-19848400D01*
X17121263Y-19918906D01*
X17062298Y-20029220D01*
X17049047Y-20072903D01*
X17016800Y-20105150D01*
X17023856Y-20170562D01*
X17013728Y-20273400D01*
X17013728Y-20723400D01*
X17023577Y-20823400D01*
X17013728Y-20923400D01*
X17013728Y-21373400D01*
X17023577Y-21473400D01*
X17013728Y-21573400D01*
X17013728Y-22023400D01*
X17023577Y-22123400D01*
X17013728Y-22223400D01*
X17013728Y-22673400D01*
X17023577Y-22773400D01*
X17013728Y-22873400D01*
X17013728Y-23323400D01*
X17025988Y-23447882D01*
X17062298Y-23567580D01*
X17121263Y-23677894D01*
X17200615Y-23774585D01*
X17296952Y-23853647D01*
X16940303Y-24210296D01*
X16911299Y-24234099D01*
X16856171Y-24301274D01*
X16855888Y-24301618D01*
X16756525Y-24354729D01*
X16626685Y-24461285D01*
X16520129Y-24591125D01*
X16507090Y-24615518D01*
X16468592Y-24568608D01*
X16334964Y-24458942D01*
X16182509Y-24377453D01*
X16017085Y-24327272D01*
X15845050Y-24310328D01*
X15357550Y-24310328D01*
X15185515Y-24327272D01*
X15020091Y-24377453D01*
X14867636Y-24458942D01*
X14734008Y-24568608D01*
X14728792Y-24574964D01*
X14664985Y-24497215D01*
X14568294Y-24417863D01*
X14457980Y-24358898D01*
X14338282Y-24322588D01*
X14213800Y-24310328D01*
X14012050Y-24313400D01*
X13853300Y-24472150D01*
X13853300Y-25521400D01*
X13873300Y-25521400D01*
X13873300Y-25775400D01*
X13853300Y-25775400D01*
X13853300Y-26824650D01*
X14012050Y-26983400D01*
X14213800Y-26986472D01*
X14338282Y-26974212D01*
X14457980Y-26937902D01*
X14568294Y-26878937D01*
X14664985Y-26799585D01*
X14728792Y-26721836D01*
X14734008Y-26728192D01*
X14867636Y-26837858D01*
X15020091Y-26919347D01*
X15185515Y-26969528D01*
X15357550Y-26986472D01*
X15845050Y-26986472D01*
X16017085Y-26969528D01*
X16182509Y-26919347D01*
X16334964Y-26837858D01*
X16468592Y-26728192D01*
X16578258Y-26594564D01*
X16659747Y-26442109D01*
X16669973Y-26408400D01*
X17027125Y-26408400D01*
X17065392Y-26420008D01*
X17232550Y-26436472D01*
X17670050Y-26436472D01*
X17837208Y-26420008D01*
X17997942Y-26371250D01*
X18146075Y-26292071D01*
X18167730Y-26274300D01*
X18234306Y-26328937D01*
X18344620Y-26387902D01*
X18464318Y-26424212D01*
X18588800Y-26436472D01*
X18740550Y-26433400D01*
X18899300Y-26274650D01*
X18899300Y-25450400D01*
X19153300Y-25450400D01*
X19153300Y-26274650D01*
X19312050Y-26433400D01*
X19463800Y-26436472D01*
X19588282Y-26424212D01*
X19707980Y-26387902D01*
X19818294Y-26328937D01*
X19914985Y-26249585D01*
X19994337Y-26152894D01*
X20053302Y-26042580D01*
X20089612Y-25922882D01*
X20101872Y-25798400D01*
X20098800Y-25609150D01*
X19940050Y-25450400D01*
X19153300Y-25450400D01*
X18899300Y-25450400D01*
X18879300Y-25450400D01*
X18879300Y-25196400D01*
X18899300Y-25196400D01*
X18899300Y-25176400D01*
X19153300Y-25176400D01*
X19153300Y-25196400D01*
X19940050Y-25196400D01*
X20098800Y-25037650D01*
X20101872Y-24848400D01*
X20089612Y-24723918D01*
X20053302Y-24604220D01*
X19994337Y-24493906D01*
X19914985Y-24397215D01*
X19818294Y-24317863D01*
X19707980Y-24258898D01*
X19588282Y-24222588D01*
X19463800Y-24210328D01*
X19312050Y-24213400D01*
X19153302Y-24372148D01*
X19153302Y-24213400D01*
X19086802Y-24213400D01*
X19338730Y-23961472D01*
X19401800Y-23961472D01*
X19526282Y-23949212D01*
X19645980Y-23912902D01*
X19744220Y-23860391D01*
X19876086Y-23847403D01*
X20019347Y-23803946D01*
X20151376Y-23733374D01*
X20267101Y-23638401D01*
X20362074Y-23522676D01*
X20432646Y-23390647D01*
X20464784Y-23284700D01*
X21127177Y-23284700D01*
X21270402Y-23344026D01*
X21470361Y-23383800D01*
X21532499Y-23383800D01*
X22918100Y-24769402D01*
X22941899Y-24798401D01*
X23057624Y-24893374D01*
X23189653Y-24963946D01*
X23332914Y-25007403D01*
X23444567Y-25018400D01*
X23444576Y-25018400D01*
X23479281Y-25021818D01*
X23448868Y-25095242D01*
X23391800Y-25382140D01*
X23391800Y-25674660D01*
X23448868Y-25961558D01*
X23560810Y-26231811D01*
X23723325Y-26475032D01*
X23930168Y-26681875D01*
X24173389Y-26844390D01*
X24443642Y-26956332D01*
X24730540Y-27013400D01*
X25023060Y-27013400D01*
X25309958Y-26956332D01*
X25580211Y-26844390D01*
X25823432Y-26681875D01*
X26030275Y-26475032D01*
X26147900Y-26298994D01*
X26319212Y-26528669D01*
X26535445Y-26723578D01*
X26785548Y-26872557D01*
X27059909Y-26969881D01*
X27289800Y-26849214D01*
X27289800Y-25655400D01*
X27543800Y-25655400D01*
X27543800Y-26849214D01*
X27773691Y-26969881D01*
X28048052Y-26872557D01*
X28298155Y-26723578D01*
X28514388Y-26528669D01*
X28688441Y-26295320D01*
X28813625Y-26032499D01*
X28858276Y-25885290D01*
X28736955Y-25655400D01*
X27543800Y-25655400D01*
X27289800Y-25655400D01*
X27269800Y-25655400D01*
X27269800Y-25401400D01*
X27289800Y-25401400D01*
X27289800Y-25381400D01*
X27543800Y-25381400D01*
X27543800Y-25401400D01*
X28736955Y-25401400D01*
X28858276Y-25171510D01*
X28813625Y-25024301D01*
X28810814Y-25018400D01*
X29549199Y-25018400D01*
X34652001Y-30121203D01*
X34675799Y-30150201D01*
X34704797Y-30173999D01*
X34791523Y-30245174D01*
X34912934Y-30310070D01*
X34923553Y-30315746D01*
X35066814Y-30359203D01*
X35178467Y-30370200D01*
X35178476Y-30370200D01*
X35215799Y-30373876D01*
X35253122Y-30370200D01*
X35558522Y-30370200D01*
X35488376Y-30501433D01*
X35432053Y-30687106D01*
X35413035Y-30880200D01*
X35432053Y-31073294D01*
X35488376Y-31258967D01*
X35579840Y-31430084D01*
X35702930Y-31580070D01*
X35852916Y-31703160D01*
X36024033Y-31794624D01*
X36209706Y-31850947D01*
X36354420Y-31865200D01*
X37151180Y-31865200D01*
X37295894Y-31850947D01*
X37481567Y-31794624D01*
X37652684Y-31703160D01*
X37729401Y-31640200D01*
X37740767Y-31640200D01*
X37778100Y-31643877D01*
X37815433Y-31640200D01*
X37927086Y-31629203D01*
X38070347Y-31585746D01*
X38202376Y-31515174D01*
X38318101Y-31420201D01*
X38413074Y-31304476D01*
X38483646Y-31172447D01*
X38527103Y-31029186D01*
X38541777Y-30880200D01*
X38538100Y-30842867D01*
X38538100Y-28377532D01*
X38541777Y-28340200D01*
X38538100Y-28302867D01*
X38538100Y-25846723D01*
X38598256Y-25821805D01*
X38767774Y-25708537D01*
X38911937Y-25564374D01*
X39025205Y-25394856D01*
X39103226Y-25206498D01*
X39143000Y-25006539D01*
X39143000Y-24802661D01*
X39125485Y-24714608D01*
X53017800Y-31884836D01*
X53017801Y-34501305D01*
X53027745Y-34602269D01*
X52972222Y-35224393D01*
X52771095Y-35959589D01*
X52442952Y-36647555D01*
X51998174Y-37266528D01*
X51450812Y-37796961D01*
X50818162Y-38222083D01*
X50120239Y-38528451D01*
X49373619Y-38707699D01*
X48726770Y-38755200D01*
X4784418Y-38755200D01*
X3993607Y-38684622D01*
X3258411Y-38483495D01*
X2570445Y-38155352D01*
X1951472Y-37710574D01*
X1421039Y-37163212D01*
X995917Y-36530562D01*
X689549Y-35832639D01*
X510301Y-35086019D01*
X462800Y-34439170D01*
X462800Y-34245072D01*
X2517800Y-34245072D01*
X2517800Y-34685328D01*
X2603690Y-35117125D01*
X2772169Y-35523869D01*
X3016762Y-35889929D01*
X3328071Y-36201238D01*
X3694131Y-36445831D01*
X4100875Y-36614310D01*
X4532672Y-36700200D01*
X4972928Y-36700200D01*
X5404725Y-36614310D01*
X5811469Y-36445831D01*
X6177529Y-36201238D01*
X6488838Y-35889929D01*
X6733431Y-35523869D01*
X6901910Y-35117125D01*
X6987800Y-34685328D01*
X6987800Y-34294317D01*
X7017800Y-34294317D01*
X7017800Y-34636083D01*
X7084475Y-34971281D01*
X7215263Y-35287031D01*
X7405137Y-35571198D01*
X7646802Y-35812863D01*
X7930969Y-36002737D01*
X8246719Y-36133525D01*
X8581917Y-36200200D01*
X8923683Y-36200200D01*
X9258881Y-36133525D01*
X9574631Y-36002737D01*
X9858798Y-35812863D01*
X10100463Y-35571198D01*
X10290337Y-35287031D01*
X10421125Y-34971281D01*
X10487800Y-34636083D01*
X10487800Y-34294317D01*
X43017800Y-34294317D01*
X43017800Y-34636083D01*
X43084475Y-34971281D01*
X43215263Y-35287031D01*
X43405137Y-35571198D01*
X43646802Y-35812863D01*
X43930969Y-36002737D01*
X44246719Y-36133525D01*
X44581917Y-36200200D01*
X44923683Y-36200200D01*
X45258881Y-36133525D01*
X45574631Y-36002737D01*
X45858798Y-35812863D01*
X46100463Y-35571198D01*
X46290337Y-35287031D01*
X46421125Y-34971281D01*
X46487800Y-34636083D01*
X46487800Y-34294317D01*
X46478005Y-34245072D01*
X46517800Y-34245072D01*
X46517800Y-34685328D01*
X46603690Y-35117125D01*
X46772169Y-35523869D01*
X47016762Y-35889929D01*
X47328071Y-36201238D01*
X47694131Y-36445831D01*
X48100875Y-36614310D01*
X48532672Y-36700200D01*
X48972928Y-36700200D01*
X49404725Y-36614310D01*
X49811469Y-36445831D01*
X50177529Y-36201238D01*
X50488838Y-35889929D01*
X50733431Y-35523869D01*
X50901910Y-35117125D01*
X50987800Y-34685328D01*
X50987800Y-34245072D01*
X50901910Y-33813275D01*
X50733431Y-33406531D01*
X50488838Y-33040471D01*
X50177529Y-32729162D01*
X49811469Y-32484569D01*
X49404725Y-32316090D01*
X48972928Y-32230200D01*
X48532672Y-32230200D01*
X48100875Y-32316090D01*
X47694131Y-32484569D01*
X47328071Y-32729162D01*
X47016762Y-33040471D01*
X46772169Y-33406531D01*
X46603690Y-33813275D01*
X46517800Y-34245072D01*
X46478005Y-34245072D01*
X46421125Y-33959119D01*
X46290337Y-33643369D01*
X46100463Y-33359202D01*
X45858798Y-33117537D01*
X45574631Y-32927663D01*
X45258881Y-32796875D01*
X44923683Y-32730200D01*
X44581917Y-32730200D01*
X44246719Y-32796875D01*
X43930969Y-32927663D01*
X43646802Y-33117537D01*
X43405137Y-33359202D01*
X43215263Y-33643369D01*
X43084475Y-33959119D01*
X43017800Y-34294317D01*
X10487800Y-34294317D01*
X10421125Y-33959119D01*
X10290337Y-33643369D01*
X10100463Y-33359202D01*
X9858798Y-33117537D01*
X9574631Y-32927663D01*
X9258881Y-32796875D01*
X8923683Y-32730200D01*
X8581917Y-32730200D01*
X8246719Y-32796875D01*
X7930969Y-32927663D01*
X7646802Y-33117537D01*
X7405137Y-33359202D01*
X7215263Y-33643369D01*
X7084475Y-33959119D01*
X7017800Y-34294317D01*
X6987800Y-34294317D01*
X6987800Y-34245072D01*
X6901910Y-33813275D01*
X6733431Y-33406531D01*
X6488838Y-33040471D01*
X6177529Y-32729162D01*
X5811469Y-32484569D01*
X5404725Y-32316090D01*
X4972928Y-32230200D01*
X4532672Y-32230200D01*
X4100875Y-32316090D01*
X3694131Y-32484569D01*
X3328071Y-32729162D01*
X3016762Y-33040471D01*
X2772169Y-33406531D01*
X2603690Y-33813275D01*
X2517800Y-34245072D01*
X462800Y-34245072D01*
X462800Y-10773400D01*
X3738728Y-10773400D01*
X3738728Y-13773400D01*
X3750988Y-13897882D01*
X3787298Y-14017580D01*
X3846263Y-14127894D01*
X3925615Y-14224585D01*
X4022306Y-14303937D01*
X4132620Y-14362902D01*
X4252318Y-14399212D01*
X4376800Y-14411472D01*
X7376800Y-14411472D01*
X7501282Y-14399212D01*
X7620980Y-14362902D01*
X7674691Y-14334192D01*
X9377463Y-16036964D01*
X9366500Y-16148268D01*
X9366500Y-16148278D01*
X9362824Y-16185600D01*
X9366500Y-16222922D01*
X9366500Y-16561067D01*
X9362823Y-16598400D01*
X9377497Y-16747386D01*
X9420954Y-16890647D01*
X9491526Y-17022676D01*
X9586499Y-17138401D01*
X9702224Y-17233374D01*
X9816800Y-17294617D01*
X9816800Y-17375402D01*
X9890978Y-17375402D01*
X9865601Y-17421395D01*
X9849307Y-17472643D01*
X9816800Y-17505150D01*
X9824163Y-17573400D01*
X9816800Y-17641650D01*
X9849307Y-17674157D01*
X9865601Y-17725405D01*
X9890977Y-17771398D01*
X9816800Y-17771398D01*
X9816800Y-17788400D01*
X7967100Y-17788400D01*
X8011800Y-17563679D01*
X8011800Y-17143121D01*
X7929753Y-16730644D01*
X7768812Y-16342098D01*
X7535163Y-15992417D01*
X7237783Y-15695037D01*
X6888102Y-15461388D01*
X6499556Y-15300447D01*
X6087079Y-15218400D01*
X5666521Y-15218400D01*
X5254044Y-15300447D01*
X4865498Y-15461388D01*
X4515817Y-15695037D01*
X4218437Y-15992417D01*
X3984788Y-16342098D01*
X3823847Y-16730644D01*
X3741800Y-17143121D01*
X3741800Y-17563679D01*
X3823847Y-17976156D01*
X3984788Y-18364702D01*
X4218437Y-18714383D01*
X4515817Y-19011763D01*
X4865498Y-19245412D01*
X5254044Y-19406353D01*
X5666521Y-19488400D01*
X6087079Y-19488400D01*
X6499556Y-19406353D01*
X6830320Y-19269346D01*
X6922814Y-19297403D01*
X7034467Y-19308400D01*
X7034476Y-19308400D01*
X7071799Y-19312076D01*
X7109122Y-19308400D01*
X9373657Y-19308400D01*
X9377497Y-19347386D01*
X9420954Y-19490647D01*
X9438461Y-19523400D01*
X9420954Y-19556153D01*
X9377497Y-19699414D01*
X9373657Y-19738400D01*
X7849122Y-19738400D01*
X7811799Y-19734724D01*
X7774476Y-19738400D01*
X7774467Y-19738400D01*
X7662814Y-19749397D01*
X7519553Y-19792854D01*
X7387524Y-19863426D01*
X7271799Y-19958399D01*
X7248001Y-19987397D01*
X6750858Y-20484540D01*
X6499556Y-20380447D01*
X6087079Y-20298400D01*
X5666521Y-20298400D01*
X5254044Y-20380447D01*
X4865498Y-20541388D01*
X4515817Y-20775037D01*
X4218437Y-21072417D01*
X3984788Y-21422098D01*
X3823847Y-21810644D01*
X3741800Y-22223121D01*
X3741800Y-22643679D01*
X3823847Y-23056156D01*
X3984788Y-23444702D01*
X4218437Y-23794383D01*
X4515817Y-24091763D01*
X4865498Y-24325412D01*
X5254044Y-24486353D01*
X5666521Y-24568400D01*
X6087079Y-24568400D01*
X6499556Y-24486353D01*
X6888102Y-24325412D01*
X7237783Y-24091763D01*
X7535163Y-23794383D01*
X7768812Y-23444702D01*
X7929753Y-23056156D01*
X8011800Y-22643679D01*
X8011800Y-22223121D01*
X7929753Y-21810644D01*
X7825660Y-21559342D01*
X8126602Y-21258400D01*
X9816800Y-21258400D01*
X9816800Y-21275402D01*
X9890977Y-21275402D01*
X9865601Y-21321395D01*
X9849307Y-21372643D01*
X9816800Y-21405150D01*
X9824163Y-21473400D01*
X9816800Y-21541650D01*
X9849307Y-21574157D01*
X9865601Y-21625405D01*
X9890978Y-21671398D01*
X9816800Y-21671398D01*
X9816800Y-21752183D01*
X9702224Y-21813426D01*
X9586499Y-21908399D01*
X9491526Y-22024124D01*
X9420954Y-22156153D01*
X9377497Y-22299414D01*
X9362823Y-22448400D01*
X9366500Y-22485733D01*
X9366500Y-22823878D01*
X9362824Y-22861200D01*
X9366500Y-22898522D01*
X9366500Y-22898532D01*
X9371016Y-22944381D01*
X6750858Y-25564540D01*
X6499556Y-25460447D01*
X6087079Y-25378400D01*
X5666521Y-25378400D01*
X5254044Y-25460447D01*
X4865498Y-25621388D01*
X4515817Y-25855037D01*
X4218437Y-26152417D01*
X3984788Y-26502098D01*
X3823847Y-26890644D01*
X3741800Y-27303121D01*
X3741800Y-27723679D01*
X3823847Y-28136156D01*
X3984788Y-28524702D01*
X4218437Y-28874383D01*
X4515817Y-29171763D01*
X4865498Y-29405412D01*
X5254044Y-29566353D01*
X5666521Y-29648400D01*
X6087079Y-29648400D01*
X6499556Y-29566353D01*
X6888102Y-29405412D01*
X7237783Y-29171763D01*
X7535163Y-28874383D01*
X7768812Y-28524702D01*
X7929753Y-28136156D01*
X8011800Y-27723679D01*
X8011800Y-27303121D01*
X7929753Y-26890644D01*
X7825660Y-26639342D01*
X8116602Y-26348400D01*
X12600728Y-26348400D01*
X12612988Y-26472882D01*
X12649298Y-26592580D01*
X12708263Y-26702894D01*
X12787615Y-26799585D01*
X12884306Y-26878937D01*
X12994620Y-26937902D01*
X13114318Y-26974212D01*
X13238800Y-26986472D01*
X13440550Y-26983400D01*
X13599300Y-26824650D01*
X13599300Y-25775400D01*
X12762550Y-25775400D01*
X12603800Y-25934150D01*
X12600728Y-26348400D01*
X8116602Y-26348400D01*
X9516602Y-24948400D01*
X12600728Y-24948400D01*
X12603800Y-25362650D01*
X12762550Y-25521400D01*
X13599300Y-25521400D01*
X13599300Y-24472150D01*
X13440550Y-24313400D01*
X13238800Y-24310328D01*
X13114318Y-24322588D01*
X12994620Y-24358898D01*
X12884306Y-24417863D01*
X12787615Y-24497215D01*
X12708263Y-24593906D01*
X12649298Y-24704220D01*
X12612988Y-24823918D01*
X12600728Y-24948400D01*
X9516602Y-24948400D01*
X10503531Y-23961472D01*
X12201800Y-23961472D01*
X12326282Y-23949212D01*
X12445980Y-23912902D01*
X12556294Y-23853937D01*
X12652985Y-23774585D01*
X12732337Y-23677894D01*
X12791302Y-23567580D01*
X12827612Y-23447882D01*
X12839872Y-23323400D01*
X12839872Y-22873400D01*
X12830023Y-22773400D01*
X12839872Y-22673400D01*
X12839872Y-22223400D01*
X12829744Y-22120562D01*
X12836800Y-22055150D01*
X12804553Y-22022903D01*
X12791302Y-21979220D01*
X12732337Y-21868906D01*
X12674264Y-21798144D01*
X12727572Y-21734924D01*
X12787999Y-21625405D01*
X12804293Y-21574157D01*
X12836800Y-21541650D01*
X12829437Y-21473400D01*
X12836800Y-21405150D01*
X12804293Y-21372643D01*
X12787999Y-21321395D01*
X12727572Y-21211876D01*
X12674264Y-21148656D01*
X12732337Y-21077894D01*
X12791302Y-20967580D01*
X12804553Y-20923897D01*
X12836800Y-20891650D01*
X12829744Y-20826238D01*
X12839872Y-20723400D01*
X12839872Y-20273400D01*
X12830023Y-20173400D01*
X12839872Y-20073400D01*
X12839872Y-19623400D01*
X12830023Y-19523400D01*
X12839872Y-19423400D01*
X12839872Y-18973400D01*
X12830023Y-18873400D01*
X12839872Y-18773400D01*
X12839872Y-18323400D01*
X12829744Y-18220562D01*
X12836800Y-18155150D01*
X12804553Y-18122903D01*
X12791302Y-18079220D01*
X12732337Y-17968906D01*
X12674264Y-17898144D01*
X12727572Y-17834924D01*
X12787999Y-17725405D01*
X12804293Y-17674157D01*
X12836800Y-17641650D01*
X12829437Y-17573400D01*
X12836800Y-17505150D01*
X12804293Y-17472643D01*
X12787999Y-17421395D01*
X12727572Y-17311876D01*
X12674264Y-17248656D01*
X12732337Y-17177894D01*
X12791302Y-17067580D01*
X12804553Y-17023897D01*
X12836800Y-16991650D01*
X12829744Y-16926238D01*
X12839872Y-16823400D01*
X12839872Y-16373400D01*
X12830023Y-16273400D01*
X12839872Y-16173400D01*
X12839872Y-15723400D01*
X12827612Y-15598918D01*
X12791302Y-15479220D01*
X12732337Y-15368906D01*
X12652985Y-15272215D01*
X12556294Y-15192863D01*
X12445980Y-15133898D01*
X12326282Y-15097588D01*
X12201800Y-15085328D01*
X10575430Y-15085328D01*
X8462100Y-12971999D01*
X8462100Y-12310733D01*
X8465777Y-12273400D01*
X8451103Y-12124414D01*
X8407646Y-11981153D01*
X8337074Y-11849124D01*
X8242101Y-11733399D01*
X8126376Y-11638426D01*
X8014872Y-11578825D01*
X8014872Y-10773400D01*
X8002612Y-10648918D01*
X7966302Y-10529220D01*
X7907337Y-10418906D01*
X7827985Y-10322215D01*
X7731294Y-10242863D01*
X7620980Y-10183898D01*
X7501282Y-10147588D01*
X7376800Y-10135328D01*
X4376800Y-10135328D01*
X4252318Y-10147588D01*
X4132620Y-10183898D01*
X4022306Y-10242863D01*
X3925615Y-10322215D01*
X3846263Y-10418906D01*
X3787298Y-10529220D01*
X3750988Y-10648918D01*
X3738728Y-10773400D01*
X462800Y-10773400D01*
X462800Y926600D01*
X13725728Y926600D01*
X13728800Y737350D01*
X13887550Y578600D01*
X14674300Y578600D01*
X14674300Y1402850D01*
X14515550Y1561600D01*
X14363800Y1564672D01*
X14239318Y1552412D01*
X14119620Y1516102D01*
X14009306Y1457137D01*
X13912615Y1377785D01*
X13833263Y1281094D01*
X13774298Y1170780D01*
X13737988Y1051082D01*
X13725728Y926600D01*
X462800Y926600D01*
X462800Y9503182D01*
X485267Y9754928D01*
X2517800Y9754928D01*
X2517800Y9314672D01*
X2603690Y8882875D01*
X2772169Y8476131D01*
X3016762Y8110071D01*
X3328071Y7798762D01*
X3694131Y7554169D01*
X4100875Y7385690D01*
X4532672Y7299800D01*
X4972928Y7299800D01*
X5404725Y7385690D01*
X5811469Y7554169D01*
X6177529Y7798762D01*
X6488838Y8110071D01*
X6733431Y8476131D01*
X6901910Y8882875D01*
X6987800Y9314672D01*
X6987800Y9705683D01*
X7017800Y9705683D01*
X7017800Y9363917D01*
X7084475Y9028719D01*
X7215263Y8712969D01*
X7405137Y8428802D01*
X7646802Y8187137D01*
X7930969Y7997263D01*
X8246719Y7866475D01*
X8581917Y7799800D01*
X8923683Y7799800D01*
X9258881Y7866475D01*
X9574631Y7997263D01*
X9858798Y8187137D01*
X10100463Y8428802D01*
X10290337Y8712969D01*
X10421125Y9028719D01*
X10487800Y9363917D01*
X10487800Y9705683D01*
X43017800Y9705683D01*
X43017800Y9363917D01*
X43084475Y9028719D01*
X43215263Y8712969D01*
X43405137Y8428802D01*
X43646802Y8187137D01*
X43930969Y7997263D01*
X44246719Y7866475D01*
X44581917Y7799800D01*
X44923683Y7799800D01*
X45258881Y7866475D01*
X45574631Y7997263D01*
X45858798Y8187137D01*
X46100463Y8428802D01*
X46290337Y8712969D01*
X46421125Y9028719D01*
X46487800Y9363917D01*
X46487800Y9705683D01*
X46478005Y9754928D01*
X46517800Y9754928D01*
X46517800Y9314672D01*
X46603690Y8882875D01*
X46772169Y8476131D01*
X47016762Y8110071D01*
X47328071Y7798762D01*
X47694131Y7554169D01*
X48100875Y7385690D01*
X48532672Y7299800D01*
X48972928Y7299800D01*
X49404725Y7385690D01*
X49811469Y7554169D01*
X50177529Y7798762D01*
X50488838Y8110071D01*
X50733431Y8476131D01*
X50901910Y8882875D01*
X50987800Y9314672D01*
X50987800Y9754928D01*
X50901910Y10186725D01*
X50733431Y10593469D01*
X50488838Y10959529D01*
X50177529Y11270838D01*
X49811469Y11515431D01*
X49404725Y11683910D01*
X48972928Y11769800D01*
X48532672Y11769800D01*
X48100875Y11683910D01*
X47694131Y11515431D01*
X47328071Y11270838D01*
X47016762Y10959529D01*
X46772169Y10593469D01*
X46603690Y10186725D01*
X46517800Y9754928D01*
X46478005Y9754928D01*
X46421125Y10040881D01*
X46290337Y10356631D01*
X46100463Y10640798D01*
X45858798Y10882463D01*
X45574631Y11072337D01*
X45258881Y11203125D01*
X44923683Y11269800D01*
X44581917Y11269800D01*
X44246719Y11203125D01*
X43930969Y11072337D01*
X43646802Y10882463D01*
X43405137Y10640798D01*
X43215263Y10356631D01*
X43084475Y10040881D01*
X43017800Y9705683D01*
X10487800Y9705683D01*
X10421125Y10040881D01*
X10290337Y10356631D01*
X10100463Y10640798D01*
X9858798Y10882463D01*
X9574631Y11072337D01*
X9258881Y11203125D01*
X8923683Y11269800D01*
X8581917Y11269800D01*
X8246719Y11203125D01*
X7930969Y11072337D01*
X7646802Y10882463D01*
X7405137Y10640798D01*
X7215263Y10356631D01*
X7084475Y10040881D01*
X7017800Y9705683D01*
X6987800Y9705683D01*
X6987800Y9754928D01*
X6901910Y10186725D01*
X6733431Y10593469D01*
X6488838Y10959529D01*
X6177529Y11270838D01*
X5811469Y11515431D01*
X5404725Y11683910D01*
X4972928Y11769800D01*
X4532672Y11769800D01*
X4100875Y11683910D01*
X3694131Y11515431D01*
X3328071Y11270838D01*
X3016762Y10959529D01*
X2772169Y10593469D01*
X2603690Y10186725D01*
X2517800Y9754928D01*
X485267Y9754928D01*
X533378Y10293992D01*
X734505Y11029189D01*
X1062646Y11717151D01*
X1507428Y12336131D01*
X2054788Y12866561D01*
X2687439Y13291684D01*
X3385361Y13598051D01*
X4131983Y13777299D01*
X4778830Y13824800D01*
X48721182Y13824800D01*
X49511992Y13754222D01*
G36*
X34967501Y-11346003D02*
G01*
X34967500Y-14332867D01*
X34963823Y-14370200D01*
X34966925Y-14401692D01*
X34872502Y-14420474D01*
X34684144Y-14498495D01*
X34514626Y-14611763D01*
X34370463Y-14755926D01*
X34257195Y-14925444D01*
X34179174Y-15113802D01*
X34139400Y-15313761D01*
X34139400Y-15517639D01*
X34179174Y-15717598D01*
X34257195Y-15905956D01*
X34370463Y-16075474D01*
X34514626Y-16219637D01*
X34684144Y-16332905D01*
X34872502Y-16410926D01*
X34967501Y-16429822D01*
X34967500Y-16872866D01*
X34963823Y-16910200D01*
X34978497Y-17059186D01*
X35021954Y-17202447D01*
X35092526Y-17334476D01*
X35173937Y-17433676D01*
X35187499Y-17450201D01*
X35303224Y-17545174D01*
X35435253Y-17615746D01*
X35566369Y-17655519D01*
X35488376Y-17801433D01*
X35432053Y-17987106D01*
X35413035Y-18180200D01*
X35432053Y-18373294D01*
X35488376Y-18558967D01*
X35579840Y-18730084D01*
X35649693Y-18815200D01*
X35579840Y-18900316D01*
X35488376Y-19071433D01*
X35432053Y-19257106D01*
X35413035Y-19450200D01*
X35432053Y-19643294D01*
X35488376Y-19828967D01*
X35579840Y-20000084D01*
X35649693Y-20085200D01*
X35579840Y-20170316D01*
X35488376Y-20341433D01*
X35432053Y-20527106D01*
X35413035Y-20720200D01*
X35432053Y-20913294D01*
X35488376Y-21098967D01*
X35579840Y-21270084D01*
X35649693Y-21355200D01*
X35579840Y-21440316D01*
X35488376Y-21611433D01*
X35432053Y-21797106D01*
X35413035Y-21990200D01*
X35432053Y-22183294D01*
X35488376Y-22368967D01*
X35579840Y-22540084D01*
X35649693Y-22625200D01*
X35579840Y-22710316D01*
X35488376Y-22881433D01*
X35432053Y-23067106D01*
X35413035Y-23260200D01*
X35432053Y-23453294D01*
X35488376Y-23638967D01*
X35579840Y-23810084D01*
X35649693Y-23895200D01*
X35579840Y-23980316D01*
X35488376Y-24151433D01*
X35432053Y-24337106D01*
X35413035Y-24530200D01*
X35432053Y-24723294D01*
X35488376Y-24908967D01*
X35579840Y-25080084D01*
X35649693Y-25165200D01*
X35579840Y-25250316D01*
X35488376Y-25421433D01*
X35432053Y-25607106D01*
X35413035Y-25800200D01*
X35432053Y-25993294D01*
X35488376Y-26178967D01*
X35579840Y-26350084D01*
X35649693Y-26435200D01*
X35579840Y-26520316D01*
X35488376Y-26691433D01*
X35432053Y-26877106D01*
X35413035Y-27070200D01*
X35432053Y-27263294D01*
X35488376Y-27448967D01*
X35579840Y-27620084D01*
X35649693Y-27705200D01*
X35579840Y-27790316D01*
X35488376Y-27961433D01*
X35432053Y-28147106D01*
X35413035Y-28340200D01*
X35432053Y-28533294D01*
X35488376Y-28718967D01*
X35558522Y-28850200D01*
X35530602Y-28850200D01*
X30427804Y-23747403D01*
X30404001Y-23718399D01*
X30288276Y-23623426D01*
X30156247Y-23552854D01*
X30012986Y-23509397D01*
X29901333Y-23498400D01*
X29901322Y-23498400D01*
X29864000Y-23494724D01*
X29826678Y-23498400D01*
X28812903Y-23498400D01*
X28844732Y-23421558D01*
X28901800Y-23134660D01*
X28901800Y-22842140D01*
X28844732Y-22555242D01*
X28732790Y-22284989D01*
X28570275Y-22041768D01*
X28363432Y-21834925D01*
X28189040Y-21718400D01*
X28363432Y-21601875D01*
X28570275Y-21395032D01*
X28732790Y-21151811D01*
X28844732Y-20881558D01*
X28901800Y-20594660D01*
X28901800Y-20302140D01*
X28844732Y-20015242D01*
X28732790Y-19744989D01*
X28570275Y-19501768D01*
X28363432Y-19294925D01*
X28176800Y-19170222D01*
X28176800Y-9058133D01*
X28180477Y-9020800D01*
X28165803Y-8871814D01*
X28122346Y-8728553D01*
X28051774Y-8596524D01*
X28000257Y-8533750D01*
X27956801Y-8480799D01*
X27927803Y-8457001D01*
X27329201Y-7858400D01*
X28225178Y-7858400D01*
X28230192Y-7909308D01*
X28278950Y-8070042D01*
X28358129Y-8218175D01*
X28464685Y-8348015D01*
X28594525Y-8454571D01*
X28742658Y-8533750D01*
X28903392Y-8582508D01*
X29070550Y-8598972D01*
X29583050Y-8598972D01*
X29750208Y-8582508D01*
X29910942Y-8533750D01*
X30059075Y-8454571D01*
X30188915Y-8348015D01*
X30295471Y-8218175D01*
X30374650Y-8070042D01*
X30423408Y-7909308D01*
X30439872Y-7742150D01*
X30439872Y-7304650D01*
X30423408Y-7137492D01*
X30374650Y-6976758D01*
X30295471Y-6828625D01*
X30277700Y-6806970D01*
X30332337Y-6740394D01*
X30342632Y-6721134D01*
X34967501Y-11346003D01*
G37*
X34967501Y-11346003D02*
X34967500Y-14332867D01*
X34963823Y-14370200D01*
X34966925Y-14401692D01*
X34872502Y-14420474D01*
X34684144Y-14498495D01*
X34514626Y-14611763D01*
X34370463Y-14755926D01*
X34257195Y-14925444D01*
X34179174Y-15113802D01*
X34139400Y-15313761D01*
X34139400Y-15517639D01*
X34179174Y-15717598D01*
X34257195Y-15905956D01*
X34370463Y-16075474D01*
X34514626Y-16219637D01*
X34684144Y-16332905D01*
X34872502Y-16410926D01*
X34967501Y-16429822D01*
X34967500Y-16872866D01*
X34963823Y-16910200D01*
X34978497Y-17059186D01*
X35021954Y-17202447D01*
X35092526Y-17334476D01*
X35173937Y-17433676D01*
X35187499Y-17450201D01*
X35303224Y-17545174D01*
X35435253Y-17615746D01*
X35566369Y-17655519D01*
X35488376Y-17801433D01*
X35432053Y-17987106D01*
X35413035Y-18180200D01*
X35432053Y-18373294D01*
X35488376Y-18558967D01*
X35579840Y-18730084D01*
X35649693Y-18815200D01*
X35579840Y-18900316D01*
X35488376Y-19071433D01*
X35432053Y-19257106D01*
X35413035Y-19450200D01*
X35432053Y-19643294D01*
X35488376Y-19828967D01*
X35579840Y-20000084D01*
X35649693Y-20085200D01*
X35579840Y-20170316D01*
X35488376Y-20341433D01*
X35432053Y-20527106D01*
X35413035Y-20720200D01*
X35432053Y-20913294D01*
X35488376Y-21098967D01*
X35579840Y-21270084D01*
X35649693Y-21355200D01*
X35579840Y-21440316D01*
X35488376Y-21611433D01*
X35432053Y-21797106D01*
X35413035Y-21990200D01*
X35432053Y-22183294D01*
X35488376Y-22368967D01*
X35579840Y-22540084D01*
X35649693Y-22625200D01*
X35579840Y-22710316D01*
X35488376Y-22881433D01*
X35432053Y-23067106D01*
X35413035Y-23260200D01*
X35432053Y-23453294D01*
X35488376Y-23638967D01*
X35579840Y-23810084D01*
X35649693Y-23895200D01*
X35579840Y-23980316D01*
X35488376Y-24151433D01*
X35432053Y-24337106D01*
X35413035Y-24530200D01*
X35432053Y-24723294D01*
X35488376Y-24908967D01*
X35579840Y-25080084D01*
X35649693Y-25165200D01*
X35579840Y-25250316D01*
X35488376Y-25421433D01*
X35432053Y-25607106D01*
X35413035Y-25800200D01*
X35432053Y-25993294D01*
X35488376Y-26178967D01*
X35579840Y-26350084D01*
X35649693Y-26435200D01*
X35579840Y-26520316D01*
X35488376Y-26691433D01*
X35432053Y-26877106D01*
X35413035Y-27070200D01*
X35432053Y-27263294D01*
X35488376Y-27448967D01*
X35579840Y-27620084D01*
X35649693Y-27705200D01*
X35579840Y-27790316D01*
X35488376Y-27961433D01*
X35432053Y-28147106D01*
X35413035Y-28340200D01*
X35432053Y-28533294D01*
X35488376Y-28718967D01*
X35558522Y-28850200D01*
X35530602Y-28850200D01*
X30427804Y-23747403D01*
X30404001Y-23718399D01*
X30288276Y-23623426D01*
X30156247Y-23552854D01*
X30012986Y-23509397D01*
X29901333Y-23498400D01*
X29901322Y-23498400D01*
X29864000Y-23494724D01*
X29826678Y-23498400D01*
X28812903Y-23498400D01*
X28844732Y-23421558D01*
X28901800Y-23134660D01*
X28901800Y-22842140D01*
X28844732Y-22555242D01*
X28732790Y-22284989D01*
X28570275Y-22041768D01*
X28363432Y-21834925D01*
X28189040Y-21718400D01*
X28363432Y-21601875D01*
X28570275Y-21395032D01*
X28732790Y-21151811D01*
X28844732Y-20881558D01*
X28901800Y-20594660D01*
X28901800Y-20302140D01*
X28844732Y-20015242D01*
X28732790Y-19744989D01*
X28570275Y-19501768D01*
X28363432Y-19294925D01*
X28176800Y-19170222D01*
X28176800Y-9058133D01*
X28180477Y-9020800D01*
X28165803Y-8871814D01*
X28122346Y-8728553D01*
X28051774Y-8596524D01*
X28000257Y-8533750D01*
X27956801Y-8480799D01*
X27927803Y-8457001D01*
X27329201Y-7858400D01*
X28225178Y-7858400D01*
X28230192Y-7909308D01*
X28278950Y-8070042D01*
X28358129Y-8218175D01*
X28464685Y-8348015D01*
X28594525Y-8454571D01*
X28742658Y-8533750D01*
X28903392Y-8582508D01*
X29070550Y-8598972D01*
X29583050Y-8598972D01*
X29750208Y-8582508D01*
X29910942Y-8533750D01*
X30059075Y-8454571D01*
X30188915Y-8348015D01*
X30295471Y-8218175D01*
X30374650Y-8070042D01*
X30423408Y-7909308D01*
X30439872Y-7742150D01*
X30439872Y-7304650D01*
X30423408Y-7137492D01*
X30374650Y-6976758D01*
X30295471Y-6828625D01*
X30277700Y-6806970D01*
X30332337Y-6740394D01*
X30342632Y-6721134D01*
X34967501Y-11346003D01*
G36*
X34033001Y358797D02*
G01*
X34056799Y329799D01*
X34172524Y234826D01*
X34304553Y164254D01*
X34447814Y120797D01*
X34559467Y109800D01*
X34559477Y109800D01*
X34596800Y106124D01*
X34634123Y109800D01*
X35556008Y109800D01*
X35513246Y41441D01*
X35457915Y-121962D01*
X35586369Y-273200D01*
X36625800Y-273200D01*
X36625800Y-253200D01*
X36879800Y-253200D01*
X36879800Y-273200D01*
X36899800Y-273200D01*
X36899800Y-527200D01*
X36879800Y-527200D01*
X36879800Y-547200D01*
X36625800Y-547200D01*
X36625800Y-527200D01*
X35586369Y-527200D01*
X35457915Y-678438D01*
X35513246Y-841841D01*
X35616498Y-1006898D01*
X35646645Y-1038914D01*
X35579840Y-1120316D01*
X35488376Y-1291433D01*
X35432053Y-1477106D01*
X35413035Y-1670200D01*
X35432053Y-1863294D01*
X35488376Y-2048967D01*
X35579840Y-2220084D01*
X35649693Y-2305200D01*
X35579840Y-2390316D01*
X35488376Y-2561433D01*
X35432053Y-2747106D01*
X35413035Y-2940200D01*
X35432053Y-3133294D01*
X35488376Y-3318967D01*
X35579840Y-3490084D01*
X35649693Y-3575200D01*
X35579840Y-3660316D01*
X35488376Y-3831433D01*
X35432053Y-4017106D01*
X35413035Y-4210200D01*
X35432053Y-4403294D01*
X35488376Y-4588967D01*
X35579840Y-4760084D01*
X35649693Y-4845200D01*
X35579840Y-4930316D01*
X35488376Y-5101433D01*
X35432053Y-5287106D01*
X35413035Y-5480200D01*
X35432053Y-5673294D01*
X35488376Y-5858967D01*
X35579840Y-6030084D01*
X35649693Y-6115200D01*
X35579840Y-6200316D01*
X35488376Y-6371433D01*
X35432053Y-6557106D01*
X35413035Y-6750200D01*
X35432053Y-6943294D01*
X35488376Y-7128967D01*
X35543688Y-7232448D01*
X35376539Y-7199200D01*
X35314402Y-7199200D01*
X28636800Y-521599D01*
X28636800Y2882031D01*
X28645182Y2888910D01*
X28714490Y2958218D01*
X28793842Y3054909D01*
X28848298Y3136408D01*
X28907264Y3246725D01*
X28944773Y3337281D01*
X28981082Y3456977D01*
X29000204Y3553110D01*
X29012464Y3677591D01*
X29012464Y3702150D01*
X29014872Y3726600D01*
X29014872Y4226600D01*
X29012464Y4251050D01*
X29012464Y4275609D01*
X29010643Y4294100D01*
X30097699Y4294100D01*
X34033001Y358797D01*
G37*
X34033001Y358797D02*
X34056799Y329799D01*
X34172524Y234826D01*
X34304553Y164254D01*
X34447814Y120797D01*
X34559467Y109800D01*
X34559477Y109800D01*
X34596800Y106124D01*
X34634123Y109800D01*
X35556008Y109800D01*
X35513246Y41441D01*
X35457915Y-121962D01*
X35586369Y-273200D01*
X36625800Y-273200D01*
X36625800Y-253200D01*
X36879800Y-253200D01*
X36879800Y-273200D01*
X36899800Y-273200D01*
X36899800Y-527200D01*
X36879800Y-527200D01*
X36879800Y-547200D01*
X36625800Y-547200D01*
X36625800Y-527200D01*
X35586369Y-527200D01*
X35457915Y-678438D01*
X35513246Y-841841D01*
X35616498Y-1006898D01*
X35646645Y-1038914D01*
X35579840Y-1120316D01*
X35488376Y-1291433D01*
X35432053Y-1477106D01*
X35413035Y-1670200D01*
X35432053Y-1863294D01*
X35488376Y-2048967D01*
X35579840Y-2220084D01*
X35649693Y-2305200D01*
X35579840Y-2390316D01*
X35488376Y-2561433D01*
X35432053Y-2747106D01*
X35413035Y-2940200D01*
X35432053Y-3133294D01*
X35488376Y-3318967D01*
X35579840Y-3490084D01*
X35649693Y-3575200D01*
X35579840Y-3660316D01*
X35488376Y-3831433D01*
X35432053Y-4017106D01*
X35413035Y-4210200D01*
X35432053Y-4403294D01*
X35488376Y-4588967D01*
X35579840Y-4760084D01*
X35649693Y-4845200D01*
X35579840Y-4930316D01*
X35488376Y-5101433D01*
X35432053Y-5287106D01*
X35413035Y-5480200D01*
X35432053Y-5673294D01*
X35488376Y-5858967D01*
X35579840Y-6030084D01*
X35649693Y-6115200D01*
X35579840Y-6200316D01*
X35488376Y-6371433D01*
X35432053Y-6557106D01*
X35413035Y-6750200D01*
X35432053Y-6943294D01*
X35488376Y-7128967D01*
X35543688Y-7232448D01*
X35376539Y-7199200D01*
X35314402Y-7199200D01*
X28636800Y-521599D01*
X28636800Y2882031D01*
X28645182Y2888910D01*
X28714490Y2958218D01*
X28793842Y3054909D01*
X28848298Y3136408D01*
X28907264Y3246725D01*
X28944773Y3337281D01*
X28981082Y3456977D01*
X29000204Y3553110D01*
X29012464Y3677591D01*
X29012464Y3702150D01*
X29014872Y3726600D01*
X29014872Y4226600D01*
X29012464Y4251050D01*
X29012464Y4275609D01*
X29010643Y4294100D01*
X30097699Y4294100D01*
X34033001Y358797D01*
G36*
X23628800Y-6721400D02*
G01*
X23648800Y-6721400D01*
X23648800Y-6975400D01*
X23628800Y-6975400D01*
X23628800Y-6995400D01*
X23374800Y-6995400D01*
X23374800Y-6975400D01*
X23354800Y-6975400D01*
X23354800Y-6721400D01*
X23374800Y-6721400D01*
X23374800Y-6701400D01*
X23628800Y-6701400D01*
X23628800Y-6721400D01*
G37*
X23628800Y-6721400D02*
X23648800Y-6721400D01*
X23648800Y-6975400D01*
X23628800Y-6975400D01*
X23628800Y-6995400D01*
X23374800Y-6995400D01*
X23374800Y-6975400D01*
X23354800Y-6975400D01*
X23354800Y-6721400D01*
X23374800Y-6721400D01*
X23374800Y-6701400D01*
X23628800Y-6701400D01*
X23628800Y-6721400D01*
G36*
X22491800Y-1576802D02*
G01*
X22491800Y-1906267D01*
X22488123Y-1943600D01*
X22491800Y-1980933D01*
X22491801Y-3361173D01*
X22450975Y-3348789D01*
X22314300Y-3335328D01*
X22189300Y-3335328D01*
X22052625Y-3348789D01*
X22001800Y-3364207D01*
X21950975Y-3348789D01*
X21814300Y-3335328D01*
X21751029Y-3335328D01*
X21303104Y-2887402D01*
X21279301Y-2858399D01*
X21163576Y-2763426D01*
X21031547Y-2692854D01*
X20888286Y-2649397D01*
X20776633Y-2638400D01*
X20776622Y-2638400D01*
X20739300Y-2634724D01*
X20701978Y-2638400D01*
X17891162Y-2638400D01*
X17848298Y-2558208D01*
X17793842Y-2476709D01*
X17714490Y-2380018D01*
X17645182Y-2310710D01*
X17548491Y-2231358D01*
X17466992Y-2176902D01*
X17356675Y-2117936D01*
X17266119Y-2080427D01*
X17146423Y-2044118D01*
X17050290Y-2024996D01*
X16925809Y-2012736D01*
X16901250Y-2012736D01*
X16876800Y-2010328D01*
X16376800Y-2010328D01*
X16252318Y-2022588D01*
X16132620Y-2058898D01*
X16022306Y-2117863D01*
X15925615Y-2197215D01*
X15846263Y-2293906D01*
X15787298Y-2404220D01*
X15750988Y-2523918D01*
X15738728Y-2648400D01*
X15738728Y-4148400D01*
X15750988Y-4272882D01*
X15787298Y-4392580D01*
X15846263Y-4502894D01*
X15925615Y-4599585D01*
X16022306Y-4678937D01*
X16105489Y-4723400D01*
X16022306Y-4767863D01*
X15925615Y-4847215D01*
X15846263Y-4943906D01*
X15787298Y-5054220D01*
X15750988Y-5173918D01*
X15738728Y-5298400D01*
X15738728Y-6798400D01*
X15740432Y-6815700D01*
X15705202Y-6815700D01*
X15473400Y-6583899D01*
X15473400Y-1526101D01*
X16338030Y-661472D01*
X16595050Y-661472D01*
X16762208Y-645008D01*
X16922942Y-596250D01*
X17071075Y-517071D01*
X17200915Y-410515D01*
X17284718Y-308400D01*
X17408916Y-308400D01*
X17451685Y-360515D01*
X17581525Y-467071D01*
X17729658Y-546250D01*
X17890392Y-595008D01*
X18057550Y-611472D01*
X18495050Y-611472D01*
X18662208Y-595008D01*
X18822942Y-546250D01*
X18971075Y-467071D01*
X19063800Y-390974D01*
X19156525Y-467071D01*
X19304658Y-546250D01*
X19465392Y-595008D01*
X19632550Y-611472D01*
X20070050Y-611472D01*
X20237208Y-595008D01*
X20397942Y-546250D01*
X20546075Y-467071D01*
X20675915Y-360515D01*
X20759718Y-258400D01*
X21173399Y-258400D01*
X22491800Y-1576802D01*
G37*
X22491800Y-1576802D02*
X22491800Y-1906267D01*
X22488123Y-1943600D01*
X22491800Y-1980933D01*
X22491801Y-3361173D01*
X22450975Y-3348789D01*
X22314300Y-3335328D01*
X22189300Y-3335328D01*
X22052625Y-3348789D01*
X22001800Y-3364207D01*
X21950975Y-3348789D01*
X21814300Y-3335328D01*
X21751029Y-3335328D01*
X21303104Y-2887402D01*
X21279301Y-2858399D01*
X21163576Y-2763426D01*
X21031547Y-2692854D01*
X20888286Y-2649397D01*
X20776633Y-2638400D01*
X20776622Y-2638400D01*
X20739300Y-2634724D01*
X20701978Y-2638400D01*
X17891162Y-2638400D01*
X17848298Y-2558208D01*
X17793842Y-2476709D01*
X17714490Y-2380018D01*
X17645182Y-2310710D01*
X17548491Y-2231358D01*
X17466992Y-2176902D01*
X17356675Y-2117936D01*
X17266119Y-2080427D01*
X17146423Y-2044118D01*
X17050290Y-2024996D01*
X16925809Y-2012736D01*
X16901250Y-2012736D01*
X16876800Y-2010328D01*
X16376800Y-2010328D01*
X16252318Y-2022588D01*
X16132620Y-2058898D01*
X16022306Y-2117863D01*
X15925615Y-2197215D01*
X15846263Y-2293906D01*
X15787298Y-2404220D01*
X15750988Y-2523918D01*
X15738728Y-2648400D01*
X15738728Y-4148400D01*
X15750988Y-4272882D01*
X15787298Y-4392580D01*
X15846263Y-4502894D01*
X15925615Y-4599585D01*
X16022306Y-4678937D01*
X16105489Y-4723400D01*
X16022306Y-4767863D01*
X15925615Y-4847215D01*
X15846263Y-4943906D01*
X15787298Y-5054220D01*
X15750988Y-5173918D01*
X15738728Y-5298400D01*
X15738728Y-6798400D01*
X15740432Y-6815700D01*
X15705202Y-6815700D01*
X15473400Y-6583899D01*
X15473400Y-1526101D01*
X16338030Y-661472D01*
X16595050Y-661472D01*
X16762208Y-645008D01*
X16922942Y-596250D01*
X17071075Y-517071D01*
X17200915Y-410515D01*
X17284718Y-308400D01*
X17408916Y-308400D01*
X17451685Y-360515D01*
X17581525Y-467071D01*
X17729658Y-546250D01*
X17890392Y-595008D01*
X18057550Y-611472D01*
X18495050Y-611472D01*
X18662208Y-595008D01*
X18822942Y-546250D01*
X18971075Y-467071D01*
X19063800Y-390974D01*
X19156525Y-467071D01*
X19304658Y-546250D01*
X19465392Y-595008D01*
X19632550Y-611472D01*
X20070050Y-611472D01*
X20237208Y-595008D01*
X20397942Y-546250D01*
X20546075Y-467071D01*
X20675915Y-360515D01*
X20759718Y-258400D01*
X21173399Y-258400D01*
X22491800Y-1576802D01*
G36*
X29473800Y-5852301D02*
G01*
X29473800Y-6075400D01*
X29453800Y-6075400D01*
X29453800Y-6095400D01*
X29199800Y-6095400D01*
X29199800Y-6075400D01*
X29179800Y-6075400D01*
X29179800Y-5821400D01*
X29199800Y-5821400D01*
X29199800Y-5801400D01*
X29422899Y-5801400D01*
X29473800Y-5852301D01*
G37*
X29473800Y-5852301D02*
X29473800Y-6075400D01*
X29453800Y-6075400D01*
X29453800Y-6095400D01*
X29199800Y-6095400D01*
X29199800Y-6075400D01*
X29179800Y-6075400D01*
X29179800Y-5821400D01*
X29199800Y-5821400D01*
X29199800Y-5801400D01*
X29422899Y-5801400D01*
X29473800Y-5852301D01*
G36*
X35432053Y5756706D02*
G01*
X35488376Y5571033D01*
X35579840Y5399916D01*
X35646645Y5318514D01*
X35616498Y5286498D01*
X35513246Y5121441D01*
X35457915Y4958038D01*
X35586369Y4806800D01*
X36625800Y4806800D01*
X36625800Y4826800D01*
X36879800Y4826800D01*
X36879800Y4806800D01*
X36899800Y4806800D01*
X36899800Y4552800D01*
X36879800Y4552800D01*
X36879800Y4532800D01*
X36625800Y4532800D01*
X36625800Y4552800D01*
X35586369Y4552800D01*
X35457915Y4401562D01*
X35513246Y4238159D01*
X35616498Y4073102D01*
X35646645Y4041086D01*
X35579840Y3959684D01*
X35488376Y3788567D01*
X35432053Y3602894D01*
X35413035Y3409800D01*
X35432053Y3216706D01*
X35488376Y3031033D01*
X35579840Y2859916D01*
X35646645Y2778514D01*
X35616498Y2746498D01*
X35513246Y2581441D01*
X35457915Y2418038D01*
X35586369Y2266800D01*
X36625800Y2266800D01*
X36625800Y2286800D01*
X36879800Y2286800D01*
X36879800Y2266800D01*
X36899800Y2266800D01*
X36899800Y2012800D01*
X36879800Y2012800D01*
X36879800Y1992800D01*
X36625800Y1992800D01*
X36625800Y2012800D01*
X35586369Y2012800D01*
X35457915Y1861562D01*
X35513246Y1698159D01*
X35556008Y1629800D01*
X34911602Y1629800D01*
X30976304Y5565097D01*
X30952501Y5594101D01*
X30836776Y5689074D01*
X30704747Y5759646D01*
X30561486Y5803103D01*
X30449833Y5814100D01*
X30449822Y5814100D01*
X30412500Y5817776D01*
X30375178Y5814100D01*
X24663602Y5814100D01*
X24721302Y5871800D01*
X35420717Y5871800D01*
X35432053Y5756706D01*
G37*
X35432053Y5756706D02*
X35488376Y5571033D01*
X35579840Y5399916D01*
X35646645Y5318514D01*
X35616498Y5286498D01*
X35513246Y5121441D01*
X35457915Y4958038D01*
X35586369Y4806800D01*
X36625800Y4806800D01*
X36625800Y4826800D01*
X36879800Y4826800D01*
X36879800Y4806800D01*
X36899800Y4806800D01*
X36899800Y4552800D01*
X36879800Y4552800D01*
X36879800Y4532800D01*
X36625800Y4532800D01*
X36625800Y4552800D01*
X35586369Y4552800D01*
X35457915Y4401562D01*
X35513246Y4238159D01*
X35616498Y4073102D01*
X35646645Y4041086D01*
X35579840Y3959684D01*
X35488376Y3788567D01*
X35432053Y3602894D01*
X35413035Y3409800D01*
X35432053Y3216706D01*
X35488376Y3031033D01*
X35579840Y2859916D01*
X35646645Y2778514D01*
X35616498Y2746498D01*
X35513246Y2581441D01*
X35457915Y2418038D01*
X35586369Y2266800D01*
X36625800Y2266800D01*
X36625800Y2286800D01*
X36879800Y2286800D01*
X36879800Y2266800D01*
X36899800Y2266800D01*
X36899800Y2012800D01*
X36879800Y2012800D01*
X36879800Y1992800D01*
X36625800Y1992800D01*
X36625800Y2012800D01*
X35586369Y2012800D01*
X35457915Y1861562D01*
X35513246Y1698159D01*
X35556008Y1629800D01*
X34911602Y1629800D01*
X30976304Y5565097D01*
X30952501Y5594101D01*
X30836776Y5689074D01*
X30704747Y5759646D01*
X30561486Y5803103D01*
X30449833Y5814100D01*
X30449822Y5814100D01*
X30412500Y5817776D01*
X30375178Y5814100D01*
X24663602Y5814100D01*
X24721302Y5871800D01*
X35420717Y5871800D01*
X35432053Y5756706D01*
D23*
X23501800Y-6848400D03*
X21351600Y-2723400D03*
X29576600Y-373400D03*
X31226600Y-10248400D03*
X35001600Y-27623400D03*
X29226600Y5876600D03*
X10626600Y-38048400D03*
X46426600Y-38073400D03*
X10626600Y12926600D03*
X46476600Y13076600D03*
X39151600Y701600D03*
X39251600Y-25848400D03*
X20238400Y-15944700D03*
X21572300Y-22348800D03*
X16690100Y-7575700D03*
X19955700Y-7704500D03*
X38108000Y-24904600D03*
X27802200Y-5847500D03*
X35274600Y-8234200D03*
X35174400Y-15415700D03*
X23130600Y-13277400D03*
X20318600Y-13586700D03*
X22967800Y-11094100D03*
X20632900Y-17523400D03*
X24817600Y-1943600D03*
X24751800Y-14400400D03*
X27416800Y-25528400D03*
X24876800Y-25528400D03*
X27416800Y-22988400D03*
X24876800Y-22988400D03*
X27416800Y-20448400D03*
X24876800Y-20448400D03*
X5876800Y-27513400D03*
X5876800Y-12273400D03*
X5876800Y-22433400D03*
X5876800Y-17353400D03*
X4752800Y9534800D03*
X48752800Y9534800D03*
X4752800Y-34465200D03*
X48752800Y-34465200D03*
X8752800Y9534800D03*
X44752800Y9534800D03*
X8752800Y-34465200D03*
X44752800Y-34465200D03*
M02*
