M48
; DRILL file {KiCad 5.1.5-52549c5~84~ubuntu18.04.1} date Mon 10 Feb 2020 01:03:59 JST
; FORMAT={-:-/ absolute / metric / decimal}
; #@! TF.CreationDate,2020-02-10T01:03:59+09:00
; #@! TF.GenerationSoftware,Kicad,Pcbnew,5.1.5-52549c5~84~ubuntu18.04.1
; #@! TF.FileFunction,Plated,1,2,PTH
FMAT,2
METRIC
T1C0.400
T2C1.000
T3C1.520
%
G90
G05
T1
X10.627Y12.927
X10.627Y-38.048
X16.69Y-7.576
X19.956Y-7.704
X20.238Y-15.945
X20.319Y-13.587
X20.633Y-17.523
X21.352Y-2.723
X21.572Y-22.349
X22.968Y-11.094
X23.131Y-13.277
X23.502Y-6.848
X24.752Y-14.4
X24.818Y-1.944
X27.802Y-5.848
X29.227Y5.877
X29.577Y-0.373
X31.227Y-10.248
X35.002Y-27.623
X35.174Y-15.416
X35.275Y-8.234
X38.108Y-24.905
X39.152Y0.702
X39.252Y-25.848
X46.427Y-38.073
X46.477Y13.077
T2
X24.877Y-20.448
X24.877Y-22.988
X24.877Y-25.528
X27.417Y-20.448
X27.417Y-22.988
X27.417Y-25.528
T3
X5.877Y-12.273
X5.877Y-17.353
X5.877Y-22.433
X5.877Y-27.513
T0
M30
