  0
SECTION
  2
HEADER
  9
$ACADVER
  1
AC1009
  9
$INSBASE
 10
0.0
 20
0.0
 30
0.0
  9
$EXTMIN
 10
0.0
 20
0.0
 30
0.0
  9
$EXTMAX
 10
0.0
 20
0.0
 30
0.0
  0
ENDSEC
  0
SECTION
  2
TABLES
  0
TABLE
  2
VPORT
 70
0
  0
ENDTAB
  0
TABLE
  2
LTYPE
 70
1
  0
LTYPE
  2
CONTINUOUS
 70
0
  3
Solid line
 72
65
 73
0
 40
0.0
  0
ENDTAB
  0
TABLE
  2
LAYER
 70
1
  0
LAYER
  2
0
 70
64
 62
7
  6
continuous
  0
ENDTAB
  0
TABLE
  2
STYLE
 70
1
  0
STYLE
  2
STANDARD
 70
0
 40
0
 41
1.0
 50
0.0
 71
0
 42
1
 3
ARIAL.TTF
 4

  0
ENDTAB
  0
TABLE
  2
VIEW
 70
0
  0
ENDTAB
  0
ENDSEC
  0
SECTION
  2
BLOCKS
  0
BLOCK
  8
0
  2
CUT002
 70
0
 10
0.0
 20
0.0
 30
0.0
  3
CUT002
  0
LINE
  8
0
 62
0
 10
-4.651370994178516e-22
 20
3.000000000000047
 30
0.0
 11
-4.651370994178516e-22
 21
48.99999999999995
 31
0.0
  0
ARC
  8
0
 62
0
 10
3.0
 20
3.0000000000000466
 30
0.0
 40
3.0
 50
180.0
 51
-90.00000000000404
  0
ARC
  8
0
 62
0
 10
3.0
 20
48.99999999999995
 30
0.0
 40
3.0
 50
90.00000000000402
 51
-180.0
  0
LINE
  8
0
 62
0
 10
24.0
 20
7.949196856316121e-14
 30
0.0
 11
2.999999999999787
 21
7.949196856316121e-14
 31
0.0
  0
LINE
  8
0
 62
0
 10
2.9999999999997895
 20
52.0
 30
0.0
 11
24.0
 21
52.0
 31
0.0
  0
LINE
  8
0
 62
0
 10
24.0
 20
0.0
 30
0.0
 11
24.0
 21
2.0
 31
0.0
  0
LINE
  8
0
 62
0
 10
24.0
 20
52.0
 30
0.0
 11
24.0
 21
50.0
 31
0.0
  0
LINE
  8
0
 62
0
 10
24.0
 20
2.0
 30
0.0
 11
36.0
 21
2.0
 31
0.0
  0
LINE
  8
0
 62
0
 10
24.0
 20
50.0
 30
0.0
 11
36.0
 21
50.0
 31
0.0
  0
LINE
  8
0
 62
0
 10
36.0
 20
2.0
 30
0.0
 11
36.0
 21
0.0
 31
0.0
  0
LINE
  8
0
 62
0
 10
36.0
 20
50.0
 30
0.0
 11
36.0
 21
52.0
 31
0.0
  0
LINE
  8
0
 62
0
 10
103.00000000000027
 20
7.949196856316121e-14
 30
0.0
 11
36.0
 21
7.949196856316121e-14
 31
0.0
  0
LINE
  8
0
 62
0
 10
36.0
 20
52.0
 30
0.0
 11
103.00000000000026
 21
52.0
 31
0.0
  0
ARC
  8
0
 62
0
 10
103.0
 20
3.0000000000000795
 30
0.0
 40
3.0
 50
-89.99999999999484
 51
-0.0
  0
ARC
  8
0
 62
0
 10
103.0
 20
48.999999999999915
 30
0.0
 40
3.0
 50
-0.0
 51
89.99999999999511
  0
LINE
  8
0
 62
0
 10
106.0
 20
48.999999999999915
 30
0.0
 11
106.0
 21
3.000000000000078
 31
0.0
  0
CIRCLE
  8
0
 62
0
 10
4.0
 20
3.9999999999999987
 30
0.0
 40
1.6
  0
CIRCLE
  8
0
 62
0
 10
4.0
 20
48.0
 30
0.0
 40
1.6
  0
LINE
  8
0
 62
0
 10
24.0
 20
21.0
 30
0.0
 11
24.0
 21
23.0
 31
0.0
  0
LINE
  8
0
 62
0
 10
36.0
 20
21.0
 30
0.0
 11
24.0
 21
21.0
 31
0.0
  0
LINE
  8
0
 62
0
 10
24.0
 20
23.0
 30
0.0
 11
36.0
 21
23.0
 31
0.0
  0
LINE
  8
0
 62
0
 10
36.0
 20
23.0
 30
0.0
 11
36.0
 21
21.0
 31
0.0
  0
LINE
  8
0
 62
0
 10
24.0
 20
29.0
 30
0.0
 11
36.0
 21
29.0
 31
0.0
  0
LINE
  8
0
 62
0
 10
24.0
 20
31.0
 30
0.0
 11
24.0
 21
29.0
 31
0.0
  0
LINE
  8
0
 62
0
 10
36.0
 20
29.0
 30
0.0
 11
36.0
 21
31.0
 31
0.0
  0
LINE
  8
0
 62
0
 10
36.0
 20
31.0
 30
0.0
 11
24.0
 21
31.0
 31
0.0
  0
CIRCLE
  8
0
 62
0
 10
58.0
 20
48.0
 30
0.0
 40
1.6
  0
CIRCLE
  8
0
 62
0
 10
58.0
 20
3.9999999999999987
 30
0.0
 40
1.6
  0
CIRCLE
  8
0
 62
0
 10
48.0
 20
48.0
 30
0.0
 40
1.6
  0
CIRCLE
  8
0
 62
0
 10
48.0
 20
3.9999999999999987
 30
0.0
 40
1.6
  0
CIRCLE
  8
0
 62
0
 10
102.00000000000001
 20
16.0
 30
0.0
 40
2.0
  0
CIRCLE
  8
0
 62
0
 10
102.0
 20
3.9999999999999987
 30
0.0
 40
1.6
  0
CIRCLE
  8
0
 62
0
 10
102.00000000000001
 20
36.0
 30
0.0
 40
2.0
  0
CIRCLE
  8
0
 62
0
 10
87.00000000000001
 20
36.0
 30
0.0
 40
2.0
  0
CIRCLE
  8
0
 62
0
 10
87.00000000000001
 20
16.0
 30
0.0
 40
2.0
  0
CIRCLE
  8
0
 62
0
 10
102.0
 20
48.0
 30
0.0
 40
1.6
  0
ENDBLK
  0
BLOCK
  8
0
  2
PART__MIRRORING002
 70
0
 10
0.0
 20
0.0
 30
0.0
  3
PART__MIRRORING002
  0
LINE
  8
0
 62
0
 10
-4.651370994178516e-22
 20
-3.000000000000047
 30
0.0
 11
-4.651370994178516e-22
 21
-48.99999999999995
 31
0.0
  0
ARC
  8
0
 62
0
 10
3.0
 20
-3.0000000000000466
 30
0.0
 40
3.0
 50
90.00000000000404
 51
-180.0
  0
ARC
  8
0
 62
0
 10
3.0
 20
-48.99999999999995
 30
0.0
 40
3.0
 50
-180.0
 51
-90.00000000000402
  0
LINE
  8
0
 62
0
 10
24.0
 20
-7.949196856316121e-14
 30
0.0
 11
2.999999999999787
 21
-7.949196856316121e-14
 31
0.0
  0
LINE
  8
0
 62
0
 10
2.9999999999997895
 20
-52.0
 30
0.0
 11
24.0
 21
-52.0
 31
0.0
  0
LINE
  8
0
 62
0
 10
24.0
 20
0.0
 30
0.0
 11
24.0
 21
-2.0
 31
0.0
  0
LINE
  8
0
 62
0
 10
24.0
 20
-52.0
 30
0.0
 11
24.0
 21
-50.0
 31
0.0
  0
LINE
  8
0
 62
0
 10
24.0
 20
-2.0
 30
0.0
 11
36.0
 21
-2.0
 31
0.0
  0
LINE
  8
0
 62
0
 10
24.0
 20
-50.0
 30
0.0
 11
36.0
 21
-50.0
 31
0.0
  0
LINE
  8
0
 62
0
 10
36.0
 20
-2.0
 30
0.0
 11
36.0
 21
0.0
 31
0.0
  0
LINE
  8
0
 62
0
 10
36.0
 20
-50.0
 30
0.0
 11
36.0
 21
-52.0
 31
0.0
  0
LINE
  8
0
 62
0
 10
103.00000000000027
 20
-7.949196856316121e-14
 30
0.0
 11
36.0
 21
-7.949196856316121e-14
 31
0.0
  0
LINE
  8
0
 62
0
 10
36.0
 20
-52.0
 30
0.0
 11
103.00000000000026
 21
-52.0
 31
0.0
  0
ARC
  8
0
 62
0
 10
103.0
 20
-3.0000000000000795
 30
0.0
 40
3.0
 50
0.0
 51
89.99999999999484
  0
ARC
  8
0
 62
0
 10
103.0
 20
-48.999999999999915
 30
0.0
 40
3.0
 50
-89.99999999999511
 51
-0.0
  0
LINE
  8
0
 62
0
 10
106.0
 20
-48.999999999999915
 30
0.0
 11
106.0
 21
-3.000000000000078
 31
0.0
  0
CIRCLE
  8
0
 62
0
 10
4.0
 20
-3.9999999999999987
 30
0.0
 40
1.6
  0
CIRCLE
  8
0
 62
0
 10
4.0
 20
-48.0
 30
0.0
 40
1.6
  0
LINE
  8
0
 62
0
 10
24.0
 20
-21.0
 30
0.0
 11
24.0
 21
-23.0
 31
0.0
  0
LINE
  8
0
 62
0
 10
36.0
 20
-21.0
 30
0.0
 11
24.0
 21
-21.0
 31
0.0
  0
LINE
  8
0
 62
0
 10
24.0
 20
-23.0
 30
0.0
 11
36.0
 21
-23.0
 31
0.0
  0
LINE
  8
0
 62
0
 10
36.0
 20
-23.0
 30
0.0
 11
36.0
 21
-21.0
 31
0.0
  0
LINE
  8
0
 62
0
 10
24.0
 20
-29.0
 30
0.0
 11
36.0
 21
-29.0
 31
0.0
  0
LINE
  8
0
 62
0
 10
24.0
 20
-31.0
 30
0.0
 11
24.0
 21
-29.0
 31
0.0
  0
LINE
  8
0
 62
0
 10
36.0
 20
-29.0
 30
0.0
 11
36.0
 21
-31.0
 31
0.0
  0
LINE
  8
0
 62
0
 10
36.0
 20
-31.0
 30
0.0
 11
24.0
 21
-31.0
 31
0.0
  0
CIRCLE
  8
0
 62
0
 10
58.0
 20
-48.0
 30
0.0
 40
1.6
  0
CIRCLE
  8
0
 62
0
 10
58.0
 20
-3.9999999999999987
 30
0.0
 40
1.6
  0
CIRCLE
  8
0
 62
0
 10
48.0
 20
-48.0
 30
0.0
 40
1.6
  0
CIRCLE
  8
0
 62
0
 10
48.0
 20
-3.9999999999999987
 30
0.0
 40
1.6
  0
CIRCLE
  8
0
 62
0
 10
102.00000000000001
 20
-16.0
 30
0.0
 40
2.0
  0
CIRCLE
  8
0
 62
0
 10
102.0
 20
-3.9999999999999987
 30
0.0
 40
1.6
  0
CIRCLE
  8
0
 62
0
 10
102.00000000000001
 20
-36.0
 30
0.0
 40
2.0
  0
CIRCLE
  8
0
 62
0
 10
87.00000000000001
 20
-36.0
 30
0.0
 40
2.0
  0
CIRCLE
  8
0
 62
0
 10
87.00000000000001
 20
-16.0
 30
0.0
 40
2.0
  0
CIRCLE
  8
0
 62
0
 10
102.0
 20
-48.0
 30
0.0
 40
1.6
  0
ENDBLK
  0
ENDSEC
  0
SECTION
  2
ENTITIES
  0
INSERT
  2
CUT002
  8
0
 62
0
 10
0.0
 20
0.0
 30
0.0
  0
INSERT
  2
PART__MIRRORING002
  8
0
 62
0
 10
0.0
 20
0.0
 30
0.0
  0
ENDSEC
  0
EOF
