  0
SECTION
  2
HEADER
  9
$ACADVER
  1
AC1009
  9
$INSBASE
 10
0.0
 20
0.0
 30
0.0
  9
$EXTMIN
 10
0.0
 20
0.0
 30
0.0
  9
$EXTMAX
 10
0.0
 20
0.0
 30
0.0
  0
ENDSEC
  0
SECTION
  2
TABLES
  0
TABLE
  2
VPORT
 70
0
  0
ENDTAB
  0
TABLE
  2
LTYPE
 70
1
  0
LTYPE
  2
CONTINUOUS
 70
0
  3
Solid line
 72
65
 73
0
 40
0.0
  0
ENDTAB
  0
TABLE
  2
LAYER
 70
1
  0
LAYER
  2
0
 70
64
 62
7
  6
continuous
  0
ENDTAB
  0
TABLE
  2
STYLE
 70
1
  0
STYLE
  2
STANDARD
 70
0
 40
0
 41
1.0
 50
0.0
 71
0
 42
1
 3
ARIAL.TTF
 4

  0
ENDTAB
  0
TABLE
  2
VIEW
 70
0
  0
ENDTAB
  0
ENDSEC
  0
SECTION
  2
BLOCKS
  0
BLOCK
  8
0
  2
CUT004
 70
0
 10
0.0
 20
0.0
 30
0.0
  3
CUT004
  0
LINE
  8
0
 62
0
 10
0.0
 20
3.0000000000000004
 30
0.0
 11
0.0
 21
51.0
 31
0.0
  0
ARC
  8
0
 62
0
 10
3.0
 20
3.0
 30
0.0
 40
3.0
 50
180.0
 51
-90.00000000000001
  0
ARC
  8
0
 62
0
 10
3.0
 20
51.0
 30
0.0
 40
3.0
 50
90.0
 51
-180.0
  0
LINE
  8
0
 62
0
 10
107.0
 20
0.0
 30
0.0
 11
3.0
 21
0.0
 31
0.0
  0
LINE
  8
0
 62
0
 10
3.0
 20
54.0
 30
0.0
 11
107.0
 21
54.0
 31
0.0
  0
ARC
  8
0
 62
0
 10
107.0
 20
3.0
 30
0.0
 40
3.0
 50
-90.0
 51
-0.0
  0
ARC
  8
0
 62
0
 10
107.0
 20
51.0
 30
0.0
 40
3.0
 50
-0.0
 51
90.0
  0
LINE
  8
0
 62
0
 10
110.0
 20
51.0
 30
0.0
 11
110.0
 21
3.0
 31
0.0
  0
CIRCLE
  8
0
 62
0
 10
9.0
 20
5.0
 30
0.0
 40
1.2
  0
CIRCLE
  8
0
 62
0
 10
49.0
 20
5.0
 30
0.0
 40
1.6
  0
CIRCLE
  8
0
 62
0
 10
45.0
 20
5.0
 30
0.0
 40
1.2
  0
CIRCLE
  8
0
 62
0
 10
101.0
 20
5.0
 30
0.0
 40
1.2
  0
CIRCLE
  8
0
 62
0
 10
65.0
 20
5.0
 30
0.0
 40
1.2
  0
CIRCLE
  8
0
 62
0
 10
61.0
 20
5.0
 30
0.0
 40
1.6
  0
CIRCLE
  8
0
 62
0
 10
45.0
 20
49.0
 30
0.0
 40
1.2
  0
CIRCLE
  8
0
 62
0
 10
49.0
 20
49.0
 30
0.0
 40
1.6
  0
CIRCLE
  8
0
 62
0
 10
61.0
 20
49.0
 30
0.0
 40
1.6
  0
CIRCLE
  8
0
 62
0
 10
49.0
 20
45.0
 30
0.0
 40
1.2
  0
CIRCLE
  8
0
 62
0
 10
61.0
 20
45.0
 30
0.0
 40
1.2
  0
CIRCLE
  8
0
 62
0
 10
49.0
 20
8.999999999999998
 30
0.0
 40
1.2
  0
CIRCLE
  8
0
 62
0
 10
61.0
 20
8.999999999999998
 30
0.0
 40
1.2
  0
CIRCLE
  8
0
 62
0
 10
55.0
 20
27.0
 30
0.0
 40
4.0
  0
CIRCLE
  8
0
 62
0
 10
29.0
 20
43.0
 30
0.0
 40
1.2
  0
CIRCLE
  8
0
 62
0
 10
29.0
 20
10.999999999999995
 30
0.0
 40
1.2
  0
CIRCLE
  8
0
 62
0
 10
92.0
 20
47.0
 30
0.0
 40
2.0
  0
CIRCLE
  8
0
 62
0
 10
92.0
 20
7.0
 30
0.0
 40
2.0
  0
CIRCLE
  8
0
 62
0
 10
65.0
 20
49.0
 30
0.0
 40
1.2
  0
CIRCLE
  8
0
 62
0
 10
11.0
 20
43.0
 30
0.0
 40
1.2
  0
CIRCLE
  8
0
 62
0
 10
11.0
 20
10.999999999999996
 30
0.0
 40
1.2
  0
CIRCLE
  8
0
 62
0
 10
9.0
 20
49.0
 30
0.0
 40
1.2
  0
CIRCLE
  8
0
 62
0
 10
101.0
 20
49.0
 30
0.0
 40
1.2
  0
CIRCLE
  8
0
 62
0
 10
105.0
 20
5.0
 30
0.0
 40
1.6
  0
CIRCLE
  8
0
 62
0
 10
105.0
 20
8.999999999999998
 30
0.0
 40
1.2
  0
CIRCLE
  8
0
 62
0
 10
105.0
 20
49.0
 30
0.0
 40
1.6
  0
CIRCLE
  8
0
 62
0
 10
105.0
 20
45.0
 30
0.0
 40
1.2
  0
CIRCLE
  8
0
 62
0
 10
5.0
 20
45.0
 30
0.0
 40
1.2
  0
CIRCLE
  8
0
 62
0
 10
5.0
 20
8.999999999999998
 30
0.0
 40
1.2
  0
CIRCLE
  8
0
 62
0
 10
5.0
 20
5.0
 30
0.0
 40
1.6
  0
CIRCLE
  8
0
 62
0
 10
5.0
 20
49.0
 30
0.0
 40
1.6
  0
ENDBLK
  0
ENDSEC
  0
SECTION
  2
ENTITIES
  0
INSERT
  2
CUT004
  8
0
 62
0
 10
0.0
 20
0.0
 30
0.0
  0
ENDSEC
  0
EOF
