  0
SECTION
  2
HEADER
  9
$ACADVER
  1
AC1009
  9
$INSBASE
 10
0.0
 20
0.0
 30
0.0
  9
$EXTMIN
 10
0.0
 20
0.0
 30
0.0
  9
$EXTMAX
 10
0.0
 20
0.0
 30
0.0
  0
ENDSEC
  0
SECTION
  2
TABLES
  0
TABLE
  2
VPORT
 70
0
  0
ENDTAB
  0
TABLE
  2
LTYPE
 70
1
  0
LTYPE
  2
CONTINUOUS
 70
0
  3
Solid line
 72
65
 73
0
 40
0.0
  0
ENDTAB
  0
TABLE
  2
LAYER
 70
1
  0
LAYER
  2
0
 70
64
 62
7
  6
continuous
  0
ENDTAB
  0
TABLE
  2
STYLE
 70
1
  0
STYLE
  2
STANDARD
 70
0
 40
0
 41
1.0
 50
0.0
 71
0
 42
1
 3
ARIAL.TTF
 4

  0
ENDTAB
  0
TABLE
  2
VIEW
 70
0
  0
ENDTAB
  0
ENDSEC
  0
SECTION
  2
BLOCKS
  0
BLOCK
  8
0
  2
CUT
 70
0
 10
0.0
 20
0.0
 30
0.0
  3
CUT
  0
LINE
  8
0
 62
0
 10
-26.0
 20
2.000000000000022
 30
0.0
 11
-26.0
 21
49.99999999999998
 31
0.0
  0
ARC
  8
0
 62
0
 10
-24.0
 20
2.000000000000022
 30
0.0
 40
2.0
 50
180.0
 51
-90.00000000000051
  0
ARC
  8
0
 62
0
 10
-24.0
 20
49.99999999999998
 30
0.0
 40
2.0
 50
90.00000000000051
 51
-180.0
  0
LINE
  8
0
 62
0
 10
-2.0000000000000178
 20
0.0
 30
0.0
 11
-24.000000000000018
 21
0.0
 31
0.0
  0
LINE
  8
0
 62
0
 10
-24.000000000000018
 20
52.0
 30
0.0
 11
-2.0000000000000178
 21
52.0
 31
0.0
  0
ARC
  8
0
 62
0
 10
-2.0
 20
2.000000000000022
 30
0.0
 40
2.0
 50
-90.00000000000047
 51
-0.0
  0
ARC
  8
0
 62
0
 10
-2.0
 20
49.99999999999998
 30
0.0
 40
2.0
 50
-0.0
 51
90.00000000000048
  0
LINE
  8
0
 62
0
 10
0.0
 20
49.99999999999998
 30
0.0
 11
0.0
 21
2.0000000000000213
 31
0.0
  0
CIRCLE
  8
0
 62
0
 10
-22.0
 20
41.0
 30
0.0
 40
1.2
  0
CIRCLE
  8
0
 62
0
 10
-4.0
 20
41.0
 30
0.0
 40
1.2
  0
CIRCLE
  8
0
 62
0
 10
-4.0
 20
11.0
 30
0.0
 40
1.2
  0
CIRCLE
  8
0
 62
0
 10
-22.0
 20
11.0
 30
0.0
 40
1.2
  0
ENDBLK
  0
BLOCK
  8
0
  2
CUT004
 70
0
 10
0.0
 20
0.0
 30
0.0
  3
CUT004
  0
LINE
  8
0
 62
0
 10
0.0
 20
3.000000000000047
 30
0.0
 11
0.0
 21
48.99999999999995
 31
0.0
  0
ARC
  8
0
 62
0
 10
3.0
 20
3.0000000000000466
 30
0.0
 40
3.0
 50
180.0
 51
-90.00000000000398
  0
ARC
  8
0
 62
0
 10
3.0
 20
48.99999999999995
 30
0.0
 40
3.0
 50
90.00000000000404
 51
-180.0
  0
LINE
  8
0
 62
0
 10
103.00000000000027
 20
4.663e-14
 30
0.0
 11
2.999999999999787
 21
4.663e-14
 31
0.0
  0
LINE
  8
0
 62
0
 10
2.9999999999997895
 20
51.999999999999915
 30
0.0
 11
103.00000000000026
 21
51.999999999999915
 31
0.0
  0
ARC
  8
0
 62
0
 10
103.0
 20
3.0000000000000795
 30
0.0
 40
3.0
 50
-89.99999999999484
 51
-0.0
  0
ARC
  8
0
 62
0
 10
103.0
 20
48.999999999999915
 30
0.0
 40
3.0
 50
-0.0
 51
89.99999999999511
  0
LINE
  8
0
 62
0
 10
106.0
 20
48.999999999999915
 30
0.0
 11
106.0
 21
3.000000000000078
 31
0.0
  0
CIRCLE
  8
0
 62
0
 10
6.0
 20
41.0
 30
0.0
 40
1.2
  0
CIRCLE
  8
0
 62
0
 10
24.0
 20
41.0
 30
0.0
 40
1.2
  0
CIRCLE
  8
0
 62
0
 10
15.0
 20
42.0
 30
0.0
 40
2.0
  0
CIRCLE
  8
0
 62
0
 10
78.0
 20
41.0
 30
0.0
 40
1.6
  0
CIRCLE
  8
0
 62
0
 10
4.0
 20
4.0
 30
0.0
 40
1.6
  0
CIRCLE
  8
0
 62
0
 10
8.0
 20
4.0
 30
0.0
 40
1.2
  0
CIRCLE
  8
0
 62
0
 10
6.0
 20
11.0
 30
0.0
 40
1.2
  0
CIRCLE
  8
0
 62
0
 10
24.0
 20
11.0
 30
0.0
 40
1.2
  0
CIRCLE
  8
0
 62
0
 10
15.0
 20
10.0
 30
0.0
 40
2.0
  0
CIRCLE
  8
0
 62
0
 10
78.0
 20
11.0
 30
0.0
 40
1.6
  0
CIRCLE
  8
0
 62
0
 10
98.0
 20
4.0
 30
0.0
 40
1.2
  0
CIRCLE
  8
0
 62
0
 10
44.0
 20
4.0
 30
0.0
 40
1.2
  0
CIRCLE
  8
0
 62
0
 10
48.0
 20
4.0
 30
0.0
 40
1.6
  0
CIRCLE
  8
0
 62
0
 10
58.0
 20
4.0
 30
0.0
 40
1.6
  0
CIRCLE
  8
0
 62
0
 10
62.0
 20
4.0
 30
0.0
 40
1.2
  0
CIRCLE
  8
0
 62
0
 10
102.0
 20
41.0
 30
0.0
 40
1.6
  0
CIRCLE
  8
0
 62
0
 10
102.0
 20
11.0
 30
0.0
 40
1.6
  0
CIRCLE
  8
0
 62
0
 10
102.0
 20
4.0
 30
0.0
 40
1.6
  0
CIRCLE
  8
0
 62
0
 10
98.0
 20
48.0
 30
0.0
 40
1.2
  0
CIRCLE
  8
0
 62
0
 10
62.0
 20
48.0
 30
0.0
 40
1.2
  0
CIRCLE
  8
0
 62
0
 10
58.0
 20
48.0
 30
0.0
 40
1.6
  0
CIRCLE
  8
0
 62
0
 10
8.0
 20
48.0
 30
0.0
 40
1.2
  0
CIRCLE
  8
0
 62
0
 10
44.0
 20
48.0
 30
0.0
 40
1.2
  0
CIRCLE
  8
0
 62
0
 10
48.0
 20
48.0
 30
0.0
 40
1.6
  0
CIRCLE
  8
0
 62
0
 10
102.0
 20
48.0
 30
0.0
 40
1.6
  0
CIRCLE
  8
0
 62
0
 10
4.0
 20
48.0
 30
0.0
 40
1.6
  0
ENDBLK
  0
ENDSEC
  0
SECTION
  2
ENTITIES
  0
INSERT
  2
CUT
  8
0
 62
0
 10
0.0
 20
0.0
 30
0.0
  0
INSERT
  2
CUT004
  8
0
 62
0
 10
0.0
 20
0.0
 30
0.0
  0
ENDSEC
  0
EOF
