G04 #@! TF.GenerationSoftware,KiCad,Pcbnew,5.1.5-52549c5~84~ubuntu18.04.1*
G04 #@! TF.CreationDate,2020-02-10T01:03:59+09:00*
G04 #@! TF.ProjectId,I2CMotorsForM5Stack,4932434d-6f74-46f7-9273-466f724d3553,rev?*
G04 #@! TF.SameCoordinates,Original*
G04 #@! TF.FileFunction,Soldermask,Top*
G04 #@! TF.FilePolarity,Negative*
%FSLAX46Y46*%
G04 Gerber Fmt 4.6, Leading zero omitted, Abs format (unit mm)*
G04 Created by KiCad (PCBNEW 5.1.5-52549c5~84~ubuntu18.04.1) date 2020-02-10 01:03:59*
%MOMM*%
%LPD*%
G04 APERTURE LIST*
%ADD10C,0.150000*%
%ADD11C,0.200000*%
%ADD12C,0.100000*%
G04 APERTURE END LIST*
D10*
X53752800Y9534800D02*
X53752800Y6534800D01*
X38252800Y-23465200D02*
X53752800Y-31465200D01*
X38252800Y-1465200D02*
X38252800Y-23465200D01*
X53752800Y6534800D02*
X38252800Y-1465200D01*
X4752800Y14534800D02*
X48752800Y14534800D01*
D11*
X53752800Y-31465200D02*
X53752800Y-34465200D01*
D10*
X-247200Y-34465200D02*
X-247200Y9534800D01*
X48752800Y-39465200D02*
X4752800Y-39465200D01*
D12*
G36*
X49103963Y-32699787D02*
G01*
X49277841Y-32734373D01*
X49605420Y-32870061D01*
X49900233Y-33067049D01*
X50150951Y-33317767D01*
X50347939Y-33612580D01*
X50483627Y-33940159D01*
X50552800Y-34287916D01*
X50552800Y-34642484D01*
X50483627Y-34990241D01*
X50347939Y-35317820D01*
X50150951Y-35612633D01*
X49900233Y-35863351D01*
X49605420Y-36060339D01*
X49277841Y-36196027D01*
X49103962Y-36230614D01*
X48930086Y-36265200D01*
X48575514Y-36265200D01*
X48401637Y-36230613D01*
X48227759Y-36196027D01*
X47900180Y-36060339D01*
X47605367Y-35863351D01*
X47354649Y-35612633D01*
X47157661Y-35317820D01*
X47021973Y-34990241D01*
X46952800Y-34642484D01*
X46952800Y-34287916D01*
X47021973Y-33940159D01*
X47157661Y-33612580D01*
X47354649Y-33317767D01*
X47605367Y-33067049D01*
X47900180Y-32870061D01*
X48227759Y-32734373D01*
X48401638Y-32699786D01*
X48575514Y-32665200D01*
X48930086Y-32665200D01*
X49103963Y-32699787D01*
G37*
G36*
X5103963Y-32699787D02*
G01*
X5277841Y-32734373D01*
X5605420Y-32870061D01*
X5900233Y-33067049D01*
X6150951Y-33317767D01*
X6347939Y-33612580D01*
X6483627Y-33940159D01*
X6552800Y-34287916D01*
X6552800Y-34642484D01*
X6483627Y-34990241D01*
X6347939Y-35317820D01*
X6150951Y-35612633D01*
X5900233Y-35863351D01*
X5605420Y-36060339D01*
X5277841Y-36196027D01*
X5103962Y-36230614D01*
X4930086Y-36265200D01*
X4575514Y-36265200D01*
X4401637Y-36230613D01*
X4227759Y-36196027D01*
X3900180Y-36060339D01*
X3605367Y-35863351D01*
X3354649Y-35612633D01*
X3157661Y-35317820D01*
X3021973Y-34990241D01*
X2952800Y-34642484D01*
X2952800Y-34287916D01*
X3021973Y-33940159D01*
X3157661Y-33612580D01*
X3354649Y-33317767D01*
X3605367Y-33067049D01*
X3900180Y-32870061D01*
X4227759Y-32734373D01*
X4401638Y-32699786D01*
X4575514Y-32665200D01*
X4930086Y-32665200D01*
X5103963Y-32699787D01*
G37*
G36*
X45006417Y-33190179D02*
G01*
X45131996Y-33215158D01*
X45368581Y-33313155D01*
X45581502Y-33455424D01*
X45762576Y-33636498D01*
X45904845Y-33849419D01*
X46002842Y-34086004D01*
X46052800Y-34337161D01*
X46052800Y-34593239D01*
X46002842Y-34844396D01*
X45904845Y-35080981D01*
X45762576Y-35293902D01*
X45581502Y-35474976D01*
X45368581Y-35617245D01*
X45131996Y-35715242D01*
X44880840Y-35765200D01*
X44624760Y-35765200D01*
X44499183Y-35740221D01*
X44373604Y-35715242D01*
X44137019Y-35617245D01*
X43924098Y-35474976D01*
X43743024Y-35293902D01*
X43600755Y-35080981D01*
X43502758Y-34844396D01*
X43452800Y-34593239D01*
X43452800Y-34337161D01*
X43502758Y-34086004D01*
X43600755Y-33849419D01*
X43743024Y-33636498D01*
X43924098Y-33455424D01*
X44137019Y-33313155D01*
X44373604Y-33215158D01*
X44499183Y-33190179D01*
X44624760Y-33165200D01*
X44880840Y-33165200D01*
X45006417Y-33190179D01*
G37*
G36*
X9006417Y-33190179D02*
G01*
X9131996Y-33215158D01*
X9368581Y-33313155D01*
X9581502Y-33455424D01*
X9762576Y-33636498D01*
X9904845Y-33849419D01*
X10002842Y-34086004D01*
X10052800Y-34337161D01*
X10052800Y-34593239D01*
X10002842Y-34844396D01*
X9904845Y-35080981D01*
X9762576Y-35293902D01*
X9581502Y-35474976D01*
X9368581Y-35617245D01*
X9131996Y-35715242D01*
X8880840Y-35765200D01*
X8624760Y-35765200D01*
X8499183Y-35740221D01*
X8373604Y-35715242D01*
X8137019Y-35617245D01*
X7924098Y-35474976D01*
X7743024Y-35293902D01*
X7600755Y-35080981D01*
X7502758Y-34844396D01*
X7452800Y-34593239D01*
X7452800Y-34337161D01*
X7502758Y-34086004D01*
X7600755Y-33849419D01*
X7743024Y-33636498D01*
X7924098Y-33455424D01*
X8137019Y-33313155D01*
X8373604Y-33215158D01*
X8499183Y-33190179D01*
X8624760Y-33165200D01*
X8880840Y-33165200D01*
X9006417Y-33190179D01*
G37*
G36*
X37156752Y6497147D02*
G01*
X37210619Y6491842D01*
X37287318Y6468575D01*
X37314298Y6460391D01*
X37409838Y6409324D01*
X37493590Y6340590D01*
X37562324Y6256838D01*
X37613391Y6161298D01*
X37613392Y6161294D01*
X37644842Y6057619D01*
X37655461Y5949800D01*
X37644842Y5841981D01*
X37621575Y5765282D01*
X37613391Y5738302D01*
X37562324Y5642762D01*
X37493590Y5559010D01*
X37409838Y5490276D01*
X37314298Y5439209D01*
X37298500Y5434417D01*
X37275861Y5425039D01*
X37255487Y5411426D01*
X37238160Y5394099D01*
X37224546Y5373724D01*
X37215169Y5351086D01*
X37210388Y5327052D01*
X37210388Y5302548D01*
X37215168Y5278515D01*
X37224546Y5255876D01*
X37238159Y5235502D01*
X37255486Y5218175D01*
X37275861Y5204561D01*
X37298500Y5195183D01*
X37314298Y5190391D01*
X37409838Y5139324D01*
X37493590Y5070590D01*
X37562324Y4986838D01*
X37613390Y4891300D01*
X37613392Y4891295D01*
X37613392Y4891294D01*
X37644842Y4787619D01*
X37655461Y4679800D01*
X37644842Y4571981D01*
X37634899Y4539204D01*
X37613391Y4468302D01*
X37562324Y4372762D01*
X37562322Y4372759D01*
X37562321Y4372758D01*
X37493590Y4289010D01*
X37410063Y4220460D01*
X37409838Y4220276D01*
X37314298Y4169209D01*
X37298500Y4164417D01*
X37275861Y4155039D01*
X37255487Y4141426D01*
X37238160Y4124099D01*
X37224546Y4103724D01*
X37215169Y4081086D01*
X37210388Y4057052D01*
X37210388Y4032548D01*
X37215168Y4008515D01*
X37224546Y3985876D01*
X37238159Y3965502D01*
X37255486Y3948175D01*
X37275861Y3934561D01*
X37298500Y3925183D01*
X37314298Y3920391D01*
X37409838Y3869324D01*
X37409841Y3869322D01*
X37409842Y3869321D01*
X37493590Y3800590D01*
X37554313Y3726600D01*
X37562324Y3716838D01*
X37613391Y3621298D01*
X37613392Y3621294D01*
X37644842Y3517619D01*
X37655461Y3409800D01*
X37644842Y3301981D01*
X37632874Y3262528D01*
X37613391Y3198302D01*
X37562324Y3102762D01*
X37562322Y3102759D01*
X37562321Y3102758D01*
X37518392Y3049231D01*
X37493590Y3019010D01*
X37409838Y2950276D01*
X37314298Y2899209D01*
X37298500Y2894417D01*
X37275861Y2885039D01*
X37255487Y2871426D01*
X37238160Y2854099D01*
X37224546Y2833724D01*
X37215169Y2811086D01*
X37210388Y2787052D01*
X37210388Y2762548D01*
X37215168Y2738515D01*
X37224546Y2715876D01*
X37238159Y2695502D01*
X37255486Y2678175D01*
X37275861Y2664561D01*
X37298500Y2655183D01*
X37314298Y2650391D01*
X37409838Y2599324D01*
X37493590Y2530590D01*
X37562324Y2446838D01*
X37613391Y2351298D01*
X37613392Y2351294D01*
X37644842Y2247619D01*
X37655461Y2139800D01*
X37644842Y2031981D01*
X37621575Y1955282D01*
X37613391Y1928302D01*
X37562324Y1832762D01*
X37493590Y1749010D01*
X37409838Y1680276D01*
X37314298Y1629209D01*
X37298500Y1624417D01*
X37275861Y1615039D01*
X37255487Y1601426D01*
X37238160Y1584099D01*
X37224546Y1563724D01*
X37215169Y1541086D01*
X37210388Y1517052D01*
X37210388Y1492548D01*
X37215168Y1468515D01*
X37224546Y1445876D01*
X37238159Y1425502D01*
X37255486Y1408175D01*
X37275861Y1394561D01*
X37298500Y1385183D01*
X37314298Y1380391D01*
X37409838Y1329324D01*
X37493590Y1260590D01*
X37562324Y1176838D01*
X37613391Y1081298D01*
X37613392Y1081294D01*
X37644842Y977619D01*
X37655461Y869800D01*
X37644842Y761981D01*
X37621575Y685282D01*
X37613391Y658302D01*
X37562324Y562762D01*
X37493590Y479010D01*
X37409838Y410276D01*
X37314298Y359209D01*
X37298500Y354417D01*
X37275861Y345039D01*
X37255487Y331426D01*
X37238160Y314099D01*
X37224546Y293724D01*
X37215169Y271086D01*
X37210388Y247052D01*
X37210388Y222548D01*
X37215168Y198515D01*
X37224546Y175876D01*
X37238159Y155502D01*
X37255486Y138175D01*
X37275861Y124561D01*
X37298500Y115183D01*
X37314298Y110391D01*
X37409838Y59324D01*
X37409841Y59322D01*
X37409842Y59321D01*
X37493590Y-9410D01*
X37552949Y-81738D01*
X37562324Y-93162D01*
X37613391Y-188702D01*
X37621575Y-215682D01*
X37644842Y-292381D01*
X37655461Y-400200D01*
X37644842Y-508019D01*
X37621575Y-584718D01*
X37613391Y-611698D01*
X37562324Y-707238D01*
X37493590Y-790990D01*
X37409838Y-859724D01*
X37314298Y-910791D01*
X37298500Y-915583D01*
X37275861Y-924961D01*
X37255487Y-938574D01*
X37238160Y-955901D01*
X37224546Y-976276D01*
X37215169Y-998914D01*
X37210388Y-1022948D01*
X37210388Y-1047452D01*
X37215168Y-1071485D01*
X37224546Y-1094124D01*
X37238159Y-1114498D01*
X37255486Y-1131825D01*
X37275861Y-1145439D01*
X37298500Y-1154817D01*
X37314298Y-1159609D01*
X37409838Y-1210676D01*
X37493590Y-1279410D01*
X37562324Y-1363162D01*
X37613391Y-1458702D01*
X37613392Y-1458706D01*
X37644842Y-1562381D01*
X37655461Y-1670200D01*
X37644842Y-1778019D01*
X37621575Y-1854718D01*
X37613391Y-1881698D01*
X37562324Y-1977238D01*
X37493590Y-2060990D01*
X37409838Y-2129724D01*
X37314298Y-2180791D01*
X37298500Y-2185583D01*
X37275861Y-2194961D01*
X37255487Y-2208574D01*
X37238160Y-2225901D01*
X37224546Y-2246276D01*
X37215169Y-2268914D01*
X37210388Y-2292948D01*
X37210388Y-2317452D01*
X37215168Y-2341485D01*
X37224546Y-2364124D01*
X37238159Y-2384498D01*
X37255486Y-2401825D01*
X37275861Y-2415439D01*
X37298500Y-2424817D01*
X37314298Y-2429609D01*
X37409838Y-2480676D01*
X37409841Y-2480678D01*
X37409842Y-2480679D01*
X37478161Y-2536748D01*
X37493590Y-2549410D01*
X37562324Y-2633162D01*
X37613391Y-2728702D01*
X37613392Y-2728706D01*
X37644842Y-2832381D01*
X37655461Y-2940200D01*
X37644842Y-3048019D01*
X37621808Y-3123951D01*
X37613391Y-3151698D01*
X37562324Y-3247238D01*
X37493590Y-3330990D01*
X37409838Y-3399724D01*
X37314298Y-3450791D01*
X37298500Y-3455583D01*
X37275861Y-3464961D01*
X37255487Y-3478574D01*
X37238160Y-3495901D01*
X37224546Y-3516276D01*
X37215169Y-3538914D01*
X37210388Y-3562948D01*
X37210388Y-3587452D01*
X37215168Y-3611485D01*
X37224546Y-3634124D01*
X37238159Y-3654498D01*
X37255486Y-3671825D01*
X37275861Y-3685439D01*
X37298500Y-3694817D01*
X37314298Y-3699609D01*
X37409838Y-3750676D01*
X37409841Y-3750678D01*
X37409842Y-3750679D01*
X37493590Y-3819410D01*
X37538157Y-3873714D01*
X37562324Y-3903162D01*
X37613391Y-3998702D01*
X37613392Y-3998706D01*
X37644842Y-4102381D01*
X37655461Y-4210200D01*
X37644842Y-4318019D01*
X37621575Y-4394718D01*
X37613391Y-4421698D01*
X37562324Y-4517238D01*
X37493590Y-4600990D01*
X37409838Y-4669724D01*
X37314298Y-4720791D01*
X37298500Y-4725583D01*
X37275861Y-4734961D01*
X37255487Y-4748574D01*
X37238160Y-4765901D01*
X37224546Y-4786276D01*
X37215169Y-4808914D01*
X37210388Y-4832948D01*
X37210388Y-4857452D01*
X37215168Y-4881485D01*
X37224546Y-4904124D01*
X37238159Y-4924498D01*
X37255486Y-4941825D01*
X37275861Y-4955439D01*
X37298500Y-4964817D01*
X37314298Y-4969609D01*
X37409838Y-5020676D01*
X37409841Y-5020678D01*
X37409842Y-5020679D01*
X37443620Y-5048400D01*
X37493590Y-5089410D01*
X37562324Y-5173162D01*
X37613391Y-5268702D01*
X37613392Y-5268706D01*
X37644842Y-5372381D01*
X37655461Y-5480200D01*
X37644842Y-5588019D01*
X37636945Y-5614051D01*
X37613391Y-5691698D01*
X37562324Y-5787238D01*
X37562322Y-5787241D01*
X37562321Y-5787242D01*
X37493590Y-5870990D01*
X37444802Y-5911030D01*
X37409838Y-5939724D01*
X37314298Y-5990791D01*
X37298500Y-5995583D01*
X37275861Y-6004961D01*
X37255487Y-6018574D01*
X37238160Y-6035901D01*
X37224546Y-6056276D01*
X37215169Y-6078914D01*
X37210388Y-6102948D01*
X37210388Y-6127452D01*
X37215168Y-6151485D01*
X37224546Y-6174124D01*
X37238159Y-6194498D01*
X37255486Y-6211825D01*
X37275861Y-6225439D01*
X37298500Y-6234817D01*
X37314298Y-6239609D01*
X37409838Y-6290676D01*
X37409841Y-6290678D01*
X37409842Y-6290679D01*
X37493590Y-6359410D01*
X37543544Y-6420278D01*
X37562324Y-6443162D01*
X37613391Y-6538702D01*
X37613392Y-6538706D01*
X37644842Y-6642381D01*
X37655461Y-6750200D01*
X37644842Y-6858019D01*
X37624513Y-6925032D01*
X37613391Y-6961698D01*
X37562324Y-7057238D01*
X37562322Y-7057241D01*
X37562321Y-7057242D01*
X37533567Y-7092278D01*
X37493590Y-7140990D01*
X37409838Y-7209724D01*
X37314298Y-7260791D01*
X37298500Y-7265583D01*
X37275861Y-7274961D01*
X37255487Y-7288574D01*
X37238160Y-7305901D01*
X37224546Y-7326276D01*
X37215169Y-7348914D01*
X37210388Y-7372948D01*
X37210388Y-7397452D01*
X37215168Y-7421485D01*
X37224546Y-7444124D01*
X37238159Y-7464498D01*
X37255486Y-7481825D01*
X37275861Y-7495439D01*
X37298500Y-7504817D01*
X37314298Y-7509609D01*
X37409838Y-7560676D01*
X37493590Y-7629410D01*
X37562324Y-7713162D01*
X37613391Y-7808702D01*
X37617120Y-7820995D01*
X37644842Y-7912381D01*
X37655461Y-8020200D01*
X37644842Y-8128019D01*
X37636541Y-8155383D01*
X37613391Y-8231698D01*
X37562324Y-8327238D01*
X37562322Y-8327241D01*
X37562321Y-8327242D01*
X37493590Y-8410990D01*
X37478469Y-8423400D01*
X37409838Y-8479724D01*
X37314298Y-8530791D01*
X37298500Y-8535583D01*
X37275861Y-8544961D01*
X37255487Y-8558574D01*
X37238160Y-8575901D01*
X37224546Y-8596276D01*
X37215169Y-8618914D01*
X37210388Y-8642948D01*
X37210388Y-8667452D01*
X37215168Y-8691485D01*
X37224546Y-8714124D01*
X37238159Y-8734498D01*
X37255486Y-8751825D01*
X37275861Y-8765439D01*
X37298500Y-8774817D01*
X37314298Y-8779609D01*
X37409838Y-8830676D01*
X37409841Y-8830678D01*
X37409842Y-8830679D01*
X37493590Y-8899410D01*
X37543325Y-8960011D01*
X37562324Y-8983162D01*
X37613391Y-9078702D01*
X37613392Y-9078706D01*
X37644842Y-9182381D01*
X37655461Y-9290200D01*
X37644842Y-9398019D01*
X37621575Y-9474718D01*
X37613391Y-9501698D01*
X37562324Y-9597238D01*
X37493590Y-9680990D01*
X37409838Y-9749724D01*
X37314298Y-9800791D01*
X37298500Y-9805583D01*
X37275861Y-9814961D01*
X37255487Y-9828574D01*
X37238160Y-9845901D01*
X37224546Y-9866276D01*
X37215169Y-9888914D01*
X37210388Y-9912948D01*
X37210388Y-9937452D01*
X37215168Y-9961485D01*
X37224546Y-9984124D01*
X37238159Y-10004498D01*
X37255486Y-10021825D01*
X37275861Y-10035439D01*
X37298500Y-10044817D01*
X37314298Y-10049609D01*
X37409838Y-10100676D01*
X37493590Y-10169410D01*
X37562324Y-10253162D01*
X37613391Y-10348702D01*
X37613392Y-10348706D01*
X37644842Y-10452381D01*
X37655461Y-10560200D01*
X37644842Y-10668019D01*
X37621575Y-10744718D01*
X37613391Y-10771698D01*
X37562324Y-10867238D01*
X37493590Y-10950990D01*
X37409838Y-11019724D01*
X37314298Y-11070791D01*
X37298500Y-11075583D01*
X37275861Y-11084961D01*
X37255487Y-11098574D01*
X37238160Y-11115901D01*
X37224546Y-11136276D01*
X37215169Y-11158914D01*
X37210388Y-11182948D01*
X37210388Y-11207452D01*
X37215168Y-11231485D01*
X37224546Y-11254124D01*
X37238159Y-11274498D01*
X37255486Y-11291825D01*
X37275861Y-11305439D01*
X37298500Y-11314817D01*
X37314298Y-11319609D01*
X37409838Y-11370676D01*
X37493590Y-11439410D01*
X37562324Y-11523162D01*
X37613391Y-11618702D01*
X37613392Y-11618706D01*
X37644842Y-11722381D01*
X37655461Y-11830200D01*
X37644842Y-11938019D01*
X37621575Y-12014718D01*
X37613391Y-12041698D01*
X37562324Y-12137238D01*
X37493590Y-12220990D01*
X37409838Y-12289724D01*
X37314298Y-12340791D01*
X37298500Y-12345583D01*
X37275861Y-12354961D01*
X37255487Y-12368574D01*
X37238160Y-12385901D01*
X37224546Y-12406276D01*
X37215169Y-12428914D01*
X37210388Y-12452948D01*
X37210388Y-12477452D01*
X37215168Y-12501485D01*
X37224546Y-12524124D01*
X37238159Y-12544498D01*
X37255486Y-12561825D01*
X37275861Y-12575439D01*
X37298500Y-12584817D01*
X37314298Y-12589609D01*
X37409838Y-12640676D01*
X37493590Y-12709410D01*
X37562324Y-12793162D01*
X37613391Y-12888702D01*
X37613392Y-12888706D01*
X37644842Y-12992381D01*
X37655461Y-13100200D01*
X37644842Y-13208019D01*
X37621575Y-13284718D01*
X37613391Y-13311698D01*
X37562324Y-13407238D01*
X37493590Y-13490990D01*
X37409838Y-13559724D01*
X37314298Y-13610791D01*
X37298500Y-13615583D01*
X37275861Y-13624961D01*
X37255487Y-13638574D01*
X37238160Y-13655901D01*
X37224546Y-13676276D01*
X37215169Y-13698914D01*
X37210388Y-13722948D01*
X37210388Y-13747452D01*
X37215168Y-13771485D01*
X37224546Y-13794124D01*
X37238159Y-13814498D01*
X37255486Y-13831825D01*
X37275861Y-13845439D01*
X37298500Y-13854817D01*
X37314298Y-13859609D01*
X37409838Y-13910676D01*
X37493590Y-13979410D01*
X37562324Y-14063162D01*
X37613391Y-14158702D01*
X37613392Y-14158706D01*
X37644842Y-14262381D01*
X37655461Y-14370200D01*
X37644842Y-14478019D01*
X37621575Y-14554718D01*
X37613391Y-14581698D01*
X37562324Y-14677238D01*
X37493590Y-14760990D01*
X37409838Y-14829724D01*
X37314298Y-14880791D01*
X37298500Y-14885583D01*
X37275861Y-14894961D01*
X37255487Y-14908574D01*
X37238160Y-14925901D01*
X37224546Y-14946276D01*
X37215169Y-14968914D01*
X37210388Y-14992948D01*
X37210388Y-15017452D01*
X37215168Y-15041485D01*
X37224546Y-15064124D01*
X37238159Y-15084498D01*
X37255486Y-15101825D01*
X37275861Y-15115439D01*
X37298500Y-15124817D01*
X37314298Y-15129609D01*
X37409838Y-15180676D01*
X37493590Y-15249410D01*
X37562324Y-15333162D01*
X37613391Y-15428702D01*
X37613392Y-15428706D01*
X37644842Y-15532381D01*
X37655461Y-15640200D01*
X37644842Y-15748019D01*
X37621575Y-15824718D01*
X37613391Y-15851698D01*
X37562324Y-15947238D01*
X37493590Y-16030990D01*
X37409838Y-16099724D01*
X37314298Y-16150791D01*
X37298500Y-16155583D01*
X37275861Y-16164961D01*
X37255487Y-16178574D01*
X37238160Y-16195901D01*
X37224546Y-16216276D01*
X37215169Y-16238914D01*
X37210388Y-16262948D01*
X37210388Y-16287452D01*
X37215168Y-16311485D01*
X37224546Y-16334124D01*
X37238159Y-16354498D01*
X37255486Y-16371825D01*
X37275861Y-16385439D01*
X37298500Y-16394817D01*
X37314298Y-16399609D01*
X37409838Y-16450676D01*
X37409841Y-16450678D01*
X37409842Y-16450679D01*
X37493590Y-16519410D01*
X37517177Y-16548150D01*
X37562324Y-16603162D01*
X37613391Y-16698702D01*
X37613392Y-16698706D01*
X37644842Y-16802381D01*
X37655461Y-16910200D01*
X37644842Y-17018019D01*
X37621575Y-17094718D01*
X37613391Y-17121698D01*
X37562324Y-17217238D01*
X37493590Y-17300990D01*
X37409838Y-17369724D01*
X37314298Y-17420791D01*
X37298500Y-17425583D01*
X37275861Y-17434961D01*
X37255487Y-17448574D01*
X37238160Y-17465901D01*
X37224546Y-17486276D01*
X37215169Y-17508914D01*
X37210388Y-17532948D01*
X37210388Y-17557452D01*
X37215168Y-17581485D01*
X37224546Y-17604124D01*
X37238159Y-17624498D01*
X37255486Y-17641825D01*
X37275861Y-17655439D01*
X37298500Y-17664817D01*
X37314298Y-17669609D01*
X37409838Y-17720676D01*
X37493590Y-17789410D01*
X37562324Y-17873162D01*
X37613391Y-17968702D01*
X37613392Y-17968706D01*
X37644842Y-18072381D01*
X37655461Y-18180200D01*
X37644842Y-18288019D01*
X37634109Y-18323400D01*
X37613391Y-18391698D01*
X37562324Y-18487238D01*
X37493590Y-18570990D01*
X37409838Y-18639724D01*
X37314298Y-18690791D01*
X37298500Y-18695583D01*
X37275861Y-18704961D01*
X37255487Y-18718574D01*
X37238160Y-18735901D01*
X37224546Y-18756276D01*
X37215169Y-18778914D01*
X37210388Y-18802948D01*
X37210388Y-18827452D01*
X37215168Y-18851485D01*
X37224546Y-18874124D01*
X37238159Y-18894498D01*
X37255486Y-18911825D01*
X37275861Y-18925439D01*
X37298500Y-18934817D01*
X37314298Y-18939609D01*
X37409838Y-18990676D01*
X37493590Y-19059410D01*
X37562324Y-19143162D01*
X37613391Y-19238702D01*
X37613392Y-19238706D01*
X37644842Y-19342381D01*
X37655461Y-19450200D01*
X37644842Y-19558019D01*
X37622154Y-19632811D01*
X37613391Y-19661698D01*
X37562324Y-19757238D01*
X37493590Y-19840990D01*
X37409838Y-19909724D01*
X37314298Y-19960791D01*
X37298500Y-19965583D01*
X37275861Y-19974961D01*
X37255487Y-19988574D01*
X37238160Y-20005901D01*
X37224546Y-20026276D01*
X37215169Y-20048914D01*
X37210388Y-20072948D01*
X37210388Y-20097452D01*
X37215168Y-20121485D01*
X37224546Y-20144124D01*
X37238159Y-20164498D01*
X37255486Y-20181825D01*
X37275861Y-20195439D01*
X37298500Y-20204817D01*
X37314298Y-20209609D01*
X37409838Y-20260676D01*
X37493590Y-20329410D01*
X37562324Y-20413162D01*
X37613391Y-20508702D01*
X37613392Y-20508706D01*
X37644842Y-20612381D01*
X37655461Y-20720200D01*
X37644842Y-20828019D01*
X37621575Y-20904718D01*
X37613391Y-20931698D01*
X37562324Y-21027238D01*
X37493590Y-21110990D01*
X37409838Y-21179724D01*
X37314298Y-21230791D01*
X37298500Y-21235583D01*
X37275861Y-21244961D01*
X37255487Y-21258574D01*
X37238160Y-21275901D01*
X37224546Y-21296276D01*
X37215169Y-21318914D01*
X37210388Y-21342948D01*
X37210388Y-21367452D01*
X37215168Y-21391485D01*
X37224546Y-21414124D01*
X37238159Y-21434498D01*
X37255486Y-21451825D01*
X37275861Y-21465439D01*
X37298500Y-21474817D01*
X37314298Y-21479609D01*
X37409838Y-21530676D01*
X37409841Y-21530678D01*
X37409842Y-21530679D01*
X37493590Y-21599410D01*
X37517177Y-21628150D01*
X37562324Y-21683162D01*
X37613391Y-21778702D01*
X37613392Y-21778706D01*
X37644842Y-21882381D01*
X37655461Y-21990200D01*
X37644842Y-22098019D01*
X37622154Y-22172811D01*
X37613391Y-22201698D01*
X37562324Y-22297238D01*
X37493590Y-22380990D01*
X37409838Y-22449724D01*
X37314298Y-22500791D01*
X37298500Y-22505583D01*
X37275861Y-22514961D01*
X37255487Y-22528574D01*
X37238160Y-22545901D01*
X37224546Y-22566276D01*
X37215169Y-22588914D01*
X37210388Y-22612948D01*
X37210388Y-22637452D01*
X37215168Y-22661485D01*
X37224546Y-22684124D01*
X37238159Y-22704498D01*
X37255486Y-22721825D01*
X37275861Y-22735439D01*
X37298500Y-22744817D01*
X37314298Y-22749609D01*
X37409838Y-22800676D01*
X37493590Y-22869410D01*
X37562324Y-22953162D01*
X37613391Y-23048702D01*
X37613392Y-23048706D01*
X37644842Y-23152381D01*
X37655461Y-23260200D01*
X37644842Y-23368019D01*
X37621575Y-23444718D01*
X37613391Y-23471698D01*
X37562324Y-23567238D01*
X37493590Y-23650990D01*
X37409838Y-23719724D01*
X37314298Y-23770791D01*
X37298500Y-23775583D01*
X37275861Y-23784961D01*
X37255487Y-23798574D01*
X37238160Y-23815901D01*
X37224546Y-23836276D01*
X37215169Y-23858914D01*
X37210388Y-23882948D01*
X37210388Y-23907452D01*
X37215168Y-23931485D01*
X37224546Y-23954124D01*
X37238159Y-23974498D01*
X37255486Y-23991825D01*
X37275861Y-24005439D01*
X37298500Y-24014817D01*
X37314298Y-24019609D01*
X37409838Y-24070676D01*
X37493590Y-24139410D01*
X37562324Y-24223162D01*
X37613391Y-24318702D01*
X37613392Y-24318706D01*
X37644842Y-24422381D01*
X37655461Y-24530200D01*
X37644842Y-24638019D01*
X37628440Y-24692088D01*
X37613391Y-24741698D01*
X37562324Y-24837238D01*
X37562322Y-24837241D01*
X37562321Y-24837242D01*
X37493590Y-24920990D01*
X37437345Y-24967150D01*
X37409838Y-24989724D01*
X37314298Y-25040791D01*
X37298500Y-25045583D01*
X37275861Y-25054961D01*
X37255487Y-25068574D01*
X37238160Y-25085901D01*
X37224546Y-25106276D01*
X37215169Y-25128914D01*
X37210388Y-25152948D01*
X37210388Y-25177452D01*
X37215168Y-25201485D01*
X37224546Y-25224124D01*
X37238159Y-25244498D01*
X37255486Y-25261825D01*
X37275861Y-25275439D01*
X37298500Y-25284817D01*
X37314298Y-25289609D01*
X37409838Y-25340676D01*
X37493590Y-25409410D01*
X37562324Y-25493162D01*
X37613391Y-25588702D01*
X37613392Y-25588706D01*
X37644842Y-25692381D01*
X37655461Y-25800200D01*
X37644842Y-25908019D01*
X37624785Y-25974137D01*
X37613391Y-26011698D01*
X37562324Y-26107238D01*
X37493590Y-26190990D01*
X37409838Y-26259724D01*
X37314298Y-26310791D01*
X37298500Y-26315583D01*
X37275861Y-26324961D01*
X37255487Y-26338574D01*
X37238160Y-26355901D01*
X37224546Y-26376276D01*
X37215169Y-26398914D01*
X37210388Y-26422948D01*
X37210388Y-26447452D01*
X37215168Y-26471485D01*
X37224546Y-26494124D01*
X37238159Y-26514498D01*
X37255486Y-26531825D01*
X37275861Y-26545439D01*
X37298500Y-26554817D01*
X37314298Y-26559609D01*
X37409838Y-26610676D01*
X37409841Y-26610678D01*
X37409842Y-26610679D01*
X37493590Y-26679410D01*
X37517177Y-26708150D01*
X37562324Y-26763162D01*
X37613391Y-26858702D01*
X37613392Y-26858706D01*
X37644842Y-26962381D01*
X37655461Y-27070200D01*
X37644842Y-27178019D01*
X37621575Y-27254718D01*
X37613391Y-27281698D01*
X37562324Y-27377238D01*
X37493590Y-27460990D01*
X37409838Y-27529724D01*
X37314298Y-27580791D01*
X37298500Y-27585583D01*
X37275861Y-27594961D01*
X37255487Y-27608574D01*
X37238160Y-27625901D01*
X37224546Y-27646276D01*
X37215169Y-27668914D01*
X37210388Y-27692948D01*
X37210388Y-27717452D01*
X37215168Y-27741485D01*
X37224546Y-27764124D01*
X37238159Y-27784498D01*
X37255486Y-27801825D01*
X37275861Y-27815439D01*
X37298500Y-27824817D01*
X37314298Y-27829609D01*
X37409838Y-27880676D01*
X37493590Y-27949410D01*
X37562324Y-28033162D01*
X37613391Y-28128702D01*
X37613392Y-28128706D01*
X37644842Y-28232381D01*
X37655461Y-28340200D01*
X37644842Y-28448019D01*
X37621575Y-28524718D01*
X37613391Y-28551698D01*
X37562324Y-28647238D01*
X37493590Y-28730990D01*
X37409838Y-28799724D01*
X37314298Y-28850791D01*
X37298500Y-28855583D01*
X37275861Y-28864961D01*
X37255487Y-28878574D01*
X37238160Y-28895901D01*
X37224546Y-28916276D01*
X37215169Y-28938914D01*
X37210388Y-28962948D01*
X37210388Y-28987452D01*
X37215168Y-29011485D01*
X37224546Y-29034124D01*
X37238159Y-29054498D01*
X37255486Y-29071825D01*
X37275861Y-29085439D01*
X37298500Y-29094817D01*
X37314298Y-29099609D01*
X37409838Y-29150676D01*
X37493590Y-29219410D01*
X37562324Y-29303162D01*
X37613391Y-29398702D01*
X37613392Y-29398706D01*
X37644842Y-29502381D01*
X37655461Y-29610200D01*
X37644842Y-29718019D01*
X37621575Y-29794718D01*
X37613391Y-29821698D01*
X37562324Y-29917238D01*
X37493590Y-30000990D01*
X37409838Y-30069724D01*
X37314298Y-30120791D01*
X37298500Y-30125583D01*
X37275861Y-30134961D01*
X37255487Y-30148574D01*
X37238160Y-30165901D01*
X37224546Y-30186276D01*
X37215169Y-30208914D01*
X37210388Y-30232948D01*
X37210388Y-30257452D01*
X37215168Y-30281485D01*
X37224546Y-30304124D01*
X37238159Y-30324498D01*
X37255486Y-30341825D01*
X37275861Y-30355439D01*
X37298500Y-30364817D01*
X37314298Y-30369609D01*
X37409838Y-30420676D01*
X37493590Y-30489410D01*
X37562324Y-30573162D01*
X37613391Y-30668702D01*
X37613392Y-30668706D01*
X37644842Y-30772381D01*
X37655461Y-30880200D01*
X37644842Y-30988019D01*
X37621575Y-31064718D01*
X37613391Y-31091698D01*
X37562324Y-31187238D01*
X37493590Y-31270990D01*
X37409838Y-31339724D01*
X37314298Y-31390791D01*
X37287318Y-31398975D01*
X37210619Y-31422242D01*
X37156752Y-31427547D01*
X37129819Y-31430200D01*
X36375781Y-31430200D01*
X36348848Y-31427547D01*
X36294981Y-31422242D01*
X36218282Y-31398975D01*
X36191302Y-31390791D01*
X36095762Y-31339724D01*
X36012010Y-31270990D01*
X35943276Y-31187238D01*
X35892209Y-31091698D01*
X35884025Y-31064718D01*
X35860758Y-30988019D01*
X35850139Y-30880200D01*
X35860758Y-30772381D01*
X35892208Y-30668706D01*
X35892209Y-30668702D01*
X35943276Y-30573162D01*
X36012010Y-30489410D01*
X36095762Y-30420676D01*
X36191302Y-30369609D01*
X36207100Y-30364817D01*
X36229739Y-30355439D01*
X36250113Y-30341826D01*
X36267440Y-30324499D01*
X36281054Y-30304124D01*
X36290431Y-30281486D01*
X36295212Y-30257452D01*
X36295212Y-30232948D01*
X36290432Y-30208915D01*
X36281054Y-30186276D01*
X36267441Y-30165902D01*
X36250114Y-30148575D01*
X36229739Y-30134961D01*
X36207100Y-30125583D01*
X36191302Y-30120791D01*
X36095762Y-30069724D01*
X36012010Y-30000990D01*
X35943276Y-29917238D01*
X35892209Y-29821698D01*
X35884025Y-29794718D01*
X35860758Y-29718019D01*
X35850139Y-29610200D01*
X35860758Y-29502381D01*
X35892208Y-29398706D01*
X35892209Y-29398702D01*
X35943276Y-29303162D01*
X36012010Y-29219410D01*
X36095762Y-29150676D01*
X36191302Y-29099609D01*
X36207100Y-29094817D01*
X36229739Y-29085439D01*
X36250113Y-29071826D01*
X36267440Y-29054499D01*
X36281054Y-29034124D01*
X36290431Y-29011486D01*
X36295212Y-28987452D01*
X36295212Y-28962948D01*
X36290432Y-28938915D01*
X36281054Y-28916276D01*
X36267441Y-28895902D01*
X36250114Y-28878575D01*
X36229739Y-28864961D01*
X36207100Y-28855583D01*
X36191302Y-28850791D01*
X36095762Y-28799724D01*
X36012010Y-28730990D01*
X35943276Y-28647238D01*
X35892209Y-28551698D01*
X35884025Y-28524718D01*
X35860758Y-28448019D01*
X35850139Y-28340200D01*
X35860758Y-28232381D01*
X35892208Y-28128706D01*
X35892209Y-28128702D01*
X35943276Y-28033162D01*
X36012010Y-27949410D01*
X36095762Y-27880676D01*
X36191302Y-27829609D01*
X36207100Y-27824817D01*
X36229739Y-27815439D01*
X36250113Y-27801826D01*
X36267440Y-27784499D01*
X36281054Y-27764124D01*
X36290431Y-27741486D01*
X36295212Y-27717452D01*
X36295212Y-27692948D01*
X36290432Y-27668915D01*
X36281054Y-27646276D01*
X36267441Y-27625902D01*
X36250114Y-27608575D01*
X36229739Y-27594961D01*
X36207100Y-27585583D01*
X36191302Y-27580791D01*
X36095762Y-27529724D01*
X36012010Y-27460990D01*
X35943276Y-27377238D01*
X35892209Y-27281698D01*
X35884025Y-27254718D01*
X35860758Y-27178019D01*
X35850139Y-27070200D01*
X35860758Y-26962381D01*
X35892208Y-26858706D01*
X35892209Y-26858702D01*
X35943276Y-26763162D01*
X35988424Y-26708150D01*
X36012010Y-26679410D01*
X36095758Y-26610679D01*
X36095759Y-26610678D01*
X36095762Y-26610676D01*
X36191302Y-26559609D01*
X36207100Y-26554817D01*
X36229739Y-26545439D01*
X36250113Y-26531826D01*
X36267440Y-26514499D01*
X36281054Y-26494124D01*
X36290431Y-26471486D01*
X36295212Y-26447452D01*
X36295212Y-26422948D01*
X36290432Y-26398915D01*
X36281054Y-26376276D01*
X36267441Y-26355902D01*
X36250114Y-26338575D01*
X36229739Y-26324961D01*
X36207100Y-26315583D01*
X36191302Y-26310791D01*
X36095762Y-26259724D01*
X36012010Y-26190990D01*
X35943276Y-26107238D01*
X35892209Y-26011698D01*
X35880815Y-25974137D01*
X35860758Y-25908019D01*
X35850139Y-25800200D01*
X35860758Y-25692381D01*
X35892208Y-25588706D01*
X35892209Y-25588702D01*
X35943276Y-25493162D01*
X36012010Y-25409410D01*
X36095762Y-25340676D01*
X36191302Y-25289609D01*
X36207100Y-25284817D01*
X36229739Y-25275439D01*
X36250113Y-25261826D01*
X36267440Y-25244499D01*
X36281054Y-25224124D01*
X36290431Y-25201486D01*
X36295212Y-25177452D01*
X36295212Y-25152948D01*
X36290432Y-25128915D01*
X36281054Y-25106276D01*
X36267441Y-25085902D01*
X36250114Y-25068575D01*
X36229739Y-25054961D01*
X36207100Y-25045583D01*
X36191302Y-25040791D01*
X36095762Y-24989724D01*
X36068256Y-24967150D01*
X36012010Y-24920990D01*
X35943279Y-24837242D01*
X35943278Y-24837241D01*
X35943276Y-24837238D01*
X35892209Y-24741698D01*
X35877160Y-24692088D01*
X35860758Y-24638019D01*
X35850139Y-24530200D01*
X35860758Y-24422381D01*
X35892208Y-24318706D01*
X35892209Y-24318702D01*
X35943276Y-24223162D01*
X36012010Y-24139410D01*
X36095762Y-24070676D01*
X36191302Y-24019609D01*
X36207100Y-24014817D01*
X36229739Y-24005439D01*
X36250113Y-23991826D01*
X36267440Y-23974499D01*
X36281054Y-23954124D01*
X36290431Y-23931486D01*
X36295212Y-23907452D01*
X36295212Y-23882948D01*
X36290432Y-23858915D01*
X36281054Y-23836276D01*
X36267441Y-23815902D01*
X36250114Y-23798575D01*
X36229739Y-23784961D01*
X36207100Y-23775583D01*
X36191302Y-23770791D01*
X36095762Y-23719724D01*
X36012010Y-23650990D01*
X35943276Y-23567238D01*
X35892209Y-23471698D01*
X35884025Y-23444718D01*
X35860758Y-23368019D01*
X35850139Y-23260200D01*
X35860758Y-23152381D01*
X35892208Y-23048706D01*
X35892209Y-23048702D01*
X35943276Y-22953162D01*
X36012010Y-22869410D01*
X36095762Y-22800676D01*
X36191302Y-22749609D01*
X36207100Y-22744817D01*
X36229739Y-22735439D01*
X36250113Y-22721826D01*
X36267440Y-22704499D01*
X36281054Y-22684124D01*
X36290431Y-22661486D01*
X36295212Y-22637452D01*
X36295212Y-22612948D01*
X36290432Y-22588915D01*
X36281054Y-22566276D01*
X36267441Y-22545902D01*
X36250114Y-22528575D01*
X36229739Y-22514961D01*
X36207100Y-22505583D01*
X36191302Y-22500791D01*
X36095762Y-22449724D01*
X36012010Y-22380990D01*
X35943276Y-22297238D01*
X35892209Y-22201698D01*
X35883446Y-22172811D01*
X35860758Y-22098019D01*
X35850139Y-21990200D01*
X35860758Y-21882381D01*
X35892208Y-21778706D01*
X35892209Y-21778702D01*
X35943276Y-21683162D01*
X35988424Y-21628150D01*
X36012010Y-21599410D01*
X36095758Y-21530679D01*
X36095759Y-21530678D01*
X36095762Y-21530676D01*
X36191302Y-21479609D01*
X36207100Y-21474817D01*
X36229739Y-21465439D01*
X36250113Y-21451826D01*
X36267440Y-21434499D01*
X36281054Y-21414124D01*
X36290431Y-21391486D01*
X36295212Y-21367452D01*
X36295212Y-21342948D01*
X36290432Y-21318915D01*
X36281054Y-21296276D01*
X36267441Y-21275902D01*
X36250114Y-21258575D01*
X36229739Y-21244961D01*
X36207100Y-21235583D01*
X36191302Y-21230791D01*
X36095762Y-21179724D01*
X36012010Y-21110990D01*
X35943276Y-21027238D01*
X35892209Y-20931698D01*
X35884025Y-20904718D01*
X35860758Y-20828019D01*
X35850139Y-20720200D01*
X35860758Y-20612381D01*
X35892208Y-20508706D01*
X35892209Y-20508702D01*
X35943276Y-20413162D01*
X36012010Y-20329410D01*
X36095762Y-20260676D01*
X36191302Y-20209609D01*
X36207100Y-20204817D01*
X36229739Y-20195439D01*
X36250113Y-20181826D01*
X36267440Y-20164499D01*
X36281054Y-20144124D01*
X36290431Y-20121486D01*
X36295212Y-20097452D01*
X36295212Y-20072948D01*
X36290432Y-20048915D01*
X36281054Y-20026276D01*
X36267441Y-20005902D01*
X36250114Y-19988575D01*
X36229739Y-19974961D01*
X36207100Y-19965583D01*
X36191302Y-19960791D01*
X36095762Y-19909724D01*
X36012010Y-19840990D01*
X35943276Y-19757238D01*
X35892209Y-19661698D01*
X35883446Y-19632811D01*
X35860758Y-19558019D01*
X35850139Y-19450200D01*
X35860758Y-19342381D01*
X35892208Y-19238706D01*
X35892209Y-19238702D01*
X35943276Y-19143162D01*
X36012010Y-19059410D01*
X36095762Y-18990676D01*
X36191302Y-18939609D01*
X36207100Y-18934817D01*
X36229739Y-18925439D01*
X36250113Y-18911826D01*
X36267440Y-18894499D01*
X36281054Y-18874124D01*
X36290431Y-18851486D01*
X36295212Y-18827452D01*
X36295212Y-18802948D01*
X36290432Y-18778915D01*
X36281054Y-18756276D01*
X36267441Y-18735902D01*
X36250114Y-18718575D01*
X36229739Y-18704961D01*
X36207100Y-18695583D01*
X36191302Y-18690791D01*
X36095762Y-18639724D01*
X36012010Y-18570990D01*
X35943276Y-18487238D01*
X35892209Y-18391698D01*
X35871491Y-18323400D01*
X35860758Y-18288019D01*
X35850139Y-18180200D01*
X35860758Y-18072381D01*
X35892208Y-17968706D01*
X35892209Y-17968702D01*
X35943276Y-17873162D01*
X36012010Y-17789410D01*
X36095762Y-17720676D01*
X36191302Y-17669609D01*
X36207100Y-17664817D01*
X36229739Y-17655439D01*
X36250113Y-17641826D01*
X36267440Y-17624499D01*
X36281054Y-17604124D01*
X36290431Y-17581486D01*
X36295212Y-17557452D01*
X36295212Y-17532948D01*
X36290432Y-17508915D01*
X36281054Y-17486276D01*
X36267441Y-17465902D01*
X36250114Y-17448575D01*
X36229739Y-17434961D01*
X36207100Y-17425583D01*
X36191302Y-17420791D01*
X36095762Y-17369724D01*
X36012010Y-17300990D01*
X35943276Y-17217238D01*
X35892209Y-17121698D01*
X35884025Y-17094718D01*
X35860758Y-17018019D01*
X35850139Y-16910200D01*
X35860758Y-16802381D01*
X35892208Y-16698706D01*
X35892209Y-16698702D01*
X35943276Y-16603162D01*
X35988424Y-16548150D01*
X36012010Y-16519410D01*
X36095758Y-16450679D01*
X36095759Y-16450678D01*
X36095762Y-16450676D01*
X36191302Y-16399609D01*
X36207100Y-16394817D01*
X36229739Y-16385439D01*
X36250113Y-16371826D01*
X36267440Y-16354499D01*
X36281054Y-16334124D01*
X36290431Y-16311486D01*
X36295212Y-16287452D01*
X36295212Y-16262948D01*
X36290432Y-16238915D01*
X36281054Y-16216276D01*
X36267441Y-16195902D01*
X36250114Y-16178575D01*
X36229739Y-16164961D01*
X36207100Y-16155583D01*
X36191302Y-16150791D01*
X36095762Y-16099724D01*
X36012010Y-16030990D01*
X35943276Y-15947238D01*
X35892209Y-15851698D01*
X35884025Y-15824718D01*
X35860758Y-15748019D01*
X35850139Y-15640200D01*
X35860758Y-15532381D01*
X35892208Y-15428706D01*
X35892209Y-15428702D01*
X35943276Y-15333162D01*
X36012010Y-15249410D01*
X36095762Y-15180676D01*
X36191302Y-15129609D01*
X36207100Y-15124817D01*
X36229739Y-15115439D01*
X36250113Y-15101826D01*
X36267440Y-15084499D01*
X36281054Y-15064124D01*
X36290431Y-15041486D01*
X36295212Y-15017452D01*
X36295212Y-14992948D01*
X36290432Y-14968915D01*
X36281054Y-14946276D01*
X36267441Y-14925902D01*
X36250114Y-14908575D01*
X36229739Y-14894961D01*
X36207100Y-14885583D01*
X36191302Y-14880791D01*
X36095762Y-14829724D01*
X36012010Y-14760990D01*
X35943276Y-14677238D01*
X35892209Y-14581698D01*
X35884025Y-14554718D01*
X35860758Y-14478019D01*
X35850139Y-14370200D01*
X35860758Y-14262381D01*
X35892208Y-14158706D01*
X35892209Y-14158702D01*
X35943276Y-14063162D01*
X36012010Y-13979410D01*
X36095762Y-13910676D01*
X36191302Y-13859609D01*
X36207100Y-13854817D01*
X36229739Y-13845439D01*
X36250113Y-13831826D01*
X36267440Y-13814499D01*
X36281054Y-13794124D01*
X36290431Y-13771486D01*
X36295212Y-13747452D01*
X36295212Y-13722948D01*
X36290432Y-13698915D01*
X36281054Y-13676276D01*
X36267441Y-13655902D01*
X36250114Y-13638575D01*
X36229739Y-13624961D01*
X36207100Y-13615583D01*
X36191302Y-13610791D01*
X36095762Y-13559724D01*
X36012010Y-13490990D01*
X35943276Y-13407238D01*
X35892209Y-13311698D01*
X35884025Y-13284718D01*
X35860758Y-13208019D01*
X35850139Y-13100200D01*
X35860758Y-12992381D01*
X35892208Y-12888706D01*
X35892209Y-12888702D01*
X35943276Y-12793162D01*
X36012010Y-12709410D01*
X36095762Y-12640676D01*
X36191302Y-12589609D01*
X36207100Y-12584817D01*
X36229739Y-12575439D01*
X36250113Y-12561826D01*
X36267440Y-12544499D01*
X36281054Y-12524124D01*
X36290431Y-12501486D01*
X36295212Y-12477452D01*
X36295212Y-12452948D01*
X36290432Y-12428915D01*
X36281054Y-12406276D01*
X36267441Y-12385902D01*
X36250114Y-12368575D01*
X36229739Y-12354961D01*
X36207100Y-12345583D01*
X36191302Y-12340791D01*
X36095762Y-12289724D01*
X36012010Y-12220990D01*
X35943276Y-12137238D01*
X35892209Y-12041698D01*
X35884025Y-12014718D01*
X35860758Y-11938019D01*
X35850139Y-11830200D01*
X35860758Y-11722381D01*
X35892208Y-11618706D01*
X35892209Y-11618702D01*
X35943276Y-11523162D01*
X36012010Y-11439410D01*
X36095762Y-11370676D01*
X36191302Y-11319609D01*
X36207100Y-11314817D01*
X36229739Y-11305439D01*
X36250113Y-11291826D01*
X36267440Y-11274499D01*
X36281054Y-11254124D01*
X36290431Y-11231486D01*
X36295212Y-11207452D01*
X36295212Y-11182948D01*
X36290432Y-11158915D01*
X36281054Y-11136276D01*
X36267441Y-11115902D01*
X36250114Y-11098575D01*
X36229739Y-11084961D01*
X36207100Y-11075583D01*
X36191302Y-11070791D01*
X36095762Y-11019724D01*
X36012010Y-10950990D01*
X35943276Y-10867238D01*
X35892209Y-10771698D01*
X35884025Y-10744718D01*
X35860758Y-10668019D01*
X35850139Y-10560200D01*
X35860758Y-10452381D01*
X35892208Y-10348706D01*
X35892209Y-10348702D01*
X35943276Y-10253162D01*
X36012010Y-10169410D01*
X36095762Y-10100676D01*
X36191302Y-10049609D01*
X36207100Y-10044817D01*
X36229739Y-10035439D01*
X36250113Y-10021826D01*
X36267440Y-10004499D01*
X36281054Y-9984124D01*
X36290431Y-9961486D01*
X36295212Y-9937452D01*
X36295212Y-9912948D01*
X36290432Y-9888915D01*
X36281054Y-9866276D01*
X36267441Y-9845902D01*
X36250114Y-9828575D01*
X36229739Y-9814961D01*
X36207100Y-9805583D01*
X36191302Y-9800791D01*
X36095762Y-9749724D01*
X36012010Y-9680990D01*
X35943276Y-9597238D01*
X35892209Y-9501698D01*
X35884025Y-9474718D01*
X35860758Y-9398019D01*
X35850139Y-9290200D01*
X35860758Y-9182381D01*
X35892208Y-9078706D01*
X35892209Y-9078702D01*
X35943276Y-8983162D01*
X35962276Y-8960011D01*
X36012010Y-8899410D01*
X36095758Y-8830679D01*
X36095759Y-8830678D01*
X36095762Y-8830676D01*
X36191302Y-8779609D01*
X36207100Y-8774817D01*
X36229739Y-8765439D01*
X36250113Y-8751826D01*
X36267440Y-8734499D01*
X36281054Y-8714124D01*
X36290431Y-8691486D01*
X36295212Y-8667452D01*
X36295212Y-8642948D01*
X36290432Y-8618915D01*
X36281054Y-8596276D01*
X36267441Y-8575902D01*
X36250114Y-8558575D01*
X36229739Y-8544961D01*
X36207100Y-8535583D01*
X36191302Y-8530791D01*
X36095762Y-8479724D01*
X36027132Y-8423400D01*
X36012010Y-8410990D01*
X35943279Y-8327242D01*
X35943278Y-8327241D01*
X35943276Y-8327238D01*
X35892209Y-8231698D01*
X35869059Y-8155383D01*
X35860758Y-8128019D01*
X35850139Y-8020200D01*
X35860758Y-7912381D01*
X35888480Y-7820995D01*
X35892209Y-7808702D01*
X35943276Y-7713162D01*
X36012010Y-7629410D01*
X36095762Y-7560676D01*
X36191302Y-7509609D01*
X36207100Y-7504817D01*
X36229739Y-7495439D01*
X36250113Y-7481826D01*
X36267440Y-7464499D01*
X36281054Y-7444124D01*
X36290431Y-7421486D01*
X36295212Y-7397452D01*
X36295212Y-7372948D01*
X36290432Y-7348915D01*
X36281054Y-7326276D01*
X36267441Y-7305902D01*
X36250114Y-7288575D01*
X36229739Y-7274961D01*
X36207100Y-7265583D01*
X36191302Y-7260791D01*
X36095762Y-7209724D01*
X36012010Y-7140990D01*
X35972033Y-7092278D01*
X35943279Y-7057242D01*
X35943278Y-7057241D01*
X35943276Y-7057238D01*
X35892209Y-6961698D01*
X35881087Y-6925032D01*
X35860758Y-6858019D01*
X35850139Y-6750200D01*
X35860758Y-6642381D01*
X35892208Y-6538706D01*
X35892209Y-6538702D01*
X35943276Y-6443162D01*
X35962057Y-6420278D01*
X36012010Y-6359410D01*
X36095758Y-6290679D01*
X36095759Y-6290678D01*
X36095762Y-6290676D01*
X36191302Y-6239609D01*
X36207100Y-6234817D01*
X36229739Y-6225439D01*
X36250113Y-6211826D01*
X36267440Y-6194499D01*
X36281054Y-6174124D01*
X36290431Y-6151486D01*
X36295212Y-6127452D01*
X36295212Y-6102948D01*
X36290432Y-6078915D01*
X36281054Y-6056276D01*
X36267441Y-6035902D01*
X36250114Y-6018575D01*
X36229739Y-6004961D01*
X36207100Y-5995583D01*
X36191302Y-5990791D01*
X36095762Y-5939724D01*
X36060799Y-5911030D01*
X36012010Y-5870990D01*
X35943279Y-5787242D01*
X35943278Y-5787241D01*
X35943276Y-5787238D01*
X35892209Y-5691698D01*
X35868655Y-5614051D01*
X35860758Y-5588019D01*
X35850139Y-5480200D01*
X35860758Y-5372381D01*
X35892208Y-5268706D01*
X35892209Y-5268702D01*
X35943276Y-5173162D01*
X36012010Y-5089410D01*
X36061980Y-5048400D01*
X36095758Y-5020679D01*
X36095759Y-5020678D01*
X36095762Y-5020676D01*
X36191302Y-4969609D01*
X36207100Y-4964817D01*
X36229739Y-4955439D01*
X36250113Y-4941826D01*
X36267440Y-4924499D01*
X36281054Y-4904124D01*
X36290431Y-4881486D01*
X36295212Y-4857452D01*
X36295212Y-4832948D01*
X36290432Y-4808915D01*
X36281054Y-4786276D01*
X36267441Y-4765902D01*
X36250114Y-4748575D01*
X36229739Y-4734961D01*
X36207100Y-4725583D01*
X36191302Y-4720791D01*
X36095762Y-4669724D01*
X36012010Y-4600990D01*
X35943276Y-4517238D01*
X35892209Y-4421698D01*
X35884025Y-4394718D01*
X35860758Y-4318019D01*
X35850139Y-4210200D01*
X35860758Y-4102381D01*
X35892208Y-3998706D01*
X35892209Y-3998702D01*
X35943276Y-3903162D01*
X35967444Y-3873714D01*
X36012010Y-3819410D01*
X36095758Y-3750679D01*
X36095759Y-3750678D01*
X36095762Y-3750676D01*
X36191302Y-3699609D01*
X36207100Y-3694817D01*
X36229739Y-3685439D01*
X36250113Y-3671826D01*
X36267440Y-3654499D01*
X36281054Y-3634124D01*
X36290431Y-3611486D01*
X36295212Y-3587452D01*
X36295212Y-3562948D01*
X36290432Y-3538915D01*
X36281054Y-3516276D01*
X36267441Y-3495902D01*
X36250114Y-3478575D01*
X36229739Y-3464961D01*
X36207100Y-3455583D01*
X36191302Y-3450791D01*
X36095762Y-3399724D01*
X36012010Y-3330990D01*
X35943276Y-3247238D01*
X35892209Y-3151698D01*
X35883792Y-3123951D01*
X35860758Y-3048019D01*
X35850139Y-2940200D01*
X35860758Y-2832381D01*
X35892208Y-2728706D01*
X35892209Y-2728702D01*
X35943276Y-2633162D01*
X36012010Y-2549410D01*
X36027439Y-2536748D01*
X36095758Y-2480679D01*
X36095759Y-2480678D01*
X36095762Y-2480676D01*
X36191302Y-2429609D01*
X36207100Y-2424817D01*
X36229739Y-2415439D01*
X36250113Y-2401826D01*
X36267440Y-2384499D01*
X36281054Y-2364124D01*
X36290431Y-2341486D01*
X36295212Y-2317452D01*
X36295212Y-2292948D01*
X36290432Y-2268915D01*
X36281054Y-2246276D01*
X36267441Y-2225902D01*
X36250114Y-2208575D01*
X36229739Y-2194961D01*
X36207100Y-2185583D01*
X36191302Y-2180791D01*
X36095762Y-2129724D01*
X36012010Y-2060990D01*
X35943276Y-1977238D01*
X35892209Y-1881698D01*
X35884025Y-1854718D01*
X35860758Y-1778019D01*
X35850139Y-1670200D01*
X35860758Y-1562381D01*
X35892208Y-1458706D01*
X35892209Y-1458702D01*
X35943276Y-1363162D01*
X36012010Y-1279410D01*
X36095762Y-1210676D01*
X36191302Y-1159609D01*
X36207100Y-1154817D01*
X36229739Y-1145439D01*
X36250113Y-1131826D01*
X36267440Y-1114499D01*
X36281054Y-1094124D01*
X36290431Y-1071486D01*
X36295212Y-1047452D01*
X36295212Y-1022948D01*
X36290432Y-998915D01*
X36281054Y-976276D01*
X36267441Y-955902D01*
X36250114Y-938575D01*
X36229739Y-924961D01*
X36207100Y-915583D01*
X36191302Y-910791D01*
X36095762Y-859724D01*
X36012010Y-790990D01*
X35943276Y-707238D01*
X35892209Y-611698D01*
X35884025Y-584718D01*
X35860758Y-508019D01*
X35850139Y-400200D01*
X35860758Y-292381D01*
X35884025Y-215682D01*
X35892209Y-188702D01*
X35943276Y-93162D01*
X35952652Y-81738D01*
X36012010Y-9410D01*
X36095758Y59321D01*
X36095759Y59322D01*
X36095762Y59324D01*
X36191302Y110391D01*
X36207100Y115183D01*
X36229739Y124561D01*
X36250113Y138174D01*
X36267440Y155501D01*
X36281054Y175876D01*
X36290431Y198514D01*
X36295212Y222548D01*
X36295212Y247052D01*
X36290432Y271085D01*
X36281054Y293724D01*
X36267441Y314098D01*
X36250114Y331425D01*
X36229739Y345039D01*
X36207100Y354417D01*
X36191302Y359209D01*
X36095762Y410276D01*
X36012010Y479010D01*
X35943276Y562762D01*
X35892209Y658302D01*
X35884025Y685282D01*
X35860758Y761981D01*
X35850139Y869800D01*
X35860758Y977619D01*
X35892208Y1081294D01*
X35892209Y1081298D01*
X35943276Y1176838D01*
X36012010Y1260590D01*
X36095762Y1329324D01*
X36191302Y1380391D01*
X36207100Y1385183D01*
X36229739Y1394561D01*
X36250113Y1408174D01*
X36267440Y1425501D01*
X36281054Y1445876D01*
X36290431Y1468514D01*
X36295212Y1492548D01*
X36295212Y1517052D01*
X36290432Y1541085D01*
X36281054Y1563724D01*
X36267441Y1584098D01*
X36250114Y1601425D01*
X36229739Y1615039D01*
X36207100Y1624417D01*
X36191302Y1629209D01*
X36095762Y1680276D01*
X36012010Y1749010D01*
X35943276Y1832762D01*
X35892209Y1928302D01*
X35884025Y1955282D01*
X35860758Y2031981D01*
X35850139Y2139800D01*
X35860758Y2247619D01*
X35892208Y2351294D01*
X35892209Y2351298D01*
X35943276Y2446838D01*
X36012010Y2530590D01*
X36095762Y2599324D01*
X36191302Y2650391D01*
X36207100Y2655183D01*
X36229739Y2664561D01*
X36250113Y2678174D01*
X36267440Y2695501D01*
X36281054Y2715876D01*
X36290431Y2738514D01*
X36295212Y2762548D01*
X36295212Y2787052D01*
X36290432Y2811085D01*
X36281054Y2833724D01*
X36267441Y2854098D01*
X36250114Y2871425D01*
X36229739Y2885039D01*
X36207100Y2894417D01*
X36191302Y2899209D01*
X36095762Y2950276D01*
X36012010Y3019010D01*
X35987208Y3049231D01*
X35943279Y3102758D01*
X35943278Y3102759D01*
X35943276Y3102762D01*
X35892209Y3198302D01*
X35872726Y3262528D01*
X35860758Y3301981D01*
X35850139Y3409800D01*
X35860758Y3517619D01*
X35892208Y3621294D01*
X35892209Y3621298D01*
X35943276Y3716838D01*
X35951288Y3726600D01*
X36012010Y3800590D01*
X36095758Y3869321D01*
X36095759Y3869322D01*
X36095762Y3869324D01*
X36191302Y3920391D01*
X36207100Y3925183D01*
X36229739Y3934561D01*
X36250113Y3948174D01*
X36267440Y3965501D01*
X36281054Y3985876D01*
X36290431Y4008514D01*
X36295212Y4032548D01*
X36295212Y4057052D01*
X36290432Y4081085D01*
X36281054Y4103724D01*
X36267441Y4124098D01*
X36250114Y4141425D01*
X36229739Y4155039D01*
X36207100Y4164417D01*
X36191302Y4169209D01*
X36095762Y4220276D01*
X36095538Y4220460D01*
X36012010Y4289010D01*
X35943279Y4372758D01*
X35943278Y4372759D01*
X35943276Y4372762D01*
X35892209Y4468302D01*
X35870701Y4539204D01*
X35860758Y4571981D01*
X35850139Y4679800D01*
X35860758Y4787619D01*
X35892208Y4891294D01*
X35892208Y4891295D01*
X35892210Y4891300D01*
X35943276Y4986838D01*
X36012010Y5070590D01*
X36095762Y5139324D01*
X36191302Y5190391D01*
X36207100Y5195183D01*
X36229739Y5204561D01*
X36250113Y5218174D01*
X36267440Y5235501D01*
X36281054Y5255876D01*
X36290431Y5278514D01*
X36295212Y5302548D01*
X36295212Y5327052D01*
X36290432Y5351085D01*
X36281054Y5373724D01*
X36267441Y5394098D01*
X36250114Y5411425D01*
X36229739Y5425039D01*
X36207100Y5434417D01*
X36191302Y5439209D01*
X36095762Y5490276D01*
X36012010Y5559010D01*
X35943276Y5642762D01*
X35892209Y5738302D01*
X35884025Y5765282D01*
X35860758Y5841981D01*
X35850139Y5949800D01*
X35860758Y6057619D01*
X35892208Y6161294D01*
X35892209Y6161298D01*
X35943276Y6256838D01*
X36012010Y6340590D01*
X36095762Y6409324D01*
X36191302Y6460391D01*
X36218282Y6468575D01*
X36294981Y6491842D01*
X36348848Y6497147D01*
X36375781Y6499800D01*
X37129819Y6499800D01*
X37156752Y6497147D01*
G37*
G36*
X6208454Y-25846065D02*
G01*
X6372672Y-25878730D01*
X6682052Y-26006879D01*
X6960487Y-26192923D01*
X7197277Y-26429713D01*
X7383321Y-26708148D01*
X7511470Y-27017528D01*
X7511470Y-27017530D01*
X7576800Y-27345963D01*
X7576800Y-27680837D01*
X7550026Y-27815439D01*
X7511470Y-28009272D01*
X7383321Y-28318652D01*
X7197277Y-28597087D01*
X6960487Y-28833877D01*
X6682052Y-29019921D01*
X6372672Y-29148070D01*
X6208454Y-29180735D01*
X6044237Y-29213400D01*
X5709363Y-29213400D01*
X5545146Y-29180735D01*
X5380928Y-29148070D01*
X5071548Y-29019921D01*
X4793113Y-28833877D01*
X4556323Y-28597087D01*
X4370279Y-28318652D01*
X4242130Y-28009272D01*
X4203574Y-27815439D01*
X4176800Y-27680837D01*
X4176800Y-27345963D01*
X4242130Y-27017530D01*
X4242130Y-27017528D01*
X4370279Y-26708148D01*
X4556323Y-26429713D01*
X4793113Y-26192923D01*
X5071548Y-26006879D01*
X5380928Y-25878730D01*
X5545146Y-25846065D01*
X5709363Y-25813400D01*
X6044237Y-25813400D01*
X6208454Y-25846065D01*
G37*
G36*
X27545487Y-24483427D02*
G01*
X27723074Y-24518750D01*
X27914162Y-24597902D01*
X28086136Y-24712811D01*
X28232389Y-24859064D01*
X28347298Y-25031038D01*
X28426450Y-25222126D01*
X28466800Y-25424984D01*
X28466800Y-25631816D01*
X28426450Y-25834674D01*
X28347298Y-26025762D01*
X28232389Y-26197736D01*
X28086136Y-26343989D01*
X27914162Y-26458898D01*
X27723074Y-26538050D01*
X27545487Y-26573373D01*
X27520217Y-26578400D01*
X27313383Y-26578400D01*
X27288113Y-26573373D01*
X27110526Y-26538050D01*
X26919438Y-26458898D01*
X26747464Y-26343989D01*
X26601211Y-26197736D01*
X26486302Y-26025762D01*
X26407150Y-25834674D01*
X26366800Y-25631816D01*
X26366800Y-25424984D01*
X26407150Y-25222126D01*
X26486302Y-25031038D01*
X26601211Y-24859064D01*
X26747464Y-24712811D01*
X26919438Y-24597902D01*
X27110526Y-24518750D01*
X27288113Y-24483427D01*
X27313383Y-24478400D01*
X27520217Y-24478400D01*
X27545487Y-24483427D01*
G37*
G36*
X25005487Y-24483427D02*
G01*
X25183074Y-24518750D01*
X25374162Y-24597902D01*
X25546136Y-24712811D01*
X25692389Y-24859064D01*
X25807298Y-25031038D01*
X25886450Y-25222126D01*
X25926800Y-25424984D01*
X25926800Y-25631816D01*
X25886450Y-25834674D01*
X25807298Y-26025762D01*
X25692389Y-26197736D01*
X25546136Y-26343989D01*
X25374162Y-26458898D01*
X25183074Y-26538050D01*
X25005487Y-26573373D01*
X24980217Y-26578400D01*
X24773383Y-26578400D01*
X24748113Y-26573373D01*
X24570526Y-26538050D01*
X24379438Y-26458898D01*
X24207464Y-26343989D01*
X24061211Y-26197736D01*
X23946302Y-26025762D01*
X23867150Y-25834674D01*
X23826800Y-25631816D01*
X23826800Y-25424984D01*
X23867150Y-25222126D01*
X23946302Y-25031038D01*
X24061211Y-24859064D01*
X24207464Y-24712811D01*
X24379438Y-24597902D01*
X24570526Y-24518750D01*
X24748113Y-24483427D01*
X24773383Y-24478400D01*
X24980217Y-24478400D01*
X25005487Y-24483427D01*
G37*
G36*
X14187299Y-24754397D02*
G01*
X14239947Y-24770368D01*
X14288468Y-24796302D01*
X14330995Y-24831205D01*
X14365898Y-24873732D01*
X14391832Y-24922253D01*
X14407803Y-24974901D01*
X14413800Y-25035790D01*
X14413800Y-26261010D01*
X14407803Y-26321899D01*
X14391832Y-26374547D01*
X14365898Y-26423068D01*
X14330995Y-26465595D01*
X14288468Y-26500498D01*
X14239947Y-26526432D01*
X14187299Y-26542403D01*
X14126410Y-26548400D01*
X13326190Y-26548400D01*
X13265301Y-26542403D01*
X13212653Y-26526432D01*
X13164132Y-26500498D01*
X13121605Y-26465595D01*
X13086702Y-26423068D01*
X13060768Y-26374547D01*
X13044797Y-26321899D01*
X13038800Y-26261010D01*
X13038800Y-25035790D01*
X13044797Y-24974901D01*
X13060768Y-24922253D01*
X13086702Y-24873732D01*
X13121605Y-24831205D01*
X13164132Y-24796302D01*
X13212653Y-24770368D01*
X13265301Y-24754397D01*
X13326190Y-24748400D01*
X14126410Y-24748400D01*
X14187299Y-24754397D01*
G37*
G36*
X16062299Y-24754397D02*
G01*
X16114947Y-24770368D01*
X16163468Y-24796302D01*
X16205995Y-24831205D01*
X16240898Y-24873732D01*
X16266832Y-24922253D01*
X16282803Y-24974901D01*
X16288800Y-25035790D01*
X16288800Y-26261010D01*
X16282803Y-26321899D01*
X16266832Y-26374547D01*
X16240898Y-26423068D01*
X16205995Y-26465595D01*
X16163468Y-26500498D01*
X16114947Y-26526432D01*
X16062299Y-26542403D01*
X16001410Y-26548400D01*
X15201190Y-26548400D01*
X15140301Y-26542403D01*
X15087653Y-26526432D01*
X15039132Y-26500498D01*
X14996605Y-26465595D01*
X14961702Y-26423068D01*
X14935768Y-26374547D01*
X14919797Y-26321899D01*
X14913800Y-26261010D01*
X14913800Y-25035790D01*
X14919797Y-24974901D01*
X14935768Y-24922253D01*
X14961702Y-24873732D01*
X14996605Y-24831205D01*
X15039132Y-24796302D01*
X15087653Y-24770368D01*
X15140301Y-24754397D01*
X15201190Y-24748400D01*
X16001410Y-24748400D01*
X16062299Y-24754397D01*
G37*
G36*
X19457422Y-24653917D02*
G01*
X19505385Y-24668466D01*
X19549578Y-24692088D01*
X19588319Y-24723881D01*
X19620112Y-24762622D01*
X19643734Y-24806815D01*
X19658283Y-24854778D01*
X19663800Y-24910791D01*
X19663800Y-25736009D01*
X19658283Y-25792022D01*
X19643734Y-25839985D01*
X19620112Y-25884178D01*
X19588319Y-25922919D01*
X19549578Y-25954712D01*
X19505385Y-25978334D01*
X19457422Y-25992883D01*
X19401409Y-25998400D01*
X18651191Y-25998400D01*
X18595178Y-25992883D01*
X18547215Y-25978334D01*
X18503022Y-25954712D01*
X18464281Y-25922919D01*
X18432488Y-25884178D01*
X18408866Y-25839985D01*
X18394317Y-25792022D01*
X18388800Y-25736009D01*
X18388800Y-24910791D01*
X18394317Y-24854778D01*
X18408866Y-24806815D01*
X18432488Y-24762622D01*
X18464281Y-24723881D01*
X18503022Y-24692088D01*
X18547215Y-24668466D01*
X18595178Y-24653917D01*
X18651191Y-24648400D01*
X19401409Y-24648400D01*
X19457422Y-24653917D01*
G37*
G36*
X17882422Y-24653917D02*
G01*
X17930385Y-24668466D01*
X17974578Y-24692088D01*
X18013319Y-24723881D01*
X18045112Y-24762622D01*
X18068734Y-24806815D01*
X18083283Y-24854778D01*
X18088800Y-24910791D01*
X18088800Y-25736009D01*
X18083283Y-25792022D01*
X18068734Y-25839985D01*
X18045112Y-25884178D01*
X18013319Y-25922919D01*
X17974578Y-25954712D01*
X17930385Y-25978334D01*
X17882422Y-25992883D01*
X17826409Y-25998400D01*
X17076191Y-25998400D01*
X17020178Y-25992883D01*
X16972215Y-25978334D01*
X16928022Y-25954712D01*
X16889281Y-25922919D01*
X16857488Y-25884178D01*
X16833866Y-25839985D01*
X16819317Y-25792022D01*
X16813800Y-25736009D01*
X16813800Y-24910791D01*
X16819317Y-24854778D01*
X16833866Y-24806815D01*
X16857488Y-24762622D01*
X16889281Y-24723881D01*
X16928022Y-24692088D01*
X16972215Y-24668466D01*
X17020178Y-24653917D01*
X17076191Y-24648400D01*
X17826409Y-24648400D01*
X17882422Y-24653917D01*
G37*
G36*
X6208454Y-20766065D02*
G01*
X6372672Y-20798730D01*
X6682052Y-20926879D01*
X6960487Y-21112923D01*
X7197277Y-21349713D01*
X7383321Y-21628148D01*
X7511470Y-21937528D01*
X7521947Y-21990200D01*
X7576800Y-22265963D01*
X7576800Y-22600837D01*
X7550026Y-22735439D01*
X7511470Y-22929272D01*
X7383321Y-23238652D01*
X7197277Y-23517087D01*
X6960487Y-23753877D01*
X6682052Y-23939921D01*
X6372672Y-24068070D01*
X6208453Y-24100735D01*
X6044237Y-24133400D01*
X5709363Y-24133400D01*
X5545147Y-24100735D01*
X5380928Y-24068070D01*
X5071548Y-23939921D01*
X4793113Y-23753877D01*
X4556323Y-23517087D01*
X4370279Y-23238652D01*
X4242130Y-22929272D01*
X4203574Y-22735439D01*
X4176800Y-22600837D01*
X4176800Y-22265963D01*
X4231653Y-21990200D01*
X4242130Y-21937528D01*
X4370279Y-21628148D01*
X4556323Y-21349713D01*
X4793113Y-21112923D01*
X5071548Y-20926879D01*
X5380928Y-20798730D01*
X5545146Y-20766065D01*
X5709363Y-20733400D01*
X6044237Y-20733400D01*
X6208454Y-20766065D01*
G37*
G36*
X25005487Y-21943427D02*
G01*
X25183074Y-21978750D01*
X25374162Y-22057902D01*
X25546136Y-22172811D01*
X25692389Y-22319064D01*
X25807298Y-22491038D01*
X25886450Y-22682126D01*
X25926800Y-22884984D01*
X25926800Y-23091816D01*
X25886450Y-23294674D01*
X25807298Y-23485762D01*
X25692389Y-23657736D01*
X25546136Y-23803989D01*
X25374162Y-23918898D01*
X25183074Y-23998050D01*
X25005487Y-24033373D01*
X24980217Y-24038400D01*
X24773383Y-24038400D01*
X24748113Y-24033373D01*
X24570526Y-23998050D01*
X24379438Y-23918898D01*
X24207464Y-23803989D01*
X24061211Y-23657736D01*
X23946302Y-23485762D01*
X23867150Y-23294674D01*
X23826800Y-23091816D01*
X23826800Y-22884984D01*
X23867150Y-22682126D01*
X23946302Y-22491038D01*
X24061211Y-22319064D01*
X24207464Y-22172811D01*
X24379438Y-22057902D01*
X24570526Y-21978750D01*
X24748113Y-21943427D01*
X24773383Y-21938400D01*
X24980217Y-21938400D01*
X25005487Y-21943427D01*
G37*
G36*
X27545487Y-21943427D02*
G01*
X27723074Y-21978750D01*
X27914162Y-22057902D01*
X28086136Y-22172811D01*
X28232389Y-22319064D01*
X28347298Y-22491038D01*
X28426450Y-22682126D01*
X28466800Y-22884984D01*
X28466800Y-23091816D01*
X28426450Y-23294674D01*
X28347298Y-23485762D01*
X28232389Y-23657736D01*
X28086136Y-23803989D01*
X27914162Y-23918898D01*
X27723074Y-23998050D01*
X27545487Y-24033373D01*
X27520217Y-24038400D01*
X27313383Y-24038400D01*
X27288113Y-24033373D01*
X27110526Y-23998050D01*
X26919438Y-23918898D01*
X26747464Y-23803989D01*
X26601211Y-23657736D01*
X26486302Y-23485762D01*
X26407150Y-23294674D01*
X26366800Y-23091816D01*
X26366800Y-22884984D01*
X26407150Y-22682126D01*
X26486302Y-22491038D01*
X26601211Y-22319064D01*
X26747464Y-22172811D01*
X26919438Y-22057902D01*
X27110526Y-21978750D01*
X27288113Y-21943427D01*
X27313383Y-21938400D01*
X27520217Y-21938400D01*
X27545487Y-21943427D01*
G37*
G36*
X19601800Y-23523400D02*
G01*
X17451800Y-23523400D01*
X17451800Y-15523400D01*
X19601800Y-15523400D01*
X19601800Y-23523400D01*
G37*
G36*
X12401800Y-23523400D02*
G01*
X10251800Y-23523400D01*
X10251800Y-15523400D01*
X12401800Y-15523400D01*
X12401800Y-23523400D01*
G37*
G36*
X25926800Y-21498400D02*
G01*
X23826800Y-21498400D01*
X23826800Y-19398400D01*
X25926800Y-19398400D01*
X25926800Y-21498400D01*
G37*
G36*
X27545487Y-19403427D02*
G01*
X27723074Y-19438750D01*
X27914162Y-19517902D01*
X28086136Y-19632811D01*
X28232389Y-19779064D01*
X28347298Y-19951038D01*
X28426450Y-20142126D01*
X28466800Y-20344984D01*
X28466800Y-20551816D01*
X28426450Y-20754674D01*
X28347298Y-20945762D01*
X28232389Y-21117736D01*
X28086136Y-21263989D01*
X27914162Y-21378898D01*
X27723074Y-21458050D01*
X27545487Y-21493373D01*
X27520217Y-21498400D01*
X27313383Y-21498400D01*
X27288113Y-21493373D01*
X27110526Y-21458050D01*
X26919438Y-21378898D01*
X26747464Y-21263989D01*
X26601211Y-21117736D01*
X26486302Y-20945762D01*
X26407150Y-20754674D01*
X26366800Y-20551816D01*
X26366800Y-20344984D01*
X26407150Y-20142126D01*
X26486302Y-19951038D01*
X26601211Y-19779064D01*
X26747464Y-19632811D01*
X26919438Y-19517902D01*
X27110526Y-19438750D01*
X27288113Y-19403427D01*
X27313383Y-19398400D01*
X27520217Y-19398400D01*
X27545487Y-19403427D01*
G37*
G36*
X6208453Y-15686065D02*
G01*
X6372672Y-15718730D01*
X6682052Y-15846879D01*
X6960487Y-16032923D01*
X7197277Y-16269713D01*
X7383321Y-16548148D01*
X7511470Y-16857528D01*
X7511470Y-16857530D01*
X7576800Y-17185963D01*
X7576800Y-17520837D01*
X7550026Y-17655439D01*
X7511470Y-17849272D01*
X7383321Y-18158652D01*
X7197277Y-18437087D01*
X6960487Y-18673877D01*
X6682052Y-18859921D01*
X6372672Y-18988070D01*
X6208453Y-19020735D01*
X6044237Y-19053400D01*
X5709363Y-19053400D01*
X5545147Y-19020735D01*
X5380928Y-18988070D01*
X5071548Y-18859921D01*
X4793113Y-18673877D01*
X4556323Y-18437087D01*
X4370279Y-18158652D01*
X4242130Y-17849272D01*
X4203574Y-17655439D01*
X4176800Y-17520837D01*
X4176800Y-17185963D01*
X4242130Y-16857530D01*
X4242130Y-16857528D01*
X4370279Y-16548148D01*
X4556323Y-16269713D01*
X4793113Y-16032923D01*
X5071548Y-15846879D01*
X5380928Y-15718730D01*
X5545147Y-15686065D01*
X5709363Y-15653400D01*
X6044237Y-15653400D01*
X6208453Y-15686065D01*
G37*
G36*
X7576800Y-13973400D02*
G01*
X4176800Y-13973400D01*
X4176800Y-10573400D01*
X7576800Y-10573400D01*
X7576800Y-13973400D01*
G37*
G36*
X21989549Y-3775260D02*
G01*
X22014051Y-3775260D01*
X22032938Y-3773400D01*
X22470662Y-3773400D01*
X22489549Y-3775260D01*
X22514051Y-3775260D01*
X22532938Y-3773400D01*
X22970662Y-3773400D01*
X22989549Y-3775260D01*
X23014051Y-3775260D01*
X23032938Y-3773400D01*
X23470662Y-3773400D01*
X23489549Y-3775260D01*
X23514051Y-3775260D01*
X23532938Y-3773400D01*
X23970662Y-3773400D01*
X23989549Y-3775260D01*
X24014051Y-3775260D01*
X24032938Y-3773400D01*
X24470662Y-3773400D01*
X24489549Y-3775260D01*
X24514051Y-3775260D01*
X24532938Y-3773400D01*
X24970662Y-3773400D01*
X24989549Y-3775260D01*
X25014051Y-3775260D01*
X25032938Y-3773400D01*
X25470662Y-3773400D01*
X25496192Y-3775914D01*
X25514835Y-3781570D01*
X25532022Y-3790757D01*
X25547083Y-3803117D01*
X25559443Y-3818178D01*
X25568630Y-3835365D01*
X25574286Y-3854008D01*
X25576800Y-3879538D01*
X25576800Y-4648401D01*
X25579202Y-4672787D01*
X25586315Y-4696236D01*
X25597866Y-4717847D01*
X25613411Y-4736789D01*
X25632353Y-4752334D01*
X25653964Y-4763885D01*
X25677413Y-4770998D01*
X25701799Y-4773400D01*
X26470662Y-4773400D01*
X26496192Y-4775914D01*
X26514835Y-4781570D01*
X26532022Y-4790757D01*
X26547083Y-4803117D01*
X26559443Y-4818178D01*
X26568630Y-4835365D01*
X26574286Y-4854008D01*
X26576800Y-4879538D01*
X26576800Y-5317262D01*
X26574940Y-5336149D01*
X26574940Y-5360651D01*
X26576800Y-5379538D01*
X26576800Y-5817262D01*
X26574940Y-5836149D01*
X26574940Y-5860651D01*
X26576800Y-5879538D01*
X26576800Y-6317262D01*
X26574940Y-6336149D01*
X26574940Y-6360651D01*
X26576800Y-6379538D01*
X26576800Y-6817262D01*
X26574940Y-6836149D01*
X26574940Y-6860651D01*
X26576800Y-6879538D01*
X26576800Y-7317262D01*
X26574940Y-7336149D01*
X26574940Y-7360651D01*
X26576800Y-7379538D01*
X26576800Y-7817262D01*
X26574940Y-7836149D01*
X26574940Y-7860651D01*
X26576800Y-7879538D01*
X26576800Y-8317262D01*
X26574940Y-8336149D01*
X26574940Y-8360651D01*
X26576800Y-8379538D01*
X26576800Y-8817262D01*
X26574286Y-8842792D01*
X26568630Y-8861435D01*
X26559443Y-8878622D01*
X26547083Y-8893683D01*
X26532022Y-8906043D01*
X26514835Y-8915230D01*
X26496192Y-8920886D01*
X26470662Y-8923400D01*
X25701799Y-8923400D01*
X25677413Y-8925802D01*
X25653964Y-8932915D01*
X25632353Y-8944466D01*
X25613411Y-8960011D01*
X25597866Y-8978953D01*
X25586315Y-9000564D01*
X25579202Y-9024013D01*
X25576800Y-9048399D01*
X25576800Y-9817262D01*
X25574286Y-9842792D01*
X25568630Y-9861435D01*
X25559443Y-9878622D01*
X25547083Y-9893683D01*
X25532022Y-9906043D01*
X25514835Y-9915230D01*
X25496192Y-9920886D01*
X25470662Y-9923400D01*
X25032938Y-9923400D01*
X25014051Y-9921540D01*
X24989549Y-9921540D01*
X24970662Y-9923400D01*
X24532938Y-9923400D01*
X24514051Y-9921540D01*
X24489549Y-9921540D01*
X24470662Y-9923400D01*
X24032938Y-9923400D01*
X24014051Y-9921540D01*
X23989549Y-9921540D01*
X23970662Y-9923400D01*
X23532938Y-9923400D01*
X23514051Y-9921540D01*
X23489549Y-9921540D01*
X23470662Y-9923400D01*
X23032938Y-9923400D01*
X23014051Y-9921540D01*
X22989549Y-9921540D01*
X22970662Y-9923400D01*
X22532938Y-9923400D01*
X22514051Y-9921540D01*
X22489549Y-9921540D01*
X22470662Y-9923400D01*
X22032938Y-9923400D01*
X22014051Y-9921540D01*
X21989549Y-9921540D01*
X21970662Y-9923400D01*
X21532938Y-9923400D01*
X21507408Y-9920886D01*
X21488765Y-9915230D01*
X21471578Y-9906043D01*
X21456517Y-9893683D01*
X21444157Y-9878622D01*
X21434970Y-9861435D01*
X21429314Y-9842792D01*
X21426800Y-9817262D01*
X21426800Y-9048399D01*
X21424398Y-9024013D01*
X21417285Y-9000564D01*
X21405734Y-8978953D01*
X21390189Y-8960011D01*
X21371247Y-8944466D01*
X21349636Y-8932915D01*
X21326187Y-8925802D01*
X21301801Y-8923400D01*
X20532938Y-8923400D01*
X20507408Y-8920886D01*
X20488765Y-8915230D01*
X20471578Y-8906043D01*
X20456517Y-8893683D01*
X20444157Y-8878622D01*
X20434970Y-8861435D01*
X20429314Y-8842792D01*
X20426800Y-8817262D01*
X20426800Y-8379538D01*
X20428660Y-8360651D01*
X20428660Y-8336149D01*
X20426800Y-8317262D01*
X20426800Y-7879538D01*
X20428660Y-7860651D01*
X20428660Y-7836149D01*
X20426800Y-7817262D01*
X20426800Y-7379538D01*
X20428660Y-7360651D01*
X20428660Y-7336149D01*
X20426800Y-7317262D01*
X20426800Y-6879538D01*
X20428660Y-6860651D01*
X20428660Y-6836149D01*
X20426800Y-6817262D01*
X20426800Y-6379538D01*
X20428660Y-6360651D01*
X20428660Y-6336149D01*
X20426800Y-6317262D01*
X20426800Y-5879538D01*
X20428660Y-5860651D01*
X20428660Y-5836149D01*
X20426800Y-5817262D01*
X20426800Y-5379538D01*
X20428660Y-5360651D01*
X20428660Y-5336149D01*
X20426800Y-5317262D01*
X20426800Y-4879538D01*
X20429314Y-4854008D01*
X20434970Y-4835365D01*
X20444157Y-4818178D01*
X20456517Y-4803117D01*
X20471578Y-4790757D01*
X20488765Y-4781570D01*
X20507408Y-4775914D01*
X20532938Y-4773400D01*
X21301801Y-4773400D01*
X21326187Y-4770998D01*
X21349636Y-4763885D01*
X21371247Y-4752334D01*
X21390189Y-4736789D01*
X21405734Y-4717847D01*
X21417285Y-4696236D01*
X21424398Y-4672787D01*
X21426800Y-4648401D01*
X21426800Y-3879538D01*
X21429314Y-3854008D01*
X21434970Y-3835365D01*
X21444157Y-3818178D01*
X21456517Y-3803117D01*
X21471578Y-3790757D01*
X21488765Y-3781570D01*
X21507408Y-3775914D01*
X21532938Y-3773400D01*
X21970662Y-3773400D01*
X21989549Y-3775260D01*
G37*
G36*
X29795422Y-6891417D02*
G01*
X29843385Y-6905966D01*
X29887578Y-6929588D01*
X29926319Y-6961381D01*
X29958112Y-7000122D01*
X29981734Y-7044315D01*
X29996283Y-7092278D01*
X30001800Y-7148291D01*
X30001800Y-7898509D01*
X29996283Y-7954522D01*
X29981734Y-8002485D01*
X29958112Y-8046678D01*
X29926319Y-8085419D01*
X29887578Y-8117212D01*
X29843385Y-8140834D01*
X29795422Y-8155383D01*
X29739409Y-8160900D01*
X28914191Y-8160900D01*
X28858178Y-8155383D01*
X28810215Y-8140834D01*
X28766022Y-8117212D01*
X28727281Y-8085419D01*
X28695488Y-8046678D01*
X28671866Y-8002485D01*
X28657317Y-7954522D01*
X28651800Y-7898509D01*
X28651800Y-7148291D01*
X28657317Y-7092278D01*
X28671866Y-7044315D01*
X28695488Y-7000122D01*
X28727281Y-6961381D01*
X28766022Y-6929588D01*
X28810215Y-6905966D01*
X28858178Y-6891417D01*
X28914191Y-6885900D01*
X29739409Y-6885900D01*
X29795422Y-6891417D01*
G37*
G36*
X16116005Y-5101293D02*
G01*
X16153708Y-5112730D01*
X16167878Y-5120304D01*
X16190517Y-5129680D01*
X16214551Y-5134460D01*
X16239055Y-5134460D01*
X16263088Y-5129679D01*
X16285722Y-5120304D01*
X16299892Y-5112730D01*
X16337595Y-5101293D01*
X16382940Y-5096827D01*
X16870660Y-5096827D01*
X16888997Y-5098633D01*
X16901249Y-5099235D01*
X16919669Y-5099235D01*
X16971158Y-5104306D01*
X17055239Y-5121031D01*
X17071203Y-5125874D01*
X17098848Y-5134259D01*
X17098854Y-5134261D01*
X17104760Y-5136053D01*
X17183958Y-5168857D01*
X17229591Y-5193248D01*
X17300876Y-5240879D01*
X17305647Y-5244795D01*
X17305649Y-5244796D01*
X17336103Y-5269789D01*
X17336109Y-5269795D01*
X17340872Y-5273704D01*
X17401496Y-5334328D01*
X17405405Y-5339091D01*
X17405411Y-5339097D01*
X17426356Y-5364619D01*
X17434321Y-5374324D01*
X17481952Y-5445609D01*
X17506343Y-5491242D01*
X17539147Y-5570440D01*
X17540939Y-5576346D01*
X17540941Y-5576352D01*
X17544479Y-5588017D01*
X17554169Y-5619961D01*
X17570894Y-5704042D01*
X17575965Y-5755531D01*
X17575965Y-5773951D01*
X17576567Y-5786203D01*
X17578373Y-5804540D01*
X17578373Y-6292260D01*
X17576567Y-6310597D01*
X17575965Y-6322849D01*
X17575965Y-6341269D01*
X17570894Y-6392758D01*
X17554169Y-6476839D01*
X17552376Y-6482749D01*
X17540941Y-6520448D01*
X17540939Y-6520454D01*
X17539147Y-6526360D01*
X17506343Y-6605558D01*
X17481952Y-6651191D01*
X17434321Y-6722476D01*
X17430405Y-6727247D01*
X17430404Y-6727249D01*
X17405411Y-6757703D01*
X17405405Y-6757709D01*
X17401496Y-6762472D01*
X17340872Y-6823096D01*
X17336109Y-6827005D01*
X17336103Y-6827011D01*
X17306653Y-6851180D01*
X17300876Y-6855921D01*
X17229591Y-6903552D01*
X17183958Y-6927943D01*
X17104760Y-6960747D01*
X17098854Y-6962539D01*
X17098848Y-6962541D01*
X17071203Y-6970926D01*
X17055239Y-6975769D01*
X16971158Y-6992494D01*
X16919669Y-6997565D01*
X16901249Y-6997565D01*
X16888997Y-6998167D01*
X16870660Y-6999973D01*
X16382940Y-6999973D01*
X16337595Y-6995507D01*
X16299892Y-6984070D01*
X16285722Y-6976496D01*
X16263083Y-6967120D01*
X16239049Y-6962340D01*
X16214545Y-6962340D01*
X16190512Y-6967121D01*
X16167878Y-6976496D01*
X16153708Y-6984070D01*
X16116005Y-6995507D01*
X16070660Y-6999973D01*
X15582940Y-6999973D01*
X15564603Y-6998167D01*
X15552351Y-6997565D01*
X15533931Y-6997565D01*
X15482442Y-6992494D01*
X15398361Y-6975769D01*
X15382397Y-6970926D01*
X15354752Y-6962541D01*
X15354746Y-6962539D01*
X15348840Y-6960747D01*
X15269642Y-6927943D01*
X15224009Y-6903552D01*
X15152724Y-6855921D01*
X15146947Y-6851180D01*
X15117497Y-6827011D01*
X15117491Y-6827005D01*
X15112728Y-6823096D01*
X15052104Y-6762472D01*
X15048195Y-6757709D01*
X15048189Y-6757703D01*
X15023196Y-6727249D01*
X15023195Y-6727247D01*
X15019279Y-6722476D01*
X14971648Y-6651191D01*
X14947257Y-6605558D01*
X14914453Y-6526360D01*
X14912661Y-6520454D01*
X14912659Y-6520448D01*
X14901224Y-6482749D01*
X14899431Y-6476839D01*
X14882706Y-6392758D01*
X14877635Y-6341269D01*
X14877635Y-6322849D01*
X14877033Y-6310597D01*
X14875227Y-6292260D01*
X14875227Y-5804540D01*
X14877033Y-5786203D01*
X14877635Y-5773951D01*
X14877635Y-5755531D01*
X14882706Y-5704042D01*
X14899431Y-5619961D01*
X14909121Y-5588017D01*
X14912659Y-5576352D01*
X14912661Y-5576346D01*
X14914453Y-5570440D01*
X14947257Y-5491242D01*
X14971648Y-5445609D01*
X15019279Y-5374324D01*
X15027244Y-5364619D01*
X15048189Y-5339097D01*
X15048195Y-5339091D01*
X15052104Y-5334328D01*
X15112728Y-5273704D01*
X15117491Y-5269795D01*
X15117497Y-5269789D01*
X15147951Y-5244796D01*
X15147953Y-5244795D01*
X15152724Y-5240879D01*
X15224009Y-5193248D01*
X15269642Y-5168857D01*
X15348840Y-5136053D01*
X15354746Y-5134261D01*
X15354752Y-5134259D01*
X15382397Y-5125874D01*
X15398361Y-5121031D01*
X15482442Y-5104306D01*
X15533931Y-5099235D01*
X15552351Y-5099235D01*
X15564603Y-5098633D01*
X15582940Y-5096827D01*
X16070660Y-5096827D01*
X16116005Y-5101293D01*
G37*
G36*
X29795422Y-5316417D02*
G01*
X29843385Y-5330966D01*
X29887578Y-5354588D01*
X29926319Y-5386381D01*
X29958112Y-5425122D01*
X29981734Y-5469315D01*
X29996283Y-5517278D01*
X30001800Y-5573291D01*
X30001800Y-6323509D01*
X29996283Y-6379522D01*
X29981734Y-6427485D01*
X29958112Y-6471678D01*
X29926319Y-6510419D01*
X29887578Y-6542212D01*
X29843385Y-6565834D01*
X29795422Y-6580383D01*
X29739409Y-6585900D01*
X28914191Y-6585900D01*
X28858178Y-6580383D01*
X28810215Y-6565834D01*
X28766022Y-6542212D01*
X28727281Y-6510419D01*
X28695488Y-6471678D01*
X28671866Y-6427485D01*
X28657317Y-6379522D01*
X28651800Y-6323509D01*
X28651800Y-5573291D01*
X28657317Y-5517278D01*
X28671866Y-5469315D01*
X28695488Y-5425122D01*
X28727281Y-5386381D01*
X28766022Y-5354588D01*
X28810215Y-5330966D01*
X28858178Y-5316417D01*
X28914191Y-5310900D01*
X29739409Y-5310900D01*
X29795422Y-5316417D01*
G37*
G36*
X16116005Y-2451293D02*
G01*
X16153708Y-2462730D01*
X16167878Y-2470304D01*
X16190517Y-2479680D01*
X16214551Y-2484460D01*
X16239055Y-2484460D01*
X16263088Y-2479679D01*
X16285722Y-2470304D01*
X16299892Y-2462730D01*
X16337595Y-2451293D01*
X16382940Y-2446827D01*
X16870660Y-2446827D01*
X16888997Y-2448633D01*
X16901249Y-2449235D01*
X16919669Y-2449235D01*
X16971158Y-2454306D01*
X17055239Y-2471031D01*
X17071203Y-2475874D01*
X17098848Y-2484259D01*
X17098854Y-2484261D01*
X17104760Y-2486053D01*
X17183958Y-2518857D01*
X17229591Y-2543248D01*
X17300876Y-2590879D01*
X17305647Y-2594795D01*
X17305649Y-2594796D01*
X17336103Y-2619789D01*
X17336109Y-2619795D01*
X17340872Y-2623704D01*
X17401496Y-2684328D01*
X17405405Y-2689091D01*
X17405411Y-2689097D01*
X17430404Y-2719551D01*
X17434321Y-2724324D01*
X17481952Y-2795609D01*
X17506343Y-2841242D01*
X17539147Y-2920440D01*
X17540939Y-2926346D01*
X17540941Y-2926352D01*
X17545141Y-2940200D01*
X17554169Y-2969961D01*
X17570894Y-3054042D01*
X17575965Y-3105531D01*
X17575965Y-3123951D01*
X17576567Y-3136203D01*
X17578373Y-3154540D01*
X17578373Y-3642260D01*
X17576567Y-3660597D01*
X17575965Y-3672849D01*
X17575965Y-3691269D01*
X17570894Y-3742758D01*
X17554169Y-3826839D01*
X17552376Y-3832749D01*
X17540941Y-3870448D01*
X17540939Y-3870454D01*
X17539147Y-3876360D01*
X17506343Y-3955558D01*
X17481952Y-4001191D01*
X17434321Y-4072476D01*
X17430405Y-4077247D01*
X17430404Y-4077249D01*
X17405411Y-4107703D01*
X17405405Y-4107709D01*
X17401496Y-4112472D01*
X17340872Y-4173096D01*
X17336109Y-4177005D01*
X17336103Y-4177011D01*
X17305649Y-4202004D01*
X17300876Y-4205921D01*
X17229591Y-4253552D01*
X17183958Y-4277943D01*
X17104760Y-4310747D01*
X17098854Y-4312539D01*
X17098848Y-4312541D01*
X17071203Y-4320926D01*
X17055239Y-4325769D01*
X16971158Y-4342494D01*
X16919669Y-4347565D01*
X16901249Y-4347565D01*
X16888997Y-4348167D01*
X16870660Y-4349973D01*
X16382940Y-4349973D01*
X16337595Y-4345507D01*
X16299892Y-4334070D01*
X16285722Y-4326496D01*
X16263083Y-4317120D01*
X16239049Y-4312340D01*
X16214545Y-4312340D01*
X16190512Y-4317121D01*
X16167878Y-4326496D01*
X16153708Y-4334070D01*
X16116005Y-4345507D01*
X16070660Y-4349973D01*
X15582940Y-4349973D01*
X15564603Y-4348167D01*
X15552351Y-4347565D01*
X15533931Y-4347565D01*
X15482442Y-4342494D01*
X15398361Y-4325769D01*
X15382397Y-4320926D01*
X15354752Y-4312541D01*
X15354746Y-4312539D01*
X15348840Y-4310747D01*
X15269642Y-4277943D01*
X15224009Y-4253552D01*
X15152724Y-4205921D01*
X15147951Y-4202004D01*
X15117497Y-4177011D01*
X15117491Y-4177005D01*
X15112728Y-4173096D01*
X15052104Y-4112472D01*
X15048195Y-4107709D01*
X15048189Y-4107703D01*
X15023196Y-4077249D01*
X15023195Y-4077247D01*
X15019279Y-4072476D01*
X14971648Y-4001191D01*
X14947257Y-3955558D01*
X14914453Y-3876360D01*
X14912661Y-3870454D01*
X14912659Y-3870448D01*
X14901224Y-3832749D01*
X14899431Y-3826839D01*
X14882706Y-3742758D01*
X14877635Y-3691269D01*
X14877635Y-3672849D01*
X14877033Y-3660597D01*
X14875227Y-3642260D01*
X14875227Y-3154540D01*
X14877033Y-3136203D01*
X14877635Y-3123951D01*
X14877635Y-3105531D01*
X14882706Y-3054042D01*
X14899431Y-2969961D01*
X14908459Y-2940200D01*
X14912659Y-2926352D01*
X14912661Y-2926346D01*
X14914453Y-2920440D01*
X14947257Y-2841242D01*
X14971648Y-2795609D01*
X15019279Y-2724324D01*
X15023196Y-2719551D01*
X15048189Y-2689097D01*
X15048195Y-2689091D01*
X15052104Y-2684328D01*
X15112728Y-2623704D01*
X15117491Y-2619795D01*
X15117497Y-2619789D01*
X15147951Y-2594796D01*
X15147953Y-2594795D01*
X15152724Y-2590879D01*
X15224009Y-2543248D01*
X15269642Y-2518857D01*
X15348840Y-2486053D01*
X15354746Y-2484261D01*
X15354752Y-2484259D01*
X15382397Y-2475874D01*
X15398361Y-2471031D01*
X15482442Y-2454306D01*
X15533931Y-2449235D01*
X15552351Y-2449235D01*
X15564603Y-2448633D01*
X15582940Y-2446827D01*
X16070660Y-2446827D01*
X16116005Y-2451293D01*
G37*
G36*
X16807422Y1121083D02*
G01*
X16855385Y1106534D01*
X16899578Y1082912D01*
X16938319Y1051119D01*
X16970112Y1012378D01*
X16993734Y968185D01*
X17008283Y920222D01*
X17013800Y864209D01*
X17013800Y38991D01*
X17008283Y-17022D01*
X16993734Y-64985D01*
X16970112Y-109178D01*
X16938319Y-147919D01*
X16899578Y-179712D01*
X16855385Y-203334D01*
X16807422Y-217883D01*
X16751409Y-223400D01*
X16001191Y-223400D01*
X15945178Y-217883D01*
X15897215Y-203334D01*
X15853022Y-179712D01*
X15814281Y-147919D01*
X15782488Y-109178D01*
X15758866Y-64985D01*
X15744317Y-17022D01*
X15738800Y38991D01*
X15738800Y864209D01*
X15744317Y920222D01*
X15758866Y968185D01*
X15782488Y1012378D01*
X15814281Y1051119D01*
X15853022Y1082912D01*
X15897215Y1106534D01*
X15945178Y1121083D01*
X16001191Y1126600D01*
X16751409Y1126600D01*
X16807422Y1121083D01*
G37*
G36*
X15232422Y1121083D02*
G01*
X15280385Y1106534D01*
X15324578Y1082912D01*
X15363319Y1051119D01*
X15395112Y1012378D01*
X15418734Y968185D01*
X15433283Y920222D01*
X15438800Y864209D01*
X15438800Y38991D01*
X15433283Y-17022D01*
X15418734Y-64985D01*
X15395112Y-109178D01*
X15363319Y-147919D01*
X15324578Y-179712D01*
X15280385Y-203334D01*
X15232422Y-217883D01*
X15176409Y-223400D01*
X14426191Y-223400D01*
X14370178Y-217883D01*
X14322215Y-203334D01*
X14278022Y-179712D01*
X14239281Y-147919D01*
X14207488Y-109178D01*
X14183866Y-64985D01*
X14169317Y-17022D01*
X14163800Y38991D01*
X14163800Y864209D01*
X14169317Y920222D01*
X14183866Y968185D01*
X14207488Y1012378D01*
X14239281Y1051119D01*
X14278022Y1082912D01*
X14322215Y1106534D01*
X14370178Y1121083D01*
X14426191Y1126600D01*
X15176409Y1126600D01*
X15232422Y1121083D01*
G37*
G36*
X18707422Y1171083D02*
G01*
X18755385Y1156534D01*
X18799578Y1132912D01*
X18838319Y1101119D01*
X18870112Y1062378D01*
X18893734Y1018185D01*
X18908283Y970222D01*
X18913800Y914209D01*
X18913800Y88991D01*
X18908283Y32978D01*
X18893734Y-14985D01*
X18870112Y-59178D01*
X18838319Y-97919D01*
X18799578Y-129712D01*
X18755385Y-153334D01*
X18707422Y-167883D01*
X18651409Y-173400D01*
X17901191Y-173400D01*
X17845178Y-167883D01*
X17797215Y-153334D01*
X17753022Y-129712D01*
X17714281Y-97919D01*
X17682488Y-59178D01*
X17658866Y-14985D01*
X17644317Y32978D01*
X17638800Y88991D01*
X17638800Y914209D01*
X17644317Y970222D01*
X17658866Y1018185D01*
X17682488Y1062378D01*
X17714281Y1101119D01*
X17753022Y1132912D01*
X17797215Y1156534D01*
X17845178Y1171083D01*
X17901191Y1176600D01*
X18651409Y1176600D01*
X18707422Y1171083D01*
G37*
G36*
X20282422Y1171083D02*
G01*
X20330385Y1156534D01*
X20374578Y1132912D01*
X20413319Y1101119D01*
X20445112Y1062378D01*
X20468734Y1018185D01*
X20483283Y970222D01*
X20488800Y914209D01*
X20488800Y88991D01*
X20483283Y32978D01*
X20468734Y-14985D01*
X20445112Y-59178D01*
X20413319Y-97919D01*
X20374578Y-129712D01*
X20330385Y-153334D01*
X20282422Y-167883D01*
X20226409Y-173400D01*
X19476191Y-173400D01*
X19420178Y-167883D01*
X19372215Y-153334D01*
X19328022Y-129712D01*
X19289281Y-97919D01*
X19257488Y-59178D01*
X19233866Y-14985D01*
X19219317Y32978D01*
X19213800Y88991D01*
X19213800Y914209D01*
X19219317Y970222D01*
X19233866Y1018185D01*
X19257488Y1062378D01*
X19289281Y1101119D01*
X19328022Y1132912D01*
X19372215Y1156534D01*
X19420178Y1171083D01*
X19476191Y1176600D01*
X20226409Y1176600D01*
X20282422Y1171083D01*
G37*
G36*
X27116005Y4923707D02*
G01*
X27153708Y4912270D01*
X27167878Y4904696D01*
X27190517Y4895320D01*
X27214551Y4890540D01*
X27239055Y4890540D01*
X27263088Y4895321D01*
X27285722Y4904696D01*
X27299892Y4912270D01*
X27337595Y4923707D01*
X27382940Y4928173D01*
X27870660Y4928173D01*
X27888997Y4926367D01*
X27901249Y4925765D01*
X27919669Y4925765D01*
X27971158Y4920694D01*
X28055239Y4903969D01*
X28071203Y4899126D01*
X28098848Y4890741D01*
X28098854Y4890739D01*
X28104760Y4888947D01*
X28183958Y4856143D01*
X28229591Y4831752D01*
X28300876Y4784121D01*
X28305647Y4780205D01*
X28305649Y4780204D01*
X28336103Y4755211D01*
X28336109Y4755205D01*
X28340872Y4751296D01*
X28401496Y4690672D01*
X28405405Y4685909D01*
X28405411Y4685903D01*
X28430404Y4655449D01*
X28434321Y4650676D01*
X28481952Y4579391D01*
X28506343Y4533758D01*
X28539147Y4454560D01*
X28540939Y4448654D01*
X28540941Y4448648D01*
X28549326Y4421003D01*
X28554169Y4405039D01*
X28570894Y4320958D01*
X28575965Y4269469D01*
X28575965Y4251049D01*
X28576567Y4238797D01*
X28578373Y4220460D01*
X28578373Y3732740D01*
X28576567Y3714403D01*
X28575965Y3702151D01*
X28575965Y3683731D01*
X28570894Y3632242D01*
X28554169Y3548161D01*
X28552376Y3542251D01*
X28540941Y3504552D01*
X28540939Y3504546D01*
X28539147Y3498640D01*
X28506343Y3419442D01*
X28481952Y3373809D01*
X28434321Y3302524D01*
X28430405Y3297753D01*
X28430404Y3297751D01*
X28405411Y3267297D01*
X28405405Y3267291D01*
X28401496Y3262528D01*
X28340872Y3201904D01*
X28336109Y3197995D01*
X28336103Y3197989D01*
X28305649Y3172996D01*
X28300876Y3169079D01*
X28229591Y3121448D01*
X28183958Y3097057D01*
X28104760Y3064253D01*
X28098854Y3062461D01*
X28098848Y3062459D01*
X28071203Y3054074D01*
X28055239Y3049231D01*
X27971158Y3032506D01*
X27919669Y3027435D01*
X27901249Y3027435D01*
X27888997Y3026833D01*
X27870660Y3025027D01*
X27382940Y3025027D01*
X27337595Y3029493D01*
X27299892Y3040930D01*
X27285722Y3048504D01*
X27263083Y3057880D01*
X27239049Y3062660D01*
X27214545Y3062660D01*
X27190512Y3057879D01*
X27167878Y3048504D01*
X27153708Y3040930D01*
X27116005Y3029493D01*
X27070660Y3025027D01*
X26582940Y3025027D01*
X26564603Y3026833D01*
X26552351Y3027435D01*
X26533931Y3027435D01*
X26482442Y3032506D01*
X26398361Y3049231D01*
X26382397Y3054074D01*
X26354752Y3062459D01*
X26354746Y3062461D01*
X26348840Y3064253D01*
X26269642Y3097057D01*
X26224009Y3121448D01*
X26152724Y3169079D01*
X26147951Y3172996D01*
X26117497Y3197989D01*
X26117491Y3197995D01*
X26112728Y3201904D01*
X26052104Y3262528D01*
X26048195Y3267291D01*
X26048189Y3267297D01*
X26023196Y3297751D01*
X26023195Y3297753D01*
X26019279Y3302524D01*
X25971648Y3373809D01*
X25947257Y3419442D01*
X25914453Y3498640D01*
X25912661Y3504546D01*
X25912659Y3504552D01*
X25901224Y3542251D01*
X25899431Y3548161D01*
X25882706Y3632242D01*
X25877635Y3683731D01*
X25877635Y3702151D01*
X25877033Y3714403D01*
X25875227Y3732740D01*
X25875227Y4220460D01*
X25877033Y4238797D01*
X25877635Y4251049D01*
X25877635Y4269469D01*
X25882706Y4320958D01*
X25899431Y4405039D01*
X25904274Y4421003D01*
X25912659Y4448648D01*
X25912661Y4448654D01*
X25914453Y4454560D01*
X25947257Y4533758D01*
X25971648Y4579391D01*
X26019279Y4650676D01*
X26023196Y4655449D01*
X26048189Y4685903D01*
X26048195Y4685909D01*
X26052104Y4690672D01*
X26112728Y4751296D01*
X26117491Y4755205D01*
X26117497Y4755211D01*
X26147951Y4780204D01*
X26147953Y4780205D01*
X26152724Y4784121D01*
X26224009Y4831752D01*
X26269642Y4856143D01*
X26348840Y4888947D01*
X26354746Y4890739D01*
X26354752Y4890741D01*
X26382397Y4899126D01*
X26398361Y4903969D01*
X26482442Y4920694D01*
X26533931Y4925765D01*
X26552351Y4925765D01*
X26564603Y4926367D01*
X26582940Y4928173D01*
X27070660Y4928173D01*
X27116005Y4923707D01*
G37*
G36*
X23791005Y4923707D02*
G01*
X23828708Y4912270D01*
X23842878Y4904696D01*
X23865517Y4895320D01*
X23889551Y4890540D01*
X23914055Y4890540D01*
X23938088Y4895321D01*
X23960722Y4904696D01*
X23974892Y4912270D01*
X24012595Y4923707D01*
X24057940Y4928173D01*
X24545660Y4928173D01*
X24563997Y4926367D01*
X24576249Y4925765D01*
X24594669Y4925765D01*
X24646158Y4920694D01*
X24730239Y4903969D01*
X24746203Y4899126D01*
X24773848Y4890741D01*
X24773854Y4890739D01*
X24779760Y4888947D01*
X24858958Y4856143D01*
X24904591Y4831752D01*
X24975876Y4784121D01*
X24980647Y4780205D01*
X24980649Y4780204D01*
X25011103Y4755211D01*
X25011109Y4755205D01*
X25015872Y4751296D01*
X25076496Y4690672D01*
X25080405Y4685909D01*
X25080411Y4685903D01*
X25105404Y4655449D01*
X25109321Y4650676D01*
X25156952Y4579391D01*
X25181343Y4533758D01*
X25214147Y4454560D01*
X25215939Y4448654D01*
X25215941Y4448648D01*
X25224326Y4421003D01*
X25229169Y4405039D01*
X25245894Y4320958D01*
X25250965Y4269469D01*
X25250965Y4251049D01*
X25251567Y4238797D01*
X25253373Y4220460D01*
X25253373Y3732740D01*
X25251567Y3714403D01*
X25250965Y3702151D01*
X25250965Y3683731D01*
X25245894Y3632242D01*
X25229169Y3548161D01*
X25227376Y3542251D01*
X25215941Y3504552D01*
X25215939Y3504546D01*
X25214147Y3498640D01*
X25181343Y3419442D01*
X25156952Y3373809D01*
X25109321Y3302524D01*
X25105405Y3297753D01*
X25105404Y3297751D01*
X25080411Y3267297D01*
X25080405Y3267291D01*
X25076496Y3262528D01*
X25015872Y3201904D01*
X25011109Y3197995D01*
X25011103Y3197989D01*
X24980649Y3172996D01*
X24975876Y3169079D01*
X24904591Y3121448D01*
X24858958Y3097057D01*
X24779760Y3064253D01*
X24773854Y3062461D01*
X24773848Y3062459D01*
X24746203Y3054074D01*
X24730239Y3049231D01*
X24646158Y3032506D01*
X24594669Y3027435D01*
X24576249Y3027435D01*
X24563997Y3026833D01*
X24545660Y3025027D01*
X24057940Y3025027D01*
X24012595Y3029493D01*
X23974892Y3040930D01*
X23960722Y3048504D01*
X23938083Y3057880D01*
X23914049Y3062660D01*
X23889545Y3062660D01*
X23865512Y3057879D01*
X23842878Y3048504D01*
X23828708Y3040930D01*
X23791005Y3029493D01*
X23745660Y3025027D01*
X23257940Y3025027D01*
X23239603Y3026833D01*
X23227351Y3027435D01*
X23208931Y3027435D01*
X23157442Y3032506D01*
X23073361Y3049231D01*
X23057397Y3054074D01*
X23029752Y3062459D01*
X23029746Y3062461D01*
X23023840Y3064253D01*
X22944642Y3097057D01*
X22899009Y3121448D01*
X22827724Y3169079D01*
X22822951Y3172996D01*
X22792497Y3197989D01*
X22792491Y3197995D01*
X22787728Y3201904D01*
X22727104Y3262528D01*
X22723195Y3267291D01*
X22723189Y3267297D01*
X22698196Y3297751D01*
X22698195Y3297753D01*
X22694279Y3302524D01*
X22646648Y3373809D01*
X22622257Y3419442D01*
X22589453Y3498640D01*
X22587661Y3504546D01*
X22587659Y3504552D01*
X22576224Y3542251D01*
X22574431Y3548161D01*
X22557706Y3632242D01*
X22552635Y3683731D01*
X22552635Y3702151D01*
X22552033Y3714403D01*
X22550227Y3732740D01*
X22550227Y4220460D01*
X22552033Y4238797D01*
X22552635Y4251049D01*
X22552635Y4269469D01*
X22557706Y4320958D01*
X22574431Y4405039D01*
X22579274Y4421003D01*
X22587659Y4448648D01*
X22587661Y4448654D01*
X22589453Y4454560D01*
X22622257Y4533758D01*
X22646648Y4579391D01*
X22694279Y4650676D01*
X22698196Y4655449D01*
X22723189Y4685903D01*
X22723195Y4685909D01*
X22727104Y4690672D01*
X22787728Y4751296D01*
X22792491Y4755205D01*
X22792497Y4755211D01*
X22822951Y4780204D01*
X22822953Y4780205D01*
X22827724Y4784121D01*
X22899009Y4831752D01*
X22944642Y4856143D01*
X23023840Y4888947D01*
X23029746Y4890739D01*
X23029752Y4890741D01*
X23057397Y4899126D01*
X23073361Y4903969D01*
X23157442Y4920694D01*
X23208931Y4925765D01*
X23227351Y4925765D01*
X23239603Y4926367D01*
X23257940Y4928173D01*
X23745660Y4928173D01*
X23791005Y4923707D01*
G37*
G36*
X49103963Y11300213D02*
G01*
X49277841Y11265627D01*
X49605420Y11129939D01*
X49900233Y10932951D01*
X50150951Y10682233D01*
X50347939Y10387420D01*
X50483627Y10059841D01*
X50552800Y9712084D01*
X50552800Y9357516D01*
X50483627Y9009759D01*
X50347939Y8682180D01*
X50150951Y8387367D01*
X49900233Y8136649D01*
X49605420Y7939661D01*
X49277841Y7803973D01*
X49103962Y7769386D01*
X48930086Y7734800D01*
X48575514Y7734800D01*
X48401638Y7769386D01*
X48227759Y7803973D01*
X47900180Y7939661D01*
X47605367Y8136649D01*
X47354649Y8387367D01*
X47157661Y8682180D01*
X47021973Y9009759D01*
X46952800Y9357516D01*
X46952800Y9712084D01*
X47021973Y10059841D01*
X47157661Y10387420D01*
X47354649Y10682233D01*
X47605367Y10932951D01*
X47900180Y11129939D01*
X48227759Y11265627D01*
X48401637Y11300213D01*
X48575514Y11334800D01*
X48930086Y11334800D01*
X49103963Y11300213D01*
G37*
G36*
X5103963Y11300213D02*
G01*
X5277841Y11265627D01*
X5605420Y11129939D01*
X5900233Y10932951D01*
X6150951Y10682233D01*
X6347939Y10387420D01*
X6483627Y10059841D01*
X6552800Y9712084D01*
X6552800Y9357516D01*
X6483627Y9009759D01*
X6347939Y8682180D01*
X6150951Y8387367D01*
X5900233Y8136649D01*
X5605420Y7939661D01*
X5277841Y7803973D01*
X5103962Y7769386D01*
X4930086Y7734800D01*
X4575514Y7734800D01*
X4401638Y7769386D01*
X4227759Y7803973D01*
X3900180Y7939661D01*
X3605367Y8136649D01*
X3354649Y8387367D01*
X3157661Y8682180D01*
X3021973Y9009759D01*
X2952800Y9357516D01*
X2952800Y9712084D01*
X3021973Y10059841D01*
X3157661Y10387420D01*
X3354649Y10682233D01*
X3605367Y10932951D01*
X3900180Y11129939D01*
X4227759Y11265627D01*
X4401637Y11300213D01*
X4575514Y11334800D01*
X4930086Y11334800D01*
X5103963Y11300213D01*
G37*
G36*
X9131996Y10784842D02*
G01*
X9368581Y10686845D01*
X9581502Y10544576D01*
X9762576Y10363502D01*
X9904845Y10150581D01*
X10002842Y9913996D01*
X10052800Y9662839D01*
X10052800Y9406761D01*
X10002842Y9155604D01*
X9904845Y8919019D01*
X9762576Y8706098D01*
X9581502Y8525024D01*
X9368581Y8382755D01*
X9131996Y8284758D01*
X8880840Y8234800D01*
X8624760Y8234800D01*
X8373604Y8284758D01*
X8137019Y8382755D01*
X7924098Y8525024D01*
X7743024Y8706098D01*
X7600755Y8919019D01*
X7502758Y9155604D01*
X7452800Y9406761D01*
X7452800Y9662839D01*
X7502758Y9913996D01*
X7600755Y10150581D01*
X7743024Y10363502D01*
X7924098Y10544576D01*
X8137019Y10686845D01*
X8373604Y10784842D01*
X8624760Y10834800D01*
X8880840Y10834800D01*
X9131996Y10784842D01*
G37*
G36*
X45131996Y10784842D02*
G01*
X45368581Y10686845D01*
X45581502Y10544576D01*
X45762576Y10363502D01*
X45904845Y10150581D01*
X46002842Y9913996D01*
X46052800Y9662839D01*
X46052800Y9406761D01*
X46002842Y9155604D01*
X45904845Y8919019D01*
X45762576Y8706098D01*
X45581502Y8525024D01*
X45368581Y8382755D01*
X45131996Y8284758D01*
X44880840Y8234800D01*
X44624760Y8234800D01*
X44373604Y8284758D01*
X44137019Y8382755D01*
X43924098Y8525024D01*
X43743024Y8706098D01*
X43600755Y8919019D01*
X43502758Y9155604D01*
X43452800Y9406761D01*
X43452800Y9662839D01*
X43502758Y9913996D01*
X43600755Y10150581D01*
X43743024Y10363502D01*
X43924098Y10544576D01*
X44137019Y10686845D01*
X44373604Y10784842D01*
X44624760Y10834800D01*
X44880840Y10834800D01*
X45131996Y10784842D01*
G37*
M02*
