G04 #@! TF.GenerationSoftware,KiCad,Pcbnew,5.1.5-52549c5~84~ubuntu18.04.1*
G04 #@! TF.CreationDate,2020-02-10T01:03:59+09:00*
G04 #@! TF.ProjectId,I2CMotorsForM5Stack,4932434d-6f74-46f7-9273-466f724d3553,rev?*
G04 #@! TF.SameCoordinates,Original*
G04 #@! TF.FileFunction,Soldermask,Bot*
G04 #@! TF.FilePolarity,Negative*
%FSLAX46Y46*%
G04 Gerber Fmt 4.6, Leading zero omitted, Abs format (unit mm)*
G04 Created by KiCad (PCBNEW 5.1.5-52549c5~84~ubuntu18.04.1) date 2020-02-10 01:03:59*
%MOMM*%
%LPD*%
G04 APERTURE LIST*
%ADD10C,0.150000*%
%ADD11C,0.200000*%
%ADD12C,0.100000*%
G04 APERTURE END LIST*
D10*
X53752800Y9534800D02*
X53752800Y6534800D01*
X38252800Y-23465200D02*
X53752800Y-31465200D01*
X38252800Y-1465200D02*
X38252800Y-23465200D01*
X53752800Y6534800D02*
X38252800Y-1465200D01*
X4752800Y14534800D02*
X48752800Y14534800D01*
D11*
X53752800Y-31465200D02*
X53752800Y-34465200D01*
D10*
X-247200Y-34465200D02*
X-247200Y9534800D01*
X48752800Y-39465200D02*
X4752800Y-39465200D01*
D12*
G36*
X49103963Y-32699787D02*
G01*
X49277841Y-32734373D01*
X49605420Y-32870061D01*
X49900233Y-33067049D01*
X50150951Y-33317767D01*
X50347939Y-33612580D01*
X50483627Y-33940159D01*
X50552800Y-34287916D01*
X50552800Y-34642484D01*
X50483627Y-34990241D01*
X50347939Y-35317820D01*
X50150951Y-35612633D01*
X49900233Y-35863351D01*
X49605420Y-36060339D01*
X49277841Y-36196027D01*
X49103962Y-36230614D01*
X48930086Y-36265200D01*
X48575514Y-36265200D01*
X48401637Y-36230613D01*
X48227759Y-36196027D01*
X47900180Y-36060339D01*
X47605367Y-35863351D01*
X47354649Y-35612633D01*
X47157661Y-35317820D01*
X47021973Y-34990241D01*
X46952800Y-34642484D01*
X46952800Y-34287916D01*
X47021973Y-33940159D01*
X47157661Y-33612580D01*
X47354649Y-33317767D01*
X47605367Y-33067049D01*
X47900180Y-32870061D01*
X48227759Y-32734373D01*
X48401638Y-32699786D01*
X48575514Y-32665200D01*
X48930086Y-32665200D01*
X49103963Y-32699787D01*
G37*
G36*
X5103963Y-32699787D02*
G01*
X5277841Y-32734373D01*
X5605420Y-32870061D01*
X5900233Y-33067049D01*
X6150951Y-33317767D01*
X6347939Y-33612580D01*
X6483627Y-33940159D01*
X6552800Y-34287916D01*
X6552800Y-34642484D01*
X6483627Y-34990241D01*
X6347939Y-35317820D01*
X6150951Y-35612633D01*
X5900233Y-35863351D01*
X5605420Y-36060339D01*
X5277841Y-36196027D01*
X5103962Y-36230614D01*
X4930086Y-36265200D01*
X4575514Y-36265200D01*
X4401637Y-36230613D01*
X4227759Y-36196027D01*
X3900180Y-36060339D01*
X3605367Y-35863351D01*
X3354649Y-35612633D01*
X3157661Y-35317820D01*
X3021973Y-34990241D01*
X2952800Y-34642484D01*
X2952800Y-34287916D01*
X3021973Y-33940159D01*
X3157661Y-33612580D01*
X3354649Y-33317767D01*
X3605367Y-33067049D01*
X3900180Y-32870061D01*
X4227759Y-32734373D01*
X4401638Y-32699786D01*
X4575514Y-32665200D01*
X4930086Y-32665200D01*
X5103963Y-32699787D01*
G37*
G36*
X45006417Y-33190179D02*
G01*
X45131996Y-33215158D01*
X45368581Y-33313155D01*
X45581502Y-33455424D01*
X45762576Y-33636498D01*
X45904845Y-33849419D01*
X46002842Y-34086004D01*
X46052800Y-34337161D01*
X46052800Y-34593239D01*
X46002842Y-34844396D01*
X45904845Y-35080981D01*
X45762576Y-35293902D01*
X45581502Y-35474976D01*
X45368581Y-35617245D01*
X45131996Y-35715242D01*
X44880840Y-35765200D01*
X44624760Y-35765200D01*
X44499183Y-35740221D01*
X44373604Y-35715242D01*
X44137019Y-35617245D01*
X43924098Y-35474976D01*
X43743024Y-35293902D01*
X43600755Y-35080981D01*
X43502758Y-34844396D01*
X43452800Y-34593239D01*
X43452800Y-34337161D01*
X43502758Y-34086004D01*
X43600755Y-33849419D01*
X43743024Y-33636498D01*
X43924098Y-33455424D01*
X44137019Y-33313155D01*
X44373604Y-33215158D01*
X44499183Y-33190179D01*
X44624760Y-33165200D01*
X44880840Y-33165200D01*
X45006417Y-33190179D01*
G37*
G36*
X9006417Y-33190179D02*
G01*
X9131996Y-33215158D01*
X9368581Y-33313155D01*
X9581502Y-33455424D01*
X9762576Y-33636498D01*
X9904845Y-33849419D01*
X10002842Y-34086004D01*
X10052800Y-34337161D01*
X10052800Y-34593239D01*
X10002842Y-34844396D01*
X9904845Y-35080981D01*
X9762576Y-35293902D01*
X9581502Y-35474976D01*
X9368581Y-35617245D01*
X9131996Y-35715242D01*
X8880840Y-35765200D01*
X8624760Y-35765200D01*
X8499183Y-35740221D01*
X8373604Y-35715242D01*
X8137019Y-35617245D01*
X7924098Y-35474976D01*
X7743024Y-35293902D01*
X7600755Y-35080981D01*
X7502758Y-34844396D01*
X7452800Y-34593239D01*
X7452800Y-34337161D01*
X7502758Y-34086004D01*
X7600755Y-33849419D01*
X7743024Y-33636498D01*
X7924098Y-33455424D01*
X8137019Y-33313155D01*
X8373604Y-33215158D01*
X8499183Y-33190179D01*
X8624760Y-33165200D01*
X8880840Y-33165200D01*
X9006417Y-33190179D01*
G37*
G36*
X6208454Y-25846065D02*
G01*
X6372672Y-25878730D01*
X6682052Y-26006879D01*
X6960487Y-26192923D01*
X7197277Y-26429713D01*
X7383321Y-26708148D01*
X7511470Y-27017528D01*
X7576800Y-27345965D01*
X7576800Y-27680835D01*
X7511470Y-28009272D01*
X7383321Y-28318652D01*
X7197277Y-28597087D01*
X6960487Y-28833877D01*
X6682052Y-29019921D01*
X6372672Y-29148070D01*
X6208454Y-29180735D01*
X6044237Y-29213400D01*
X5709363Y-29213400D01*
X5545146Y-29180735D01*
X5380928Y-29148070D01*
X5071548Y-29019921D01*
X4793113Y-28833877D01*
X4556323Y-28597087D01*
X4370279Y-28318652D01*
X4242130Y-28009272D01*
X4176800Y-27680835D01*
X4176800Y-27345965D01*
X4242130Y-27017528D01*
X4370279Y-26708148D01*
X4556323Y-26429713D01*
X4793113Y-26192923D01*
X5071548Y-26006879D01*
X5380928Y-25878730D01*
X5545146Y-25846065D01*
X5709363Y-25813400D01*
X6044237Y-25813400D01*
X6208454Y-25846065D01*
G37*
G36*
X25005487Y-24483427D02*
G01*
X25183074Y-24518750D01*
X25374162Y-24597902D01*
X25546136Y-24712811D01*
X25692389Y-24859064D01*
X25807298Y-25031038D01*
X25886450Y-25222126D01*
X25926800Y-25424984D01*
X25926800Y-25631816D01*
X25886450Y-25834674D01*
X25807298Y-26025762D01*
X25692389Y-26197736D01*
X25546136Y-26343989D01*
X25374162Y-26458898D01*
X25183074Y-26538050D01*
X25005487Y-26573373D01*
X24980217Y-26578400D01*
X24773383Y-26578400D01*
X24748113Y-26573373D01*
X24570526Y-26538050D01*
X24379438Y-26458898D01*
X24207464Y-26343989D01*
X24061211Y-26197736D01*
X23946302Y-26025762D01*
X23867150Y-25834674D01*
X23826800Y-25631816D01*
X23826800Y-25424984D01*
X23867150Y-25222126D01*
X23946302Y-25031038D01*
X24061211Y-24859064D01*
X24207464Y-24712811D01*
X24379438Y-24597902D01*
X24570526Y-24518750D01*
X24748113Y-24483427D01*
X24773383Y-24478400D01*
X24980217Y-24478400D01*
X25005487Y-24483427D01*
G37*
G36*
X27545487Y-24483427D02*
G01*
X27723074Y-24518750D01*
X27914162Y-24597902D01*
X28086136Y-24712811D01*
X28232389Y-24859064D01*
X28347298Y-25031038D01*
X28426450Y-25222126D01*
X28466800Y-25424984D01*
X28466800Y-25631816D01*
X28426450Y-25834674D01*
X28347298Y-26025762D01*
X28232389Y-26197736D01*
X28086136Y-26343989D01*
X27914162Y-26458898D01*
X27723074Y-26538050D01*
X27545487Y-26573373D01*
X27520217Y-26578400D01*
X27313383Y-26578400D01*
X27288113Y-26573373D01*
X27110526Y-26538050D01*
X26919438Y-26458898D01*
X26747464Y-26343989D01*
X26601211Y-26197736D01*
X26486302Y-26025762D01*
X26407150Y-25834674D01*
X26366800Y-25631816D01*
X26366800Y-25424984D01*
X26407150Y-25222126D01*
X26486302Y-25031038D01*
X26601211Y-24859064D01*
X26747464Y-24712811D01*
X26919438Y-24597902D01*
X27110526Y-24518750D01*
X27288113Y-24483427D01*
X27313383Y-24478400D01*
X27520217Y-24478400D01*
X27545487Y-24483427D01*
G37*
G36*
X6208454Y-20766065D02*
G01*
X6372672Y-20798730D01*
X6682052Y-20926879D01*
X6960487Y-21112923D01*
X7197277Y-21349713D01*
X7383321Y-21628148D01*
X7511470Y-21937528D01*
X7576800Y-22265965D01*
X7576800Y-22600835D01*
X7511470Y-22929272D01*
X7383321Y-23238652D01*
X7197277Y-23517087D01*
X6960487Y-23753877D01*
X6682052Y-23939921D01*
X6372672Y-24068070D01*
X6208453Y-24100735D01*
X6044237Y-24133400D01*
X5709363Y-24133400D01*
X5545147Y-24100735D01*
X5380928Y-24068070D01*
X5071548Y-23939921D01*
X4793113Y-23753877D01*
X4556323Y-23517087D01*
X4370279Y-23238652D01*
X4242130Y-22929272D01*
X4176800Y-22600835D01*
X4176800Y-22265965D01*
X4242130Y-21937528D01*
X4370279Y-21628148D01*
X4556323Y-21349713D01*
X4793113Y-21112923D01*
X5071548Y-20926879D01*
X5380928Y-20798730D01*
X5545146Y-20766065D01*
X5709363Y-20733400D01*
X6044237Y-20733400D01*
X6208454Y-20766065D01*
G37*
G36*
X25005487Y-21943427D02*
G01*
X25183074Y-21978750D01*
X25374162Y-22057902D01*
X25546136Y-22172811D01*
X25692389Y-22319064D01*
X25807298Y-22491038D01*
X25886450Y-22682126D01*
X25926800Y-22884984D01*
X25926800Y-23091816D01*
X25886450Y-23294674D01*
X25807298Y-23485762D01*
X25692389Y-23657736D01*
X25546136Y-23803989D01*
X25374162Y-23918898D01*
X25183074Y-23998050D01*
X25005487Y-24033373D01*
X24980217Y-24038400D01*
X24773383Y-24038400D01*
X24748113Y-24033373D01*
X24570526Y-23998050D01*
X24379438Y-23918898D01*
X24207464Y-23803989D01*
X24061211Y-23657736D01*
X23946302Y-23485762D01*
X23867150Y-23294674D01*
X23826800Y-23091816D01*
X23826800Y-22884984D01*
X23867150Y-22682126D01*
X23946302Y-22491038D01*
X24061211Y-22319064D01*
X24207464Y-22172811D01*
X24379438Y-22057902D01*
X24570526Y-21978750D01*
X24748113Y-21943427D01*
X24773383Y-21938400D01*
X24980217Y-21938400D01*
X25005487Y-21943427D01*
G37*
G36*
X27545487Y-21943427D02*
G01*
X27723074Y-21978750D01*
X27914162Y-22057902D01*
X28086136Y-22172811D01*
X28232389Y-22319064D01*
X28347298Y-22491038D01*
X28426450Y-22682126D01*
X28466800Y-22884984D01*
X28466800Y-23091816D01*
X28426450Y-23294674D01*
X28347298Y-23485762D01*
X28232389Y-23657736D01*
X28086136Y-23803989D01*
X27914162Y-23918898D01*
X27723074Y-23998050D01*
X27545487Y-24033373D01*
X27520217Y-24038400D01*
X27313383Y-24038400D01*
X27288113Y-24033373D01*
X27110526Y-23998050D01*
X26919438Y-23918898D01*
X26747464Y-23803989D01*
X26601211Y-23657736D01*
X26486302Y-23485762D01*
X26407150Y-23294674D01*
X26366800Y-23091816D01*
X26366800Y-22884984D01*
X26407150Y-22682126D01*
X26486302Y-22491038D01*
X26601211Y-22319064D01*
X26747464Y-22172811D01*
X26919438Y-22057902D01*
X27110526Y-21978750D01*
X27288113Y-21943427D01*
X27313383Y-21938400D01*
X27520217Y-21938400D01*
X27545487Y-21943427D01*
G37*
G36*
X27545487Y-19403427D02*
G01*
X27723074Y-19438750D01*
X27914162Y-19517902D01*
X28086136Y-19632811D01*
X28232389Y-19779064D01*
X28347298Y-19951038D01*
X28426450Y-20142126D01*
X28466800Y-20344984D01*
X28466800Y-20551816D01*
X28426450Y-20754674D01*
X28347298Y-20945762D01*
X28232389Y-21117736D01*
X28086136Y-21263989D01*
X27914162Y-21378898D01*
X27723074Y-21458050D01*
X27545487Y-21493373D01*
X27520217Y-21498400D01*
X27313383Y-21498400D01*
X27288113Y-21493373D01*
X27110526Y-21458050D01*
X26919438Y-21378898D01*
X26747464Y-21263989D01*
X26601211Y-21117736D01*
X26486302Y-20945762D01*
X26407150Y-20754674D01*
X26366800Y-20551816D01*
X26366800Y-20344984D01*
X26407150Y-20142126D01*
X26486302Y-19951038D01*
X26601211Y-19779064D01*
X26747464Y-19632811D01*
X26919438Y-19517902D01*
X27110526Y-19438750D01*
X27288113Y-19403427D01*
X27313383Y-19398400D01*
X27520217Y-19398400D01*
X27545487Y-19403427D01*
G37*
G36*
X25926800Y-21498400D02*
G01*
X23826800Y-21498400D01*
X23826800Y-19398400D01*
X25926800Y-19398400D01*
X25926800Y-21498400D01*
G37*
G36*
X6208453Y-15686065D02*
G01*
X6372672Y-15718730D01*
X6682052Y-15846879D01*
X6960487Y-16032923D01*
X7197277Y-16269713D01*
X7383321Y-16548148D01*
X7511470Y-16857528D01*
X7576800Y-17185965D01*
X7576800Y-17520835D01*
X7511470Y-17849272D01*
X7383321Y-18158652D01*
X7197277Y-18437087D01*
X6960487Y-18673877D01*
X6682052Y-18859921D01*
X6372672Y-18988070D01*
X6208453Y-19020735D01*
X6044237Y-19053400D01*
X5709363Y-19053400D01*
X5545147Y-19020735D01*
X5380928Y-18988070D01*
X5071548Y-18859921D01*
X4793113Y-18673877D01*
X4556323Y-18437087D01*
X4370279Y-18158652D01*
X4242130Y-17849272D01*
X4176800Y-17520835D01*
X4176800Y-17185965D01*
X4242130Y-16857528D01*
X4370279Y-16548148D01*
X4556323Y-16269713D01*
X4793113Y-16032923D01*
X5071548Y-15846879D01*
X5380928Y-15718730D01*
X5545147Y-15686065D01*
X5709363Y-15653400D01*
X6044237Y-15653400D01*
X6208453Y-15686065D01*
G37*
G36*
X7576800Y-13973400D02*
G01*
X4176800Y-13973400D01*
X4176800Y-10573400D01*
X7576800Y-10573400D01*
X7576800Y-13973400D01*
G37*
G36*
X5103963Y11300213D02*
G01*
X5277841Y11265627D01*
X5605420Y11129939D01*
X5900233Y10932951D01*
X6150951Y10682233D01*
X6347939Y10387420D01*
X6483627Y10059841D01*
X6552800Y9712084D01*
X6552800Y9357516D01*
X6483627Y9009759D01*
X6347939Y8682180D01*
X6150951Y8387367D01*
X5900233Y8136649D01*
X5605420Y7939661D01*
X5277841Y7803973D01*
X5103962Y7769386D01*
X4930086Y7734800D01*
X4575514Y7734800D01*
X4401638Y7769386D01*
X4227759Y7803973D01*
X3900180Y7939661D01*
X3605367Y8136649D01*
X3354649Y8387367D01*
X3157661Y8682180D01*
X3021973Y9009759D01*
X2952800Y9357516D01*
X2952800Y9712084D01*
X3021973Y10059841D01*
X3157661Y10387420D01*
X3354649Y10682233D01*
X3605367Y10932951D01*
X3900180Y11129939D01*
X4227759Y11265627D01*
X4401637Y11300213D01*
X4575514Y11334800D01*
X4930086Y11334800D01*
X5103963Y11300213D01*
G37*
G36*
X49103963Y11300213D02*
G01*
X49277841Y11265627D01*
X49605420Y11129939D01*
X49900233Y10932951D01*
X50150951Y10682233D01*
X50347939Y10387420D01*
X50483627Y10059841D01*
X50552800Y9712084D01*
X50552800Y9357516D01*
X50483627Y9009759D01*
X50347939Y8682180D01*
X50150951Y8387367D01*
X49900233Y8136649D01*
X49605420Y7939661D01*
X49277841Y7803973D01*
X49103962Y7769386D01*
X48930086Y7734800D01*
X48575514Y7734800D01*
X48401638Y7769386D01*
X48227759Y7803973D01*
X47900180Y7939661D01*
X47605367Y8136649D01*
X47354649Y8387367D01*
X47157661Y8682180D01*
X47021973Y9009759D01*
X46952800Y9357516D01*
X46952800Y9712084D01*
X47021973Y10059841D01*
X47157661Y10387420D01*
X47354649Y10682233D01*
X47605367Y10932951D01*
X47900180Y11129939D01*
X48227759Y11265627D01*
X48401637Y11300213D01*
X48575514Y11334800D01*
X48930086Y11334800D01*
X49103963Y11300213D01*
G37*
G36*
X45131996Y10784842D02*
G01*
X45368581Y10686845D01*
X45581502Y10544576D01*
X45762576Y10363502D01*
X45904845Y10150581D01*
X46002842Y9913996D01*
X46052800Y9662839D01*
X46052800Y9406761D01*
X46002842Y9155604D01*
X45904845Y8919019D01*
X45762576Y8706098D01*
X45581502Y8525024D01*
X45368581Y8382755D01*
X45131996Y8284758D01*
X44880840Y8234800D01*
X44624760Y8234800D01*
X44373604Y8284758D01*
X44137019Y8382755D01*
X43924098Y8525024D01*
X43743024Y8706098D01*
X43600755Y8919019D01*
X43502758Y9155604D01*
X43452800Y9406761D01*
X43452800Y9662839D01*
X43502758Y9913996D01*
X43600755Y10150581D01*
X43743024Y10363502D01*
X43924098Y10544576D01*
X44137019Y10686845D01*
X44373604Y10784842D01*
X44624760Y10834800D01*
X44880840Y10834800D01*
X45131996Y10784842D01*
G37*
G36*
X9131996Y10784842D02*
G01*
X9368581Y10686845D01*
X9581502Y10544576D01*
X9762576Y10363502D01*
X9904845Y10150581D01*
X10002842Y9913996D01*
X10052800Y9662839D01*
X10052800Y9406761D01*
X10002842Y9155604D01*
X9904845Y8919019D01*
X9762576Y8706098D01*
X9581502Y8525024D01*
X9368581Y8382755D01*
X9131996Y8284758D01*
X8880840Y8234800D01*
X8624760Y8234800D01*
X8373604Y8284758D01*
X8137019Y8382755D01*
X7924098Y8525024D01*
X7743024Y8706098D01*
X7600755Y8919019D01*
X7502758Y9155604D01*
X7452800Y9406761D01*
X7452800Y9662839D01*
X7502758Y9913996D01*
X7600755Y10150581D01*
X7743024Y10363502D01*
X7924098Y10544576D01*
X8137019Y10686845D01*
X8373604Y10784842D01*
X8624760Y10834800D01*
X8880840Y10834800D01*
X9131996Y10784842D01*
G37*
M02*
